<?xml version="1.0" encoding="UTF-8"?><svg xmlns="http://www.w3.org/2000/svg" viewBox="0 0 850.3937 850.3937"><defs><style>.cls-1,.cls-2{fill:#af6b2b;}.cls-3{fill:#d8d5d8;}.cls-4,.cls-5{fill:#c57486;}.cls-6,.cls-7,.cls-8,.cls-9{fill:#3c2f24;}.cls-10{fill:#3c3735;}.cls-11,.cls-12,.cls-13,.cls-14,.cls-15,.cls-16,.cls-5,.cls-2,.cls-17{stroke-width:2px;}.cls-11,.cls-13,.cls-5{stroke:#ba6d7e;}.cls-11,.cls-17{fill:none;}.cls-7,.cls-8,.cls-18,.cls-19,.cls-20,.cls-17{fill-rule:evenodd;}.cls-7,.cls-9{opacity:.4;}.cls-8{opacity:.75;}.cls-21{stroke:#cdb342;}.cls-21,.cls-15{fill:#fbd950;}.cls-18{fill:#a65822;stroke:#924e1c;}.cls-18,.cls-17{stroke-miterlimit:2.6131;}.cls-19{fill:#9db0db;}.cls-12{fill:#4b792e;stroke:#33551e;}.cls-13{fill:#f08ba2;}.cls-14{fill:#98c21d;}.cls-14,.cls-16{stroke:#71911a;}.cls-15{stroke:#ac9839;}.cls-16{fill:#d5de73;}.cls-2{stroke:#83501d;}.cls-20{fill:#ee7255;stroke:#f7aa53;}.cls-17{stroke:#4e586d;}</style></defs><g id="Calque_9"><path class="cls-9" d="m250.3141,823.2978c-10.3645,14.8176-70.1782,22.414-82.746,21.6532-21.2507-1.2865-30.3736-4.4474-57.6169-3.7518-38.8073.9908-142.4866-33.8084,27.096-62.0469l113.267,44.1455Z"/><path class="cls-12" d="m63.1224,736.1194c-10.8315-1.2682-17.5478-3.6657-24.8765-20.9069,0,0,15.527,1.5515,25.5732-1.3306,10.0734-2.8899,23.8623-4.2936,38.477,1.4862l-.7894,10.3837s-24.0362,12.0475-38.3843,10.3675Z"/><path class="cls-13" d="m105.5472,718.3884c-1.4817-5.7074,1.7813-14.2577,13.4099-22.6661,11.6286-8.4084,59.8303-5.8033,77.9627,28.1047,18.1323,33.908,13.5686,67.3316,9.2011,82.4015,0,0-41.0396,22.6505-74.2279,16.2908-33.1883-6.3597-59.5014-47.3709-55.0887-75.695s43.289-41.2273,78.6738-16.8631"/><path class="cls-4" d="m168.86,766.1c-5.6254,8.7875-11.7761,30.4553-12.6819,44.6462-54.5508-4.6933-70.1516-40.7278-79.6967-61.1488-2.39,28.15,23.29,66.76,55.41,72.92,13.23,2.54,27.71.46,40.33-2.95-2.06-11.95-9.5314-34.4674-3.3615-53.4674Z"/><path class="cls-4" d="m155.4815,729.9574c-14.1801-9.76-28.9301-13.54-41.78-12.73-2.82.17-5.54.56-8.14,1.16h-.01c-.86-3.29-.1299-7.54,2.8701-12.15,1.74.31,3.62.72,5.61,1.24,12.69,3.25,29.83,10.51,41.45,22.48Z"/><path class="cls-11" d="m118.9571,695.7223c-11.6286,8.4084-14.8916,16.9587-13.4099,22.6661"/><path class="cls-2" d="m108.28,717.08l-.65.88c-.7.13-1.39.27-2.08.4301-2.34.54-4.58,1.24-6.71,2.09-6.17-1.43-12.19-1.53-12.19-1.53,0,0-1.41-7.82,1.02-9.9,0,0,7.95-2.21,17.62,5.4.98.77,1.98,1.64,2.9901,2.6299Z"/><path class="cls-11" d="m155.4781,729.9612c-35.3848-24.3642-74.2611-11.4609-78.6738,16.8631s21.9003,69.3353,55.0887,75.695c33.1883,6.3597,74.2279-16.2908,74.2279-16.2908,4.3674-15.0699,8.9312-48.4935-9.2011-82.4015-18.1323-33.908-66.3341-36.5132-77.9627-28.1047"/><path class="cls-12" d="m272.1006,780.5382c3.5935,1.0281,14.1811,2.9451,25.1715-7.4623,0,0-11.156-6.6058-16.5187-13.1284-5.3627-6.5227-23.995-15.6478-34.1737-12.1863l.4317,12.7154,25.0891,20.0617Z"/><path class="cls-13" d="m248.3117,752.2868c1.1972-4.6112-11.2636-16.0067-22.493-17.6801-6.4615-.9629-33.4971-.8328-49.0458,17.5046-20.0918,23.6954-13.2481,58.97-9.7195,71.1457,0,0,33.1578,18.3004,59.9722,13.1621,26.8144-5.1383,48.0739-38.2732,44.5087-61.1575s-34.9752-33.3095-63.5642-13.6245"/><path class="cls-4" d="m248.6932,825.6384c-6.42,5.36-13.81,9.27-21.67,10.78-19.05,3.65-41.31-4.53-52.6-9.58-4.59-2.05-7.37-3.58-7.37-3.58-.4-1.37-.79-2.98-1.16-4.8-1.38-6.86-2.39-16.71-1.65-27.77,5.81,14.31,11.52,22.61,13.74,24.09,0,0,4.28,2.67,14.49,6,6.24,2.04,14.7,4.33,25.75,6.39,10.6,1.98,21.24.79,30.47-1.53Z"/><path class="cls-11" d="m248.3117,752.2868c1.1972-4.6112-11.2636-16.0067-22.493-17.6801-6.4615-.9629-33.4971-.8328-49.0458,17.5046-20.0918,23.6954-13.2481,58.97-9.7195,71.1457,0,0,33.1578,18.3004,59.9722,13.1621,26.8144-5.1383,48.0739-38.2732,44.5087-61.1575s-34.9752-33.3095-63.5642-13.6245"/></g><g id="Calque_3"><circle class="cls-16" cx="424.962" cy="157.693" r="92.5317"/><path class="cls-7" d="m501.3627,210.7762c6.9328-13.2122,10.8525-28.251,10.8525-44.2032,0-52.6213-42.6593-95.2806-95.2838-95.2806-19.8817,0-38.343,6.0909-53.6159,16.5079,16.3454-14.158,37.6702-22.7224,60.9971-22.7224,51.4902,0,93.22,41.7297,93.22,93.2102,0,19.4657-5.9674,37.5369-16.1699,52.488Z"/><path class="cls-14" d="m542.4066,137.9288c-8.1274-48.6641-45.7662-87.4022-93.964-96.9285-7.5945-1.4989-15.422-2.3317-23.4827-2.3317-13.3902,0-26.3807,2.265-38.4051,6.3621-6.9948,2.4315-13.6899,5.396-20.052,8.9932-1.0659.5331-2.1316,1.1993-3.131,1.7988-11.7246,7.0948-22.1836,16.188-30.7773,26.7802-12.624,15.4887-21.4509,34.3414-24.9483,54.8928-1.1326,6.5953-1.7321,13.2904-1.7321,20.1851,0,26.9469,9.0268,51.9285,24.2156,71.9138,21.7507,28.6123,56.1252,47.132,94.8302,47.132,65.7515,0,119.0456-53.3608,119.0456-119.1123,0-6.7618-.5331-13.3569-1.599-19.6856Zm-117.4466,111.5511c-29.8448,0-56.3586-14.2561-73.1462-36.3398-11.7248-15.422-18.653-34.6744-18.653-55.4592,0-5.296.4664-10.4921,1.3324-15.5551,2.698-15.855,9.4929-30.4109,19.2526-42.3353,6.6284-8.194,14.6557-15.189,23.7158-20.6848.766-.433,1.5988-.9327,2.4315-1.3658,4.8963-2.7645,10.0593-5.0628,15.4553-6.9281,9.2597-3.1644,19.2857-4.8965,29.6116-4.8965,6.2287,0,12.2576.6329,18.1198,1.7655,37.1727,7.3611,66.2179,37.2392,72.48,74.7783.7994,4.8963,1.2324,9.9593,1.2324,15.1555,0,50.7292-41.1029,91.8655-91.8322,91.8655Z"/><path class="cls-12" d="m557.6269,203.2118c4.6199.239,17.9222-.3983,28.2772-16.0105,0,0-15.2936-4.8589-23.5776-11.2312-8.284-6.3723-33.2954-12.1871-44.6063-5.1775l4.0624,15.2139,35.8444,17.2053Z"/><path class="cls-13" d="m529.3554,182.9295c.1593-5.8944-4.9442-13.4911-18.1668-19.0668-13.2226-5.5758-60.5371,2.2303-70.5735,39.3491-10.0364,37.1188,2.8675,74.2376,10.5143,87.9381,0,0,45.0842,12.8338,75.99-.8316,30.9058-13.6654,47.3145-59.5462,36.6409-86.1506s-51.4566-30.4279-80.4507,1.2745"/><path class="cls-4" d="m529.3496,182.929c-.8327,0-1.6654.0333-2.5315.0667-2.9977-4.7965-8.8934-9.7261-18.453-13.7565-8.9934-3.7973-31.61-2.2316-51.0291,8.4604,18.1867-15.0223,44.5338-17.7868,53.8603-13.823,13.2237,5.5625,18.3198,13.1568,18.1533,19.0525Z"/><path class="cls-4" d="m566.389,231.9596c-.2332-6.8616-1.4656-13.3569-3.7639-19.0861-6.4286-15.9882-22.1171-24.9816-40.4701-24.9816-7.7277,0-15.9884,1.6321-24.1822,4.9963,10.3923-6.7616,21.3508-9.926,31.3768-9.9593,15.6218-.0333,28.9453,7.6278,34.408,21.251,3.1975,7.9942,3.9638,17.7203,2.6313,27.7796Z"/><path class="cls-11" d="m529.3554,182.9295c.1593-5.8944-4.9442-13.4911-18.1668-19.0668-13.2226-5.5758-60.5371,2.2303-70.5735,39.3491-10.0364,37.1188,2.8675,74.2376,10.5143,87.9381,0,0,45.0842,12.8338,75.99-.8316,30.9058-13.6654,47.3145-59.5462,36.6409-86.1506s-51.4566-30.4279-80.4507,1.2745"/><path class="cls-21" d="m480.9127,274.5432l2.4184,5.4155-20.4509,9.132c-.6945-2.1497-.8929-4.3862-.6077-6.7136.2894-2.3274,1.3932-5.738,3.3031-10.2275,1.5378-3.6255,2.4101-6.0067,2.6168-7.1435.2646-1.5627.1323-2.931-.3927-4.1092-.5788-1.2981-1.3766-2.1455-2.3853-2.53-1.0128-.3886-2.1331-.3059-3.3651.2439-1.2195.5416-2.0257,1.3435-2.4143,2.3977-.3927,1.0542-.2646,2.4597.3845,4.2084l-6.0728,2.0133c-1.0872-3.3651-1.0294-6.1514.1736-8.3672,1.203-2.2117,3.1749-3.9314,5.9158-5.1551,3.0013-1.3394,5.7256-1.5833,8.1646-.7317,2.4391.8557,4.196,2.4845,5.2708,4.8947.6118,1.3684.9467,2.7822,1.0087,4.2415.062,1.4593-.1364,3.1046-.5994,4.936-.3018,1.2154-.9963,3.0757-2.0835,5.5892-1.0872,2.5093-1.7528,4.1505-2.0009,4.9236-.2439.7731-.401,1.4882-.4671,2.1538l11.5835-5.1716Z"/><path class="cls-21" d="m485.1459,268.9169l4.6797-4.1092c1.0542,1.1906,2.1703,1.8851,3.3568,2.0835,1.1823.2026,2.282-.0455,3.2948-.74,1.0872-.7441,1.7239-1.7818,1.9016-3.117.1819-1.3353-.2108-2.7036-1.1658-4.1051-.9095-1.327-1.9843-2.1331-3.2287-2.4225-1.2443-.2852-2.377-.0785-3.4023.6201-.678.463-1.3932,1.1451-2.1538,2.0505l-2.3564-4.6962c1.451-.9384,2.3274-1.9885,2.6292-3.1625.3018-1.1699.0827-2.2985-.6614-3.3857-.6366-.926-1.4138-1.4758-2.344-1.6495-.926-.1736-1.8438.0496-2.7574.6738-.9012.616-1.4593,1.4552-1.6701,2.5176-.2067,1.0624.0289,2.2406.711,3.5346l-5.4238,2.5011c-.802-1.8975-1.1989-3.5759-1.1989-5.0352s.4175-2.8938,1.2485-4.2952c.8309-1.4056,2.005-2.6251,3.518-3.6586,2.5879-1.7735,5.2295-2.3688,7.9249-1.7859,2.2117.4713,3.9025,1.5585,5.0641,3.2576,1.6536,2.4143,1.6495,5.246-.0083,8.4912,1.8107-.7441,3.5883-.8475,5.337-.3183,1.7487.5292,3.1914,1.6288,4.3283,3.2907,1.6536,2.4184,2.1786,5.0765,1.5792,7.9869-.6036,2.9062-2.2158,5.2584-4.845,7.0567-2.4887,1.7032-5.0435,2.3977-7.6603,2.0877-2.621-.3142-4.8533-1.5378-6.6971-3.671Z"/><path class="cls-21" d="m507.9573,252.2279l-4.3283-4.7004,9.2312-8.5036,4.3283,4.7004-9.2312,8.5036Z"/><path class="cls-21" d="m535.9114,226.2085l4.6053,3.7413-14.1176,17.3835c-1.5875-1.5999-2.7822-3.5056-3.5759-5.7132-.7937-2.2076-1.3518-5.7463-1.6743-10.6161-.2646-3.9273-.5664-6.4449-.8971-7.5528-.4671-1.513-1.203-2.6788-2.2034-3.4891-1.1038-.8971-2.1952-1.2898-3.2741-1.1782-1.0748.1116-2.0381.6904-2.8897,1.7363-.8433,1.0335-1.1989,2.1125-1.0707,3.2287.124,1.1203.8723,2.315,2.2448,3.5842l-4.5061,4.5391c-2.4928-2.5093-3.6999-5.0228-3.6297-7.5445.0744-2.5176,1.0583-4.9401,2.9475-7.2717,2.0753-2.5507,4.3944-3.9976,6.9534-4.3407,2.5631-.339,4.8657.3183,6.9162,1.9843,1.1617.9467,2.1042,2.0546,2.8153,3.3279.7152,1.2733,1.2815,2.8318,1.6991,4.6714.277,1.2237.4961,3.1997.6614,5.9282.1654,2.7326.3142,4.4978.4423,5.2957.1323.802.3183,1.513.554,2.1331l7.9993-9.8472Z"/><path class="cls-21" d="m550.9302,212.5498l-5.8661-3.2535-6.6144,11.9349-4.8905-2.7119-11.5008-22.9106,2.6003-4.6962,18.4955,10.2523,2.005-3.6172,4.9112,2.7243-2.005,3.6172,5.8661,3.2535-3.0013,5.4073Zm-10.7773-5.9736l-9.9629-5.523,6.2465,12.2242,3.7165-6.7012Z"/><path class="cls-12" d="m427.0416,209.4076c-12.5636.653-37.5118-8.9917-43.7344-11.8337-6.2227-2.842-32.1195-9.208-44.7767.5335,0,0,17.4876,20.1424,30.2116,25.1596,12.724,5.0172,33.873,6.9587,47.0572-1.8094,13.1842-8.7681,11.2423-12.05,11.2423-12.05Z"/><path class="cls-12" d="m406.1372,237.1249c7.4376-6.257,18.5349-14.2849,39.9032-11.3334,0,0-5.3126,10.1529-16.4099,12.8682-11.0973,2.7153-18.5349,1.6528-21.7224,0l-1.7709-1.5347Z"/><path class="cls-12" d="m455.4122,184.7679c-2.4909,5.48-22.1658-50.5447,33.9204-90.1744,0,0,2.2806,38.1184-2.8899,53.2315-5.1704,15.113-11.2553,16.2885-16.609,20.6545s-13.5819,14.4413-14.4215,16.2885Z"/><path class="cls-12" d="m490.7541,147.3088c1.5284-7.542,1.7381-24.5657,9.3067-33.2699,7.5686-8.7042,10.7731-8.8277,10.7731-8.8277,0,0-.8172,19.605-7.0315,28.2014-6.2143,8.5964-13.0483,13.8962-13.0483,13.8962Z"/><path class="cls-5" d="m389.5228,36.7905c-38.5125,7.2017-67.0832,36.4824-79.4004,55.2434l30.4992,27.666,48.4226-30.9455,2.6075-38.1781-2.1288-13.7859Z"/><path class="cls-12" d="m368.9131,12.8231c-14.123,26.93-27.2265,26.93-31.601,45.0246-2.5145,10.4011,3.1332,19.825,11.8572,23.4441.1891.0811.4052.162.5943.2432l12.6674,3.133,4.0514-3.2412c-.0541-.4861.162-1.6746.162-1.6746,0,0-.0811-.4321-.2161-1.1884-.027-.027-.027-.0539,0-.0809-.7832-4.5105-4.0904-19.9207-3.3762-23.5793,1.8472-9.4623,7.6535-12.2544,9.021-20.6351,2.2513-13.7969-3.1601-21.4455-3.1601-21.4455Z"/><path class="cls-2" d="m361.8714,84.6664c-6.3883-4.947-16.358-7.8348-16.358-7.8348,0,0,.6876-7.907,3.5753-9.2821,0,0,10.0129-.0651,17.7952,13.1343l-5.0125,3.9826Z"/><path class="cls-15" d="m465.1635,102.788c-1.7653,25.7145-18.7529,65.7849-25.8475,78.1758,0,0-14.6226,8.1274-52.3615,13.9231-37.7056,5.7957-64.9188-18.4532-76.9099-33.3088-11.9579-14.8891-14.9558-48.5643-7.1948-61.0884,7.7277-12.5241,25.6478-20.1184,37.006-20.2849,1.932-.0333,3.8639.0665,5.6625.2997.5995.0333,1.1659.1,1.7321.1998,8.2272,1.1659,14.6226,3.9638,14.6226,3.9638l4.9963-3.9971c-.0667-.5995-.1-1.2658-.1-2.0318,0-.4664,0-.9659.0333-1.4989-.0333-.0333-.0333-.0665,0-.0998.333-11.9913,5.9955-35.4073,19.4191-40.3702,14.989-5.496,33.3419-6.0956,47.5649,6.9614,14.2229,13.0903,33.1423,33.4422,31.3768,59.1564Z"/><path class="cls-20" d="m449.782,116.6209c-8.0517-1.8828-10.1683-10.7933-3.9426-16.1559.6584-.5671.2632-1.6408-.6058-1.6432-8.1168-.0225-12.3953-8.1713-6.783-15.2105.5986-.7507-.1077-1.77-1.0249-1.486-8.7075,2.6956-13.9869-1.8724-10.516-9.6996.3879-.8746-.5512-1.7128-1.3572-1.1973-8.5768,5.4855-18.1387,2.317-19.2133-4.1305-.1396-.8379-1.1648-1.079-1.6837-.4065-3.9981,5.1818-10.0054,4.9403-12.1308.1839-.3223-.7213-1.2935-.8307-1.677-.1399-3.3409,6.0183-14.9694,9.2961-18.73,6.3266-.5409-.4271-1.3502-.0133-1.4643.6664-.8608,5.1294,2.2944,11.6074,2.491,14.1327.0587.7536-2.0679,2.8542-3.0552,2.6123-3.5352-.8663-13.7509-4.0114-17.3848-4.647-.5909-.1033-1.081.2693-1.1205.8678-.1967,2.9836-5.6121,8.4493-13.1761,7.8343-.8431-.0686-1.4223.8811-.8638,1.5163,3.754,4.2694,2.4198,10.9401-3.4292,12.2817-.8306.1905-1.0676,1.1716-.4051,1.7076,3.9737,3.2152.7554,9.5271-5.394,12.333-.8264.3771-.7176,1.5656.167,1.7721,8.1099,1.893,8.9446,9.4073,1.3726,14.1882-.8024.5066-.4852,1.7086.4631,1.7441,9.3706.3502,13.7936,8.386,8.6556,15.6021-.526.7387.1766,1.702,1.0439,1.437,8.3484-2.551,13.9376,4.2497,13.2759,11.1107-.0761.7893.7639,1.3796,1.4169.9296,6.1717-4.2526,19.4561-1.389,20.3072,6.201.0943.8408,1.0892,1.1644,1.6433.5251,8.2465-9.5129,25.348-3.3648,31.9453,2.6973.5851.5377,1.5606.234,1.6123-.5589.5462-8.3717,14.8226-19.2856,22.337-18.8826.7229.0388,1.1618-.6598.8877-1.3298-2.3038-5.6332,4.2448-17.009,11.7019-18.5262.7619-.155,1.1349-1.0777.5519-1.5921-5.1428-4.5378-3.7649-15.2201,4.3092-19.3238.7764-.3946.6231-1.5417-.2249-1.74Z"/><path id="path902" class="cls-19" d="m350.2877,98.1514c-10.4388,20.9401-1.9263,46.371,19.0088,56.807,20.9356,10.4363,46.3718,1.9289,56.8105-19.0116,10.4383-20.9396,1.9213-46.3738-19.014-56.8099-20.9354-10.4361-46.367-1.925-56.8052,19.0146Z"/><path id="path902-2" class="cls-19" d="m350.2877,98.1514c-10.4388,20.9401-1.9263,46.371,19.0088,56.807,20.9356,10.4363,46.3718,1.9289,56.8105-19.0116,10.4383-20.9396,1.9213-46.3738-19.014-56.8099-20.9354-10.4361-46.367-1.925-56.8052,19.0146Z"/><path id="path904" class="cls-18" d="m350.9975,98.6319c-5.1776,10.3866-5.5885,21.8978-2.0726,32.0604l2.333-1.7559,2.7976.3036.4846-4.1623,1.6692.1475.9649-.7395.2034-1.3514-1.6685-1.9036-.1173-2.1571.8229-6.8351,1.709-2.0991-.0879-2.349.0611-1.997-1.0804-.997-1.1184.4756-.2122-1.9267-1.7885-.8657.2451-.7044,1.6227-1.1282.37-3.1346,3.3729-3.5361-.9962-1.5234-.7878-1.9422-1.4327.0157c-2.0324,2.4344-3.8171,5.1433-5.2938,8.1055h0Zm7.1296-10.1546c.4848-.5078.9764-1.0083,1.4839-1.488.876-.8285,1.7921-1.6093,2.7299-2.3525l2.2259-1.6474.6676.4685,3.0753-.5461,1.2278-.8153,3.5788-1.9419.8042.8855-.0357,1.2152,2.0306.3926,1.7248-1.4262,5.3429-2.4634,3.5985-.9182,3.081.6385,3.108-.4394,1.806.7775,2.6819-.1159,1.7557-1.0493,1.8263.2712,1.7032,1.0361,1.8839,2.0434,3.4603,3.294,2.5254.2645,3.1383,1.9325.6576.9541-.0553.8956-4.3909-.9359.8412,1.1039,2.5316.5579-.539,1.294-1.0523.4761.9953,3.8924,2.0405,2.1281.543,1.7818,2.779,1.6435,1.2138,1.6057-.5776,1.1586-4.2805-.7584-1.8601.222-1.092.9538-1.5334.8566-2.7375,1.2508.7138,3.5263-1.1267,2.2603-2.897,2.2622.4986,1.1267,6.2896-1.6237.2095-1.4841.6343-1.2724,1.9809.6386.7152,3.1784-1.6913,3.619-.5979,1.6649.1574,1.0666-1.1943,1.8906-1.4926-.8344-.6843-1.6844-6.154-.7754.4251,1.6194,3.8213,1.2008,3.124,1.1634,2.8754-1.1816.5278-2.4943-.0204-1.2756.9939-.5184,1.1852.9722,1.8123,3.822.4104,2.3803,2.0957,5.9782,2.0851,4.1391.2186,5.6366-.3755,1.0591c-1.2485,1.7094-2.613,3.3043-4.0758,4.7739l-3.591,1.5806-.9311-.206-2.9022.2255-1.426-1.7119-2.4546-.7522-4.5184.5566-6.0469.2465-1.5396,1.2666-3.9754,2.5512-1.767-.377-1.8573.6819-3.0201-1.0666-.6578-.741-1.0842.0213-1.1593-.9976-2.7994-3.6232-.2284-2.1609.765-1.1489.4208-1.6952-.5468-2.0806.6899-1.7289.2749-1.2962,3.8005-3.3167,1.8764-1.9961,1.0012-.1209.6108.7954,1.1412.7946,1.3383-.5983,3.8159-2.6827,1.9135,2.5424.9599-2.5241-.4884-4.3242-.1992-2.8438-.6534-1.9593-2.7536,2.3337-1.1303.1403-.783-1.9785,1.4828-2.2572-6.0778,1.9037,1.0965,6.0418,1.9794,1.187-.0585,2.2178-1.3647.6239-2.9084-2.1277-2.2171.3797-.5891,1.5143-.1717,1.3543-.7748,1.6608.0646,1.6916-1.2576,1.3315-1.0011-.1055-2.9474-3.1932-.853-.07-.2847-1.556-.2152-2.3995.9828-.5627.2078-2.5439,2.6293-.7817,5.3412-4.6794-3.249-2.5882-.5019-2.5425-1.1421-1.1119-2.4036-.6818.0245.9874,2.0416,2.0055-.4925.9879.9116-.1139.7159,1.6743-.1815,1.1621-.625.0436-1.5666-.4066-.9699,1.2275-1.3308-.5339-.2102-.841-.9372-1.6426.3118-2.2338-.6455-3.531.693-2.3603.948-1.7422,1.2424-.485,1.0409-.5596-1.2747-1.1651.5838-1.0781-1.7333-1.5482.7451-.3777-1.4811-1.4424.2205-2.5826,1.4624-.4077-2.1328-4.6146-1.6185-1.8982-1.284.9939-2.4874-.6332-.705-.2607-2.3296.9112-1.5157.8072-2.6749,1.8433-.8812-2.0341-1.0985-2.5929h0Zm1.42,19.9895l2.6465-4.9766.9288.037,1.352-.8113,1.4166,7.2341-.9969,1.1753-3.6559,5.0739-1.8831,3.0196-.8335.0105-1.1066-3.0309,1.1964-2.1739.0952-1.7993.693-.7651.1475-2.9933h0Zm9.4763,45.4751c.1952.1011.3864.2055.5839.304,2.82,1.4058,5.7246,2.4549,8.6618,3.1748l-.7091-3.5756-2.5224-.6827-2.6327.7346-3.3816.0449h0Zm23.2988-45.1833c-.1183.2547-.2039.5854-.2552.9641.6119,1.7128,2.009.5992,3.4043.9608l.9341.2266c.5756.2332,1.1653,1.1137,1.721.509.3051-.4693.4744-.9805.4781-1.5435-.7204-.5587-1.5571-.7532-2.3732-1.0086-1.0247.1434-2.9694.5786-2.6972-.5183-.5349-.3626-.9512-.1511-1.2119.4098h0Zm30.6643,17.7265l-.6643,3.4464.9543,1.9673,1.0401.4927,1.4448-.7713.2264-1.8372-1.157-3.5149-1.2545-.5545-.5897.7716Z"/><path class="cls-8" d="m428.5144,121.4128c.8744-3.8296,1.306-7.792,1.3392-11.8872-.3984-2.4461-1.0736-4.8368-1.9148-7.1501l-.1992.0332c.7416,6.0433.4317,11.9205-.6751,17.4546-3.7189-4.0288-8.7217-7.3825-14.3666-10.1717,2.1141-8.3897,1.1401-15.7058-1.6159-21.7158,4.062,1.14,8.1573,2.9552,12.2193,5.6669l.1107-.1328c-.7416-1.1401-1.5496-2.2136-2.4239-3.2873-3.6526-2.0476-7.3161-3.4311-10.9465-4.2945-1.771-3.2319-4.0288-6.0432-6.6077-8.4007-1.3503-.5313-2.7227-.974-4.0952-1.3393l-.0996.1328c3.8185,2.7228,6.6077,5.8108,8.6221,9.0981-8.9652-1.6824-17.5873-.2657-24.8813,2.1804-.7637-1.1732-1.6049-2.2468-2.6785-3.1212-1.0737-.8412-2.3133-1.4721-3.6304-1.8816,3.4644-3.088,7.8585-5.9768,13.3593-7.482l-.0996-.4096c-1.3725-.0332-2.745-.0332-4.1285.0443-4.5269,1.8705-8.1904,4.5933-11.1789,7.3493-3.2541-.476-6.8845.1992-10.4373,1.9148.1328-.6087.2656-1.2507.4316-1.948l-.1992-.0332c-.6419.3652-1.2064.808-1.8151,1.306-.1328.6087-.2657,1.1732-.3653,1.7487-2.8224,1.6381-5.4788,3.9624-7.792,6.8512-.7084.8965-1.3393,1.8374-1.948,2.7781-.0996-.0332-.166-.0332-.2325-.0664-.332.5092-.642,1.0072-.9408,1.5496.0996,0,.166.0664.2324.0664-2.3465,4.2945-3.4533,8.9652-3.1212,13.1269-.8411,1.1401-1.6381,2.3797-2.4129,3.6968-.0996.7305-.1328,1.4389-.166,2.1804l.6641.3653c.7748-1.3393,1.5163-2.6232,2.3243-3.7964.6641,2.7891,2.0144,5.1024,4.0288,6.7516-.7748,3.2541-1.3503,6.652-1.3835,9.906-.0332,5.8108,1.7488,11.046,3.4976,14.8093q0,.0332.0332.0664c1.306,1.6713,2.7781,3.2541,4.3609,4.7261l.1992-.166c-.0332,0-.2656-.332-.6309-.9408,2.9884.8412,5.9769,1.2397,8.9653,1.2397,2.5124,0,5.036-.2989,7.4821-.8301,3.3536,4.2944,7.6923,8.124,13.3593,11.3449-.2657.0332-.4981.1328-.7748.166l.1107.5092c2.1472,0,4.3277-.1771,6.4417-.5092,7.792-2.4793,14.599-6.7184,20.0777-12.1197.8744.4317,1.7156.8412,2.5124,1.1732.3431-.2988.6752-.5977,1.0072-1.0072l.1328-.332c-.7637-.3431-1.5717-.7416-2.4129-1.1401,5.7444-6.0764,9.906-13.5364,12.1197-21.8597.5091.6751,1.0072,1.306,1.4167,2.0144l.2989-.166c.166-.642.2656-1.3061.3653-1.948-.4649-.7416-.974-1.4499-1.5385-2.1141Zm-19.5132-33.9794c3.3979,6.818,3.6636,14.3333,2.0144,21.4502-8.4229-3.9292-17.8862-6.6409-26.287-8.4229.4759-2.114.6419-4.2281.4427-6.3089-.1771-1.8151-.6419-3.4975-1.3503-5.0028,7.4268-2.4572,16.1153-3.73,25.1801-1.7156Zm1.5495,23.199c-.9739,3.5308-2.3465,6.9176-4.062,10.0389-2.3132,4.2281-5.3016,8.2569-8.7992,11.8208-7.1832-6.1761-14.3333-13.2265-20.1441-19.2033.5423-.5756,1.0404-1.1401,1.5495-1.7488,2.4461-2.8556,4.1949-6.0433,5.1688-9.3305,8.2901,1.782,17.853,4.4937,26.287,8.4229Zm-60.3659-.7084c1.6049-2.1472,3.4312-4.0509,5.844-5.9436l-.2657-1.959c-2.3243,1.7266-4.1173,3.4311-5.6779,5.2574.1328-3.3979,1.2396-7.0505,3.1876-10.5148,1.1733.4538,2.435,1.0072,3.4533,1.4942l.8633-1.5163c-1.1954-.5202-2.3465-1.0515-3.409-1.4499.4981-.7748,1.0404-1.5496,1.6049-2.28,1.8484-2.3244,3.9292-4.2059,6.0875-5.678-.2435,2.0255-.2989,3.73-.2435,5.4788l1.7156-.819c-.0332-1.8152.0664-3.5862.4317-5.8662,2.922-1.6159,5.9436-2.4903,8.7328-2.4903.166,0,.3321.0332.5092.0332-2.9552,3.0438-5.0582,6.0322-6.3089,7.947l1.616.6531c1.3614-2.0366,3.6193-5.191,6.8069-8.3233,1.5053.332,2.922.9408,4.0952,1.8816.8412.6641,1.5053,1.472,2.0808,2.3796-4.5158,1.6713-8.5335,3.6636-11.7212,5.5673l.4759,1.6713c3.243-1.9369,7.4157-4.0288,12.1529-5.7666.6309,1.3835,1.1068,2.9552,1.2396,4.6376.1992,1.9148.0332,3.8628-.3984,5.8108-5.0471-1.0293-9.6404-1.6935-13.1933-2.0697l-.5534,1.6824c3.3425.3652,8.0023,1.0403,13.2708,2.0918-.9408,3.0217-2.5457,5.9769-4.8036,8.6-.4648.5645-.974,1.0404-1.4389,1.5717-3.6857-3.8628-6.7627-7.1943-8.7549-9.3969l-1.1622,1.2839c2.0144,2.2247,5.0693,5.5341,8.7439,9.3637-2.8224,2.6785-6.0764,4.5601-9.3083,5.5673-.5313-3.0217-1.0404-6.0433-1.5053-9.0981-.1992-1.2839-.4095-2.5789-.6309-3.8517l-1.6381.6641c.1881,1.1511.3653,2.3133.5534,3.4976.5092,2.9773.974,6.0764,1.5827,9.1644-3.4975.7305-6.7848.332-9.3969-1.3835.9187-3.5861,2.2247-7.4046,3.8407-11.1678l-1.5164-.8634c-.8301,1.9591-2.4903,6.0986-3.7742,10.9243-1.7156-1.7156-2.8224-3.9956-3.1876-6.7848Zm7.4489,34.8206c-1.8815-3.4865-4.4604-9.5297-4.4273-16.2481.0332-2.59.4649-5.6116,1.2065-8.8656,1.9812,1.1732,4.2281,1.7488,6.652,1.7488,1.14,0,2.3132-.166,3.4864-.4095,1.7488,8.6996,4.4052,17.3992,9.7732,24.9145-5.4455,1.0404-11.0793.7748-16.6909-1.14Zm8.5668-24.173c3.5197-1.0404,7.0504-3.1212,10.1384-6.0764,5.8108,5.9769,12.9609,12.9941,20.1441,19.2034-5.8108,5.6116-12.8612,9.906-20.4098,11.7544-5.4455-7.3604-8.0908-15.9825-9.8728-24.8814Zm25.0141,37.5323c-5.9769-3.0881-10.5148-6.8845-14.0013-11.1457,7.6149-2.0476,14.7318-6.4749,20.5758-12.1529,5.3016,4.5048,10.5812,8.4229,15.2741,11.1124-5.8772,5.7112-13.3261,9.9392-21.8486,12.1861Zm23.0662-13.459c-4.704-2.5899-9.9393-6.5191-15.2852-11.046,3.5639-3.6636,6.6188-7.792,8.9984-12.1197,1.9148-3.4975,3.2651-6.8512,4.1949-10.072,5.7776,2.8556,10.8801,6.3421,14.4772,10.5037-2.0808,8.7328-6.4196,16.4916-12.3853,22.7341Z"/><path class="cls-7" d="m422.8217,140.8114c3.1236-5.9529,4.8897-12.7289,4.8897-19.9163,0-23.7092-19.2207-42.9299-42.9313-42.9299-8.9579,0-17.2759,2.7443-24.1573,7.4379,7.3646-6.3791,16.9728-10.2379,27.483-10.2379,23.1996,0,42.0014,18.8019,42.0014,41.997,0,8.7705-2.6887,16.9127-7.2856,23.6491Z"/><path id="path902-3" class="cls-17" d="m350.2877,98.1514c-10.4388,20.9401-1.9263,46.371,19.0088,56.807,20.9356,10.4363,46.3718,1.9289,56.8105-19.0116,10.4383-20.9396,1.9213-46.3738-19.014-56.8099-20.9354-10.4361-46.367-1.925-56.8052,19.0146Z"/><path class="cls-6" d="m504.4518,105.6104c1.0174-.3342,9.8388-6.3556,17.2291-11.7272.3549-.2532.6512-.4438,1.006-.697,4.3737-3.2209,8.1567-6.0002,9.2722-7.0635l.2925-.3115c.0906-.9702-3.0455-4.5608-3.9518-4.5323l-.1209.0038c-.7759.327-4.6265,2.8663-9.2497,5.8536-.3549.2529-.7116.4457-1.0665.6985-6.5766,4.3182-14.1558,9.454-16.2208,11.0911-1.4195,1.0119-1.3306,1.9163.5084,4.6404,1.267,1.8348,1.7032,2.2445,2.3015,2.0441Zm-1.3163-3.4055c-.57-.8288-1.0761-1.5385-1.0799-1.6591-.0019-.0605,1.0022-.8176,2.2464-1.6427.1772-.1266.3549-.2532.6512-.4438,1.0646-.759,3.0185-2.0903,5.3291-3.614,1.7158-1.2028,3.611-2.4717,5.5649-3.8026.9474-.6346,1.8953-1.2689,2.8427-1.9036.8874-.6324,1.7743-1.2648,2.605-1.7747,1.6576-1.1404,3.0789-2.0922,4.0869-2.7284.7116-.4457,1.1855-.7628,1.4233-.8913l1.599-1.078,1.0742,1.478c.189.2358.3776.4716.4438.6512.1285.2377.2529.3549.2586.5363.1285.2377.1342.4188.0775.5416l-.1171.1247c-.6493.5039-4.1394,2.9718-8.2205,5.8815-.3549.2529-.7097.5061-1.0646.759-1.2422.8856-2.5449,1.7728-3.8453,2.7208-.1795.0662-.2982.1304-.4153.2548-1.4195,1.0123-2.8389,2.0241-4.1416,2.9117-.887.6324-1.7158,1.2028-2.486,1.7108-.6493.5039-1.3004.9476-1.8348,1.267-1.006.6966-1.7762,1.2047-2.0725,1.3952-.8892.5723-1.6632.9594-1.8443.965-.0019-.0605-.5099-.8307-1.0803-1.6594Z"/><path class="cls-6" d="m536.6151,159.0735c.6438-.0575,1.3456-.1102,1.9894-.1681,6.4963-.5722,13.3694-1.4589,14.1126-1.9723.6807-.4606.8007-1.7854.2923-3.8633-.3303-1.4814-.5035-2.1357-1.6549-2.24l.0052-.0576c-.2934.0315-.5813.0054-.9268-.0259-.9893.0262-2.455.184-4.6851.4461-2.9367.3728-6.2189.7139-9.1399.9138-.2931.0312-.6438.0575-.9369.0891-2.1099.2152-3.9788.3361-5.2035.3995-3.7273.1264-6.0943-2.5846-5.7342-6.558.3392-3.7429,2.0455-5.2722,7.0654-6.2106,1.1202-.1887,2.4815-.4718,4.0149-.7393.1153.0104.2934-.0315.4712-.0732,4.5962-.7447,10.0717-1.5841,11.527-1.6262.5809-.0055,1.0522-.079,1.5286-.2098l.1149.0104c.4712-.0735.8952-.2672,1.0939-.5394.8689-.6179.9733-1.7697.6327-3.7747-.2675-1.5338-.6761-2.1513-2.414-2.1926-.3455-.0313-.6962-.0053-.9841-.0314l-.0576-.0052c-.9949.0842-2.2877.2573-3.9316.4566-1.879.2362-4.5854.6295-7.2343,1.0283-.5285.068-1.0626.1939-1.5914.2619-1.2352.1786-2.3554.3673-3.3604.5665-5.8943.9754-6.7266,1.1902-8.2811,2.3268-2.2296,1.5396-3.0721,2.5083-4.0243,4.6864-1.8101,3.9579-1.2851,9.6955,1.25,14.3955,1.6863,3.172,3.6393,4.6842,6.5606,5.1233,1.2042.1672,5.1093-.0015,9.5013-.4164Zm-11.1299-1.4728c-.5548-.2827-.9947-.5547-1.4763-1.0048-.2149-.1935-.4295-.3873-.5815-.6331-1.3612-1.6329-2.8806-4.7317-3.3576-7.1552-.8281-4.3136-.0649-8.2505,2.07-10.6697.4553-.5392.9526-.9006,1.3923-1.2672.2511-.2094.4973-.3614.8008-.5079,1.4027-.7439,3.3605-1.205,7.14-1.9076.7067-.1103,1.4133-.2203,2.2349-.3201.4764-.1308.9477-.2043,1.4189-.2779l.0573.0052c3.1777-.4665,6.6481-.9649,9.3546-1.3582.2931-.0316.5914-.1208.8272-.1575.9893-.0262,1.7536-.1313,2.345-.2521.2306.0209.466-.0155.6389.0001.1202-.0472.2354-.0368.3507-.0263.0629-.0524.1778-.042.1778-.042.1729.0157.2826.0837.3351.1466.2202.1358.3614.497.4141,1.1984.0888.2986.1151.6493.1363,1.0577l.1366,1.0574-5.1146.6974c-1.1723.1262-2.3502.3097-3.5281.4932-.7643.1051-1.5338.2675-2.2981.3725-1.1779.1835-2.2405.3774-3.303.5713-.649.1155-1.2352.1783-1.8269.299-3.1302.5874-5.4439,1.1321-6.2919,1.5198-2.1197.9691-3.3496,2.3673-3.9301,4.2885l-.0052.0576c-.5806,1.9215-.6323,3.7748-.1398,5.3867.0892.2987.2304.6598.3773.9633.2933.607.7068,1.1672,1.1835,1.6746.4767.5078,1.0159.9631,1.6755,1.3712.4976.2772.8222.5391,1.1624.628.7798.3609,1.5337.3711,3.9262.2396.9893-.0266,2.8005-.1527,4.8528-.3731,1.6959-.1365,3.6329-.3675,5.3917-.5564,3.7534-.4146,7.4488-.8345,8.1454-.8295l1.2824-.0578.1942,1.7012c.1258,1.1726.0737,1.7484-.1722,1.9004-.0052.0576-.1205.0472-.3559.084-.3507.0263-.8271.1571-1.5286.2098-.0576-.0052-.1149-.0104-.2354.0368-.4136.0784-.8796.0943-1.4081.1626-2.1099.2152-4.9261.5405-8.0353.8973-1.1727.1262-2.2877.2573-3.2822.3415-1.3456.1102-2.5182.236-3.5128.3202-.8219.0995-1.5234.1522-2.1043.1576-2.9787.1946-4.4131.0065-5.5336-.4434Z"/><path class="cls-6" d="m526.7669,129.6723c2.2873-1.0671,4.343-3.4404,4.7292-5.3635.2269-1.0483.4141-1.275.8755-1.0762.1147.0644.2291.1284.4026.1956.6345.266,1.5713.3694,2.4517.4116l.0588.0028c1.1183-.005,2.1248-.1335,2.9049-.4492,1.3171-.4667,2.472-1.2349,3.3387-2.1352,1.7284-1.6825,2.663-3.9917,2.8008-6.8685.0368-1.9988-.1532-2.9496-1.7233-7.0263-.9358-2.5752-2.3049-5.9361-2.9391-7.4376-1.0618-2.4048-1.4919-3.249-3.8126-2.7129-.1204.0531-.2403.1063-.4167.0978-1.194.3544-2.7571,1.0446-5.0971,1.9917-1.3228.5842-2.9418,1.2128-4.6249,1.9561-.1791.05-.3607.1591-.5398.2094-7.5688,3.227-17.4897,7.6361-17.9792,8.0246-.2431.1647-.4335.4497-.4363.5085-.0056.1175,1.6316,4.0211,3.6405,8.766,2.6431,6.2464,3.9899,8.8413,4.7782,9.5855,2.5912,2.4188,7.9756,3.0298,11.5881,1.3197Zm-10.1957-2.1359c-.8495-.6879-1.8751-2.6201-4.5741-8.9282-2.4868-5.8273-3.3192-8.1034-3.0116-8.3828.0616-.056.3607-.1594.7242-.3773.1819-.1091.481-.2122.7242-.3773.8417-.3716,2.1057-.9583,3.5457-1.5366.4223-.215.9033-.4276,1.4428-.637,1.5659-.7489,3.3666-1.4866,5.1672-2.2239.7802-.3161,1.4431-.6374,2.2229-.9531.9621-.4244,2.0441-.9024,3.003-1.2684.1204-.0531.2407-.1059.3607-.1591.3611-.1594.663-.3213,1.0208-.422,5.1644-2.1652,9.4842-3.9002,9.778-3.8862.4694.0225,2.5399,4.7114,4.6632,10.7566,1.1984,3.2353,1.2906,3.7691,1.0131,5.8742-.3109,2.8099-1.4077,4.8169-3.2365,6.1415-.3047.221-.6067.3829-.9061.4864-.7214.3185-1.4343.4607-2.9021.3904l-.411-.0197c-1.8869.0863-2.1751-.0453-3.0162-.9095l-.056-.0612c-.4473-.4923-1.0762-.8755-1.2581-.7664-.1787.05-.4669,1.1543-.6407,2.3229-.5294,3.682-2.7526,5.8705-6.6671,6.507-2.3679.2982-5.3985-.3175-6.9863-1.5705Z"/><path class="cls-6" d="m539.6057,113.669c.0521-1.0868-.4444-2.5484-1.7869-5.4446-.9847-2.182-2.0669-4.151-2.4064-4.3417-.6746-.4679-4.1732.7152-6.9498,2.2815-.9398.5214-1.6687,1.1835-1.6812,1.4443s.8357,2.5672,1.8494,5.0556c2.1513,5.1137,2.8528,5.9315,5.2913,5.9611,2.9145.096,5.596-2.2155,5.6836-4.9562Zm-9.5505-1.6337c-.8565-2.1326-1.5536-3.9522-1.5473-4.0827.0146-.3043,5.3539-2.619,6.0058-2.5878s3.7551,7.1073,3.6947,8.3681c-.0895,1.8692-2.2572,3.4646-4.5613,3.3543-1.5213-.0729-1.7241-.3876-3.5919-5.0518Z"/><path class="cls-6" d="m524.6281,124.1368c1.5576-1.2417,2.5488-2.9618,2.6246-4.544.0644-1.3446-3.8041-10.7439-4.5592-11.0747-.5524-.2458-7.3853,2.6487-8.362,3.5421-.3339.2974-.6095.6853-.6176.8542-.0138.2877,3.1683,8.5761,3.7448,9.757.5539,1.1297,2.1034,2.0188,3.9598,2.2581,1.7317.2271,2.0169.1593,3.2096-.7927Zm-4.6105-1.2363c-1.0189-.5816-1.4175-1.2902-2.8682-5.0265-.9261-2.3887-1.6799-4.4493-1.6736-4.5807.0132-.2751,4.9118-2.6982,6.0289-2.9894.6662-.1687.9505.3088,2.606,4.3495,1.7722,4.3534,1.8293,4.6006,1.3718,5.9076-.5439,1.541-2.349,3.1093-3.5122,3.0536-.4253-.0204-1.3061-.3446-1.9528-.7141Z"/><path class="cls-6" d="m500.1251,95.7269c.2862-1.1267.8031-3.3185,1.1818-4.8596.3824-1.4829.8758-4.0824,1.0703-5.7884.3835-2.4762.5316-2.9523,1.0074-2.8042,3.8213,1.4166,6.048,1.5226,7.855.4252.1133-.0646.2262-.1296.3361-.2529.3428-.1367.7371-.3929,1.0182-.5842,2.7984-2.1477,4.6083-5.2319,4.9034-8.2291l-.0033-.0583c.1462-1.5274-.119-3.0901-.8365-4.3928-.5229-.9636-5.1339-5.9578-8.7942-9.663-1.8613-1.8797-3.4111-3.4271-4.1468-4.0275-2.0838-1.6918-3.0708-1.5766-5.1734.4726-.055.0616-.1099.1229-.1649.1846-.2778.2499-.8303.8074-1.547,1.5497-.7754.7457-1.7702,1.738-2.8716,2.9116-.055.0616-.1649.1846-.2198.2462-.3873.3728-.7717.804-1.1593,1.1769-1.2146,1.2385-2.5388,2.6-3.8081,3.9002-.1615.2429-.3843.4312-.6038.6774-4.0862,4.1498-7.8872,8.1665-8.7725,9.0356-.9365.9886-1.6368,2.0225-1.6134,2.4299.0502.8738,3.2214,4.1977,3.9786,4.1542.2328-.0134,2.507-2.1306,4.9908-4.6693,2.4805-2.5967,4.5801-4.7039,4.7547-4.7139.3498-.0201,3.4972,2.8961,4.3213,4.0175.3179.4493.5979,1.2511.628,1.7754.1003,1.7472-.6288,6.3473-1.824,10.9737l-1.2086,4.3936,2.6483,2.3606c3.0178,2.6903,3.3639,2.612,4.0534-.6415Zm-5.0361-2.2238l1.0537-4.0341c2.1179-7.8933,2.3598-11.8227.8549-13.6062-1.5665-1.8382-4.9504-4.7996-5.4748-4.7695-.6406.0368-1.2477.6562-6.2122,5.7913l-3.527,3.7089-1.1052-.9298c-.6158-.5492-1.1186-1.163-1.1286-1.3379-.0033-.0579.0483-.1779.2128-.3628.1615-.2429.3227-.4858.5975-.794.1645-.1846.3294-.3695.4906-.6124.3327-.3112.6621-.6807.9881-1.1086.2232-.1883.4426-.4345.6042-.6774,2.8578-3.1444,7.318-7.9002,11.1844-11.8038.6621-.6807,1.2659-1.3581,1.8767-1.9193.2744-.3079.4972-.4958.7137-.8007.9982-.9336,1.8248-1.7993,2.5452-2.4834,1.218-1.1802,2.0513-1.9293,2.2228-1.9976l.1166-.0067c.1162-.0067.2362.0449.4141.0932.0616.0546.1816.1062.3595.1545.1266.1682.3695.3294.6711.4875,1.3447,1.0331,3.5139,3.1872,6.873,6.7343,6.0308,6.3154,6.3524,6.8227,6.4895,9.2108.0468.8155-.023,1.6373-.2123,2.4079-.0865.531-.2892,1.0684-.4957,1.5479.0033.0583-.055.0616-.055.0616-.2577.599-.577,1.1434-.8997,1.6296-.055.0613-.1099.1229-.1099.1229-.3227.4861-.707.9173-1.1526,1.2935-.1099.1233-.2778.2496-.3877.3729-.6655.6224-1.3409,1.0703-1.9652,1.3983-1.8749.9259-3.8138.7451-6.8679-.5404-1.3146-.5087-2.0269-.7018-2.3017-.3939-.1645.1849-.3787,1.5411-.5249,3.0689-.0909,1.4661-.4714,4.0007-.8468,5.6001-.3724,1.6574-.8792,4.0241-1.1584,5.2674l-.3972,2.2434-3.4456-3.0164Z"/><path class="cls-6" d="m510.347,75.924c1.1811-1.2794,1.5358-2.641,1.0991-4.2168-.2775-1.0657-8.9346-10.1738-9.8071-10.2966-.2637-.0715-1.912,1.3644-3.6697,3.1528-1.7145,1.7859-3.1346,3.425-3.1247,3.5977.0124.2156.3844.6701.8406,1.0764.4991.4042,2.2899,2.205,4.0352,3.9652,1.7477,1.8033,3.6629,3.5105,4.2889,3.864,2.4535,1.2867,4.4246.9572,6.3377-1.1427Zm-5.5016-.1169c-.5323-.229-2.4931-1.9768-4.3296-3.8184-1.8387-1.8845-3.4091-3.6117-3.4646-3.8247-.1009-.2538.9103-1.4801,2.1778-2.7642l2.3343-2.2974,3.8069,3.7618c2.1076,2.0423,4.05,4.2239,4.3434,4.8126,1.4624,2.8583-1.7578,5.5525-4.8682,4.1303Z"/><path class="cls-6" d="m358.8705,225.5272c.0833-.1511.0101-.2566-.0574-.4907-.3439-1.0421-5.57-7.2672-9.5848-11.6439-.1459-.2117-.2689-.3451-.3419-.451-1.8983-2.0297-3.4544-3.6091-3.9573-3.8863-.4529-.2496-1.0113-.4261-1.2456-.3583-1.2381.1046-4.4206,2.5476-9.9539,7.8271-.6396.5657-1.3346,1.2319-2.0297,1.8983-1.6016,1.4782-3.3699,3.258-5.2712,5.1614-4.7098,4.6186-5.9264,6.112-5.8949,7.2446.068.234,1.6035,2.3264,3.5693,4.5903,1.8654,2.2085,4.7057,5.7414,6.3192,7.8115,3.1043,4.0061,3.2276,4.1397,3.9246,4.0648.7199.0033,3.1623-1.9298,3.6563-2.707.7207-1.3076-.1713-2.7831-4.9048-8.4742l-4.6552-5.7139,2.0802-1.8701c1.1234-1.0861,2.1078-1.9209,2.1859-1.9435.1838-.0952,4.8041,5.2056,7.1016,8.177,1.9606,2.3923,2.3301,2.7925,3.0778,2.7454.7473-.0472,3.3458-2.0252,4.2403-3.1717.1055-.0731.161-.1738.2164-.2742.4159-.7547-.3353-1.89-4.8953-7.4202-2.2798-2.7647-4.2404-5.1571-4.263-5.2352-.073-.1059.8161-1.1241,1.9395-2.2102.0781-.0226.1334-.123.2115-.1456,2.0575-1.9486,2.3471-2.1168,3.0011-1.7564.4022.2217,2.939,2.9972,5.5935,6.0341,2.7275,3.1428,5.0403,5.7292,5.2917,5.8678.5032.2773,1.2936-.2053,3.3462-2.0253.6396-.5657.962-.9124,1.1006-1.1639.0833-.1511.116-.3296.1992-.4806Zm-1.5801-.3461c.118.2616-2.4857,2.3683-2.7875,2.202-.1511-.0833-1.8252-1.9242-3.6902-4.1326-1.8654-2.2085-4.2008-4.8731-5.2139-5.8906-1.0357-1.0956-1.78-1.768-2.4718-1.8214-.2292-.0607-.4354-.043-.6696.0245-.234.068-.4959.1858-.7349.3819-.2898.1685-.5795.3367-.8739.6335-.1612.1734-.3727.3189-.5841.465-.1889.2237-.456.47-.723.7163-1.2287,1.1589-2.385,2.4238-2.6344,2.8763-.4437.805-.2384,2.0986.4656,2.4866.2014.111,2.2175,2.4026,4.4748,5.0897.2691.3448.5154.6119.7341.929.123.1334.196.2393.3189.3727.6387.7455,1.1263,1.4077,1.5184,1.886.2689.3451.4876.6622.6558.9519.2187.3171.3872.6069.4825.7907.068.234.1129.39.0575.4904-.3327.6036-1.9622,2.1324-2.458,2.3179-.1562.0452-1.7851-1.6395-3.5498-3.7926-4.0896-5.074-6.0433-7.0033-7.0198-7.0167-.0776.0225-.2061.0173-.4178.1632-.2338.0677-.4455.2136-.6848.4095-.2893.1684-.5286.3643-.7957.6106-1.6467,1.3224-3.6869,3.4771-3.6345,4.096q.0421.8758,4.2652,5.8268c.8847,1.0124,1.6414,2.0194,2.3527,2.8706.7113.8512,1.3223,1.647,1.8096,2.3091.5154.6119.88,1.1407,1.1212,1.5362.2413.3952.3593.6568.3316.7071-.0555.1007-.6396.5657-1.2515,1.0811-.6399.5656-1.3193.8468-1.5207.7358-.0504-.0278-.3191-.3724-.7617-.8789-.2968-.2945-.588-.7176-.9804-1.196-.5603-.7679-1.2216-1.5915-1.9051-2.493-1.8323-2.3869-4.5547-5.6581-6.0328-7.2598-2.1168-2.3471-2.5767-3.0597-2.3271-3.5126.4713-.8551,5.6644-5.9939,10.6361-10.7303,3.9539-3.7235,7.6913-7.1724,8.9327-7.9969l1.9312-1.3622,1.119.9446c.3467.3224,1.1138,1.073,2.0992,2.1409.7668.7505,1.6793,1.7125,2.6146,2.7528.6384.7453,1.3271,1.5184,2.0161,2.2916.6661.695,1.2545,1.4127,1.7921,2.1025.2463.267.4426.5065.6387.7455.8847,1.0124,1.6967,1.919,2.2573,2.6871.6887.7731,1.0808,1.2513,1.126,1.4076l-.0278.0504Z"/><path class="cls-6" d="m377.387,239.7952c-.8335-2.0344-1.1536-2.4064-3.8544-4.2913-4.3981-3.2299-10.9579-7.0276-11.9473-6.9861-.0577-.0043-.2306-.0173-.2927.0361l-.0043.0577c-.6517.183-1.4303,1.2848-3.5803,4.4299-1.1145,1.7146-2.2294,3.4291-3.2818,5.0903l-1.3801,2.1588c-5.2716,8.4216-9.2858,15.545-9.058,16.3742.2451.5983,3.9539,2.9647,4.9347,3.0383.5767.0432,1.2846-.89,3.7387-4.9983,1.6539-2.7182,3.1003-4.9877,3.2732-4.9748.1732.013.9462.5347,1.768,1.1766,1.3237.911,1.5287,1.2744,1.6685,2.5031.1672,1.6368-.5404,4.8897-1.8282,8.9116-1.1158,3.2807-.9689,3.6397,2.0697,5.6656,4.0867,2.7425,4.5294,2.2538,5.2083-6.802l.4886-6.5179,1.2111.0908c2.3608.235,4.489-.3014,6.6201-1.6498.3013-.1516.665-.3562.975-.6229.1858-.1603.31-.2671.4915-.3692,1.7897-1.4321,2.9431-3.6655,3.4131-6.0667.3289-2.0634.2049-4.2769-.6332-6.254Zm-1.9607,9.1339c-.8002,1.3901-2.1024,2.5104-3.5472,3.2142-.7267.4097-1.5603.6952-2.3852.8652-.2393.0982-.4125.0852-.6474.1256-1.0598.2105-2.098.1327-3.1853-.065l-1.8285-.369-.1252,3.9929c.0042,2.2626-.2552,5.7232-.5794,7.7289-.2668,2.0104-.6228,3.6657-.7383,3.657-.1111-.0664-1.1104-.6631-2.1545-1.4374-1.7593-1.292-1.9769-1.4825-1.6858-2.2725.1544-.5106.7052-2.4413,1.2431-4.1991,1.8022-6.2456,1.4689-8.7647-1.5203-10.6708-2.6518-1.765-3.5387-1.5416-5.0815,1.243-.3489.786-1.5388,2.7268-2.5955,4.4457l-1.9191,3.1624-1.4306-1.0352c-.773-.5221-1.3642-1.1463-1.4667-1.3282-.0491-.1198.2251-.6791.6938-1.5142.0747-.2263.2031-.3905.3359-.6128.7468-1.4522,1.883-3.4551,3.2096-5.6756.398-.6665.7959-1.3327,1.1982-2.0567.9951-1.6655,2.0562-3.4421,3.1667-5.0989,3.4359-5.6009,6.7798-10.7446,7.2629-10.9983.3013-.1512,7.4074,4.0935,10.9881,6.6242,3.4696,2.4643,4.2268,3.9712,3.8577,8.1196-.16,2.1345-.4067,3.102-1.0656,4.1547Z"/><path class="cls-6" d="m372.0662,242.8173c-.4143-1.9207-1.1318-2.6618-5.0225-5.1865-2.746-1.7521-4.3072-2.1269-5.2348-1.2084-.8359.839-4.3153,7.1492-4.1274,7.5069.3033.5381,4.6777,3.4857,6.7458,4.5427,2.2752,1.1583,2.4887,1.1743,3.9886.6424,1.5397-.4856,2.7002-1.6442,3.4231-3.265.5166-1.1636.5518-1.6334.2273-3.032Zm-3.0318,4.2445c-1.2007,1.1527-2.8043.8183-6.2042-1.2794-1.6409-.9802-3.0227-1.9836-3.092-2.2033-.1683-.6124,2.5291-5.7247,3.2004-6.1028.3996-.1843,1.4363.279,3.5234,1.5927,3.7186,2.4216,3.9551,2.6965,4.1289,4.381.1012,1.5075-.2674,2.4228-1.5564,3.6119Z"/><path class="cls-6" d="m392.4984,245.3483c-5.7825-1.8206-6.814-2.0643-7.7583-1.6645-.105.0445-.2178.2161-.4437.5591.0222.0525-.008.1273-.0606.1495-.1432.246-.3168.5673-.468.9406-.7259,1.7923-1.7866,4.8399-2.9176,8.5982-.1895.5753-.4091,1.225-.5764,1.8528-1.2442,3.9297-2.4315,8.5778-3.5884,13.1514l-1.4615,5.754,1.3062.7463c1.3059.7465,4.4666,1.6354,4.9389,1.4354.1572-.0666.506-1.1425.7964-2.5026,1.0199-4.0206,2.5583-8.5699,2.9559-8.8002.2097-.0888,1.2412.1549,2.339.5564,1.7479.6212,1.9195.734,2.0571,1.7894.0868.6437.3561,2.4481.5886,4.02.3073,1.6025.4472,3.8324.4495,5.0071-.021,3.1644.2533,3.6669,3.2709,4.8021,1.4412.6273,2.8237.9697,3.1385.8364.2623-.1111.5787-.6782.6414-1.2614.1284-2.0343-.5719-7.925-1.2931-10.6512l-.7213-2.7263,1.669-.1501c2.47-.3035,3.5796-.8972,5.662-3.14.2481-.2908.466-.5066.609-.753l.0525-.0222c.1132-.1714.2482-.2905.3613-.4623l.0522-.0221c.7303-1.0517.9057-1.8065,1.2967-3.952l.6044-3.1022-1.1996-2.833c-1.9105-4.5119-2.7909-5.1293-12.3011-8.1557Zm10.9272,16.1622c-.2037.3955-.46.8133-.7687,1.2534-.03.0746-.0825.0969-.1128.1716s-.1131.1717-.1432.246c-.105.0445-.1353.1192-.2181.2162-.3831.4099-.7888.7672-1.2163,1.0721l-.105.0445c-.9686.7814-2.1308,1.397-3.3215,1.6538-.3892.1029-.8534.1759-1.2651.2264-.2845.0585-.539.0425-.7931.0266-2.1395-.0842-2.2603.2147-1.0829,2.9951.4443,1.0494,1.0101,3.4083,1.3015,5.2649.2689,1.8042.5138,3.9897.4576,4.8798l.0528,1.5864-2.0384-.8694-1.9943-.7643-.0917-2.9928c-.0531-1.5862-.3384-4.7445-.6883-6.8855l-.5966-3.8927-2.5471-.9014c-3.5927-1.3249-4.0125-1.1472-5.2465,2.2216-.5304,1.5237-1.2964,3.9518-1.7219,5.4315-.3506,1.5095-.6853,2.7648-.6934,2.8921-.1572.0666-1.009-.1917-1.9052-.5547l-1.867-.7562,1.1186-4.3716c.9816-3.8185,2.3807-8.9894,3.7174-13.5773,1.8587-5.9841,3.5342-11.0866,3.8489-11.2199.3673-.1555,11.5813,3.387,13.9408,4.4297,1.9639.8387,2.9613,2.0251,4.1609,4.8581.9631,2.1291.8996,4.7545-.1814,7.3161Z"/><path class="cls-6" d="m398.1031,253.8471c-1.3855-1.1083-9.814-4.136-10.591-3.807-.2331.0987-.8958,2.2116-1.5271,4.7235-.8509,3.2922-1.0341,4.6985-.7201,5.1152.2479.2613,1.2761.7422,2.261,1.0124.9847.27,2.9097.9209,4.3143,1.4255,1.4601.527,3.0262.8718,3.6748.7803,1.8349-.3187,2.3458-.6268,3.5421-1.912.7901-.8387,1.0977-1.5187,1.1021-2.4823-.0094-1.6451-1.0128-4.0149-2.0561-4.8557Zm.3349,5.7676c-.2687.6635-.7854,1.0657-2.0285,1.5921-1.4761.6251-1.8752.6565-3.014.131-.774-.3137-2.5494-.9362-4.0155-1.3691-1.4658-.4329-2.7211-.9093-2.8033-1.1035s.2744-1.9484.7922-3.8627l.9957-3.4911,2.4447.7973c4.5192,1.4763,6.332,2.4037,7.0361,3.5256.8581,1.3775,1.0632,2.619.5928,3.7803Z"/><path class="cls-6" d="m414.9465,251.0983c-4.9206-.2839-5.3075-.2075-5.7155.6577-.1118.228-.2738.8973-.3666,1.8671-.2729,1.9468-.4033,5.062-.5837,8.6183q.0073.0869-.0324.134c-.4231,9.4792-.4309,21.809.2282,22.3654.2825.2384,3.1917.5173,6.52.5859,3.2891.1157,8.1227.4065,10.6375.6751,3.6579.3469,4.8337.2913,5.2711-.2268.7551-.8945,1.2961-5.356.7783-5.7931-.2825-.2384-3.9406-.585-8.1989-.7936-4.3055-.2484-7.9565-.5083-8.2241-.5732-.4489-.1369-.7082-5.2739-.2635-5.7051.2384-.2825,9.4101.1232,12.5002.474,1.4112.1431,2.1454.0376,2.543-.4334.4371-.5178.804-2.3847.8926-3.9225.0928-.9698.0198-1.8381-.1685-1.997-.5181-.4374-4.6647-.8739-10.6742-1.1091-2.6341-.1273-4.8337-.2913-4.9751-.4106-.1411-.1191-.132-1.5627-.0505-3.1872.0353-.6149.0237-1.2698.1533-1.8056.046-1.0094.1535-1.8054.2726-1.9465.1591-.1885,3.8966.0641,8.2565.4392,4.975.4101,8.1772.5331,8.4554.2036.1191-.1411.2384-.2825.3031-.5502.6713-1.3683.9606-4.6717.4753-5.2429-.5796-.6507-9.0683-1.7697-18.0342-2.3234Zm16.6828,3.9242c.0764.3869-.0062.9622-.1389,1.9792l-.1651,1.1504-2.4205-.1891-.0468-.0395-5.3769-.5077c-8.4597-.7716-9.1143-.7598-9.5294.0182-.112.2283-.2667.9845-.3598,1.9541l.0471.0398c-.0604.8358-.1462,1.8923-.1919,2.9019-.0269,1.7509.0256,3.4079.1639,4.0083q.0542.1264.1013.1662c.0545.1267.2825.2384.5976.3431.7636.2416,2.4425.4493,5.163.5693.9227.0531,1.7983.0669,2.6341.1273.1738-.0147.3076.0175.4811.0031l.134.0324c2.681.1668,4.7073.3455,5.7239.4778.3076.018.5282.0429.6225.1225.134.0324.2207.0254.2675.0649.1414.1193-.0695,2.2794-.2963,3.2168-.0325.1335-.0251.2204-.1047.3147-.0324.134-.072.1809-.072.1809,0,0-.3547-.0573-.8358-.0604-.5282-.0429-1.1434-.0784-1.8525-.1933-4.0128-.4039-8.7452-.5289-11.1364-.3704-.7814.0658-1.2552.1495-1.3347.2438-.1987.2353-.3167,1.4256-.3804,2.7428-.1095,2.3263.0532,5.2855.3828,5.5637.2353.1987,3.9801.5382,8.3725.7792,4.3924.241,8.1301.4934,8.2243.5729,0,0,.0073.0869.0144.1736-.0175.3076-.0928.9698-.2077,1.6789l-.2551,1.6394-2.1603-.2111c-3.2165-.2966-13.5389-.8671-15.243-.8544-1.9643.0347-2.6369.3541-2.8455-1.596-.0615-.2133-.044-.5209-.0733-.868-.0291-.3474-.0587-.6947-.0556-1.1758-.0158-1.223.0582-2.9341.0413-5.2062.0525-4.5515.2067-8.9365.3473-12.4457l-.0471-.0398c.0324-.134.0649-.2681.0578-.3547l.0395-.0468c-.0147-.1738.0104-.3947-.0045-.5683-.0291-.3474-.0113-.6547.0534-.9225.0031-.4811.0135-.8759.0638-1.3172.0915-2.0187.1804-3.5563.3204-4.4863.1182-1.1905.2402-1.813.3197-1.9072s.4269-.1233.9478-.1673c2.0116.0048,7.1529.3136,13.7274,1.0262.9698.0928,1.7656.2007,2.5145.2684,2.7357.2938,3.6257.4806,3.7713,1.168Z"/><path class="cls-6" d="m353.7158,208.2905q.0074-.0906-.0342-.1396l.049-.0416c-.0195-.3202-.0389-.641-.002-1.0935.0008-1.6855-.1468-4.3397-.3075-5.72-.8848-5.9033-4.0604-15.0006-7.1644-19.9461-.3591-.6216-.7188-1.2432-.9947-1.7668-.4765-.8592-1.1195-1.9138-1.826-2.7458l-2.9094-3.4265c-1.621-1.9091-3.7209-4.085-4.7066-4.8486-2.3597-1.7873-3.3626-1.7779-5.5949.4542l-1.0428,1.0541-.5948.5893c-.3013.3397-.5044.5964-.7075.8532-.338.7924-.2085,1.4408.207,1.9302l1.1638,1.3707c3.6498,4.3978,6.5027,7.9565,6.8206,8.5289,1.2293,2.2417.6271,2.9216-4.8175,5.4385-3.2593,1.4193-6.6801,3.1448-10.0666,5.0095-.8592.4765-1.7181.9534-2.5279,1.388-7.5346,4.1228-14.5557,8.6524-18.3735,11.894-1.7621,1.4962-1.9726,1.8435-1.8655,2.7634.1681,1.2892,2.4066,5.1166,3.4339,5.9293,1.4233.9818,3.4052.1411,11.0892-4.6983,4.087-2.6274,7.8458-5.1454,11.3256-7.5947.874-.6577,1.7892-1.2662,2.6139-1.8821,2.188-1.6897,4.278-3.2956,6.3264-4.9505,6.6349-5.3811,6.6765-5.3321,8.9623-2.6399,2.8264,3.3288,5.937,9.8693,8.6626,18.3378.0269.2296.6457.4626,1.3283.4727l.5844.093c.1393-.034.2789-.0682.3769-.1514.6364-.5403.5761-2.5951.5919-4.4615Zm-47.021,4.5443c-.3843.242-.6706.4007-.9985.5105-.335.2007-.6216.3597-.8099.4352-.147.1248-.3353.2004-.4749.2346-.6065.1782-.9763.2392-1.2892.1681-.2641-.1125-.6041-.4136-1.1444-1.0499-.1662-.1957-.242-.3843-.4497-.629-.4497-.629-.9336-1.3975-1.1195-1.9138l-.545-1.1378.049-.0416,2.7119-1.9653c.7267-.5332,1.5514-1.1491,2.4666-1.7576,1.1602-.8165,2.4179-1.7162,3.7591-2.5177,2.0678-1.3347,4.2337-2.7525,6.3921-4.0798.0487-.0413.1467-.1246.2373-.1172,1.0059-.6011,2.0115-1.2025,3.0173-1.8036.384-.2423.8099-.4352,1.1452-.6356,1.5785-.9192,3.0587-1.7549,4.3437-2.4244.4256-.1933.8099-.4352,1.1868-.5866.0977-.083.2447-.2078.3843-.242.4743-.2346.9492-.4692,1.3751-.6621.4746-.2349.8025-.3446,1.0324-.3712.1393-.0345.2789-.0687.3621.0293.1322.0564.2568.2031.4155.4894.11.3282.5107.9988.8702,1.6201.1246.1467.242.3843.4081.58l.4349.8102.4426.7193-3.2502,2.4224c-.196.1664-.3917.3326-.6777.4916-.2863.1588-.4823.3252-.7196.4423-.9227.6991-1.8869,1.3492-2.9489,2.0827-2.9075,2.1314-6.2821,4.4075-9.2652,6.3506-2.8854,1.8602-5.4768,3.4708-7.3416,4.5487Zm44.7066-4.0954c-2.5252-8.1332-7.8042-17.1288-10.5586-17.9912-.3544-.1201-.7165-.15-1.1277-.1376-.4524-.0369-.8219.0238-1.1912.0849-.9763.2392-1.9406.8893-2.8854,1.8602-.7075.8532-1.8332,1.809-2.4965,2.1197-.5726.3175-1.172.4054-1.3384.2094-.083-.0977-.1172-.2373-.2417-.384-.159-.2866-.3594-.6219-.5526-1.0475-.4273-.9005-.8967-1.85-.8743-2.1215l-.0416-.049.0977-.083c.2034-.257,1.5785-.9192,3.1838-1.6081,3.3006-1.3706,4.3777-2.2851,4.7063-4.0803.2208-1.0297.1478-1.8103-.7859-3.2079-.1591-.286-.401-.6703-.6917-1.0127-.6503-.9646-1.5988-2.1809-2.9701-3.796l-4.232-5.0835,1.2117-1.4499c1.1063-1.2766,1.8404-1.8999,2.6136-1.8824.2299-.0266.4524.0369.6752.1007.2641.1125.4793.2671.736.4702,2.0126,1.5765,8.5083,9.6234,10.4292,12.8783,4.4702,7.745,7.844,20.5485,6.9798,26.6737l-.1349.5356-.0369.4524-.4739-1.4506Z"/><path class="cls-6" d="m438.5272,83.58l4.0142-.89,2.1879-.7871,1.1307-.5236c8.1887-3.8409,12.3936-7.5976,12.279-10.7755-.0376-1.162.1798-1.6343.8018-2.2454.5482-.3507,1.0369-.6901,1.0964-.7014.0226.1185-.4148,1.3712-1.056,2.8476-1.5842,3.6253-1.4845,4.4678.6139,5.7897,2.9469,1.8986,4.6125,2.5648,5.5169,2.146.3929-.1982,1.1843-1.2106,2.2406-2.7663.2287-.4129.5059-.8966.8417-1.3915.3362-.495.6612-1.0491.9747-1.6629.4574-.8257.9266-1.5921,1.3727-2.4773.4211-.6956.819-1.5104,1.2288-2.2654.2287-.4129.398-.8144.6271-1.2273.8558-1.6402,1.7003-3.3398,2.4967-4.9687.2541-.6025.5083-1.2046.7737-1.7477.1212-.3307.2541-.6025.3753-.9332.2177-.4724.4351-.9447.6525-1.4166.412-1.0634.9203-2.2681,1.4062-3.5916.206-.5317.4121-1.0631.6181-1.5948.0367-.1302.0735-.26.1697-.4016.1693-.4015.2678-.8511.4375-1.2527.0732-.26.1579-.4609.2428-.6616.2314-.7213.4261-1.3121.6208-1.9033.1443-.212.1697-.4016.2542-.6021.1215-.3312.1833-.6506.3163-.922,1.7022-4.9401,2.9587-7.7032,4.0808-8.5943.8594-.6562.9892-.6197,3.8684.9226,4.6492,2.4346,10.068,6.322,12.8179,9.1198,1.3748,1.3989,2.9754,2.6927,3.4365,2.851.3307.1212.6392.1239.8171.0899l.0594-.0114c.1779-.034.2854-.1161.4183-.3875-.0114-.0594.0481-.0708.0481-.0708.1693-.4015.0473-1.3626-.2757-2.4088-.2635-1.0572-1.4549-3.1063-1.4549-3.1063-.328-.4293-.6788-.9779-1.0412-1.5854-.8063-1.3227-1.3553-2.2642-1.729-2.9311l-2.8488-3.64c-.5176-.4547-1.2222-1.2433-2.2435-2.4017-3.1343-3.5243-8.4913-7.7311-11.8198-9.372-.8739-.387-1.6406-.8558-1.6519-.9152l-2.7287-1.0787c-4.6547-1.8183-11.3531-3.0615-13.1-2.5434-.8679.289-1.2296.9732-2.3919,5.1951,0,0,.0767.7237.142,1.388.0313.4864.3594.9161.5009,1.0119.5291.5145,1.6035.986,2.5989,1.0419,4.0264.4616,10.9489,3.2007,11.1983,4.5066.3176,1.6624-.973,4.2472-5.8719,11.4591-.2768.4836-.613.9786-.9012,1.4029-.7682,1.1315-1.5369,2.2627-2.3052,3.3938-.0961.1416-.1809.3425-.3362.495-.3249.5544-.6611,1.0494-.9379,1.5331-.4801.7069-.9012,1.4029-1.3336,2.0391-.3839.5657-.7682,1.1315-1.0932,1.6855-.9492,1.4736-1.6468,2.6528-2.0565,3.4079-.819,1.5104-1.6381,3.0204-2.1069,3.7871-.1329.2714-.2177.4724-.2659.5428-.3359.4949-.7034.5035-2.7393.1541-1.9878-.4203-2.3189-.5414-2.4777-1.3726-.068-.3562-.1951-.7011-.5122-1.0713-1.1914-2.0491-4.7748-4.3797-8.2386-5.4411-3.2631-.9762-6.8653-1.1497-11.5778-.3727-2.3862.3942-5.1649.9866-8.3256,1.8363-2.1031.5865-3.2083.9208-3.7085,1.2008-.4523.2096-.5372.4102-.4918.6479-.0387,1.7301,6.7485,5.0486,15.2627,7.422,0,0,.0594-.0114.0708.0481,2.8616.8069,4.7872,1.5466,4.5132,1.7222s-1.2859.6764-2.3572,1.1886c-2.3572,1.1886-5.5225,3.9471-7.5255,6.6677l-1.5822,2.0253-1.2487,1.8384c-.0367.1302-.1326.2713-.2287.4129l-.0594.0114c-.6385,1.1679-2.2031,3.9283-1.5896,4.2418.7327.2908,6.0954-.3032,6.0954-.3032.5232-.1612,1.4615-.402,2.9938-.7563Zm29.8634-12.7809c-.1833.6506-.8558,1.6402-1.8414,3.244-.1443.212-.2404.3535-.3362.495-.2404.3535-.4324.6362-.5649.9079-1.3082,1.8494-1.7805,1.6321-4.4928-.0033-.4836-.2768-.9079-.5649-1.2613-.805-.212-.1443-.3535-.2404-.4356-.3476-.0708-.0481-.1416-.0961-.1529-.1556-.0567-.2968,1.4685-3.9107,2.8098-6.8744l.4942-.9559,1.1652.9466c.2944.2514.7894.5876,1.3434.9125.0594-.0114.0708.0481.0708.0481.5431.2654,1.1566.579,1.6883.7851.2717.1325.5317.206.7323.2909l.0113.0591c.8625.3276,1.1569.579.7699,1.4529Zm10.5917-30.8822c.8785-1.5214,1.4716-2.927,1.7425-4.0863.1947-.5908.2706-1.1592.2873-1.7164.0141-.2487.0282-.4974.0649-.6276.0418-.7464-.1337-1.0204-.9114-1.549-2.0023-1.4634-6.2554-3.1121-9.7219-3.8655-1.2074-.2001-2.3189-.5414-2.9805-.7842-.2714-.1329-.4723-.2174-.6138-.3135l-.0704-.0481c-.2436-.6302.2185-3.3644.713-4.3204.3499-.7436.4094-.755,3.1095-.4708,3.328.3486,6.9815,1.4355,10.6067,3.0197,1.4763.6408,2.9156,1.4118,4.2958,2.1945.6955.4207,1.3915.8417,2.0984,1.3219.696.421,1.4029.9012,2.1211,1.4407,4.8878,3.6813,9.5469,9.0678,12.8747,14.893.4786.8933.9341,1.6679,1.2962,2.2755.1275.3448.303.6189.4078.8449.1158.2858.2092.4524.2092.4524l-.0594.0114-.0114-.0594s-.0591.0113-.1298-.0368c-.1188.0227-.2009-.0844-.283-.1919-.1298-.0368-.2827-.192-.4356-.3476-.1411-.0959-.3054-.3109-.529-.5141-3.6066-3.7416-8.8615-7.4144-15.4-10.7188l-2.2427-1.1099-1.4325,1.1968c-1.4697,1.3267-2.7462,3.6628-3.9996,7.4097-.0849.2006-.1583.461-.2428.6616-.1583.461-.387.8739-.5196,1.1452-.1809.3425-.3249.5544-.3843.5658s-.1188.0227-.1896-.0254c-.1185.0226-.1893-.0254-.3194-.0618-.3308-.1216-.8625-.3276-1.3462-.6044l-.755-.4097-.6135-.3136-.0114-.0594.0591-.0113.9012-1.4025.9492-1.4736c.5876-.789,1.0455-1.6148,1.4661-2.3107Zm-10.8818,16.4775c.8417-1.3915,1.7316-2.8538,2.5847-4.1859l.0481-.0704.9492-1.4736.6721-.9899.746-1.25,1.3332-2.039.2009.0844,1.8775.8105.2123.1442,1.7704.8926-.2201.7804-.0594.0114-.4743,1.3825c-.0481.0708-.0367.1302-.0254.1896-.0735.26-.206.5317-.3276.8625-.206.5317-.4121,1.0631-.6068,1.6542l-.0594.0114c.0227.1188-.0735.26-.1102.3902s-.1326.2713-.1693.4015c-.4969,1.2641-1.1013,2.6102-1.7539,4.0268-.1693.4015-.3386.803-.5195,1.1456-.4602,1.1339-.9798,2.2791-1.4626,3.2944-.1329.2714-.2174.4723-.3022.6729-.3503.7437-.6638,1.3575-.9773,1.9714-.0845.2005-.2174.4719-.3613.6842,0,0,.0114.0594-.0481.0708-.579,1.1566-1.0478,1.9229-1.2742,2.0277-.2146.1642-.8539.0399-1.6456-.2392-.6616-.2428-1.4052-.5931-2.0899-.9547-.2119-.1439-.4129-.2287-.6248-.373-.2123-.1439-.4242-.2881-.6365-.432l-.0114-.0594c-.1412-.0962-.2827-.192-.4836-.2768l-.0114-.0594c-.0708-.0481-.2119-.1439-.2232-.2034-.3534-.2401-.5177-.4551-.5291-.5145-.0113-.0591.0622-.3195.2909-.7323.6044-1.3462,2.361-4.3892,4.3218-7.6556Zm-15.8162,9.9744c-.3562.068-.7718.1474-1.2582.1787-2.8835.366-3.7601.2875-7.2974-.5136-.0708-.0481-.1896-.0254-.26-.0735-.3198-.0617-.5798-.1352-.9106-.2568-.6983-.1126-1.4196-.344-2.2-.5641-1.8916-.5618-3.9728-1.1486-5.4262-1.671-2.3643-.7791-5.1751-1.9649-6.2836-2.6147l-1.9459-1.1666-.0708-.0481,1.6285-.4955,1.0459-.323.1188-.0227.6416-.1841c1.9616-.6823,3.7202-1.1414,5.3823-1.4589,2.0777-.3969,4.071-.5928,6.169-.5628.1185-.0226.308.0024.4269-.0203,4.9421.1023,9.1976,1.4429,11.6671,3.7403.3762.3589.6819.6697.9392,1.0513l1.0439,1.2773-.8653-.0195c-.3788-.0504-2.6407-.2955-5.4003-.5684,0,0-.0113-.0591-.0707-.0477-.6276-.0649-1.3739-.1067-2.0723-.2197-3.6588-.4702-6.8567-.7822-7.094-.7368-.5939.1134-.6498,1.1085-.0954,1.4334.0704.0481.3195.0622.7096.172.3789.0508.8879.138,1.5155.2029.6389.124,1.3262.1774,2.1434.2674.7577.1013,1.6453.2397,2.5219.3182,1.196.1407,2.2618.2447,3.1385.3236.9473.1266,1.705.2279,2.3326.2928.8171.0899,1.3969.2252,1.7758.276.4497.0989.6502.1834.7804.2201.212.1443.068.3562-.172.7096-.0961.1416-.1329.2718-.2404.3539-.3472.4355-.8817.5376-2.3178.7503Zm4.2148-.8051c.5512-.6593.7772-.764,1.9732-.6233.6984.113,1.4788.3331,1.5609.4406.3988.4774-2.9136,2.464-3.4793,2.0798-.6362-.4324-.6901-1.0373-.0548-1.897Zm-24.5683,17.3072c-.4015-.1693-.1955-.701,1.0532-2.5395.3476-.4356.7319-1.0014,1.1639-1.6375,3.4186-4.6528,6.4877-7.2698,10.6146-8.8577,1.3793-.5099,2.9002-.9236,4.6217-1.2524,2.9683-.567,4.8658-.6215,5.3717-.2261.0708.0481.1529.1556.1643.215,0,0-.0481.0708-.0962.1412-.6697.6819-6.2572,3.9643-10.2936,6.0277-1.6789.8743-2.6681,1.494-3.0043,1.989-.0961.1416-.1442.2123-.1329.2718-.0845.2005.0203.4265.2322.5708.6252.3729,2.7083-.6405,9.9156-4.7863,1.1081-.6421,2.001-1.1206,2.7162-1.5648.4411-.2687.7745-.4555,1.0599-.5717s.5708-.2322.7378-.3253c.226-.1048.4043-.1388.4269-.0203.0708.0481.0935.1669.0681.3565-.1521,1.1366-.491,1.9397-1.316,2.7741-.3589.3762-.7773.7637-1.314,1.1741-.2631.2347-.5372.4102-.8594.6562-1.9443,1.4177-3.6967,2.5521-5.5425,3.5202-1.2265.6651-2.4761,1.2113-3.748,1.6387-1.3199.4985-2.7223.8896-4.1952,1.2321-.7601.2068-1.5319.3542-2.3631.513-2.5414.547-4.8908.8114-5.281.7012Z"/><path class="cls-1" d="m354.4999,227.4128c-.1715-.0945-1.8375-1.9768-3.699-4.1763-1.8668-2.2025-4.1974-4.8562-5.188-5.8981-2.4409-2.5678-3.0558-2.5295-6.0676.4002-1.2024,1.1676-2.3829,2.4729-2.6162,2.8962-.4577.8305-.2436,2.1151.4208,2.4813.225.124,2.2443,2.4175,4.4859,5.106,3.0543,3.6603,4.0025,5.0072,3.7898,5.393-.3337.6055-1.9674,2.1501-2.4535,2.3223-.1834.0666-1.777-1.643-3.5337-3.7918-4.1429-5.0566-6.0681-6.963-7.0588-6.9781-1.0292-.0084-5.5969,4.2992-5.5468,5.235q.0558.8621,4.2674,5.8448c3.498,4.1354,5.768,7.1399,5.6115,7.4239-.0413.075-.6006.5701-1.2377,1.0922-.64.5275-1.3104.8566-1.4914.7288-.184-.1224-1.8406-2.174-3.6807-4.5644-1.8431-2.385-4.543-5.6614-5.9984-7.2669-2.1157-2.3466-2.5833-3.0445-2.3294-3.5053.8357-1.5164,16.8378-16.8744,19.5305-18.7435l1.938-1.3489,1.1238.9268c1.7889,1.482,12.3013,13.3603,12.5423,14.1778.0919.3021-2.5305,2.3986-2.8091,2.245Z"/><path class="cls-1" d="m372.6157,236.6311c-3.549-2.4994-10.6586-6.7687-10.9736-6.5777-.6695.3364-6.1218,8.9037-10.4403,16.0956-.3959.7003-.7888,1.3579-1.1818,2.0158-1.329,2.2624-2.4651,4.2386-3.2176,5.6855-.1442.2039-.2458.4109-.347.618-.4517.8681-.7068,1.4073-.6737,1.5385.0727.1774.7142.7838,1.4905,1.3144l1.4274,1.0087,1.8662-3.1238c1.0742-1.7234,2.2528-3.6964,2.6521-4.4395,1.5416-2.8048,2.4179-3.0397,5.036-1.2974,2.9897,1.9421,3.3165,4.4573,1.5155,10.7216-.5189,1.7648-1.09,3.6546-1.2139,4.1607-.2743.7954-.0768,1.0249,1.6763,2.273,1.0592.7664,2.0425,1.3985,2.1675,1.4508.128.0096.4663-1.64.745-3.6375.2817-2.0405.541-5.4997.5795-7.7299l.0843-3.9877,1.8631.3544c1.0581.208,2.1289.2453,3.1731.0659.2167-.0265.4334-.0532.6532-.1227,2.4003-.5071,4.6573-1.9699,5.9307-4.0647.6385-1.0688.8831-2.0381,1.0859-4.1703.3531-4.1395-.392-5.6554-3.8985-8.1516Zm-.7768,9.2181c-.7228,1.6208-1.8834,2.7794-3.4231,3.265-1.4999.5319-1.7134.5159-3.9886-.6424-2.0681-1.057-6.4424-4.0046-6.7458-4.5427-.1879-.3577,3.2915-6.6679,4.1274-7.5069.9276-.9184,2.4888-.5437,5.2348,1.2084,3.8907,2.5247,4.6082,3.2658,5.0225,5.1865.3245,1.3987.2893,1.8684-.2273,3.032Z"/><path class="cls-1" d="m399.4466,249.3385c-2.3554-1.0183-13.5843-4.601-13.9726-4.4366-.5439.2303-5.3535,15.9183-7.5413,24.8157l-1.0879,4.3547,1.8247.7389c.94.3809,1.7754.6225,1.8918.5732.0449-.1105.3718-1.3941.7492-2.8826.3777-1.4884,1.1358-3.9167,1.6853-5.432,1.2333-3.3624,1.6605-3.5434,5.2831-2.2371l2.494.9137.6423,3.8966c.3174,2.1561.6306,5.2761.6791,6.9047l.0981,2.9363,1.9905.8062,2.007.8451-.0318-1.5898c.0369-.8861-.2027-3.0751-.4663-4.8874-.2637-1.8126-.8516-4.1749-1.3121-5.2624-1.1679-2.7581-1.0335-3.0899,1.0765-2.9753.2824.0177.5483-.0032.8143-.0241.4377-.048.8592-.1348,1.2805-.2215,1.17-.2664,2.3413-.8541,3.3361-1.6419l.0778-.0329c.4557-.3303.8396-.7218,1.2234-1.1136.0612-.0715.1225-.1433.1838-.2151s.1224-.1435.1837-.2153c.351-.4693.6467-.9608.8483-1.4586,1.069-2.5598,1.1579-5.1628.2143-7.283-1.2172-2.8745-2.2036-4.0142-4.1717-4.8758Zm.7126,9.3642c-.0044.9637-.312,1.6436-1.1021,2.4823-1.1963,1.2853-1.7073,1.5933-3.5421,1.912-.6485.0915-2.2147-.2533-3.6748-.7803-1.4045-.5047-3.3295-1.1555-4.3143-1.4255-.9848-.2702-2.013-.7511-2.261-1.0124-.314-.4167-.1308-1.823.7201-5.1152.6313-2.512,1.294-4.6248,1.5271-4.7235.777-.329,9.2054,2.6987,10.591,3.807,1.0433.8408,2.0467,3.2105,2.0561,4.8557Z"/><path class="cls-1" d="m431.4866,256.9899l-.1459,1.1393-7.8889-.7166c-8.4473-.7672-9.0666-.7661-9.5096.0537-.4549.8441-.6794,8.384-.2728,9.0622.2645.4294,1.9627.6864,5.835.8808,5.6775.2841,9.5381.6145,9.8089.8431.2106.1778-.2135,3.7017-.4428,3.6884-.1033-.0099-1.3-.1184-2.6662-.2497-5.4443-.4993-12.1709-.5783-12.5392-.1421-.5115.616-.495,7.9214.0165,8.3532.2257.1905,4.008.5322,8.4145.7653,4.4023.2381,8.0794.4909,8.1746.5714.091.0855.0303.9102-.1386,1.8326l-.3141,1.6844-2.1228-.2118c-3.2077-.3204-13.5628-.9032-15.2637-.8619-3.2297.0819-3.0038.7707-2.9054-8.8682.1192-11.3218.6552-21.7334,1.1373-22.0908.4821-.3574,6.4641.0033,14.6931.8868,7.0399.7557,6.5174.4692,6.13,3.38Z"/><path class="cls-10" d="m330.9175,196.4666l-3.3018,2.4625c-7.4247,5.5325-21.0441,14.3686-23.2515,15.0765-1.1866.3884-1.3843.314-2.3499-.876-.5776-.7119-1.3009-1.8386-1.6004-2.5084l-.5463-1.2141,2.7395-1.994c6.7742-4.9353,18.8606-12.2904,24.3461-14.8124,1.2-.5523,1.4603-.531,1.7732.1544.202.4387.7744,1.451,1.2766,2.2539l.9146,1.4576Z"/><path class="cls-3" d="m351.8847,210.3289l-.494-1.6174c-2.5016-8.1139-7.8026-17.1259-10.5557-17.9378-1.8766-.5511-3.5441.0213-5.169,1.7957-.7725.8444-1.898,1.791-2.4967,2.1109-.5935.3155-1.2075.4061-1.3512.2051-.5918-.8344-1.7121-3.2211-1.6777-3.5823.0225-.2165,1.4824-.9805,3.2404-1.7105,3.284-1.3527,4.3492-2.2751,4.7197-4.0791.3817-1.8225-.1856-2.8394-4.4791-8.023l-4.2051-5.0793,1.2041-1.4351c1.7897-2.1297,2.6123-2.3974,3.9998-1.3234,2.0403,1.5786,8.5293,9.5909,10.4471,12.9065,4.4835,7.7322,7.8401,20.5306,6.9846,26.6138l-.1671,1.1558Z"/><path class="cls-1" d="m523.9988,156.5621c-1.5148-1.2999-3.3761-4.9874-3.9278-7.7709-.8527-4.3073-.081-8.2509,2.083-10.6336,1.888-2.0676,3.2669-2.6105,9.3188-3.6762,6.0325-1.055,16.4544-2.5038,17.4174-2.4166.5582.0506.6933.403.904,2.3763l.1129,1.0739-5.1259.6734c-7.9295,1.0377-15.5493,2.4808-17.2214,3.2569-2.1175.9831-3.3723,2.3412-3.9835,4.3081-1.2306,3.9577-.0709,7.4703,3.1041,9.4216,1.5933.9793,1.7026,1.0016,5.0834.8874,1.9048-.0685,6.5311-.4842,10.2938-.9224,3.757-.4449,7.4098-.8313,8.1174-.8599l1.2853-.0567.2034,1.7129c.1398,1.1877.0869,1.7704-.179,1.9071-.2074.1049-5.4142.7152-11.5583,1.3644-12.4873,1.3111-13.7073,1.2624-15.9277-.6456Z"/><path class="cls-1" d="m523.5298,129.1071c3.9517-.6386,6.19-2.7971,6.6734-6.5208.1868-1.1675.4561-2.2439.6341-2.3226.2235-.1199.8155.2571,1.3122.8037.8713.9132,1.128,1.0124,3.0469.9738l.3911.0187c1.4802.0273,2.2254-.0679,2.9398-.4256.3106-.116.5797-.2773.8944-.48,1.8053-1.3078,2.905-3.3467,3.2578-6.1616.2302-2.0802.1684-2.6063-1.0274-5.8441-2.1511-6.0285-4.2342-10.7466-4.6688-10.7674-.3043-.0146-4.6148,1.7397-9.7717,3.8889-.3541.1136-.6667.2731-1.0229.4302-1.1097.4261-2.2667.9371-3.3785,1.4066-.7558.3124-1.4679.627-2.2235.9394-1.8241.7838-3.6023,1.5265-5.1613,2.236-.5341.2358-1.0226.4305-1.4679.627-1.4241.6288-2.6706,1.1791-3.5173,1.5742-.2691.1616-.5341.2358-.7141.358-.4018.1986-.6688.3166-.76.3992-.2733.2483.5314,2.5526,3.0408,8.3804,2.7038,6.3163,3.701,8.2378,4.541,8.8879,1.6392,1.255,4.6571,1.9224,6.982,1.5981Zm3.2516-21.4986c.0125-.2608.7415-.9229,1.6812-1.4443,2.7766-1.5663,6.2752-2.7494,6.9498-2.2815.3395.1907,1.4217,2.1596,2.4064,4.3417,1.3425,2.8962,1.8389,4.3578,1.7869,5.4446-.0877,2.7407-2.7691,5.0522-5.6836,4.9562-2.4385-.0296-3.1399-.8474-5.2913-5.9611-1.0137-2.4885-1.8619-4.7948-1.8494-5.0556Zm-5.3599,17.302c-1.8629-.2201-3.3882-1.121-3.9448-2.2369-.5959-1.2047-3.7732-9.4611-3.7587-9.7654.0083-.1738.2879-.5524.6068-.8421,1.0023-.9107,7.8072-3.8088,8.3619-3.5645.7679.3418,4.6302,9.7636,4.5656,11.1111-.075,1.5649-1.0733,3.3035-2.6139,4.5368-1.2214.9435-1.4864,1.018-3.217.761Z"/><path class="cls-1" d="m504.24,103.8649c-.0539-.0756-.5601-.8133-1.1337-1.6455-.5671-.8324-1.035-1.5778-1.0376-1.6615s.9981-.83,2.2278-1.6673c1.23-.8309,6.4204-4.3559,11.5352-7.8271,5.1148-3.4712,10.0417-6.7754,10.9515-7.3385l1.6486-1.0372,1.0696,1.4479c.6387.856.9382,1.5744.7512,1.7735-.4807.4853-22.2041,15.7557-24.2001,17.0099-.9476.5901-1.7586,1.0213-1.8125.9457Z"/><path class="cls-1" d="m498.9402,94.2748c.2732-1.2703.7887-3.5932,1.1691-5.2591.3827-1.6228.7565-4.1535.8447-5.6298.1314-1.4787.354-2.8758.5168-3.0584.2439-.2736.9893-.1001,2.2745.4319,4.0766,1.6696,6.1846,1.4619,8.8612-.8982,2.306-2.0362,3.4538-4.6549,3.2952-7.4149-.1362-2.3718-.4703-2.9151-6.5009-9.2316-3.3612-3.5278-5.5192-5.6971-6.8748-6.7009-.2711-.2007-.4969-.361-.6767-.4803-.1342-.0789-.2662-.1146-.355-.1526-.1342-.0789-.2662-.1146-.3954-.1072l-.0863.005c-.8502.2651-12.8574,12.6799-18.5528,18.9778-.2007.2711-.4042.4991-.6098.6839-.3657.4105-.6884.8186-.973,1.1375-.2032.2282-.3659.4105-.5284.5928-.2414.3168-.4446.5447-.6049.7705-.1193.1798-.1982.3143-.1958.3572.0124.2158.5241.8353,1.1167,1.3637l1.0922.9323,3.5512-3.7085c4.9404-5.1295,5.5552-5.7273,6.2022-5.7645.5604-.0322,3.9301,2.8896,5.4644,4.7485,1.5297,1.7726,1.2783,5.6808-.8204,13.5895l-1.0658,4.0416,3.4176,3.0054.4343-2.2316Zm5.0691-17.2081c-.6261-.3536-2.5412-2.0607-4.2889-3.864-1.7452-1.7602-3.5361-3.5611-4.0352-3.9652-.4562-.4064-.8282-.8609-.8406-1.0764-.0099-.1727,1.4102-1.8117,3.1247-3.5977,1.7577-1.7884,3.406-3.2243,3.6697-3.1528.8724.1229,9.5296,9.2309,9.8071,10.2966.4367,1.5757.0821,2.9374-1.0991,4.2168-1.913,2.0999-3.8842,2.4294-6.3377,1.1427Z"/><path class="cls-3" d="m504.484,48.6357c-.0626.084-.6881-.4453-1.3989-1.1813-3.5977-3.7369-8.8803-7.4076-15.4324-10.7244l-2.249-1.1369-1.4097,1.2327c-1.4873,1.3066-2.7473,3.6316-4.0048,7.4111-.4173,1.2464-.9429,2.3037-1.1769,2.3484-.2276.0435-1.0418-.2729-1.8033-.6911l-1.3848-.7645,1.9252-2.8912c2.1889-3.2954,3.3484-5.9748,3.5069-8.0959.0984-1.3034.007-1.5416-.8914-2.1959-1.9748-1.4514-6.243-3.1399-9.7229-3.8581-1.9436-.3956-3.6056-.9302-3.6931-1.1822-.2093-.6155.2537-3.3387.7254-4.3005.3688-.7456.4522-.7549,3.1417-.4691,5.3524.5703,11.51,2.9203,17.0031,6.4918,5.5672,3.6163,11.167,9.7367,14.9695,16.3643,1.0996,1.9136,1.9567,3.5523,1.8953,3.6427Z"/><path class="cls-10" d="m431.9582,82.8668c-.4982-.2063-.0876-.973,2.2203-4.1601,4.5517-6.2636,8.3717-8.8089,15.205-10.1273,3.3819-.6526,5.3818-.6479,5.5062.0034.0652.3415-6.0267,3.963-10.3462,6.158-2.8331,1.4326-3.6964,2.266-2.9056,2.8031.61.4144,2.6742-.5829,9.8934-4.754,4.8107-2.7804,5.1136-2.9103,5.0209-2.1258-.2059,1.7697-.9493,2.7506-3.5009,4.6276-5.1362,3.7863-9.2503,5.5816-15.8222,6.8959-2.5574.5082-4.93.8172-5.271.6791Z"/><path class="cls-10" d="m451.0135,66.5443c-2.9387.3647-3.7841.2968-7.5529-.5956-2.3285-.558-6.1636-1.6607-8.5191-2.4626-2.3555-.8019-5.1772-1.9867-6.2777-2.6351l-2.0024-1.184,3.3654-1.082c4.724-1.5185,8.0773-2.0804,12.0074-2.0249,5.6129.0814,10.3889,1.8891,12.6392,4.7823l1.0077,1.2953-.8772-.0291c-.481-.013-3.8703-.3946-7.5332-.8354-3.6641-.4471-6.8468-.7764-7.0681-.7341-.6083.1096-.6878,1.1342-.1209,1.4257.2678.1324,3.3726.5683,6.8957.9637,8.9547,1.0029,8.4532.8825,7.8436,1.8772-.4483.7411-.8307.8666-3.8074,1.2385Z"/><path class="cls-10" d="m464.7174,65.8863c-.6724-.5008-1.2413-1.0082-1.2618-1.1157-.0833-.4363,3.7736-7.1113,7.291-12.6137l3.7029-5.8,2.0282.9759,2.023.9834-.7348,2.1919c-1.7897,5.3166-7.0812,16.8339-7.9952,17.4017-.5738.3587-3.3634-.7602-5.0532-2.0235Z"/><path class="cls-10" d="m461.1297,75.4462c-.9787-.5602-1.8018-1.1633-1.8332-1.3277-.0507-.2656,1.4669-3.9178,2.8471-6.8491l.454-.9519,1.1485.9342c.6369.5206,2.0443,1.3005,3.1251,1.7429,2.31.9417,2.319.7827-.3061,5.0201-2.063,3.3369-2.125,3.3554-5.4354,1.4315Z"/></g></svg>