<?xml version="1.0" encoding="UTF-8"?><svg id="Calque_3" xmlns="http://www.w3.org/2000/svg" viewBox="0 0 850.3937 850.3937"><defs><style>.cls-1,.cls-2{fill:#c57486;}.cls-3{fill:#d5de73;}.cls-4,.cls-5,.cls-6,.cls-7,.cls-8,.cls-9,.cls-10,.cls-11,.cls-12,.cls-2,.cls-13{stroke-width:2px;}.cls-4,.cls-5,.cls-13{fill:none;}.cls-4,.cls-8,.cls-2{stroke:#ba6d7e;}.cls-5,.cls-7{stroke:#3c2f24;}.cls-14,.cls-15,.cls-16,.cls-17,.cls-18,.cls-13{fill-rule:evenodd;}.cls-14,.cls-15,.cls-19{fill:#3c2f24;}.cls-14,.cls-19{opacity:.4;}.cls-15{opacity:.75;}.cls-20{stroke:#cdb342;}.cls-20,.cls-11{fill:#fbd950;}.cls-16{fill:#9db0db;}.cls-6{fill:#4b792e;stroke:#33551e;}.cls-7{fill:#3c3735;}.cls-8{fill:#f08ba2;}.cls-9,.cls-17{fill:#a65822;stroke:#83501d;}.cls-10{fill:#98c21d;stroke:#71911a;}.cls-11{stroke:#ac9839;}.cls-12{fill:#dbdbdb;stroke:#b2b2b2;}.cls-18{fill:#ee7255;stroke:#f7aa53;}.cls-13{stroke:#4e586d;stroke-miterlimit:2.6131;}</style></defs><path class="cls-19" d="m250.3141,823.2978c-10.3645,14.8176-70.1782,22.414-82.746,21.6532-21.2507-1.2865-30.3736-4.4474-57.6169-3.7518-38.8073.9908-142.4866-33.8084,27.096-62.0469l113.267,44.1455Z"/><path class="cls-6" d="m63.1224,736.1194c-10.8315-1.2682-17.5478-3.6657-24.8765-20.9069,0,0,15.527,1.5515,25.5732-1.3306,10.0734-2.8899,23.8623-4.2936,38.477,1.4862l-.7894,10.3837s-24.0362,12.0475-38.3843,10.3675Z"/><path class="cls-8" d="m105.5472,718.3884c-1.4817-5.7074,1.7813-14.2577,13.4099-22.6661,11.6286-8.4084,59.8303-5.8033,77.9627,28.1047,18.1323,33.908,13.5686,67.3316,9.2011,82.4015,0,0-41.0396,22.6505-74.2279,16.2908-33.1883-6.3597-59.5014-47.3709-55.0887-75.695s43.289-41.2273,78.6738-16.8631"/><path class="cls-1" d="m168.86,766.1c-5.6254,8.7875-11.7761,30.4553-12.6819,44.6462-54.5508-4.6933-70.1516-40.7278-79.6967-61.1488-2.39,28.15,23.29,66.76,55.41,72.92,13.23,2.54,27.71.46,40.33-2.95-2.06-11.95-9.5314-34.4674-3.3615-53.4674Z"/><path class="cls-1" d="m155.4815,729.9574c-14.1801-9.76-28.9301-13.54-41.78-12.73-2.82.17-5.54.56-8.14,1.16h-.01c-.86-3.29-.1299-7.54,2.8701-12.15,1.74.31,3.62.72,5.61,1.24,12.69,3.25,29.83,10.51,41.45,22.48Z"/><path class="cls-4" d="m118.9571,695.7223c-11.6286,8.4084-14.8916,16.9587-13.4099,22.6661"/><path class="cls-9" d="m108.28,717.08l-.65.88c-.7.13-1.39.27-2.08.4301-2.34.54-4.58,1.24-6.71,2.09-6.17-1.43-12.19-1.53-12.19-1.53,0,0-1.41-7.82,1.02-9.9,0,0,7.95-2.21,17.62,5.4.98.77,1.98,1.64,2.9901,2.6299Z"/><path class="cls-4" d="m155.4781,729.9612c-35.3848-24.3642-74.2611-11.4609-78.6738,16.8631s21.9003,69.3353,55.0887,75.695c33.1883,6.3597,74.2279-16.2908,74.2279-16.2908,4.3674-15.0699,8.9312-48.4935-9.2011-82.4015-18.1323-33.908-66.3341-36.5132-77.9627-28.1047"/><path class="cls-6" d="m272.1006,780.5382c3.5935,1.0281,14.1811,2.9451,25.1715-7.4623,0,0-11.156-6.6058-16.5187-13.1284-5.3627-6.5227-23.995-15.6478-34.1737-12.1863l.4317,12.7154,25.0891,20.0617Z"/><path class="cls-8" d="m248.3117,752.2868c1.1972-4.6112-11.2636-16.0067-22.493-17.6801-6.4615-.9629-33.4971-.8328-49.0458,17.5046-20.0918,23.6954-13.2481,58.97-9.7195,71.1457,0,0,33.1578,18.3004,59.9722,13.1621,26.8144-5.1383,48.0739-38.2732,44.5087-61.1575s-34.9752-33.3095-63.5642-13.6245"/><path class="cls-1" d="m248.6932,825.6384c-6.42,5.36-13.81,9.27-21.67,10.78-19.05,3.65-41.31-4.53-52.6-9.58-4.59-2.05-7.37-3.58-7.37-3.58-.4-1.37-.79-2.98-1.16-4.8-1.38-6.86-2.39-16.71-1.65-27.77,5.81,14.31,11.52,22.61,13.74,24.09,0,0,4.28,2.67,14.49,6,6.24,2.04,14.7,4.33,25.75,6.39,10.6,1.98,21.24.79,30.47-1.53Z"/><path class="cls-4" d="m248.3117,752.2868c1.1972-4.6112-11.2636-16.0067-22.493-17.6801-6.4615-.9629-33.4971-.8328-49.0458,17.5046-20.0918,23.6954-13.2481,58.97-9.7195,71.1457,0,0,33.1578,18.3004,59.9722,13.1621,26.8144-5.1383,48.0739-38.2732,44.5087-61.1575s-34.9752-33.3095-63.5642-13.6245"/><circle class="cls-3" cx="424.962" cy="157.693" r="92.5317"/><path class="cls-14" d="m501.3627,210.7762c6.9328-13.2122,10.8525-28.251,10.8525-44.2032,0-52.6213-42.6593-95.2806-95.2838-95.2806-19.8817,0-38.343,6.0909-53.6159,16.5079,16.3454-14.158,37.6702-22.7224,60.9971-22.7224,51.4902,0,93.22,41.7297,93.22,93.2102,0,19.4657-5.9674,37.5369-16.1699,52.488Z"/><path class="cls-10" d="m542.4066,137.9288c-8.1274-48.6641-45.7662-87.4022-93.964-96.9285-7.5945-1.4989-15.422-2.3317-23.4827-2.3317-13.3902,0-26.3807,2.265-38.4051,6.3621-6.9948,2.4315-13.6899,5.396-20.052,8.9932-1.0659.5331-2.1316,1.1993-3.131,1.7988-11.7246,7.0948-22.1836,16.188-30.7773,26.7802-12.624,15.4887-21.4509,34.3414-24.9483,54.8928-1.1326,6.5953-1.7321,13.2904-1.7321,20.1851,0,26.9469,9.0268,51.9285,24.2156,71.9138,21.7507,28.6123,56.1252,47.132,94.8302,47.132,65.7515,0,119.0456-53.3608,119.0456-119.1123,0-6.7618-.5331-13.3569-1.599-19.6856Zm-117.4466,111.5511c-29.8448,0-56.3586-14.2561-73.1462-36.3398-11.7248-15.422-18.653-34.6744-18.653-55.4592,0-5.296.4664-10.4921,1.3324-15.5551,2.698-15.855,9.4929-30.4109,19.2526-42.3353,6.6284-8.194,14.6557-15.189,23.7158-20.6848.766-.433,1.5988-.9327,2.4315-1.3658,4.8963-2.7645,10.0593-5.0628,15.4553-6.9281,9.2597-3.1644,19.2857-4.8965,29.6116-4.8965,6.2287,0,12.2576.6329,18.1198,1.7655,37.1727,7.3611,66.2179,37.2392,72.48,74.7783.7994,4.8963,1.2324,9.9593,1.2324,15.1555,0,50.7292-41.1029,91.8655-91.8322,91.8655Z"/><path class="cls-6" d="m557.6269,203.2118c4.6199.239,17.9222-.3983,28.2772-16.0105,0,0-15.2936-4.8589-23.5776-11.2312-8.284-6.3723-33.2954-12.1871-44.6063-5.1775l4.0624,15.2139,35.8444,17.2053Z"/><path class="cls-8" d="m529.3554,182.9295c.1593-5.8944-4.9442-13.4911-18.1668-19.0668-13.2226-5.5758-60.5371,2.2303-70.5735,39.3491-10.0364,37.1188,2.8675,74.2376,10.5143,87.9381,0,0,45.0842,12.8338,75.99-.8316,30.9058-13.6654,47.3145-59.5462,36.6409-86.1506s-51.4566-30.4279-80.4507,1.2745"/><path class="cls-1" d="m529.3496,182.929c-.8327,0-1.6654.0333-2.5315.0667-2.9977-4.7965-8.8934-9.7261-18.453-13.7565-8.9934-3.7973-31.61-2.2316-51.0291,8.4604,18.1867-15.0223,44.5338-17.7868,53.8603-13.823,13.2237,5.5625,18.3198,13.1568,18.1533,19.0525Z"/><path class="cls-1" d="m566.389,231.9596c-.2332-6.8616-1.4656-13.3569-3.7639-19.0861-6.4286-15.9882-22.1171-24.9816-40.4701-24.9816-7.7277,0-15.9884,1.6321-24.1822,4.9963,10.3923-6.7616,21.3508-9.926,31.3768-9.9593,15.6218-.0333,28.9453,7.6278,34.408,21.251,3.1975,7.9942,3.9638,17.7203,2.6313,27.7796Z"/><path class="cls-4" d="m529.3554,182.9295c.1593-5.8944-4.9442-13.4911-18.1668-19.0668-13.2226-5.5758-60.5371,2.2303-70.5735,39.3491-10.0364,37.1188,2.8675,74.2376,10.5143,87.9381,0,0,45.0842,12.8338,75.99-.8316,30.9058-13.6654,47.3145-59.5462,36.6409-86.1506s-51.4566-30.4279-80.4507,1.2745"/><path class="cls-20" d="m481.263,275.3276l1.7178,3.8467c.1935.4332-.0009.9413-.4342,1.1347l-18.7615,8.3776c-.4967.2218-1.0601-.071-1.1914-.5989-.4578-1.8402-.5624-3.7429-.3212-5.7106.2894-2.3274,1.3932-5.738,3.3031-10.2275,1.5378-3.6255,2.4101-6.0067,2.6168-7.1435.2646-1.5627.1323-2.931-.3927-4.1092-.5788-1.2981-1.3766-2.1455-2.3853-2.53-1.0128-.3886-2.1331-.3059-3.3651.2439-1.2195.5416-2.0257,1.3435-2.4143,2.3977-.3336.8954-.2914,2.0443.1266,3.4416.1302.4353-.127.8944-.5583,1.0373l-4.413,1.463c-.4612.1529-.9708-.1063-1.0986-.5751-.8139-2.985-.6711-5.487.4285-7.5124,1.203-2.2117,3.1749-3.9314,5.9158-5.1551,3.0013-1.3394,5.7256-1.5833,8.1646-.7317,2.4391.8557,4.196,2.4845,5.2708,4.8947.6118,1.3684.9467,2.7822,1.0087,4.2415.062,1.4593-.1364,3.1046-.5994,4.936-.3018,1.2154-.9963,3.0757-2.0835,5.5892-1.0872,2.5093-1.7528,4.1505-2.0009,4.9236-.2439.7731-.401,1.4882-.4671,2.1538l10.7991-4.8214c.4332-.1934.9412.001,1.1347.4342Z"/><path class="cls-20" d="m485.8097,268.334l3.4026-2.9878c.3279-.2879.827-.2888,1.1427.0125.8968.8561,1.8377,1.3669,2.8275,1.5324,1.1823.2026,2.282-.0455,3.2948-.74,1.0872-.7441,1.7239-1.7818,1.9016-3.117.1819-1.3353-.2108-2.7036-1.1658-4.1051-.9095-1.327-1.9843-2.1331-3.2287-2.4225-1.2443-.2852-2.377-.0785-3.4023.6201-.4262.2911-.8671.6687-1.3248,1.134-.4172.4241-1.1242.3282-1.391-.2035l-1.4737-2.937c-.1841-.367-.0619-.8011.2659-1.0483,1.103-.8319,1.7839-1.7471,2.0425-2.7534.3018-1.1699.0827-2.2985-.6614-3.3857-.6366-.926-1.4138-1.4758-2.344-1.6495-.926-.1736-1.8438.0496-2.7574.6738-.9012.616-1.4593,1.4552-1.6701,2.5176-.1677.8618-.0443,1.7997.3723,2.8138.1706.4154-.0335.8924-.4413,1.0804l-3.8186,1.7608c-.4481.2066-.99-.0037-1.1616-.4662-.5767-1.5539-.8624-2.9501-.8624-4.1884,0-1.4593.4175-2.8938,1.2485-4.2952.8309-1.4056,2.005-2.6251,3.518-3.6586,2.5879-1.7735,5.2295-2.3688,7.9249-1.7859,2.2117.4713,3.9025,1.5585,5.0641,3.2576,1.3743,2.0065,1.6036,4.3014.6901,6.8823-.2138.6042.329,1.2286.9578,1.105,1.2417-.2441,2.4682-.1813,3.6808.1856,1.7487.5292,3.1914,1.6288,4.3283,3.2907,1.6536,2.4184,2.1786,5.0765,1.5792,7.9869-.6036,2.9062-2.2158,5.2584-4.845,7.0567-2.4887,1.7032-5.0435,2.3977-7.6603,2.0877-2.3427-.2808-4.3749-1.2883-6.0966-3.0223-.3409-.3433-.3002-.9123.0633-1.2315Z"/><path class="cls-20" d="m507.3753,251.5958l-3.1644-3.4364c-.3214-.349-.299-.8924.0499-1.2138l7.9675-7.3395c.349-.3215.8926-.2992,1.214.0499l3.1644,3.4364c.3214.349.299.8924-.0499,1.2138l-7.9675,7.3395c-.349.3215-.8926.2992-1.214-.0499Z"/><path class="cls-20" d="m536.5782,226.7502l3.2718,2.6579c.3682.2991.4243.8401.1252,1.2084l-12.9516,15.9477c-.3428.4221-.9773.4157-1.333.0045-1.239-1.4322-2.1965-3.0826-2.8674-4.9487-.7937-2.2076-1.3518-5.7463-1.6743-10.6161-.2646-3.9273-.5664-6.4449-.8971-7.5528-.4671-1.513-1.203-2.6788-2.2034-3.4891-1.1038-.8971-2.1952-1.2898-3.2741-1.1782-1.0748.1116-2.0381.6904-2.8897,1.7363-.8433,1.0335-1.1989,2.1125-1.0707,3.2287.1054.9519.6614,1.9575,1.668,3.0168.313.3294.291.8552-.0292,1.1777l-3.2743,3.2983c-.3422.3447-.9137.344-1.2396-.0162-2.0769-2.2945-3.0801-4.5928-3.0159-6.8979.0744-2.5176,1.0583-4.9401,2.9475-7.2717,2.0753-2.5507,4.3944-3.9976,6.9534-4.3407,2.5631-.339,4.8657.3183,6.9162,1.9843,1.1617.9467,2.1042,2.0546,2.8153,3.3279.7152,1.2733,1.2815,2.8318,1.6991,4.6714.277,1.2237.4961,3.1997.6614,5.9282.1654,2.7326.3142,4.4978.4423,5.2957.1323.802.3183,1.513.554,2.1331l7.4576-9.1804c.2992-.3683.8402-.4243,1.2085-.1251Z"/><path class="cls-20" d="m550.1792,212.1333l-4.3636-2.4201c-.415-.2302-.938-.0802-1.1681.3348l-5.7813,10.4316c-.23.4151-.753.565-1.168.3349l-3.9069-2.1665c-.1512-.0838-.2736-.2114-.3512-.3659l-11.1784-22.2684c-.1272-.2535-.1212-.5534.0162-.8016l1.9644-3.5478c.2299-.4152.753-.5653,1.1681-.3352l16.9924,9.4191c.415.23.9379.0801,1.1679-.3349l1.1719-2.1142c.2301-.4151.7531-.565,1.1681-.3348l3.4087,1.8908c.4148.2301.5646.7529.3347,1.1677l-1.1723,2.1149c-.23.4149-.0801.9377.3347,1.1678l4.3635,2.4201c.415.2302.5648.7533.3345,1.1682l-2.1674,3.905c-.2302.4148-.753.5644-1.1678.3344Zm-10.7778-5.9737l-6.7485-3.7411c-.7418-.4112-1.5675.387-1.1815,1.1423l4.2311,8.2802c.3129.6124,1.1828.6272,1.5163.0258l2.5174-4.5392c.2301-.415.0803-.938-.3348-1.168Z"/><path class="cls-6" d="m427.0416,209.4076c-12.5636.653-37.5118-8.9917-43.7344-11.8337-6.2227-2.842-32.1195-9.208-44.7767.5335,0,0,17.4876,20.1424,30.2116,25.1596s33.873,6.9587,47.0572-1.8094c13.1842-8.7681,11.2423-12.05,11.2423-12.05Z"/><path class="cls-6" d="m406.1372,237.1249c7.4376-6.257,18.5349-14.2849,39.9032-11.3334,0,0-5.3126,10.1529-16.4099,12.8682-11.0973,2.7153-18.5349,1.6528-21.7224,0l-1.7709-1.5347Z"/><path class="cls-6" d="m455.4122,184.7679c-2.4909,5.48-22.1658-50.5447,33.9204-90.1744,0,0,2.2806,38.1184-2.8899,53.2315-5.1704,15.113-11.2553,16.2885-16.609,20.6545s-13.5819,14.4413-14.4215,16.2885Z"/><path class="cls-6" d="m490.7541,147.3088c1.5284-7.542,1.7381-24.5657,9.3067-33.2699,7.5686-8.7042,10.7731-8.8277,10.7731-8.8277,0,0-.8172,19.605-7.0315,28.2014-6.2143,8.5964-13.0483,13.8962-13.0483,13.8962Z"/><path class="cls-2" d="m389.5228,36.7905c-38.5125,7.2017-67.0832,36.4824-79.4004,55.2434l30.4992,27.666,48.4226-30.9455,2.6075-38.1781-2.1288-13.7859Z"/><path class="cls-6" d="m368.9131,12.8231c-14.123,26.93-27.2265,26.93-31.601,45.0246-2.5145,10.4011,3.1332,19.825,11.8572,23.4441.1891.0811.4052.162.5943.2432l12.6674,3.133,4.0514-3.2412c-.0541-.4861.162-1.6746.162-1.6746,0,0-.0811-.4321-.2161-1.1884-.027-.027-.027-.0539,0-.0809-.7832-4.5105-4.0904-19.9207-3.3762-23.5793,1.8472-9.4623,7.6535-12.2544,9.021-20.6351,2.2513-13.7969-3.1601-21.4455-3.1601-21.4455Z"/><path class="cls-9" d="m361.8714,84.6664c-6.3883-4.947-16.358-7.8348-16.358-7.8348,0,0,.6876-7.907,3.5753-9.2821,0,0,10.0129-.0651,17.7952,13.1343l-5.0125,3.9826Z"/><path class="cls-11" d="m465.1635,102.788c-1.7653,25.7145-18.7529,65.7849-25.8475,78.1758,0,0-14.6226,8.1274-52.3615,13.9231-37.7056,5.7957-64.9188-18.4532-76.9099-33.3088-11.9579-14.8891-14.9558-48.5643-7.1948-61.0884,7.7277-12.5241,25.6478-20.1184,37.006-20.2849,1.932-.0333,3.8639.0665,5.6625.2997.5995.0333,1.1659.1,1.7321.1998,8.2272,1.1659,14.6226,3.9638,14.6226,3.9638l4.9963-3.9971c-.0667-.5995-.1-1.2658-.1-2.0318,0-.4664,0-.9659.0333-1.4989-.0333-.0333-.0333-.0665,0-.0998.333-11.9913,5.9955-35.4073,19.4191-40.3702,14.989-5.496,33.3419-6.0956,47.5649,6.9614,14.2229,13.0903,33.1423,33.4422,31.3768,59.1564Z"/><path class="cls-18" d="m449.782,116.6209c-8.0517-1.8828-10.1683-10.7933-3.9426-16.1559.6584-.5671.2632-1.6408-.6058-1.6432-8.1168-.0225-12.3953-8.1713-6.783-15.2105.5986-.7507-.1077-1.77-1.0249-1.486-8.7075,2.6956-13.9869-1.8724-10.516-9.6996.3879-.8746-.5512-1.7128-1.3572-1.1973-8.5768,5.4855-18.1387,2.317-19.2133-4.1305-.1396-.8379-1.1648-1.079-1.6837-.4065-3.9981,5.1818-10.0054,4.9403-12.1308.1839-.3223-.7213-1.2935-.8307-1.677-.1399-3.3409,6.0183-14.9694,9.2961-18.73,6.3266-.5409-.4271-1.3502-.0133-1.4643.6664-.8608,5.1294,2.2944,11.6074,2.491,14.1327.0587.7536-2.0679,2.8542-3.0552,2.6123-3.5352-.8663-13.7509-4.0114-17.3848-4.647-.5909-.1033-1.081.2693-1.1205.8678-.1967,2.9836-5.6121,8.4493-13.1761,7.8343-.8431-.0686-1.4223.8811-.8638,1.5163,3.754,4.2694,2.4198,10.9401-3.4292,12.2817-.8306.1905-1.0676,1.1716-.4051,1.7076,3.9737,3.2152.7554,9.5271-5.394,12.333-.8264.3771-.7176,1.5656.167,1.7721,8.1099,1.893,8.9446,9.4073,1.3726,14.1882-.8024.5066-.4852,1.7086.4631,1.7441,9.3706.3502,13.7936,8.386,8.6556,15.6021-.526.7387.1766,1.702,1.0439,1.437,8.3484-2.551,13.9376,4.2497,13.2759,11.1107-.0761.7893.7639,1.3796,1.4169.9296,6.1717-4.2526,19.4561-1.389,20.3072,6.201.0943.8408,1.0892,1.1644,1.6433.5251,8.2465-9.5129,25.348-3.3648,31.9453,2.6973.5851.5377,1.5606.234,1.6123-.5589.5462-8.3717,14.8226-19.2856,22.337-18.8826.7229.0388,1.1618-.6598.8877-1.3298-2.3038-5.6332,4.2448-17.009,11.7019-18.5262.7619-.155,1.1349-1.0777.5519-1.5921-5.1428-4.5378-3.7649-15.2201,4.3092-19.3238.7764-.3946.6231-1.5417-.2249-1.74Z"/><path id="path902" class="cls-16" d="m350.2877,98.1514c-10.4388,20.9401-1.9263,46.371,19.0088,56.807,20.9356,10.4363,46.3718,1.9289,56.8105-19.0116,10.4383-20.9396,1.9213-46.3738-19.014-56.8099-20.9354-10.4361-46.367-1.925-56.8052,19.0146Z"/><path id="path902-2" class="cls-16" d="m350.2877,98.1514c-10.4388,20.9401-1.9263,46.371,19.0088,56.807,20.9356,10.4363,46.3718,1.9289,56.8105-19.0116,10.4383-20.9396,1.9213-46.3738-19.014-56.8099-20.9354-10.4361-46.367-1.925-56.8052,19.0146Z"/><path id="path904" class="cls-17" d="m350.9975,98.6319c-5.1776,10.3866-5.5885,21.8978-2.0726,32.0604l2.333-1.7559,2.7976.3036.4846-4.1623,1.6692.1475.9649-.7395.2034-1.3514-1.6685-1.9036-.1173-2.1571.8229-6.8351,1.709-2.0991-.0879-2.349.0611-1.997-1.0804-.997-1.1184.4756-.2122-1.9267-1.7885-.8657.2451-.7044,1.6227-1.1282.37-3.1346,3.3729-3.5361-.9962-1.5234-.7878-1.9422-1.4327.0157c-2.0324,2.4344-3.8171,5.1433-5.2938,8.1055h0Zm7.1296-10.1546c.4848-.5078.9764-1.0083,1.4839-1.488.876-.8285,1.7921-1.6093,2.7299-2.3525l2.2259-1.6474.6676.4685,3.0753-.5461,1.2278-.8153,3.5788-1.9419.8042.8855-.0357,1.2152,2.0306.3926,1.7248-1.4262,5.3429-2.4634,3.5985-.9182,3.081.6385,3.108-.4394,1.806.7775,2.6819-.1159,1.7557-1.0493,1.8263.2712,1.7032,1.0361,1.8839,2.0434,3.4603,3.294,2.5254.2645,3.1383,1.9325.6576.9541-.0553.8956-4.3909-.9359.8412,1.1039,2.5316.5579-.539,1.294-1.0523.4761.9953,3.8924,2.0405,2.1281.543,1.7818,2.779,1.6435,1.2138,1.6057-.5776,1.1586-4.2805-.7584-1.8601.222-1.092.9538-1.5334.8566-2.7375,1.2508.7138,3.5263-1.1267,2.2603-2.897,2.2622.4986,1.1267,6.2896-1.6237.2095-1.4841.6343-1.2724,1.9809.6386.7152,3.1784-1.6913,3.619-.5979,1.6649.1574,1.0666-1.1943,1.8906-1.4926-.8344-.6843-1.6844-6.154-.7754.4251,1.6194,3.8213,1.2008,3.124,1.1634,2.8754-1.1816.5278-2.4943-.0204-1.2756.9939-.5184,1.1852.9722,1.8123,3.822.4104,2.3803,2.0957,5.9782,2.0851,4.1391.2186,5.6366-.3755,1.0591c-1.2485,1.7094-2.613,3.3043-4.0758,4.7739l-3.591,1.5806-.9311-.206-2.9022.2255-1.426-1.7119-2.4546-.7522-4.5184.5566-6.0469.2465-1.5396,1.2666-3.9754,2.5512-1.767-.377-1.8573.6819-3.0201-1.0666-.6578-.741-1.0842.0213-1.1593-.9976-2.7994-3.6232-.2284-2.1609.765-1.1489.4208-1.6952-.5468-2.0806.6899-1.7289.2749-1.2962,3.8005-3.3167,1.8764-1.9961,1.0012-.1209.6108.7954,1.1412.7946,1.3383-.5983,3.8159-2.6827,1.9135,2.5424.9599-2.5241-.4884-4.3242-.1992-2.8438-.6534-1.9593-2.7536,2.3337-1.1303.1403-.783-1.9785,1.4828-2.2572-6.0778,1.9037,1.0965,6.0418,1.9794,1.187-.0585,2.2178-1.3647.6239-2.9084-2.1277-2.2171.3797-.5891,1.5143-.1717,1.3543-.7748,1.6608.0646,1.6916-1.2576,1.3315-1.0011-.1055-2.9474-3.1932-.853-.07-.2847-1.556-.2152-2.3995.9828-.5627.2078-2.5439,2.6293-.7817,5.3412-4.6794-3.249-2.5882-.5019-2.5425-1.1421-1.1119-2.4036-.6818.0245.9874,2.0416,2.0055-.4925.9879.9116-.1139.7159,1.6743-.1815,1.1621-.625.0436-1.5666-.4066-.9699,1.2275-1.3308-.5339-.2102-.841-.9372-1.6426.3118-2.2338-.6455-3.531.693-2.3603.948-1.7422,1.2424-.485,1.0409-.5596-1.2747-1.1651.5838-1.0781-1.7333-1.5482.7451-.3777-1.4811-1.4424.2205-2.5826,1.4624-.4077-2.1328-4.6146-1.6185-1.8982-1.284.9939-2.4874-.6332-.705-.2607-2.3296.9112-1.5157.8072-2.6749,1.8433-.8812-2.0341-1.0985-2.5929h0Zm1.42,19.9895l2.6465-4.9766.9288.037,1.352-.8113,1.4166,7.2341-.9969,1.1753-3.6559,5.0739-1.8831,3.0196-.8335.0105-1.1066-3.0309,1.1964-2.1739.0952-1.7993.693-.7651.1475-2.9933h0Zm9.4763,45.4751c.1952.1011.3864.2055.5839.304,2.82,1.4058,5.7246,2.4549,8.6618,3.1748l-.7091-3.5756-2.5224-.6827-2.6327.7346-3.3816.0449h0Zm23.2988-45.1833c-.1183.2547-.2039.5854-.2552.9641.6119,1.7128,2.009.5992,3.4043.9608l.9341.2266c.5756.2332,1.1653,1.1137,1.721.509.3051-.4693.4744-.9805.4781-1.5435-.7204-.5587-1.5571-.7532-2.3732-1.0086-1.0247.1434-2.9694.5786-2.6972-.5183-.5349-.3626-.9512-.1511-1.2119.4098h0Zm30.6643,17.7265l-.6643,3.4464.9543,1.9673,1.0401.4927,1.4448-.7713.2264-1.8372-1.157-3.5149-1.2545-.5545-.5897.7716Z"/><path class="cls-15" d="m428.5144,121.4128c.8744-3.8296,1.306-7.792,1.3392-11.8872-.3984-2.4461-1.0736-4.8368-1.9148-7.1501l-.1992.0332c.7416,6.0433.4317,11.9205-.6751,17.4546-3.7189-4.0288-8.7217-7.3825-14.3666-10.1717,2.1141-8.3897,1.1401-15.7058-1.6159-21.7158,4.062,1.14,8.1573,2.9552,12.2193,5.6669l.1107-.1328c-.7416-1.1401-1.5496-2.2136-2.4239-3.2873-3.6526-2.0476-7.3161-3.4311-10.9465-4.2945-1.771-3.2319-4.0288-6.0432-6.6077-8.4007-1.3503-.5313-2.7227-.974-4.0952-1.3393l-.0996.1328c3.8185,2.7228,6.6077,5.8108,8.6221,9.0981-8.9652-1.6824-17.5873-.2657-24.8813,2.1804-.7637-1.1732-1.6049-2.2468-2.6785-3.1212-1.0737-.8412-2.3133-1.4721-3.6304-1.8816,3.4644-3.088,7.8585-5.9768,13.3593-7.482l-.0996-.4096c-1.3725-.0332-2.745-.0332-4.1285.0443-4.5269,1.8705-8.1904,4.5933-11.1789,7.3493-3.2541-.476-6.8845.1992-10.4373,1.9148.1328-.6087.2656-1.2507.4316-1.948l-.1992-.0332c-.6419.3652-1.2064.808-1.8151,1.306-.1328.6087-.2657,1.1732-.3653,1.7487-2.8224,1.6381-5.4788,3.9624-7.792,6.8512-.7084.8965-1.3393,1.8374-1.948,2.7781-.0996-.0332-.166-.0332-.2325-.0664-.332.5092-.642,1.0072-.9408,1.5496.0996,0,.166.0664.2324.0664-2.3465,4.2945-3.4533,8.9652-3.1212,13.1269-.8411,1.1401-1.6381,2.3797-2.4129,3.6968-.0996.7305-.1328,1.4389-.166,2.1804l.6641.3653c.7748-1.3393,1.5163-2.6232,2.3243-3.7964.6641,2.7891,2.0144,5.1024,4.0288,6.7516-.7748,3.2541-1.3503,6.652-1.3835,9.906-.0332,5.8108,1.7488,11.046,3.4976,14.8093q0,.0332.0332.0664c1.306,1.6713,2.7781,3.2541,4.3609,4.7261l.1992-.166c-.0332,0-.2656-.332-.6309-.9408,2.9884.8412,5.9769,1.2397,8.9653,1.2397,2.5124,0,5.036-.2989,7.4821-.8301,3.3536,4.2944,7.6923,8.124,13.3593,11.3449-.2657.0332-.4981.1328-.7748.166l.1107.5092c2.1472,0,4.3277-.1771,6.4417-.5092,7.792-2.4793,14.599-6.7184,20.0777-12.1197.8744.4317,1.7156.8412,2.5124,1.1732.3431-.2988.6752-.5977,1.0072-1.0072l.1328-.332c-.7637-.3431-1.5717-.7416-2.4129-1.1401,5.7444-6.0764,9.906-13.5364,12.1197-21.8597.5091.6751,1.0072,1.306,1.4167,2.0144l.2989-.166c.166-.642.2656-1.3061.3653-1.948-.4649-.7416-.974-1.4499-1.5385-2.1141Zm-19.5132-33.9794c3.3979,6.818,3.6636,14.3333,2.0144,21.4502-8.4229-3.9292-17.8862-6.6409-26.287-8.4229.4759-2.114.6419-4.2281.4427-6.3089-.1771-1.8151-.6419-3.4975-1.3503-5.0028,7.4268-2.4572,16.1153-3.73,25.1801-1.7156Zm1.5495,23.199c-.9739,3.5308-2.3465,6.9176-4.062,10.0389-2.3132,4.2281-5.3016,8.2569-8.7992,11.8208-7.1832-6.1761-14.3333-13.2265-20.1441-19.2033.5423-.5756,1.0404-1.1401,1.5495-1.7488,2.4461-2.8556,4.1949-6.0433,5.1688-9.3305,8.2901,1.782,17.853,4.4937,26.287,8.4229Zm-60.3659-.7084c1.6049-2.1472,3.4312-4.0509,5.844-5.9436l-.2657-1.959c-2.3243,1.7266-4.1173,3.4311-5.6779,5.2574.1328-3.3979,1.2396-7.0505,3.1876-10.5148,1.1733.4538,2.435,1.0072,3.4533,1.4942l.8633-1.5163c-1.1954-.5202-2.3465-1.0515-3.409-1.4499.4981-.7748,1.0404-1.5496,1.6049-2.28,1.8484-2.3244,3.9292-4.2059,6.0875-5.678-.2435,2.0255-.2989,3.73-.2435,5.4788l1.7156-.819c-.0332-1.8152.0664-3.5862.4317-5.8662,2.922-1.6159,5.9436-2.4903,8.7328-2.4903.166,0,.3321.0332.5092.0332-2.9552,3.0438-5.0582,6.0322-6.3089,7.947l1.616.6531c1.3614-2.0366,3.6193-5.191,6.8069-8.3233,1.5053.332,2.922.9408,4.0952,1.8816.8412.6641,1.5053,1.472,2.0808,2.3796-4.5158,1.6713-8.5335,3.6636-11.7212,5.5673l.4759,1.6713c3.243-1.9369,7.4157-4.0288,12.1529-5.7666.6309,1.3835,1.1068,2.9552,1.2396,4.6376.1992,1.9148.0332,3.8628-.3984,5.8108-5.0471-1.0293-9.6404-1.6935-13.1933-2.0697l-.5534,1.6824c3.3425.3652,8.0023,1.0403,13.2708,2.0918-.9408,3.0217-2.5457,5.9769-4.8036,8.6-.4648.5645-.974,1.0404-1.4389,1.5717-3.6857-3.8628-6.7627-7.1943-8.7549-9.3969l-1.1622,1.2839c2.0144,2.2247,5.0693,5.5341,8.7439,9.3637-2.8224,2.6785-6.0764,4.5601-9.3083,5.5673-.5313-3.0217-1.0404-6.0433-1.5053-9.0981-.1992-1.2839-.4095-2.5789-.6309-3.8517l-1.6381.6641c.1881,1.1511.3653,2.3133.5534,3.4976.5092,2.9773.974,6.0764,1.5827,9.1644-3.4975.7305-6.7848.332-9.3969-1.3835.9187-3.5861,2.2247-7.4046,3.8407-11.1678l-1.5164-.8634c-.8301,1.9591-2.4903,6.0986-3.7742,10.9243-1.7156-1.7156-2.8224-3.9956-3.1876-6.7848Zm7.4489,34.8206c-1.8815-3.4865-4.4604-9.5297-4.4273-16.2481.0332-2.59.4649-5.6116,1.2065-8.8656,1.9812,1.1732,4.2281,1.7488,6.652,1.7488,1.14,0,2.3132-.166,3.4864-.4095,1.7488,8.6996,4.4052,17.3992,9.7732,24.9145-5.4455,1.0404-11.0793.7748-16.6909-1.14Zm8.5668-24.173c3.5197-1.0404,7.0504-3.1212,10.1384-6.0764,5.8108,5.9769,12.9609,12.9941,20.1441,19.2034-5.8108,5.6116-12.8612,9.906-20.4098,11.7544-5.4455-7.3604-8.0908-15.9825-9.8728-24.8814Zm25.0141,37.5323c-5.9769-3.0881-10.5148-6.8845-14.0013-11.1457,7.6149-2.0476,14.7318-6.4749,20.5758-12.1529,5.3016,4.5048,10.5812,8.4229,15.2741,11.1124-5.8772,5.7112-13.3261,9.9392-21.8486,12.1861Zm23.0662-13.459c-4.704-2.5899-9.9393-6.5191-15.2852-11.046,3.5639-3.6636,6.6188-7.792,8.9984-12.1197,1.9148-3.4975,3.2651-6.8512,4.1949-10.072,5.7776,2.8556,10.8801,6.3421,14.4772,10.5037-2.0808,8.7328-6.4196,16.4916-12.3853,22.7341Z"/><path class="cls-14" d="m422.8217,140.8114c3.1236-5.9529,4.8897-12.7289,4.8897-19.9163,0-23.7092-19.2207-42.9299-42.9313-42.9299-8.9579,0-17.2759,2.7443-24.1573,7.4379,7.3646-6.3791,16.9728-10.2379,27.483-10.2379,23.1996,0,42.0014,18.8019,42.0014,41.997,0,8.7705-2.6887,16.9127-7.2856,23.6491Z"/><path id="path902-3" class="cls-13" d="m350.2877,98.1514c-10.4388,20.9401-1.9263,46.371,19.0088,56.807,20.9356,10.4363,46.3718,1.9289,56.8105-19.0116,10.4383-20.9396,1.9213-46.3738-19.014-56.8099-20.9354-10.4361-46.367-1.925-56.8052,19.0146Z"/><path class="cls-7" d="m329.6563,198.5797l-4.1639-6.6545-25.6746,16.2295s-.3145.142-.6058.8459c-.3436.6909-.221.9722-.221.9722l3.3798,5.4807s.2913.4917.8653.6386c.5549.1142.9675-.0862.9675-.0862l25.4526-17.4263Z"/><path class="cls-12" d="m340.3817,191.1034l-10.7303,7.468-4.172-6.6437,10.6271-6.7283-8.3527-11.8082,6.7808-4.66c10.1279,9.2527,22.3205,27.8582,18.2747,41.4811-4.3761-8.0907-12.4276-19.1089-12.4276-19.1089Z"/><path class="cls-9" d="m334.0285,225.1428l9.3783,11.3392c.355.4292.9885.4946,1.4237.1469l2.834-2.2641c.4457-.3561.5131-1.0084.1495-1.448l-9.3324-11.2839c-.3642-.4403-.296-1.0939.1513-1.4495l4.3058-3.4238c.4354-.3462,1.0678-.2801,1.4221.1487l10.1106,12.2347c.3549.4295.9886.495,1.4239.1473l2.8343-2.264c.4463-.3565.5132-1.0097.1485-1.4493l-13.9382-16.8008c-.3552-.4281-.9877-.493-1.4225-.146l-24.2948,19.3959c-.4467.3566-.5135,1.0105-.1482,1.4501l14.391,17.318c.3554.4277.9878.4922,1.4222.1451l2.8339-2.2642c.4459-.3563.5131-1.0089.149-1.4485l-10.5158-12.698c-.3638-.4393-.297-1.0914.1482-1.4479l5.101-4.0843c.4351-.3484,1.0693-.2833,1.4246.1462Z"/><path class="cls-9" d="m403.2891,250.4746c-1.124-1.0068-2.895-1.8989-5.4189-2.73l-11.6934-3.7768c-.5254-.1697-1.0905.1091-1.2755.6294l-10.2753,28.8978c-.192.54.098,1.1321.6424,1.3115l3.4736,1.1444c.527.1736,1.0962-.1055,1.2815-.6285l3.8954-10.9909c.1837-.5183.745-.7979,1.2693-.6324l2.1771.6872c.7381.2508,1.2767.4687,1.5603.6209.0511.0274.0915.0539.1383.0881.3375.2468.6572.5751.9996,1.0258.3755.4937.7139,1.4966.936,2.208.3428,1.1016.6763,2.667,1.0703,4.6729l1.3518,7.1147c.0697.3667.3339.6661.6891.7808l4.3471,1.4037c.7377.2382,1.4612-.4004,1.3165-1.162l-1.7743-9.335c-.3687-1.9272-.916-3.6294-1.6133-5.0293-.0747-.1636-.1646-.3335-.2695-.5098,1.8687,0,3.4858-.3843,4.8564-1.1855,1.8823-1.1001,3.2607-2.8145,4.0942-5.0879.6479-1.7188.8193-3.4771.5093-5.2261-.3076-1.7329-1.0742-3.1738-2.2881-4.291Zm-5.019,9.6279c-.5659.502-1.2212.7593-2.0615.8101-.9053.0508-2.0781-.1533-3.5806-.6357l-5.529-1.7826c-.5475-.1765-.8411-.7703-.6489-1.3125l2.0397-5.7545c.1848-.5213.751-.8006,1.2771-.6299l6.4811,2.1026c1.666.5269,2.7866,1.2822,3.2402,2.1826.4673.9312.5049,1.9048.1191,3.0645-.2446.7354-.6821,1.375-1.3374,1.9556Z"/><path class="cls-9" d="m376.6802,249.4653c1.041-1.5127,1.6294-3.1782,1.7485-4.9502.1177-1.7563-.2803-3.3389-1.1899-4.7148-.8501-1.2476-2.3545-2.5391-4.605-3.9517l-10.445-6.4748c-.4693-.2909-1.0848-.1559-1.3893.3047l-16.9137,25.5846c-.316.478-.1767,1.1225.3086,1.4273l3.0975,1.9455c.4699.2951,1.0895.1608,1.395-.3024l6.4202-9.7338c.3028-.4591.9148-.5957,1.3841-.3091l1.9487,1.1902c.6561.4198,1.1261.7601,1.3648.9758.0433.0391.0763.0747.1137.1195.2686.3215.5002.7171.7242,1.2363.2461.5703.334,1.625.3784,2.3677.0684,1.1519.0161,2.752-.083,4.7939l-.3965,7.2305c-.0204.3727.1642.7268.4814.9235l3.8829,2.407c.6589.4084,1.5146-.0377,1.557-.8118l.5196-9.4884c.105-1.959-.0181-3.7427-.3584-5.269-.0332-.1768-.0796-.3633-.1396-.5596,1.8018.4585,3.4761.4648,4.9995.0151,2.0918-.6162,3.8418-1.9497,5.1963-3.9561Zm-12.1445-2.7104l-4.9397-3.0582c-.4891-.3028-.6315-.9499-.3147-1.4301l3.3625-5.0956c.3045-.4615.9212-.5966,1.3908-.3047l5.7867,3.5967c1.4907.9116,2.397,1.9141,2.6211,2.8975.23,1.0161.0332,1.9702-.6206,3.0034-.4141.6548-.9922,1.1709-1.7681,1.5771-.6694.3506-1.3647.4429-2.1953.291-.8926-.1646-1.98-.6479-3.3228-1.4771Z"/><path class="cls-9" d="m433.1877,257.5376l.2318-3.5643c.0372-.5724-.4044-1.0631-.9776-1.0862l-22.3094-.8976c-.5516-.0222-1.0209.3982-1.0593.949l-2.1173,30.3826c-.04.5739.4019,1.0674.9766,1.0909l23.0524.9414c.5537.0226,1.0243-.4007,1.0602-.9537l.2316-3.5639c.0372-.5731-.4054-1.0641-.9792-1.0862l-16.8602-.6505c-.5757-.0222-1.0189-.5161-.9789-1.0908l.4401-6.3247c.0383-.5509.5079-.9715,1.0597-.949l15.106.6135c.5505.0224,1.0194-.3962,1.0595-.9457l.2567-3.5204c.0419-.5751-.4005-1.0708-.9767-1.0941l-14.9892-.6081c-.5746-.0233-1.0166-.5165-.9769-1.0902l.3662-5.3023c.038-.551.5074-.9718,1.0593-.9496l16.265.6536c.5534.0222,1.0236-.401,1.0596-.9537Z"/><line class="cls-5" x1="438.5569" y1="77.1073" x2="462.7395" y2="64.5156"/><line class="cls-5" x1="437.1945" y1="59.5255" x2="463.2862" y2="64.5156"/><path class="cls-7" d="m458.641,65.8788c-10.647-3.8683-25.9823,8.206-28.3233,13.9311-.3677.8992-1.4053,2.3962-2.1298,3.3993,1.2774-.358,2.9931-.4634,3.8058-.3138,6.0981,1.1232,23.9387-6.7528,26.6473-17.0167Z"/><path class="cls-7" d="m458.5821,63.352c-5.8802-9.6822-25.3975-9.8683-30.8073-6.8697-.8497.471-2.596.9887-3.789,1.3172,1.2202.5206,2.624,1.5125,3.164,2.1381,4.0518,4.6937,22.8942,9.722,31.4323,3.4144Z"/><path class="cls-7" d="m465.4215,78.2218c-.586.1907-1.1329-.081-1.1329-.081l-6.1339-3.1511s-.2445-.2036-.3122-1.019c-.1076-.8083.0884-1.0929.0884-1.0929l14.9773-28.8053,7.6558,3.4098-14.2952,30.169s-.2539.4196-.8471.5704Z"/><path class="cls-12" d="m485.6202,36.8659l-5.0564,10.6164-7.6558-3.4098,5.3677-10.3429-15.394-6.3517,3.5433-8.435c25.9803,5.5734,35.208,13.2523,41.0078,29.5734-7.6514-6.3303-21.8127-11.6504-21.8127-11.6504Z"/><path class="cls-9" d="m502.2402,81.6538c-.0156-.1948-.042-.3975-.0762-.6074,1.8818.9731,3.7266,1.4443,5.5029,1.374,2.4443-.144,4.5273-1.0767,6.3799-2.8647,1.3467-1.3477,2.2666-2.9644,2.7412-4.8354.418-1.8896.252-3.5981-.5078-5.2241-.6934-1.4844-2.0381-3.1431-4.3662-5.3867l-10.2995-9.7139c-.4008-.378-1.0293-.3698-1.42.0187l-22.8069,22.6728c-.4083.4059-.4003,1.0691.0178,1.465l3.0468,2.8855c.4004.3793,1.0297.3718,1.4211-.0168l8.7592-8.6974c.391-.3882,1.0195-.3961,1.4201-.0178l2.1632,2.043c.6768.6807,1.2109,1.2188,1.3828,1.4912.3193.5552.5303,1.0801.6641,1.6533.1533.6543.1572,1.5923.0059,2.6924-.1084,1.2451-.4043,2.9629-.8789,5.1099l-1.6413,7.596c-.0754.3487.0369.7115.2959.9568l3.8251,3.6215c.5777.5469,1.5312.2521,1.6994-.5254l2.1568-9.9697c.4414-1.9458.6104-3.8057.5146-5.7207Zm5.916-13.4141c1.5312,1.4272,2.3584,2.7583,2.459,3.957.0938,1.126-.2988,2.1284-1.1953,3.0073-.5361.5684-1.2432.9512-2.1611,1.1709-.8076.1929-1.6533.1011-2.585-.2778-.9404-.3843-2.0879-1.2231-3.417-2.5l-5.1211-4.8411c-.4185-.3956-.4271-1.0589-.0189-1.4652l4.6762-4.6545c.3911-.3893,1.0208-.3973,1.4216-.018l5.9416,5.6215Z"/><path class="cls-9" d="m527.6501,81.5663l-26.5695,18.4362c-.4762.3304-.582.9906-.233,1.4533l2.4775,3.2846c.3297.437.9454.5362,1.3956.2248l26.573-18.382c.4748-.3284.5829-.9849.2386-1.4483l-2.481-3.3388c-.3286-.4421-.9487-.5438-1.4012-.2298Z"/><path class="cls-9" d="m522.0146,130.5742c1.5459,0,2.9453-.2749,4.252-.8311,1.8799-.7627,3.4043-2.0322,4.4307-3.709.4293-.775.737-1.6011.9224-2.4732.1324-.6226.7736-.9689,1.3685-.7424.5663.2156,1.1409.3661,1.7277.4534,1.627.2407,3.1865.0566,4.6045-.5386,1.5586-.6025,2.8828-1.6367,3.9346-3.0732,1.0996-1.5015,1.6338-3.0962,1.6338-4.8755,0-1.6982-.4824-3.6421-1.5234-6.1299l-4.7543-10.9072c-.2214-.5079-.8075-.7464-1.3206-.5375l-30.0871,12.2488c-.5323.2167-.7809.83-.5496,1.3562l4.8658,11.0692c.8975,2.0254,1.7734,3.5669,2.6768,4.7124.9912,1.2588,2.0293,2.1826,3.1553,2.813,1.0859.6416,2.4814,1.0298,4.1846,1.1562.1611.0054.3203.0083.4785.0083Zm-.3996-20.3247c.5139-.2111,1.1023.0276,1.3238.5371l2.1422,4.9253c.7197,1.6904,1.1533,3.1255,1.2539,4.1523.0898.9121-.0811,1.6353-.5791,2.3809-.4053.666-1.0889,1.2017-2.1064,1.6445-.7734.3511-1.5303.4844-2.2354.3994-.7295-.0884-1.3711-.3071-1.8701-.6279-.5146-.3623-1.041-.9243-1.5244-1.6245-.2881-.418-.7031-1.3428-1.1807-2.4038l-2.3305-5.3367c-.2291-.5247.018-1.1352.5476-1.3527l6.559-2.6939Zm12.6287-5.0913c.5133-.2101,1.1004.0281,1.3222.5364l1.7533,4.0178c1.0479,2.4702,1.3516,3.7183,1.418,4.272.0439.7773-.1328,1.4414-.5254,1.9731-.4521.6113-1.0801,1.0835-1.8994,1.4355-.8555.3486-1.6406.4409-2.3232.2754-.6934-.1675-1.335-.5977-1.9141-1.2866-.291-.3384-.9092-1.2134-1.7773-3.2769l-1.902-4.4313c-.225-.5242.0233-1.1311.5513-1.3473l5.2967-2.1682Z"/><path class="cls-9" d="m554.5453,151.9304c-.0683-.5578-.5745-.9554-1.1326-.8897l-18.7135,2.2039c-3.8281.4087-6.4531.1274-7.8154-.8535-1.334-.9131-2.1602-2.7344-2.5264-5.5737-.2119-1.5566-.0635-2.939.4404-4.1079.4824-1.1162,1.2529-1.9487,2.291-2.4741,1.126-.5693,3.0732-1.0259,5.7812-1.3564l18.6663-2.1546c.5628-.065.9651-.5759.8961-1.1383l-.5045-4.1142c-.0682-.5566-.5727-.9539-1.1297-.8898l-18.7104,2.1509c-3.5088.3657-6.3203,1.1162-8.3584,2.231-2.0869,1.1426-3.6016,2.8276-4.4961,5-.8643,2.0454-1.1084,4.6953-.7236,7.8877.417,3.146,1.4111,5.7065,2.957,7.6104,1.5449,1.9019,3.4629,3.1338,5.7012,3.6626,1.2666.2988,2.7295.4487,4.376.4487,1.2012,0,2.499-.0796,3.8877-.2388l18.7207-2.1526c.563-.0647.9654-.5756.8966-1.1381l-.5035-4.1134Z"/></svg>