<?xml version="1.0" encoding="UTF-8"?><svg id="Calque_3" xmlns="http://www.w3.org/2000/svg" xmlns:xlink="http://www.w3.org/1999/xlink" viewBox="0 0 850.3937 850.3937"><defs><style>.cls-1{fill:url(#Dégradé_sans_nom_2);stroke:#b27027;}.cls-2,.cls-3{fill:#353535;}.cls-4{fill:url(#Dégradé_sans_nom_13);}.cls-5{fill:url(#Dégradé_sans_nom_11);stroke:#9f2224;stroke-width:2px;}.cls-6{fill:#9db0db;}.cls-6,.cls-7,.cls-3,.cls-8,.cls-9,.cls-10{stroke:#353535;}.cls-6,.cls-7,.cls-9{stroke-miterlimit:10;}.cls-7{fill:#a65822;}.cls-11{fill:#3c2f24;fill-rule:evenodd;opacity:.4;}.cls-8{fill:#d5d4d4;}.cls-12{fill:#fff;stroke:#2b2523;}.cls-9,.cls-10{fill:none;}.cls-13{fill:url(#Dégradé_sans_nom_13-3);}.cls-14{fill:url(#Dégradé_sans_nom_13-2);}.cls-15{fill:#656d26;stroke:#656d26;stroke-width:.5px;}</style><radialGradient id="Dégradé_sans_nom_13" cx="444.6168" cy="232.8913" fx="444.6168" fy="232.8913" r="26.352" gradientUnits="userSpaceOnUse"><stop offset="0" stop-color="#cad3b3"/><stop offset="1" stop-color="#96bb38"/></radialGradient><radialGradient id="Dégradé_sans_nom_13-2" cx="383.6125" cy="203.8416" fx="383.6125" fy="203.8416" r="35.7072" xlink:href="#Dégradé_sans_nom_13"/><radialGradient id="Dégradé_sans_nom_13-3" cx="387.4385" cy="141.5016" fx="387.4385" fy="141.5016" r="18.6149" xlink:href="#Dégradé_sans_nom_13"/><linearGradient id="Dégradé_sans_nom_11" x1="304.5761" y1="173.0029" x2="545.9009" y2="173.0029" gradientUnits="userSpaceOnUse"><stop offset="0" stop-color="#ca2119"/><stop offset="1" stop-color="#e53833"/></linearGradient><linearGradient id="Dégradé_sans_nom_2" x1="318.8975" y1="226.3785" x2="526.3051" y2="123.7284" gradientUnits="userSpaceOnUse"><stop offset="0" stop-color="#edab31"/><stop offset=".1225" stop-color="#eeaf3b"/><stop offset=".7088" stop-color="#f6c56c"/><stop offset="1" stop-color="#face7f"/></linearGradient></defs><circle class="cls-12" cx="425.2385" cy="173.0029" r="91.6481"/><path class="cls-11" d="m500.9097,225.5792c6.8666-13.0861,10.7489-27.9813,10.7489-43.7811,0-52.1188-42.252-94.3708-94.374-94.3708-19.6918,0-37.9769,6.0328-53.1039,16.3503,16.1894-14.0228,37.3105-22.5054,60.4147-22.5054,50.9986,0,92.3299,41.3313,92.3299,92.3202,0,19.2798-5.9104,37.1785-16.0155,51.9868Z"/><path class="cls-6" d="m496.6465,157.5793c1.2607,19.7864-13.9467,36.855-33.9668,38.1305-11.7882.7511-22.6129-4.1444-29.7876-12.3462-5.0044-5.7162-8.2264-13.0452-8.7438-21.1652-.132-2.072-.0799-4.0995.137-6.1.6702-6.2651,2.9997-12.0924,6.5475-17.004h0c2.4142-3.3587,5.4178-6.2865,8.8554-8.6609h0c.295-.2062.608-.4136.9223-.6023h0c1.8626-1.2057,3.8454-2.2317,5.9292-3.0954,3.5861-1.4655,7.4968-2.3894,11.5766-2.6493,2.4551-.1564,4.8535-.0656,7.1927.2352,14.8597,1.9395,27.0651,12.857,30.4707,27.334.4486,1.9206.7372,3.8889.8668,5.9236Z"/><path id="path3372" class="cls-2" d="m429.6957,207.4449l.0059.0933-.1601.0477s-.0746-.0327-.1865-.0818-.0181.0012-.2057-.0993-.2069-.118-.2815-.1507-1.0519-1.4324-1.0519-1.4324c0,0-.1432.0279-.2876.0371s-.1962.05-.2696.0359c-.0734-.0141-.1613.029-.3273-.0166s-.2767-.0761-.3513-.1088c-.0734-.0141-.1853-.0632-.2599-.0959-.0746-.0327-.2021-.0433-.2045-.0807l-.0095-.1493s.0686-.0606.1409-.0652l.2347-.015c.0542-.0035.2974-.1689.2974-.1689,0,0,.1036-.0816.1361-.1399.0325-.0583.047-.1154.047-.1154l-.0986-.1249s-.2095.1258-.2805.1491c-.071.0233-.2311.0709-.3394.0779l-.361.023-.3791.0242s-.1516-.1028-.2093-.1554c-.0577-.0525-.1516-.1028-.2128-.2113-.0613-.1085-.0986-.1249-.1202-.1798-.0397-.0537-.1022-.1809-.1022-.1809,0,0-.0252-.1108.0109-.1131.0542-.0035.0349-.021.1853.0632.1492.0655.2599.0959.3706.1263s.1468.0281.2732.0201l.4356.0097.2865-.0557s.0879-.0431.0157-.0385c-.0734-.0141-.1492-.0655-.1853-.0632s-.1613.029-.2551-.0212c-.0926-.0316-.1252.0267-.2347.015q-.1095-.0118-.2575-.0586-.1468-.0281-.2587-.0772c-.1107-.0304-.1672-.0643-.2226-.0795-.0553-.0152-.243-.1157-.3007-.1683-.0577-.0525-.2321-.2289-.2718-.2826-.0577-.0525-1.0614-1.5817-1.0614-1.5817l-.6453-1.3083-.3856-.9313-.1946-.4936.1781-.0488s.1648.027.219.0235l.2166-.0138c.0542-.0035.1397-.0839.0855-.0804-.0722.0046-.1083.0069-.2575-.0586s-.1516-.1028-.2238-.0982c-.0553-.0152-.2406-.0784-.2406-.0784,0,0-.1083.0069-.1311-.0666s-.0071-.112-.0107-.168-.0024-.0373-.0311-.2042c-.0288-.1669-.048-.1844-.0539-.2777s.0159-.3196.0123-.3756-.0095-.1493-.0323-.2228-.0107-.168-.0492-.203-.1238-.2358-.1238-.2358l.0218-.2263.1829.0258.1516.1028s.1575.1961.1948.2125c.0565.0339.2273.1542.2995.1496.0734.0141.1468.0281.2406.0784.0926.0316.1143.0864.225.1169s.1323.0853.2755.0574c.071-.0233.1299.0479.1865.0818s.1045.2182.0889.2567l-.1242.3265s-.1192.12-.1157.1761c.0024.0373.0986.1249.0986.1249,0,0,.0879-.0431.1409-.0652s.2071-.1631.2385-.2401.0446-.1528.0772-.2111.0435-.1715.0976-.1749.1613-.029.2166-.0138.1877.1005.2634.1519c.0758.0514.51.3236.5304.3598.0204.0362.4606.4017.4606.4017l.5832.6188.4592.6642.334.6909.3616.8391s-.0083-.1307.024.0922.1033.1996.0045.3558c-.0988.1562-.0845.3802-.0845.3802l-.0242.189s.0698-.0419.1012-.1189c.0494-.0781.0843-.0991.1313-.2145.0651-.1166.0784-.1924.1097-.2694s.094-.2309.1266-.2892c.0337-.0396.0988-.1562.0988-.1562l.1601-.0477s-.0581.5097-.0714.5856-.0736.2671-.0869.3429-.1218.3639-.1183.4199-.0556.2659-.07.3231c-.0133.0758.077.0701.0915.0129.0145-.0571.1964-.3311.2289-.3894.0325-.0583.1615-.3102.1615-.3102,0,0,.0649.1646.0672.2019s.0347.2602.0395.3348-.1389.6648-.1353.7208.001.2998.001.2998c0,0,.0879-.0431.1024-.1002s.0917-.2682.1242-.3265.0748-.2484.0905-.2869.1133-.2134.1133-.2134l.0805.1261.1253,1.3977-.1869.4805-.1266.2892-.0062.1878,1.4139,1.7092Z"/><path class="cls-9" d="m457.8768,111.7528c3.1089-.1642,6.1495-.0342,9.1193.3477,19.9644,2.6058,36.3625,17.2737,40.938,36.7238.6027,2.5804.9904,5.2248,1.1646,7.9584.4915,7.7136-.8799,15.1198-3.7316,21.7894"/><path class="cls-9" d="m458.0484,113.4744c2.9692-.1518,5.8738-.0254,8.7112.3394,19.2487,2.5124,35.0591,16.6545,39.4706,35.4074.5811,2.4879.9549,5.0375,1.1228,7.6732.4755,7.4627-.8575,14.6268-3.6262,21.0745"/><path class="cls-9" d="m458.6374,208.0865c-13.9418-.4607-26.543-6.7723-35.1941-16.662-6.7235-7.6798-11.0524-17.5266-11.7475-28.4359-.1774-2.7838-.1074-5.5077.184-8.1954.7123-6.6584,2.8195-12.9487,6.0284-18.5532"/><path class="cls-9" d="m458.5796,206.3551c-13.394-.4766-25.4957-6.554-33.8117-16.0606-6.4825-7.4045-10.6562-16.8983-11.3264-27.4166-.171-2.684-.1035-5.3103.1774-7.9017.6861-6.4136,2.7146-12.4731,5.8035-17.8728"/><path id="path4227" class="cls-10" d="m485.3789,185.0245l-1.913.6731c-1.2031.3469-2.3858.7609-3.5426,1.2399-1.2767.5921-2.6048,1.0664-3.9678,1.4171-1.9839.5668-.3543.3897-2.8341.8502s-2.6924.7085-4.322.9919-1.5233.2834-3.7906.5314l-5.3494.4605c-.9655.1037-1.9394.1037-2.905,0-1.8164.1258-3.6393.1258-5.4557,0-1.8422-.2126.2834,0-2.5861-.3543-2.2053-.3264-4.3927-.7639-6.5539-1.3108l-2.9758-.5668"/><path id="path4223" class="cls-10" d="m495.0857,167.7009s-.8148.3543-2.8341,1.4171c-1.8452,1.0013-3.75,1.8886-5.7037,2.657-1.6533.7483-3.3442,1.4105-5.066,1.9839-2.6924.7794-3.2947,1.0982-5.7745,1.665s-4.57,1.0628-6.5893,1.3816-4.8888.6022-5.1014.6022c-.8408.1781-1.6932.2965-2.5507.3543h-3.7552c-1.1087.0778-2.2214.0778-3.3301,0-3.1175,0-4.3929,0-6.6956-.2126s-2.7633,0-4.6409-.3188-2.161-.248-4.4992-.6731l-4.9951-.9565c-1.2681-.2359-2.5219-.5434-3.7552-.9211l-2.2673-.6731"/><path id="path4219" class="cls-10" d="m495.0857,151.086c-1.8422.8502-1.8776.7794-3.5426,1.4525-1.0555.5003-2.1445.9264-3.2592,1.2753-1.4799.5975-2.9941,1.1062-4.5346,1.5233-1.913.4251-3.0112.8502-4.6409,1.2045s-4.3574,1.1336-6.6602,1.4879-3.1529.6731-4.8534.8148-2.161.3543-4.57.496-2.7278,0-4.7471,0h-9.2109c-.9211,0-1.7005,0-3.2238-.2834s-1.9485-.1771-3.9678-.5668l-4.8888-.8857c-1.3809-.1686-2.7367-.5016-4.0386-.9919-2.9404-.9211-4.7826-1.3816-6.3059-2.0193l-1.8067-.7794"/><path id="path4209" class="cls-10" d="m431.885,138.0136s0,.2834,1.2399.6377c.9836.4308,2.0031.7745,3.0467,1.0274,1.9839.4251,2.657.6731,4.7826,1.0628s3.5426.6377,5.2431.8502,3.8615.6377,6.0225.744,3.8969,0,5.8099,0,3.1175,0,5.5265-.2834c2.1325-.0479,4.2557-.297,6.3413-.744,2.5507-.5668,4.7826-.9565,7.2978-1.7713,2.5153-.8148,2.8695-.8502,4.6409-1.4879,1.3866-.4937,2.7362-1.0856,4.0386-1.7713l.8857-.5314h0"/><path id="path4261" class="cls-10" d="m448.6417,125.9332s0,.2834.9919.496.6377.3543,1.7005.4605c.8164.1744,1.6459.281,2.4799.3188h3.0821c.7903.0531,1.5833.0531,2.3736,0,.9565,0,1.7005,0,2.9758-.3188,2.161-.3188.9919,0,2.0193-.3543.7309-.175,1.4522-.3879,2.161-.6377.9919-.3188,2.3381-.9211,2.3381-.9211"/><path id="path4229" class="cls-10" d="m441.5918,190.1259s.2834.496-1.3462-1.5588c-1.316-1.4895-2.5013-3.0896-3.5426-4.7826-1.3366-2.1214-2.5205-4.3352-3.5426-6.6247-1.2552-2.2098-2.1633-4.5995-2.6924-7.0853-.3188-2.6216-.5668-4.2512-.5668-5.4202-.1991-1.4813-.1991-2.9825,0-4.4637.052-2.5648.5309-5.103,1.417-7.5104.6449-2.1311,1.438-4.2146,2.3736-6.2351,1.1215-2.2815,2.4372-4.4624,3.9323-6.5185,1.2837-1.7228,2.6553-3.3782,4.1095-4.9597,1.2671-1.5683,2.6528-3.0369,4.1449-4.3929l4.8534-3.9678"/><path id="path4235" class="cls-10" d="m454.5933,127.4211s.6731-.9211-.9565,1.7359c-1.1539,1.8851-2.1949,3.837-3.1175,5.8454-1.3789,2.4175-2.5635,4.9407-3.5426,7.5458-1.1078,2.2573-1.9518,4.6348-2.5153,7.0853-.9919,4.3929-1.665,7.3333-1.9839,9.9902-.3408,2.0835-.4478,4.1986-.3188,6.3059.0663,1.0263.0663,2.0558,0,3.0821,0,.4251,0,.6731.6022,3.5426.3479,2.5049.929,4.9719,1.7359,7.3687.6742,2.2593,1.7415,4.3819,3.1529,6.2705,1.0759,2.1239,2.501,4.052,4.2157,5.7037,2.5861,2.6924,3.3301,3.5426,3.3301,3.5426"/><path id="path4241" class="cls-10" d="m458.5257,127.3503v1.7713c0,3.5426.2834,4.8888.4251,8.1481.1417,3.2592,0,3.0467.4251,7.9001.4251,4.8534.2834,4.7117.5668,9.4588.2834,4.7471.2834,5.2431.6022,10.0611.3188,4.818.496,8.5378.7794,13.0369.2834,4.4992.4605,5.5619.6377,9.3526.1771,3.7906.3897,8.1481.3897,8.1481"/><path id="path4245" class="cls-10" d="m461.714,127.0668s-.3543-.4251,1.0982,1.4879c1.3881,1.7042,2.6887,3.4778,3.8969,5.314,1.0628,1.8067,1.7713,2.409,2.6216,4.1803s1.5233,2.7278,2.5507,4.6763,1.5233,3.1884,2.5507,5.6682c.7501,1.6643,1.3777,3.3811,1.8776,5.1368.6377,2.1964.9565,3.0112,1.4171,5.2077.4368,1.9258.7445,3.8786.9211,5.8454.1768,1.5403.2478,3.0909.2126,4.6409.0008,1.7997-.1057,3.5978-.3188,5.3848-.1635,1.8251-.5563,3.6224-1.1691,5.3494-.5244,1.9008-1.2737,3.7323-2.2319,5.4557-.7812,1.6075-1.6935,3.1479-2.7278,4.6054-1.0901,1.4791-2.2734,2.8872-3.5426,4.2157"/><path id="path4249" class="cls-10" d="m466.2486,126.1103l1.4525,1.0274c1.4525.9919,2.1964,1.3462,3.5426,2.5153s2.3381,1.5942,4.1095,3.2238c1.3844,1.0703,2.6761,2.2554,3.8615,3.5426,1.7005,2.0193,2.409,2.5861,3.5426,4.4283,1.2361,1.5499,2.3271,3.2101,3.2592,4.9597.9505,1.5898,1.7567,3.2615,2.409,4.9951.7649,1.7968,1.3234,3.6746,1.665,5.5974.4786,1.7298.7053,3.5195.6731,5.314.0635,2.6265-.1623,5.2521-.6731,7.8292-.2224,1.5574-.639,3.0807-1.2399,4.5346-.595,1.9322-1.3657,3.8059-2.3027,5.5974-1.2754,2.4444-2.7633,4.7117-3.5426,6.3059l-.8148,1.5588h0"/><path class="cls-7" d="m433.2987,174.0978c-.275.8047-.323.6203-.275.8047.0299.1855-.1988.2938-.4571,1.3598-.2764,1.0672-.2125.9319-.1134,1.9189s.0192.0175.1174.7047c.0982.6872.0407.3535.4048.9488.3461.5964-.0109.1132.2378.6033.2475.4715.0946.6312.0299,1.8911s-.2655.954-.2655.954l-.0313.077c-5.0044-5.7162-8.2264-13.0452-8.7438-21.1652-.132-2.072-.0799-4.0995.137-6.1,0,0,.0385.035.139.7596.1101.8739.0119.1867.1043.4994.0912.2941.2214.0609.6383.9152s.1525.4026.3279.8787c.1765.4948.0335.2415.1982.5496.1658.3268.1727.7199.2951,1.2182s.0347.2602.1652,1.1702.0948.3501.2457,1.2963.1525.4026.2134,1.0735.2892,1.1249.4562,1.4703.0708.2579.3473.6151c.2765.3572.0095.1493.3896.425s.3789.257.7413-.0285.2589-.2039.5705-.1488.5955.2432.9865.4057c.391.1625.3259.2791,1.0379.9272.7119.6481.759.5327,1.183,1.499.5947,1.3678.2029.6243.5947,1.3678.3906.7248.3461.5964.5006,1.5987.0968.9497.0728.8575-.1756,1.5106Z"/><path class="cls-7" d="m439.6882,130.4336c-.1663.2355-.1496.4968-.3617.8664-.2603.4664-.3254.583-.5894,1.2745-.2653.6729-.3327.7521-.6654,1.5043-.3327.7521-.6241,1.0144-1.1542,1.7978s-.471.5735-1.084,1.1936c-.6142.6014-1.2341.8283-1.9541,1.1928-.7211.3458-.9413.3036-1.7237.5409s-.6753.2117-1.3047.2893l-.0181.0012c2.4323-3.3599,5.4166-6.3051,8.8554-8.6609Z"/><path class="cls-7" d="m446.5386,126.7173c-.0964.1936-.2422.4652-.5482.7846-.4083.4196-.3686.4733-.8769,1.0305-.4902.556-.4456.4032-.89.8251-.4275.4021-.8054.4449-1.1919.6382-.3684.1922-.8629.1112-1.2684.0058-.4043-.0867-.7038-.2363-1.172-.1877,1.8807-1.2069,3.8635-2.2328,5.9473-3.0966Z"/><path id="path4259" class="cls-7" d="m446.5437,127.9352c1.1439-.8226,2.0674-1.4062,2.7272-1.8606.661-.4357.5672-.486,1.2292-.6218s.4995-.1255,1.4202-.1842l1.5525-.0989c.361-.023,1.0375-.216,1.3226-.0093.2839.1881.3478.0528.3138.3736-.0327.3394.1022.1809-.3073.5818s-.4662.6482-1.1189,1.2146c-.6527.5664-.9142,1.0141-1.5897,1.507-.6574.4917-.8586.7482-1.2847.8878s-.4587.1979-.8064.1451-.4404-.0844-.6751-.0694-.4406.1968-.4406.1968c0,0-.3252.3019-.2688.6169.0371.2975.1789.5321-.1052.6252s.0962.0876-.5717.1301-.5886.15-.9435-.0149,0,0-.4547-.3084c-.3224-.2231-.1537-.4213-.3186-.4483-.166-.0456-.2226-.0795-.3983.0066-.1938.0873-.5285.2398-.8705.5615-.3432.303-.4902.556-.7539.6853-.2636.1293-.3323.1899-.6572.2106s-.4598.1792-.5126-.0798c-.0347-.2602-.22-.3233.0341-.6019s.4829-.3869.7805-.8369c.3517-.4535,1.555-1.7671,2.6976-2.6084Z"/><path class="cls-7" d="m495.7797,151.6558c-.1444.0092-.3249.0207-.4164.0078-.1456-.0095-.296-.0936-.5787-.263-.2646-.1706-.2706-.2639-.5015-.4741s-.3065-.5427-.5143-.9606c-.2259-.4167-.2378-.6033-.454-1.1518-.2343-.5473-.1008-.4434-.186-.6441s-.1863-.363-.3233-.5229-.2368-.3035-.2368-.3035c0,0-.1397.0839-.4817.4055s-.0591.2099-.1942.6496-.1988.2938-.156.9658-.0332.9017.0313,1.6286c.0644.7268.0347.2602.1198.7421.0863.5005.2124.7736.3179,1.2917s.2739.601.2953.937.0357.56-.0947,1.0743-.1351.4397-.3329,1.0333c-.1966.6123-.0736.2671-.4674.6295-.3757.3613-.2577.2226-.466.367-.2095.1258-.4501.0474-.4501.0474,0,0-.2501-.2277-.4773-.6631-.2271-.4353-.0321-.504-.045-.9905-.0141-.5051-.1089-.8552-.1469-1.4525-.0392-.616-.4051-.6677-.679-1.2687s-.5806-.8626-1.0709-1.731c-.4903-.8684-1.1265-1.4651-1.1265-1.4651,0,0-.4352-.572-.7972-.8488-.362-.2768-.5064-.2676-1.1271-.6216-.6195-.3354-.343.0219-.7209.0647s-.3743.0988-.7283.2338-.2867.3369-.4878.5933-.1855.218-.5491.4848-.2829.1117-1.2409.154-.3995-.012-1.4366-.3583c-1.0371-.3463-.2105-.174-.9803-.5935s-.3247-.2604-1.0079-.7417c-.6832-.4813-.4499-.2337-1.0875-.5679s-.32-.1858-.8445-.4522c-.5233-.2478-.3164-.1298-.5366-.172-.2214-.0609-.3622.0043-.3622.0043,0,0-.2059.1818-.2.2751s.1129.3489.3219.7854c.191.4376.238.3222.7502.9643.5134.6608.3186.4483.873.9002.5532.4333,1.0752.9436,1.7391,1.4073.682.4626.2478.1904.5701.4135s.1264-.0081.6525-.2852.1938-.0873.9629-.2488c.7872-.1626.3803-.0055.9843.0872s.2238.0982.6471.4836.2307.4913.2438.6967-.1786.6111-.3619,1.1476c-.1833.5365-.424.4581-.96,1.1482s-1.3357,1.5095-1.5934,1.7321-.2133.3509-.4277.6832c-.2133.3509-.2121.3696-.5493.7659s-.1627.2915-.3109.5259c-.1313.2145-.3444.2843-.4997.4067s-.2829.1117-.5862.1873c-.3045.0569-.3297-.054-.515-.1171-.1672-.0643-.4005-.3118-.4844-.7751s-.4796-.7004-.9196-1.3471c-.4388-.628-.2727-.5824-.679-1.2687s-.6709-.8569-1.2816-1.6239c-.5927-.7681-.4894-.5686-1.0521-1.1512s-.5074-.5674-1.0942-1.2422c-.5687-.676-.4834-.4752-.9284-.9154-.4269-.4414-.5532-.4333-.7181-.4603-.1637-.0083-.2347.015-.4347.2901s-.0085.1505.0585.6335c.0863.5005.1442.2719.5143.9606.3882.6875.2525.265.8115,1.0728.5578.7891.9738,1.3436,1.57,2.1678.5975.8428,1.4776,1.855,2.0679,2.5859.5735.7506.2934.3374.6756.9316.4003.593.821,1.2222.9773,1.3996s.3188.1671.4547.3084c.1359.1413.2297.1915.4511.2524s.3249-.0207.6667-.0612c.3238-.0394.319-.114.7451-.2536s.3743-.0988.6525-.2852.319-.114.5717-.1301c.2347-.015.1998.006.3862.0878s.2093.1553.2487.4902c.0395.3348-.0484.3779-.2474.9529-.199.5749-.1845.5178-.6426,1.5778-.4569,1.0787-.6676,1.1858-1.3435,2.241s-.7555,1.2289-1.5423,2.5348-.6557,1.3725-.8803,2.3989-.0336,1.464-.0214,2.794-.0742,1.1105-.0751,2.2351c-.002,1.1059-.2693,1.1792-.6637,2.3851-.4125,1.207-.5507,1.0284-1.0713,1.9612-.5206.9328-.5505.7473-1.113,1.3079-.5624.5606-.8348,1.1215-1.6996,2.0575-.8467.9348-1.0503,1.154-1.7825,1.8941-.7142.739-.2156.3136-.8168,1.1203-.6023.7881-.4589.4791-.9033.901-.4432.4406-.4734.5362-.9284.7901-.4539.2726-.4598.1792-1.1686.1494-.6907-.031-.4608-.1206-.9371-.4838-.4763-.3632-.7024-.4988-1.0246-1.003-.3221-.5043-.3319-.3724-.5806-.8626-.2476-.4715-.0936-.3314-.1077-.8365-.0152-.5238-.2559-.6022-.6994-1.3049-.4435-.7027-.1599-.2335-.8224-.9597-.6637-.7449-.3606-.5393-.8968-1.2736-.5169-.7168-.4495-.796-.8398-1.802-.3711-.9884-.1521-.9649-.1878-1.5249s.0375-.2648.1605-.61c.123-.3452.2196-.8199.4165-1.7133.2149-.8946-.1101-.8739-.1493-1.4899s-.0466-.4468-.1979-.8308c-.1525-.4026-.7036-.5174-1.0272-.7592-.3235-.2418-.4148-.5358-.8908-1.1802-.4749-.6257-.4677-.5137-.5217-.7914-.072-.2765.0615-.1726.2365-.8397s-.0164-.5425-.0785-1.232-.2523-.5462-.5697-.9758c-.3174-.4296-.5582-.2268-.8986-.4488-.3224-.2231-.1518.1783-.2299.0896s-.2357-.2849-.725-.8534c-.4894-.5686-.8181-.3227-1.8191-.6713-1.001-.3486-1.4309.0162-2.0784.0949-.6487.0601-.5404.0532-.7378.0845s-.1867.1993-.6178.5454c-.4323.3274-.6465.3786-1.6696.5374s-1.148-.0955-2.0371-.395-1.4001-.9229-2.1961-1.753-.7502-.9643-1.1828-1.7801c-.4314-.7972-.4048-.9488-.6928-2.055-.2892-1.1249-.0093-.4305-.0723-1.4198s.0966-.4747.2526-1.4405.1185-.701.4923-1.6619.2738-.8234.6934-1.9184c.4016-1.0939.5496-1.0471,1.0074-1.826.4591-.7602.2071-.1631.6503-.6037.442-.4592.1278-.2705.9161-.4145s.2347-.015.5223-.052c.2876-.0371.2107-.1071.4-.5503s.3135-.7697.3548-1.2596c.0425-.4713.005-.2065.4793-.4429.4575-.2166.2817-.1304.9342-.4156s.514-.1827,1.2387-.4725c.7235-.3085.5729-.1115,1.4456-.3545.8727-.243.3983-.0066,1.0843-.0503.6679-.0426.3864-.1933.3864-.1933,0,0,.7211-.3458,1.613-.5713s.4356.0097,1.6257.1963.6124.2234,1.2872.574.4065.4052.778.8313c.3535.4273.2416.3782.5338.6969.2741.3199.2297.1915.835.3029s.361-.023,1.053.0266.7449.0275,1.7197-.0346.6078-.1324,1.8836-.3074c1.2577-.1738,1.9846-.1452,2.7259-.1737s.8665-.0552,1.4779-.1317c.6102-.0951.2166-.0138.5356-.1278.337-.1152.3168-.4325.3168-.4325,0,0,.1688-.4793.1355-1.002s-.1103-.5927-.2737-.8822c-.1634-.2895-.1537-.4213-.2366-.5847-.0829-.1634-.2404-.3595-.4269-.4414-.2045-.0807-.1625.0104-.3743.0988s-.2154.0325-.567.2048-.3069.0196-1.0109.0644c-.686.0437-.3368-.166-.7145-.4043s-.2404-.3595-.2499-.5089-.2906-.8624-.4276-1.0223-.0948-.3501-.2103-.4552c-.1335-.1039-.3454-.0155-.6691.0239-.3418.0405-.1385.1025-.4938.5s-.0796.1737-.3555.6786c-.2748.5236-.0062.1878-.2327.6146-.2097.4069-.1494.2157-.2133.3509-.0651.1166-.4995.1255-.7582.0483-.2767-.0761-.3043-.2243-.4737-.6071-.1706-.4015-.0311-.2042-.1162-.6861-.0839-.4632-.0167-.2613-.02-.5985-.0034-.3371-.1694-.3828-.2763-.6384s-.1117-.3302-.3088-.5801c-.1791-.251-.2573-.3397-.505-.5301-.2478-.1904-.1359-.1413-.7098-.3296-.5931-.2059-.2948-.0749-.6257-.1476-.3489-.0715-.2984-.1309-.5354-.1533-.2382-.041-.4043-.0867-.6751-.0694s-.0722.0046-.1613.029.0024.0373.0335.2415c.0299.1855.362.2768.7012.4801.338.1846.3356.1473.8445.4522.4908.3061.5651.62.8151,1.1288s.0829.1634.3328.6723c.2499.5089.066.1832.1716.7013.1055.5181-.0002.2811-.0209.5261-.0026.2438-.1577.085-.3948.0626-.2359-.0037-.2418-.097-.6003-.3179-.3404-.222-.1791-.251-.4749-.6257-.297-.3934-.1623-.2708-.564-.6013s-.2862-.2254-.8649-.4884c-.5967-.2619-.3958-.2372-.8601-.4138s-.2166.0138-.7463.235-.2888.0184-.9748.0621-.5067.0135-1.024-.1409c-.5174-.1545-.2924-.0376-.6138.0391-.3406.0592-.1518.1783-.5071.5758s-.1266.2892-.352.7346c-.2434.4466-.3928.6623-.8662,1.1985s-.1867.1993-.6154.5827-.4347.2901-.8439.4099c-.3912.1186-.6679.0426-1.1865-.1306s-.5207-.4916-.8067-.9982c-.3041-.5054-.1502-.3653-.2737-.8822s-.0357-.56.126-1.1513c.1629-.5726.4855-.6307,1.227-.9403.7415-.3096,1.295-.1575,1.6729-.2003s.6005.0367,1.0494-.0294c.4501-.0474.2166-.0138.4273-.1209s.1133-.2134.0629-.4351c-.0311-.2042-.1815-.2883-.4906-.5872-.3079-.2803-.2922-.3187-.4618-.4204s-.1442-.2719-.1502-.3653.0375-.2648.3579-.6413c.613-.6201.5817-.5431.6781-.7367.1109-.2507.0458-.1341-.1008-.4434-.0998-.1436-.3247-.2604-.4606-.4017s-.2321-.2289-.344-.278c-.1311-.0666-.3475-.334-.2908-.5812,0,0-.0392-.616.2524-1.1594.2736-.5422.2783-.4675.5493-.7659.271-.2984.3432-.303.5178-.4078.1926-.106.1986-.0127.1986-.0127l.1371.1599s-.1145.1947-.1905.4245c-.0772.2111.0395.3348.0993.7059s.1896.7001.2664,1.0513.1081.2742.2464.4529.0395.3348.2271.4353.1444-.0092.4333-.0276.3069-.0196.5945-.0566c.2876-.0371.1974-.0313.1974-.0313l.153-.1597.0316-.3581s.1313-.2145.6527-.5664c.5225-.3332.561-.2981,1.1123-.4645.5682-.1861.2888-.0184,1.1012-.0702s.3587-.0603,1.0242-.1402c.6667-.0612.2841-.0931.8005-.2384s.396-.044.6608-.1546.1962-.05.3684-.1922c.1914-.1247.0423-.1901.2135-.6321.1893-.4431.0689-.3417.2149-.8946.128-.5517-.0034-.3371.0933-.8119.0966-.4747-.001-.2998-.1112-.8925s-.0708-.2579-.3245-.5416c-.0782-.0887-.1166-.1238-.1371-.1599-.0181.0012-.1264.0081-.2696.0359-.1974.0313-.1349.1585-.4047.4756-.2698.3171-.0615.1726-.2665.6542-.2049.4816-.1097.2694-.1605.61s.0347.2602.0958.6499c.043.3908.0407.3535.0886.5379.0299.1855.0226.3547.0226.3547,0,0-.1553.1224-.6608.1546s-.3803.0055-.8858.0377-.7568-.2142-.9589-.2575c-.201-.0247-.6364-.3156-.9105-.6355-.2561-.321-.1886-.4003-.2426-.678-.0359-.2788-.0875-.5192-.1126-.6301-.0252-.1108.1962-.05.9342-.4156.7392-.347.4817-.4055,1.1415-.8599.661-.4357.8971-.7131,1.2595-.9986.3624-.2855.2313-.3521.3567-.66.1242-.3265.418-.5514,1.1453-1.0851.7261-.5523.1938-.0873.6705-.2864.4948-.2002.2166-.0138.5777-.0368s.4333-.0276.533.116.1623.2708.3354.4284c.1732.1576.2466.1717.6483.5022s.2454.153.6195.3354.3981.2745.6219.3727c.2226.0795.2755.0574.4717.0074.2154-.0325.1337-.1772.5517-.7286s.7106-.795,1.1574-1.1795c.4287-.3834.1157-.176.4142-.3263.2974-.1689.3551-.1163.7475-.2163s.2335-.0336.5128-.2014c.1047-.0629.1577-.085.1926-.106-.0036-.056-.0299-.1855-.1611-.2521-.1684-.083-.4102-.18-.8385-.3589-.409-.1614-.4186-.3107-.8046-.6797-.3872-.3877-.4846-.4939-.7298-.9281s-.2993-.4307-.583-.9c-.3029-.4867-.2283-.454-.2283-.454l-.0059-.0933c14.8801,1.9757,27.0855,12.8932,30.4911,27.3702Z"/><path id="path5771" class="cls-7" d="m477.3317,179.5951c.0104-.9753-.0281-1.0103.1288-1.6763.1558-.6846-.0452-.7093.6533-1.4098.6973-.7192.5479-.5035,1.1861-1.0127.6382-.5092.6612-.7169.8935-.7691.2323-.0523.3684-.1922.5463.0402s.3406-.0592.2811.713-.0536.8656-.4008,1.6749c-.3484.7906-.0484.3779-.6279,1.2395-.5964.8814-.3484.7906-.8013,1.363-.4349.5712-.4412,1.0402-.7807,1.118-.3382.0965-.6416.1721-.7679.1801s-.1131-.0678-.1874-.3816c-.0768-.3512-.1231-1.0792-.1231-1.0792h0Z"/><path class="cls-2" d="m428.4689,147.3142s-.0971.3192-.2057.4565c-.1087.1374-.0866.2794-.0799.3834l.0314.4935c.0149.2339.0108.1689-.086.0838-.0967-.0851-.1-.1372-.2871-.4121-.1749-.2889-.1975-.2352-.3479-.3431-.1495-.0948-.2437-.141-.2437-.141l-.3405-.2261-.0961-.2808s.1764-.5069.3193-.516l-.1819.0116c-.1169.0074-.3684.1539-.3684.1539l-.198.1691s-.2857.0182-.4052-.0133c-.1202-.0446-.1603-.2637-.3496-.369-.2014-.0915-.2984-.3853-.4513-.5322-.1528-.1468-.2666-.296-.3708-.498-.1034-.1891-.2995-.6069-.3338-.7352-.0351-.1412-.124-.5138-.1599-.6681-.0359-.1542-.2235-.8465-.2448-.9756-.0351-.1413-.0127-.4035.0075-.4961.0202-.0926.1717-.3762.1717-.3762l.0727-.2915s-.2013.1171-.2977.2407c-.0835.1227-.1111.0984-.198.1691s-.2457.2374-.2659.33c-.0072.0918-.1617-.081-.1617-.081,0,0,.1694-.2064.2822-.2788.112-.0854-.0492-.3621-.0492-.3621,0,0-.1555-.3944-.2409-.5064-.0716-.0997-.4438-.4151-.4438-.4151l-.2714-.1653s.0724.1128.1034.1891c.0318.0893.2772.2562.3496.369.0846.099.1685.3936.202.5089.0326.1022.0265.4156.0104.5731-.0152.1705-.1446.5961-.1631.7147-.0186.1185-.0337.289-.0465.4986.0002.2086-.1101.32-.1269.4645-.0177.1316-.1822.4159-.2753.5914-.0794.1877-.1239.3079-.2033.4955-.0793.1877-.1271.2559-.2299.4842-.1029.2283-.3558.5575-.4652.6818-.1095.1244-.1457.3745-.2745.6044-.0583.1081-.081.1617-.0802.1747l-.1478-.0688s-.1529-.1468-.3203-.3187c-.1805-.171-.1063-.0323-.0763.031.0301.0633.2302.3375.2377.4544.0075.1169-.0971.3192-.2007.5345-.1045.2023-.1653.2714-.4396.4714-.2742.2001-.1573.1926-.3074.2935-.1631.1017-.1515.2836-.1515.2836l-.2556.0815-.0174-.2728-.0575-.492-.079-.2167s-.0157-.2468-.0475-.3361-.0848-.3076-.2133-.482c-.1285-.1744.0476-.2769.0476-.2769,0,0,.233-.0279.5673-.1014.1291-.0212.1811-.0245.2201-.027l-.0699-.0738s-.0992-.1242-.2203-.1816c-.1218-.0705-.2396-.076-.2396-.076,0,0-.3783-.002-.4376.0931-.0721.0959-.1688.0108-.1688.0108,0,0-.157-.2117-.1282-.5788.0158-.3662-.0041-.6779.012-.8354s.0045-.3394.1217-.7512.0492-.2509.1463-.5701c.097-.3192.1733-.3502.246-.6418.0719-.3045.3555-.7661.4373-.9148.0827-.1357.1061-.1763.1871-.338s.1825-.2072.5542-.3092c.358-.1141.379-.1937.2881-.1879s-.2598.0166-.3751.0499c-.1152.0335-.2824.0702-.5284.0989-.2582.0425-.215.1049-.306.1107s-.0766-.1777-.0766-.1777c0,0,.107-.1633.2847-.2399.1907-.0773.0755-.0439.3206-.0856.2582-.0425.1948-.0124.534-.2166.3392-.2041.0893-.0317.3961-.1295.0893-.0318.1396-.0611.1656-.0628-.0277-.0243-.0812-.047-.173-.0542-.1185-.0186-.2371-.037-.406-.0263s-.2028.0912-.5422.0867c-.3264-.0053.0705-.1218.0705-.1218,0,0,.116-.0204.2905-.149.1874-.1293.1891-.1034.4502-.3025.2742-.2001.0755-.044.254-.1075.1924-.0514.1623-.1147.3262-.2034.013-.0008.0122-.0138.0243-.0277-.052.0033-.1932.0384-.2582.0426-.1039.0066-.0779.005-.2191.0401-.1413.035-.267.1082-.4837.1873-.2037.0782-.0876.0577-.1744.1285s-.0058-.0909-.0116-.1819c-.0058-.0909.0835-.1227.1532-.2575.0567-.1341.2327-.2366.3438-.335.1242-.0992.2336-.2235.4738-.3432.2524-.1334.3084-.0718.5064-.2409.1979-.1691.3109-.0329.4878-.1224.1907-.0773.1069-.1633.1782-.2722.0576-.121.0039-.1437.0377-.4328.0329-.3021.0476-.2769.1172-.4118.0558-.147.0298-.1454.144-.4004.1011-.2543-.0025-.0389-.0052-.2866l-.0041-.065.1772.1192.1227.0835.2462.1799.2178.1426.3341.3309.533.9964.2883.0208c.1445.0169.1868.0664.2802.0996.1073.0453.346.1083.346.1083l.3396.2131.1528.1468.1755.0932.0465.1144-.3411-.0304s-.3621.0492-.474.1346c-.1128.0724-.2977.2407-.2977.2407,0,0,.1915-.0643.2857-.0182.0934.0332.5497.0302.5497.0302l.3565.0686.3841.0929.1879.288.1083.267.019.2987-.1415-.1736s-.3045-.0719-.4759-.1001c-.1592-.0421-.3867-.1319-.4809-.1781-.0934-.0331-.2899-.0467-.2899-.0467l-.1258.0732.1042.2021s.1891-.1034.5904.0537c.4403.1545.2631.0354.4403.1545.165.133.265.2701.3488.3561.0707.0868.0967.0851.1805.1711.0699.0738.21.43.2849.5818.0879.1509.1937.3789.2296.5331.0359.1543.1409.3693.2518.6753s.0458.3101.0648.6088c.0182.2858.0851.5163.1464.8646.0752.3604.0719.3084.1168.6055.0312.285.0411.4409.0878.764.0459.3101-.0291.1584-.0291.1584l-.3167-.0581-.2548.0945c-.1559.0099-.0323.1064-.0323.1064l.3305.0702c.1722.0413.2136.0777.3388.2002.126.1354.1044.4107.1044.4107Z"/><path class="cls-3" d="m427.9182,137.0325c.0383.1932-.0686.3565-.0686.3565l-1.418,1.6946s-.0739.0699-.3353.0605c-.2606.0036-.3435-.0694-.3435-.0694l-2.0315-1.3836-.2178-.1426-.2462-.1799-.1227-.0835-.1772-.1192-.1771-.1191-.3275-.2269-1.336-.9061-.8044-.5487-.7501-.5131-.8044-.5487-1.5814-1.0731.1678-.2324,1.383-1.8359.06-.0821,1.1554.735.2991.1897.8288.5211.7605.4732.8159.5219.4891.308,1.8201,1.1362,2.8131,1.7772s.1236.0965.149.2905Z"/><path class="cls-8" d="m415.4851,128.9949l3.3022,2.085-.06.0821-1.383,1.8359-.1678.2324-3.313-2.254s-.6708.5254-1.2372,1.4614c-.5794.9368-.8646,2.8071-.8646,2.8071l-2.9093-.832c.8895-4.2564,2.5497-5.836,3.7092-7.0837,1.1466-1.2468,3.705-3.262,4.8995-3.7554,1.1954-.4805,2.7161-.5643,3.0889-.4445.3607.1335.3214.5403.3214.5403,0,0-1.7272,1.1404-2.7386,2.0526-1.0114.9122-2.6478,3.2729-2.6478,3.2729Z"/><path class="cls-3" d="m467.0582,210.9579l-.4627-2.0265-.1209-.5408-.1922-.9239-.1913-.835-.2046-.922-.0638-.3335-.3036-1.4025-.0994.0152-2.1764.3966-.2732.0418.1522.8283.1673.9277.0095.0621.1589.7892.0209.1366.1341.793.0114.0745.1779.9133.273,1.5343.0713.3831.0429.1969.0323.2111.0333.1347.0332.3.0504.2464.4319,2.3235s.0047.1137.1841.2896c.169.1903.2702.1874.2702.1874l2.0932-.3585s.1863-.0285.302-.186c.1033-.1557.0929-.3066.0929-.3066l-.6549-2.9502Z"/><path class="cls-8" d="m464.5538,199.7713l.9621,4.203-.0985.0151-2.1747.4001-.2734.0423-.7485-4.0803s-.7724.1429-1.7923.4169c-1.0931.2937-2.8152.8372-2.8152.8372l-1.102-2.6084c3.8845-1.606,5.679-1.7777,7.3164-1.9272,1.696-.1549,3.928-.1109,5.1503.1389,1.5899.3249,2.7676.8878,2.9381,1.2251.2342.5474-.498.5743-.498.5743,0,0-1.4619-.0775-2.8708.0759-1.3069.1422-3.9934.6871-3.9934.6871Z"/><polygon class="cls-2" points="476.741 209.5828 475.6939 206.5196 481.3467 204.4913 480.744 202.7117 475.0911 204.74 474.175 202.0245 480.2178 199.859 479.6151 198.0794 471.7124 200.9257 475.502 212.042 483.6166 209.1072 483.0138 207.3277 476.741 209.5828"/><path class="cls-2" d="m489.3436,199.7086c-.1095-.0118-.219-.0235-.3466-.0341.5239-.5956.8301-1.1962.9364-1.8027.1475-.8153-.0108-1.5923-.4736-2.3126-.3618-.558-.8236-.9784-1.3854-1.2612-.5798-.2817-1.1658-.3755-1.7556-.2443-.5536.129-1.2387.4725-2.0911,1.0328l-4.2407,2.8566,6.2299,9.8738,1.6351-1.0788-2.6407-4.1799,1.1643-.7864c.3648-.2482.5587-.3355.6465-.3786.1769-.0674.3924-.0999.6102-.0951.2178.0049.5295.06.9193.2039.4078.1427.9661.3695,1.6578.7003l2.5781,1.2039,2.0505-1.3864-3.6439-1.717c-.6352-.2969-1.2644-.5004-1.8504-.5943Zm-1.3511-2.1442c.001.2998-.0895.5867-.2894.8618-.1988.2938-.5769.6178-1.0983.9696l-2.3467,1.5739-1.672-2.6298,2.6248-1.7603c.6093-.3949,1.1413-.5787,1.5624-.5119.4031.0681.7242.2725.9659.6507.1791.251.2511.5275.2532.846Z"/><path class="cls-2" d="m497.4329,191.8275c-.1083.0069-.2154.0325-.3406.0591.3543-.6973.5113-1.3633.472-1.9792-.0692-.8015-.4056-1.5298-1.0225-2.1089-.4642-.4577-1.026-.7405-1.6324-.8706-.6245-.1289-1.2009-.0734-1.7451.2049-.5273.2585-1.1125.7456-1.7882,1.5197l-3.4339,3.8547,8.3939,7.9929,1.337-1.4908-3.55-3.3723.9479-1.0537c.2879-.3182.4601-.4604.5287-.521.1733-.1235.3672-.2108.5814-.262.2131-.0698.5392-.0718.9399-.0411.438.0471,1.0228.1223,1.7748.2617l2.7699.517,1.6573-1.8674-3.9431-.7234c-.7147-.1231-1.3525-.1762-1.9471-.1196Zm-6.8803.4009l2.1487-2.4047c.5083-.5572.961-.8484,1.3931-.8947.4152-.0265.7677.101,1.0948.3988.231.2102.3727.4448.4471.7587.0732.2952.038.5974-.0862.9239-.1411.3463-.423.7579-.8457,1.2346l-1.9127,2.1273-2.2392-2.1439Z"/><polygon class="cls-2" points="506.8763 182.1546 503.6707 188.1689 500.9233 186.5822 503.8228 181.1684 502.2422 180.257 499.3427 185.6708 496.9152 184.2699 500.0087 178.4876 498.4101 177.5774 494.3608 185.1448 504.3317 190.8632 508.475 183.0648 506.8763 182.1546"/><path class="cls-2" d="m432.1962,124.9322c-.6798-.1441-1.3188-.2158-1.8976-.1977-.0903.0057-.1986.0126-.3238.0394.3748-.6611.569-1.3107.549-1.9092-.015-.8049-.3153-1.5355-.8973-2.1356-.4473-.4775-.9934-.7989-1.583-.9487-.6076-.1487-1.1853-.1119-1.7318.1291-.5297.2212-1.1342.6907-1.8315,1.4099l-3.5577,3.619,7.8859,8.2689,1.4151-1.4021-3.3405-3.4982.9695-.9988c.3071-.3007.4792-.4429.5491-.4848.1565-.1037.3515-.1724.5657-.2235.2155-.0325.5236-.0333.9254.0161.42.0482.9891.1619,1.7255.3398l2.7061.6522,1.7186-1.7588-3.8467-.9169Zm-3.731-1.093c-.1603.3288-.4614.7228-.8866,1.1622l-1.9571,1.999-2.0983-2.2091,2.2136-2.2402c.4926-.5187.9645-.7924,1.3798-.8188l.0181-.0012c.4152-.0264.7689.1197,1.0611.4384.196.2312.339.4844.3941.7808s.0188.5798-.1246.8889Z"/><polygon class="cls-2" points="431.6523 115.2584 430.0593 116.4282 436.5724 125.9091 438.1473 124.7404 431.6523 115.2584"/><path class="cls-2" d="m445.4823,116.6825c-.2932-.6185-.7405-1.0961-1.3022-1.3789-.4126-.2173-.8723-.3193-1.3608-.3069.1783-.33.2821-.6927.3137-1.0508.0377-.5459-.0485-1.0464-.278-1.5191-.2488-.4902-.6203-.9164-1.1111-1.2225-.4919-.3247-1.0442-.4583-1.6411-.439-.5777.0368-1.253.2485-2.0078.634l-3.826,1.9681,5.0117,10.3825,3.897-1.9913c.614-.3203,1.1365-.6534,1.5135-.996.395-.3438.6793-.718.8721-1.1052.1928-.3871.2895-.8618.2911-1.4055s-.1231-1.0792-.3719-1.5694Zm-4.1572-2.3778c-.0387.2462-.1689.4793-.4085.7007-.1879.1807-.5539.4102-1.08.6873l-1.8251.941-1.192-2.4918,1.6674-.856c.6489-.3412,1.1268-.5216,1.4313-.5785.2696-.0359.4897.0063.7159.1418.2274.1542.4029.3492.5483.6398.1274.2917.1813.5695.1426.8156Zm-1.1027,6.8737l-1.3986-2.8909,1.9659-1.0061c.5791-.2993,1.0582-.4611,1.3988-.5202.3237-.0394.5981-.0006.8615.1512.2634.1519.4763.3633.6241.6912.1262.2731.1789.5321.1775.7946-.0014.2625-.0593.4911-.175.6672-.1145.1947-.2843.3742-.5263.5583-.1204.1014-.3998.2691-.7862.4624l-2.1417,1.0923Z"/><path class="cls-2" d="m455.2825,112.6095l-1.5006-6.4829-1.8922.4579,1.4994,6.4642c.2975,1.2555.3016,2.1736.0257,2.6785-.276.5049-.8864.8812-1.8144,1.1089-.5525.1477-1.0423.1414-1.449.0174s-.7122-.367-.9514-.7078c-.2416-.3782-.4818-1.0189-.6833-1.9056l-1.4994-6.4643-1.8922.4579,1.5006,6.4829c.2735,1.1633.6206,2.0596,1.0594,2.6876.458.6455,1.0654,1.0754,1.8222,1.2896.4247.1229.9169.1665,1.4404.1331.3791-.0242.7739-.0868,1.1663-.1868,1.0532-.2545,1.8598-.6807,2.4211-1.26.5612-.5793.8987-1.2568.9955-2.0126.0992-.7186.0037-1.6495-.2482-2.7581Z"/><g id="Artichaut_3"><path class="cls-4" d="m449.7536,258.8057c9.1737-5.0793,15.0398-14.5698,15.4813-25.0465h0c1.4115-1.6609,3.4249-2.6931,5.5974-2.8695h.5668l-1.4525-7.0853c-1.564.183-3.1371.2776-4.7117.2834h0c-.5735-.087-1.1259-.2792-1.6296-.5668l.5668.496c-.0575.0189-.1196.0189-.1771,0h0l-.496-.4605,1.5588,5.0305c-1.0245-3.6312-2.7318-7.0338-5.0305-10.0257-.8792-1.1081-1.8257-2.1611-2.8341-3.1529-.7794-.8857-1.5588-1.7359-2.3027-2.6216-.4275-.3346-.9461-.5322-1.4879-.5668-4.2801-2.9748-9.262-4.782-14.454-5.2431.248,1.0982.4605,2.2319.8148,3.2947-5.0624-.0666-10.0939.798-14.8437,2.5507,1.3524.2099,2.6516.679,3.8261,1.3816h0c3.3376,2.0542,6.008,5.0322,7.6875,8.5732.2834.5432.5668,1.0392.8502,1.4879h0c1.4059,2.3119,3.4143,4.1978,5.8099,5.4557h0c-2.4908-1.0913-4.5648-2.9542-5.9162-5.314h-.2126l-.2126-.2834c0-.3543-.2126-.7794-.3897-1.1336-1.6671-3.5289-4.3261-6.4957-7.6521-8.5378l-.3188.3188h0c-5.696,2.5956-9.6384,7.9595-10.4154,14.1706l1.665-3.1529,1.2754-.5314c-1.2964.9682-2.3114,2.2644-2.9404,3.7552h.1771l.3188,1.6296c.2703-2.1736,1.2402-4.2004,2.7633-5.7745h.1771c-1.5347,1.4511-2.5124,3.394-2.7633,5.4911-.5314,1.5942-.8148,2.905-.8148,2.905l1.0982-.6377s-.2126,0,0,0h0c-.1162,1.9218.0147,3.8506.3897,5.7391.3315,2.0488,1.0921,4.0046,2.2319,5.7391.281.8436.7401,1.6168,1.3462,2.2673v.4251c2.4692.6762,5.0557.8092,7.5813.3897-2.5761.4935-5.2315.3844-7.7584-.3188-.3731-.0952-.7399-.2135-1.0982-.3543h0c2.8685,4.8808,8.1196,7.8642,13.7809,7.8292l.3188-1.1691h0l.4605.1771c-.2311.3522-.4918.6841-.7794.9919-.5584.7446-1.3405,1.2909-2.2319,1.5588,5.1512,2.359,11.0741,2.359,16.2253,0l-.6022-.3188c.1515-.0492.2948-.1209.4251-.2126h0c.1063,1.1691.3543,2.3382.5314,3.4364Zm-22.3895-28.8017c.5288.0077,1.0537.0912,1.5588.248h0c-.4943-.1988-1.0271-.2836-1.5588-.248Zm15.5168,0c-.8634,1.0874-1.5893,2.2773-2.161,3.5426l-.3543,1.2045c-.2289,1.1663-.324,2.3548-.2834,3.5426.0737,1.7528-.0212,3.5085-.2834,5.2431l-.3543,1.665c.448-2.1788.65-4.4009.6023-6.6247-.0732-1.1883.0222-2.3811.2834-3.5426l.2834-1.0628h0c.47-1.5059,1.2549-2.8947,2.3027-4.074l-.0354.1063Zm.2126-.3543c1.8406.7546,3.8681.9277,5.8099.496-1.9307.47-3.9593.334-5.8099-.3897v-.1063Zm-.2834-12.6472h.2834-.2834Z"/><path class="cls-15" d="m471.8243,230.9605l-1.5233-7.0853c-.0058-.1101-.0749-.2068-.1771-.248-.1003-.0505-.2186-.0505-.3188,0-1.467.3065-2.9718.3901-4.4637.248-.743-.2219-1.4659-.5064-2.161-.8502-1.4696-2.8667-3.396-5.4751-5.7037-7.723-1.1891-1.1869-2.4813-2.2658-3.8615-3.2238-4.316-3.1149-9.3727-5.0447-14.6665-5.5974-.1125-.0515-.2418-.0515-.3543,0-.0633.1096-.0633.2446,0,.3543.1775.9817.4141,1.9518.7085,2.905-4.9031.0416-9.7647.9037-14.3831,2.5507-.1871.0514-.308.2326-.2834.4251.0429.188.1984.3294.3897.3543,1.0357.1992,2.0378.5451,2.9758,1.0274-5.6679,2.7729-9.5475,8.2257-10.3091,14.4894h0c.0056.1949.1333.3652.3188.4251h.3188c0,.3897-.248.7085-.3543,1.1336-.4251,1.5942-.6022,2.8341-.6377,2.905-.0086.1511.0576.2968.1771.3897.126.0945.2991.0945.4251,0l.4251-.2126c-.0493,1.6993.0933,3.3987.4251,5.066.4521,2.055,1.1665,4.0434,2.1256,5.9162.3188.6022.7085,1.2045,1.0982,1.8067h0c-.144-.1188-.352-.1188-.496,0-.07.1455-.07.315,0,.4605,2.7031,4.6434,7.505,7.6726,12.8598,8.1127-.3695.3515-.8196.6069-1.3108.744-.1563.0611-.2744.1925-.3188.3543.0016.1756.0959.3373.248.4251,5.0844,2.3987,10.9534,2.5019,16.119.2834,0,.7794.248,1.5588.4251,2.3381.0522.1173.1387.2161.248.2834h.3543c8.7735-4.9684,14.5374-13.9389,15.4105-23.9837h0c.4251-2.3736,4.0386-3.1529,5.7745-3.5426h0c.4251,0,.5668-.2834.496-.5314Zm-49.1364,16.2253c2.7853.744,5.7171.744,8.5023,0,3.5426-1.0628,4.5346-3.9678,5.4911-6.6956.455-1.4812,1.0979-2.898,1.913-4.2157-.0051-.0708-.0051-.1418,0-.2126.3867-.5597.852-1.0608,1.3816-1.4879-.2585,1.3187-.389,2.6593-.3897,4.0032.0426,2.2606-.1713,4.5187-.6377,6.731-.0443.2241.0966.4432.3188.496.2241.0443.4432-.0966.496-.3188.4736-2.331.6874-4.7072.6377-7.0853.0786-1.5487.2799-3.0886.6022-4.6054.4491-1.3894,1.1854-2.6688,2.161-3.7552,3.7291,1.1631,7.7849.5632,11.0176-1.6296,1.1435.6007,2.3272,1.1215,3.5426,1.5588-1.3107,1.2523-2.4971,2.6285-3.5426,4.1095-.137.1761-.1052.4299.0709.5668s.4299.1052.5668-.0709c1.1285-1.5428,2.3975-2.9778,3.7906-4.2866,1.982.6403,4.0234,1.0794,6.0933,1.3108.0354.6844.0354,1.3703,0,2.0547-.4433,10.1312-6.0094,19.3413-14.7728,24.4442-.2126-.9565-.3543-1.913-.496-2.8695-.6664-5.8979.4569-11.8599,3.2238-17.111.1443-.1614.1443-.4055,0-.5668-.1477-.1565-.3944-.1637-.5509-.0159-.0055.0052-.0108.0105-.0159.0159-2.8833,5.4283-4.0215,11.6141-3.2592,17.7132v.2834c-4.7056,1.9964-10.0029,2.0853-14.7728.248.5549-.3511,1.0561-.7806,1.4879-1.2754.3007-.3154.5846-.6465.8502-.9919.8375-1.2059,1.5385-2.5009,2.0902-3.8615.0296-.2329-.1352-.4457-.3681-.4754-.1626-.0207-.3227.054-.4113.1919-.5533,1.2382-1.2173,2.4239-1.9839,3.5426-.248.2834-.4251.5668-.6377.7794-4.9645.0431-9.6202-2.4045-12.3992-6.5185Zm-1.4525-21.9998h0c.1172-.0205.2371-.0205.3543,0h0c1.1038-.2849,2.2772-.0212,3.1529.7085,2.2249,1.4367,5.1337,1.2196,7.1207-.5314,1.4171-1.1884,3.3985-1.4378,5.066-.6377h0c1.4013,2.1271,3.3136,3.8689,5.5619,5.066-.9164,1.0367-1.6259,2.2392-2.0902,3.5426-.9663.6478-1.7967,1.4781-2.4444,2.4444h0c-1.2741.0681-2.5305-.3214-3.5426-1.0982-.1477-.1565-.3944-.1637-.5509-.0159-.0055.0052-.0108.0105-.0159.0159-.1494.1729-.1494.4293,0,.6022,1.0338.7517,2.2657,1.1829,3.5426,1.2399-.5847,1.1416-1.0821,2.3259-1.4879,3.5426-.9565,2.7987-1.8422,5.2077-4.9597,6.1996-2.5911.6674-5.309.6674-7.9001,0-.5745-.7962-1.0839-1.6373-1.5233-2.5153-.9394-1.7962-1.6193-3.7165-2.0193-5.7037-.3945-1.7661-.5494-3.5773-.4605-5.3848,1.4879-.8502,6.3768-3.3655,9.5651-2.0902h0c.636.2915,1.1853.7432,1.5942,1.3108.1614.1443.4055.1443.5668,0,.1307-.0999.1983-.2619.1771-.4251v-.1771c-.4293-.5801-.9871-1.053-1.6296-1.3816h0c-3.5426-1.6296-8.644.9211-10.6279,2.0902h-.1771c0-.496.248-1.2399.4251-1.9485.3393-1.7883,1.1322-3.4595,2.3027-4.8534Zm7.4041-10.6279c3.1557,2.0314,5.6829,4.902,7.2978,8.2898.1092.2134.2398.4152.3897.6022-1.6903-.366-3.4564.0078-4.8534,1.0274-1.7118,1.4026-4.136,1.5317-5.9871.3188-1.0712-.8397-2.469-1.1402-3.7906-.8148h0l-.4606.4251h0c-.2689.1731-.5082.3884-.7085.6377-.6168.4385-1.1557.9774-1.5942,1.5942,1.4134-5.1975,4.9677-9.5502,9.7777-11.9741l-.0709-.1063Zm42.1929,16.1544c-1.9268.2781-3.7338,1.1018-5.2077,2.3736.0354-.5899.0354-1.1814,0-1.7713h0c-.0278-.1632-.1556-.2911-.3188-.3188h0c-3.7205-.34-7.3347-1.4243-10.6279-3.1884-4.7178-2.5085-8.6618-6.2566-11.4073-10.8405-.1778-.1358-.4245-.1358-.6022,0-.1094.0854-.1745.2155-.1771.3543,2.7275,4.4071,6.5152,8.0609,11.0176,10.6279-2.977,1.9873-6.7107,2.472-10.0965,1.3108-2.3147-1.2417-4.2585-3.0754-5.6328-5.314h0s-.5314-.8502-.7794-1.3108c-1.7517-3.6785-4.5489-6.7591-8.0418-8.8566h0c-.7895-.4783-1.6341-.8589-2.5153-1.1336,4.2075-1.3236,8.5907-2.0043,13.0015-2.0193.248.7085.496,1.4171.8148,2.1964l.248.5668c.097.2162.3422.3234.5668.248.2025-.1093.2933-.3513.2126-.5668-.0677-.1952-.1506-.3847-.248-.5668-.3017-.7407-.5619-1.4976-.7794-2.2673h0c.027-.0804.027-.1675,0-.248-.248-.8502-.496-1.7359-.6731-2.5861,4.875.579,9.5274,2.3693,13.5329,5.2077,1.3378.9309,2.594,1.9738,3.7552,3.1175.989.9874,1.9233,2.0281,2.7987,3.1175,2.2613,2.9527,3.9441,6.3062,4.9597,9.884.031.1932.2128.3246.406.2936.0443-.0071.0869-.0226.1254-.0456.1898-.0477.3049-.2402.2572-.43-.0026-.0103-.0057-.0205-.0092-.0306-.4435-1.5387-1-3.0425-1.6651-4.4992l1.2754.4605h0c1.5059.214,3.0361.19,4.5346-.0709l1.2754,6.3059Z"/></g><g id="Artichaut_2"><path class="cls-14" d="m413.9021,211.4051h0c.1196-.1811.2262-.3705.3188-.5668l.3897.8148c3.4409-6.9022,3.6997-14.962.7085-22.0707-.4068,1.1955-1.1898,2.2271-2.2319,2.9404-.432.3793-.8941.7228-1.3816,1.0274l-.248-.6731h0l1.6296-.3543c1.0274-11.301-8.9629-18.1029-9.9548-18.776h0s0,.6022.3897,1.5233c.8158,3.4957.8158,7.1322,0,10.6279.7682-3.4173.7682-6.9626,0-10.3799l-.5314-.2126c-.8578-.8426-1.884-1.4945-3.0112-1.913-2.272-1.7299-4.8964-2.9394-7.6875-3.5426-2.5517-.611-5.1704-.8967-7.7938-.8502h0l.8857-1.4525s-1.7713.3188-3.9678.9565c-2.8769.2469-5.5743,1.5015-7.6167,3.5426v-.248c2.1227-1.7934,4.7437-2.8937,7.5104-3.1529l-2.1964-.5668h0l.2126-.248c-2.0302.6631-3.8505,1.8481-5.2785,3.4363.248-.5314.6377-1.3462.7794-1.7005l4.3929-2.0902c-1.2399,0-11.9387.4605-19.7679,13.3912h0l-.4605.3897c2.629,4.6438,6.5402,8.432,11.2656,10.9113.4934.2256,1.0025.415,1.5233.5668l.3897.3543v.248c3.1462,1.8718,5.6247,4.6849,7.0853,8.0418h0c-1.5559-3.3329-4.0094-6.1666-7.0853-8.1835h0l-1.9839-1.2045c-4.7326-2.4694-8.6463-6.26-11.2656-10.9113h0c-.8183-1.6375-1.3115-3.418-1.4525-5.2431-2.6935,6.416-4.1827,13.2732-4.3929,20.2285-1.4879-.5314-2.9758-.9211-4.4992-1.3108.3511,7.1555,2.601,14.0886,6.5185,20.0868-.013.7465.2102,1.478.6377,2.0902,1.1691,1.0628,2.3027,2.161,3.5426,3.2947,1.3111,1.4056,2.6946,2.7418,4.1449,4.0032,3.9458,3.2146,8.4489,5.6763,13.2849,7.2624l-6.7664-2.409.6022.6731h0c.0183.0817.0183.1663,0,.248l-.6377-.744c.3719.6912.6009,1.4503.6731,2.2319h0c-.0769,2.137-.2899,4.2669-.6377,6.3768l9.3526,2.3381.2126-.7794h0c.4087-2.7685,1.8209-5.2902,3.9678-7.0853l.2834-.1771c14.2725-.0244,27.4991-7.4904,34.895-19.6971-1.5632-.4352-3.1476-.7899-4.7471-1.0628Zm-32.8757-28.6954l-.2126-.2126c-.1856-.7054-.2809-1.4316-.2834-2.161-.0307.8198.1396,1.6347.496,2.3736Zm-1.5588,18.8114c1.6409-1.3634,3.5652-2.3437,5.6328-2.8695h0l1.5233-.3188c1.5772-.2869,3.1861-.3585,4.7826-.2126,3.1485.199,6.3093.0445,9.4234-.4605l-2.3027.4251c-2.3577.196-4.7276.196-7.0853,0-1.6082-.1491-3.2292-.0776-4.818.2126l-1.6296.3897c-1.8415.6916-3.5906,1.6078-5.2077,2.7278l-.3188.1063Zm0,.2126c.9034,2.5555.99,5.3286.248,7.9355.6719-2.6217.5485-5.3841-.3543-7.9355h.1063Zm-17.3235-1.0628l.248.3897-.248-.3897Z"/><path class="cls-15" d="m380.247,240.4548h0c.5668-2.3381,1.8067-7.0853,5.066-7.6875h0c13.8171-.6433,26.4196-8.0854,33.6551-19.8742.0669-.1585.0669-.3374,0-.496-.103-.1446-.2359-.2654-.3897-.3543-1.0274-.2834-2.1256-.4605-3.1884-.6731,3.314-6.9225,3.4947-14.935.496-21.9998-.1331-.2022-.3602-.3224-.6022-.3188-.1771,0-.3897.2126-.4605.4251-.2184.6412-.5822,1.2232-1.0628,1.7005-.2451-7.346-4.069-14.1073-10.2382-18.1029-.1889-.1417-.4487-.1417-.6377,0-.2028.1431-.289.4015-.2126.6377h0c-.7725-.5761-1.5768-1.1083-2.409-1.5942-2.4789-1.4114-5.136-2.4838-7.9001-3.1884-2.2594-.5685-4.5784-.8658-6.9082-.8857l.3543-.3188c.1247-.1814.1247-.4209,0-.6022-.1138-.1826-.3164-.2906-.5314-.2834,0,0-1.7713.2126-3.9678.744l-1.5588.3897c.063-.1222.063-.2674,0-.3897-.0462-.2656-.2632-.4682-.5314-.496h-.1771c-8.4905.7172-16.058,5.638-20.1576,13.1078-.6039-1.2898-1.01-2.6632-1.2045-4.074-.0234-.2577-.2088-.4716-.4605-.5314-.2629-.0732-.5385.0646-.6377.3188-2.4762,6.2054-3.9125,12.7765-4.2512,19.4491-1.2648-.4406-2.5541-.8073-3.8615-1.0982-.1482-.1064-.3478-.1064-.496,0-.1202.1255-.195.2876-.2126.4605.3962,7.257,2.6664,14.2875,6.5893,20.4056,1.2631,1.9241,2.6725,3.7481,4.2157,5.4557,1.29,1.4616,2.7002,2.8125,4.2157,4.0386,1.8564,1.5563,3.8482,2.9434,5.9516,4.1449.4766.9439.8336,1.9436,1.0628,2.9758.1176,2.0363-.0735,4.0787-.5668,6.0579-.0945.126-.0945.2991,0,.4251.0581.1377.1753.2418.3188.2834l9.7068,2.4444c.2925.1961.6886.118.8848-.1745.0641-.0955.1011-.2066.1072-.3215Zm32.5569-48.3216l-1.0982.8148c-1.6287.9993-3.3487,1.8415-5.1368,2.5153-.3033.0978-.4698.423-.372.7262.0978.3033.423.4698.7262.372,1.8976-.6754,3.7059-1.5796,5.3848-2.6924.4881-.3169.9502-.6722,1.3816-1.0628.6952-.5703,1.3038-1.2386,1.8067-1.9839,2.2641,6.5981,1.8572,13.8201-1.1336,20.1222h-.3543c-8.2266-1.2677-16.6444-.0334-24.1608,3.5426-.2734.1552-.3815.4947-.248.7794.1101.272.4199.4033.6919.2932.0305-.0123.0597-.0275.0874-.0452,7.2847-3.5079,15.4565-4.7423,23.4523-3.5426,1.3108.2126,2.6216.496,3.8969.8148-7.4123,11.6366-20.2479,18.6888-34.0448,18.7051-.944.0524-1.8901.0524-2.8341,0-.1784-2.8314-.6654-5.6349-1.4525-8.3606,1.8546-1.8237,3.8837-3.4612,6.0579-4.8888.1908-.2248.1908-.5546,0-.7794-.2186-.2069-.5608-.2069-.7794,0-2.0628,1.3669-3.9958,2.9204-5.7745,4.6409-.5384-1.7293-1.1893-3.4216-1.9485-5.066,3.1776-4.2898,4.2094-9.8012,2.7987-14.95,1.5397-1.255,3.326-2.1723,5.2431-2.6924,2.0652-.4072,4.1656-.609,6.2705-.6022,3.1969.1955,6.4056.0291,9.5651-.496.3086-.0523.5165-.3449.4642-.6535-.0011-.0065-.0023-.0131-.0037-.0196-.0691-.2903-.3404-.4862-.6377-.4605-3.0517.5304-6.157.685-9.2463.4605-1.7678.0063-3.5325.1484-5.2785.4251.6339-.6849,1.3475-1.2915,2.1256-1.8067h.2834c1.8274-1.07,3.7947-1.8807,5.8454-2.409,3.7906-1.1691,7.7584-2.3736,9.4234-7.0853,1.178-3.8748,1.3245-7.9899.4251-11.9387,5.5899,3.9647,8.8115,10.4745,8.5732,17.3235Zm-31.1752-23.6294l2.6924-.496c.0183.0817.0183.1663,0,.248h0s-.1771,0-.1771.2126c-1.7005,2.6924-5.4557,9.5651-3.5426,14.4186h0c.4049.8939,1.0258,1.6731,1.8067,2.2673h.2126c.2257.0711.4712-.0155.6022-.2126.2069-.2186.2069-.5608,0-.7794-.7321-.5878-1.3148-1.3404-1.7005-2.1964h0c-1.5588-4.4283,2.1256-10.9468,3.3655-12.8952,2.4729-.0317,4.939.2661,7.3333.8857,2.6789.6749,5.2533,1.7118,7.6521,3.0821,1.1691.6198,2.2729,1.3557,3.2947,2.1964.8428,3.5039.7573,7.1671-.248,10.6279-1.5233,4.1803-4.8888,5.2431-8.7149,6.4122-1.6684.4713-3.2924,1.0877-4.8534,1.8422-.0291-1.7198-.5585-3.394-1.5233-4.818-.1565-.2739-.5055-.3691-.7794-.2126-.2739.1565-.3691.5055-.2126.7794,1.0113,1.3794,1.4894,3.0781,1.3462,4.7826h0c-1.3849.8115-2.5902,1.8963-3.5426,3.1884-1.8336.5765-3.5492,1.4764-5.066,2.657-1.5168-3.017-3.7864-5.5917-6.5893-7.475h0c-1.0446-2.3797-.6013-5.1503,1.1336-7.0853,2.2387-2.6035,2.5394-6.3549.744-9.2817-.9142-1.2561-1.2015-2.8623-.7794-4.3574h0c.0434-.1591.1027-.3134.1771-.4605h0l.1771-.248c2.0522-1.6954,4.5485-2.7652,7.1916-3.0821Zm-5.4557,0c-.8384.5747-1.59,1.2666-2.2319,2.0547-.3324.2823-.6297.6034-.8857.9565v.2834c-.092.1554-.1634.3221-.2126.496h0c-.5272,1.7746-.214,3.6929.8502,5.2077,1.566,2.5729,1.2639,5.8675-.744,8.1127-1.4488,1.8543-2.0412,4.237-1.6296,6.5539-.2834,0-.5314-.3897-.8148-.5314-4.5376-2.3731-8.3089-5.9847-10.8759-10.4154,3.4547-6.4136,9.4671-11.0613,16.5441-12.789v.0709Zm-5.5974,68.9752c.4366-1.9639.6034-3.9781.496-5.9871h0c-.1463-.6148-.3357-1.2185-.5668-1.8067,1.9371.998,3.951,1.8391,6.0225,2.5153.2738.095.5732-.0468.6731-.3188.1219-.2453.0219-.543-.2234-.6649-.0414-.0206-.0855-.0353-.1309-.0436-4.8047-1.6005-9.2725-4.0747-13.1786-7.2978-1.4441-1.2312-2.8051-2.5567-4.074-3.9678-1.5044-1.6415-2.8672-3.4074-4.074-5.2785-3.6496-5.7217-5.828-12.2569-6.3413-19.024,1.1691.2834,2.3381.6377,3.5426,1.0274.1278.033.2619.033.3897,0h0c.9565.3188,1.9839.744,3.0112,1.2045l.744.3897c.2938.1279.6364.0034.7794-.2834.1335-.2847.0255-.6242-.248-.7794l-.8148-.3897c-1.0274-.4605-1.9839-.8502-2.9404-1.2045.261-6.0517,1.456-12.0267,3.5426-17.7132.3204,1.2309.7841,2.4199,1.3816,3.5426h0c2.6571,4.7374,6.6322,8.6017,11.4427,11.1239l1.7359,1.0982h0c3.0427,1.9632,5.4923,4.7191,7.0853,7.9709,1.4094,4.6726.5437,9.7358-2.3381,13.6746-3.2673-6.2984-8.0827-11.6624-13.9934-15.5876-.2177-.225-.5765-.231-.8015-.0133-.0045.0044-.0089.0088-.0133.0133-.2116.2304-.2116.5844,0,.8148,6.0978,3.9734,10.9969,9.5339,14.1706,16.0836,2.2541,4.6533,3.5435,9.7145,3.7906,14.8791h0c.0226.2386.1928.4371.4251.496h2.4444c-1.8558,1.9593-3.0887,4.4251-3.5426,7.0853l-8.3961-1.5588Z"/></g><g id="Artichaut_1"><path class="cls-13" d="m399.4835,128.7553h0l-.2126-.2834h.496c-2.7704-3.3094-6.8439-5.2492-11.1593-5.314.5154.486.8733,1.1153,1.0274,1.8067.0951.313.1662.6327.2126.9565h-.496v-.9211c-3.8458-1.7843-8.3435-1.4352-11.8679.9211h0c.2942-.0346.5915-.0346.8857,0,1.9647.3448,3.8212,1.1456,5.4202,2.3381-1.5038-1.1223-3.2316-1.9076-5.066-2.3027l-.2126.2126c-.6285.2604-1.2046.6325-1.7005,1.0982-1.3935.7997-2.601,1.8865-3.5426,3.1884-.8748,1.1817-1.6006,2.4668-2.161,3.8261h0c-.1771,0,0,0,0,0l-.5314-.7794s-.248.9919-.4251,2.2319c-.5292,1.5138-.5292,3.1624,0,4.6763h0c-.4581-1.4768-.4581-3.0578,0-4.5346l-.7794.9919h0c-.052,1.2285.2166,2.4494.7794,3.5426l-.8502-1.0274v-2.7278c-1.5008,4.4984-.5769,9.4527,2.4444,13.1078h0v.3543c2.9543-.3193,5.7563-1.4745,8.0772-3.3301.2299-.1945.4432-.4078.6377-.6377h.2834c1.6657-1.2142,3.6779-1.8601,5.7391-1.8422h0c-2.0542.0608-4.052.6859-5.7745,1.8067h0l-1.0628.744c-2.3123,1.7951-5.091,2.8893-8.0064,3.153h0c-1.0383.0892-2.0841-.019-3.0821-.3188,2.6752,2.7678,5.8325,5.0248,9.3171,6.6602-.593.6408-1.1489,1.315-1.665,2.0193,3.749,1.4194,7.8065,1.8227,11.7616,1.1691.3906.1323.8139.1323,1.2045,0,.7794-.3543,1.6296-.6731,2.4444-.9919,1.0152-.3551,2.0088-.7691,2.9758-1.2399,2.5728-1.2803,4.8806-3.0352,6.8019-5.1723l-2.7278,2.905h.4605l-.5314.1771c.4207-.0869.8547-.0869,1.2754,0h0c1.0781.5191,2.1197,1.1109,3.1175,1.7713l3.3301-4.2866-.3543-.248h0c-1.3404-.7924-2.338-2.0552-2.7987-3.5426v-.1771c3.1642-7.3296,2.3063-15.7751-2.2673-22.3186-.525.7462-.9984,1.5274-1.417,2.3381Zm-22.1061,10.4154h0c-.4029-.0691-.7956-.1881-1.1691-.3543.3597.2006.7585.3215,1.1691.3543Zm9.3171,4.9951c-.3365-1.1493-.4211-2.3577-.248-3.5426h0l.1771-.8502c.1992-.8792.5212-1.7259.9565-2.5153.7829-1.578,1.3774-3.2427,1.7713-4.9597l-.2834,1.2754c-.4246,1.2204-.9458,2.4051-1.5588,3.5426-.4083.7893-.729,1.6208-.9565,2.4799v.9565c-.0507,1.0925.0325,2.187.248,3.2592l-.1063.3543Zm0,0c1.5175.1262,2.9618.7064,4.1449,1.665-1.1904-.9351-2.6346-1.4906-4.1449-1.5942v-.0708Zm-4.4283,8.6795"/><path class="cls-15" d="m406.7814,152.491h0c-1.0628-.8148-3.2947-2.5507-2.7987-4.322h0c2.7457-7.2227,1.7515-15.335-2.657-21.681-.0783-.0381-.1697-.0381-.248,0-.0804-.027-.1675-.027-.248,0-.3897.4605-.7085.9919-1.0628,1.4879-2.7852-3.272-6.8624-5.1618-11.1593-5.1723-.1326-.0042-.2503.0841-.2834.2126-.0654.0962-.0654.2226,0,.3188.2688.2776.4848.6017.6377.9565-3.8169-1.4729-8.1116-.9972-11.5136,1.2754-.057.0986-.057.2202,0,.3188.0268.144.1394.2566.2834.2834h0l-1.3816.8857c-1.3283.9419-2.5204,2.0625-3.5426,3.3301-.7871,1.0301-1.4528,2.1475-1.9839,3.3301l-.2126-.2834c-.0986-.057-.2202-.057-.3188,0-.1098.0311-.2004.1088-.248.2126,0,0-.2834.9565-.5314,2.1964v.9211c0,.3188,0-.1771-.2126-.1771-.1466-.047-.3039.0317-.3543.1771h0c-1.5501,4.4992-.7383,9.476,2.161,13.2495-.803.019-1.604-.0886-2.3736-.3188-.1206-.0696-.2691-.0696-.3897,0-.0886.1148-.0886.2749,0,.3897,2.6251,2.6727,5.6784,4.8878,9.0337,6.5539-.532.5368-1.0179,1.1175-1.4525,1.7359-.0506.0877-.0506.1957,0,.2834l.2126.2126c3.8055,1.4397,7.9223,1.855,11.9387,1.2045,1.2645-.2144,2.5087-.5343,3.7198-.9565,1.0381-.3243,2.0458-.7392,3.0112-1.2399,1.2413-.6026,2.4268-1.3139,3.5426-2.1256.5768-.0646,1.1591-.0646,1.7359,0,1.0674.3923,2.0704.9416,2.9758,1.6296.0741.0532.1739.0532.248,0,.0673.0319.1453.0319.2126,0l3.5426-4.4283c.0609-.1859-.0404-.386-.2263-.447-.0186-.0061-.0377-.0106-.0571-.0136Zm-17.4298-27.4909c0,.2126,0,.4605.1771.744.1092,1.06.1092,2.1284,0,3.1884-.0205.1749.1046.3333.2795.3538.0013.0001.0026.0003.0039.0004.1515.0392.3062-.0518.3454-.2034.0068-.0261.0098-.0531.0089-.08.1276-1.1182.1276-2.2473,0-3.3655-.0617-.3239-.1445-.6434-.248-.9565-.1215-.4802-.3252-.9356-.6022-1.3462,3.8796.2989,7.4836,2.12,10.0257,5.066v.1771c-2.5013,3.9139-3.7381,8.5024-3.5426,13.1432,0,.1761.1427.3188.3188.3188h0c.1817-.0183.3198-.1716.3188-.3543-.1409-4.5233,1.0945-8.9828,3.5426-12.7889.3928-.6244.8185-1.2275,1.2754-1.8067,4.3022,6.4073,5.0497,14.563,1.9839,21.6455-.1932.4927-.4303.9669-.7085,1.4171-1.492-.5354-3.0354-.9153-4.6054-1.1336-.6224-1.3451-1.1205-2.7444-1.4879-4.1803-.0339-.1728-.2015-.2853-.3743-.2514-.0052.001-.0103.0022-.0154.0034-.1535.0481-.2553.1936-.248.3543.2576,1.3618.6249,2.7006,1.0982,4.0032-1.0143-.0714-2.0324-.0714-3.0467,0-1.5068-2.5932-4.1168-4.3549-7.0853-4.7826-.2845-1.0739-.3567-2.1931-.2126-3.2947.2805-1.1364.6477-2.2497,1.0982-3.3301.9037-1.6579,1.6054-3.4182,2.0902-5.2431.025-.1733-.0804-.3389-.248-.3897-.1733-.025-.3389.0804-.3897.248-.4103,1.688-1.0292,3.3183-1.8422,4.8534-.3933.8936-.7132,1.8178-.9565,2.7633-.1997-.4776-.3423-.977-.4251-1.4879h0c-.1772-1.1742-.1772-2.3684,0-3.5426.6522-2.2566.0741-4.69-1.5233-6.4122-1.6222-1.3842-3.5545-2.3565-5.6328-2.8341,3.2402-1.9207,7.2229-2.1066,10.6279-.496Zm-19.0948,10.6279c0-.5668.248-1.1336.3543-1.4879s0,0,0,0h0c1.0274,1.4525,3.5426,4.9243,6.6247,4.9597h0c.5483-.0306,1.0819-.1883,1.5588-.4605h0c.0716-.1072.0716-.247,0-.3543-.1035-.1174-.2826-.1286-.4-.0251-.0089.0078-.0173.0162-.0251.0251-.4608.2344-.9709.3559-1.4879.3543h0c-2.5861-.2126-5.1014-3.5426-5.8454-4.6409.5463-1.2709,1.2613-2.4625,2.1256-3.5426.9125-1.2373,2.0121-2.3249,3.2592-3.2238.5902-.4545,1.2184-.8575,1.8776-1.2045,2.1293.3584,4.1167,1.303,5.7391,2.7278,1.4566,1.5851,1.9563,3.8271,1.3108,5.8808-.0884.9663-.0884,1.9387,0,2.905-.8936-.3794-1.8785-.4902-2.8341-.3188-.1819.0358-.3054.2057-.2834.3897.0144.1559.1525.2705.3083.2561.0155-.0014.0309-.0041.0459-.0081.9387-.1847,1.9123-.0474,2.7633.3897h0c.1377.8747.4381,1.7158.8857,2.4799-.1412,1.0664-.069,2.1502.2126,3.1884-1.889.0951-3.7206.6812-5.314,1.7005h0c-1.7005,0-2.409-.9565-3.2592-2.1256-.8266-1.7281-2.6707-2.7287-4.57-2.4799-.8475.2013-1.7402-.0088-2.409-.5668h0l-.2126-.2126h0c-.564-1.3923-.7117-2.9183-.4251-4.3929v-.2126Zm-1.2399,2.7633c.0853.569.2649,1.1197.5314,1.6296.0733.2214.1682.435.2834.6377h0c.0506.0981.1234.183.2126.248h0c.8076.643,1.8555.9017,2.8695.7085,2.2319-.2834,3.0821.9211,4.0032,2.1964.6188,1.1563,1.7013,1.9939,2.9758,2.3027l-.4605.3188c-2.2298,1.7856-4.9197,2.9033-7.7584,3.2238-2.4144-3.2084-3.3777-7.28-2.657-11.2302v-.0354Zm34.0802,18.3509c-.9132-.6669-1.9147-1.2034-2.9758-1.5942h-1.0274c.9329-.7619,1.8091-1.5907,2.6216-2.4799v-.4251c-.1218-.1272-.3236-.1315-.4508-.0098-.0033.0032-.0066.0064-.0097.0098-1.92,2.025-4.2033,3.6713-6.731,4.8534-.9577.4645-1.9392.8784-2.9404,1.2399-1.1575.3819-2.3416.6779-3.5426.8857-3.7475.5847-7.5815.2317-11.1593-1.0274.4251-.5314.8502-1.0628,1.3108-1.5588.0581.015.119.015.1771,0h0c.4107-.4513.8484-.8772,1.3108-1.2754l.3543-.2834c.1272-.1218.1315-.3236.0098-.4508-.0032-.0033-.0064-.0066-.0098-.0097-.144-.1188-.352-.1188-.496,0l-.3543.3188c-.4605.4251-.8857.8148-1.2754,1.2399-3.0181-1.4797-5.7902-3.4154-8.2189-5.7391.6935.0952,1.3967.0952,2.0902,0h0c3.0152-.2902,5.8819-1.4467,8.2544-3.3301l.9211-.6731h0c1.6775-1.1003,3.6275-1.7135,5.6328-1.7713,2.709.3196,5.1101,1.8941,6.483,4.2512-3.9484.2182-7.7764,1.4373-11.1239,3.5426-.1174.1035-.1286.2826-.0251.4.0078.0089.0162.0173.0251.0251.1218.1272.3236.1315.4508.0097.0033-.0032.0066-.0064.0097-.0097,3.4174-2.1793,7.3566-3.4026,11.4073-3.5426,2.8893-.1084,5.7704.3738,8.4669,1.4171h0c.0962.0654.2226.0654.3188,0h0c.2292-.3989.4304-.8132.6022-1.2399.5835,1.3715,1.5566,2.5417,2.7987,3.3655l-2.905,3.8615Z"/></g><path class="cls-2" d="m356.9718,142.9259h0c-.5032-.0966-1.0202-.0966-1.5233,0l-8.4315.5668h-1.8422c-.3085.0953-.5885.2657-.8148.496-.2752.2448-.4723.5651-.5668.9211-.1015.359-.1015.7392,0,1.0982.0713.3068.2039.596.3897.8502.2181.2536.4549.4905.7085.7085l7.0853,5.9516.6377.496c.1851.1335.3878.2408.6022.3188h.4251c.2624-.004.519-.0773.744-.2126.3658-.1988.6439-.5274.7794-.9211.1804-.3936.1804-.8463,0-1.2399-.3252-.3837-.6937-.7284-1.0982-1.0274l-1.0628-.8502,1.3462-4.1449h2.7987c.1927-.0928.3716-.2121.5314-.3543.1463-.1828.2656-.3856.3543-.6022.1758-.3946.1758-.8453,0-1.2399-.2246-.4084-.6101-.7039-1.0628-.8148Zm-5.5619,3.3655l-.744,2.3027-2.8341-2.161,3.5781-.1417Z"/><path class="cls-2" d="m363.0652,131.5894c-.3354-.1491-.696-.2332-1.0628-.248-.5426-.0356-1.087-.0356-1.6296,0-.6209.0424-1.2372.1372-1.8422.2834l-.8148.248c.1459-.6413.1459-1.3072,0-1.9485-.3182-.8529-.9525-1.5507-1.7713-1.9485-.8305-.5043-1.8398-.6208-2.7633-.3188-.4445.1189-.8563.3369-1.2045.6377-.3328.2435-.6205.5432-.8502.8857-.248.3543-.496.7794-.7794,1.2754l-1.8776,3.5426c-.2929.4504-.3829,1.0033-.248,1.5233.1666.498.5416.8988,1.0274,1.0982l8.2189,4.3929c.3473.1945.7359.3038,1.1336.3188h.3188c.4592-.1191.8458-.4284,1.0628-.8502.1733-.4075.1733-.8679,0-1.2754-.1928-.4734-.5608-.8541-1.0274-1.0628l-3.0821-1.665.2126-.3897c.1415-.2808.3336-.533.5668-.744.2269-.18.4945-.3017.7794-.3543.5245-.1102,1.0583-.1695,1.5942-.1771h2.9758c.2852-.0287.562-.113.8148-.248.2891-.1487.5244-.384.6731-.6731.1367-.25.2097-.5299.2126-.8148.0353-.2614-.0278-.5265-.1771-.744-.035-.3042-.2038-.577-.4605-.744Zm-8.0772.7085c-.1326.4592-.323.8997-.5668,1.3108l-.8148,1.5588-2.2319-1.1691.8857-1.6296c.2045-.4727.4925-.9048.8502-1.2754.1821-.1519.4029-.2501.6377-.2834.2219-.0468.4512-.0468.6731,0,.4914.251.7307.8193.5668,1.3462v.1417Z"/><path class="cls-2" d="m366.9621,125.5315l-6.731-5.066,1.3816-1.8067c.2755-.3409.4256-.7661.4251-1.2045-.0414-.3955-.2471-.7555-.5668-.9919-.315-.2621-.7323-.3664-1.1336-.2834-.4272.1027-.7965.3701-1.0274.744l-4.7117,6.2705c-.2896.3329-.4416.7636-.4251,1.2045.0101.4049.2231.7776.5668.9919.2989.2662.7079.3717,1.0982.2834.4371-.1013.818-.3679,1.0628-.744l1.3462-1.8067,6.731,5.066c.3602.2991.8077.4732,1.2754.496h0c.4517-.0666.859-.3084,1.1336-.6731.28-.3478.3845-.805.2834-1.2399-.0741-.4869-.3266-.9289-.7085-1.2399Z"/><path class="cls-2" d="m365.6867,112.53h0c-.3356-.3772-.8068-.6064-1.3108-.6377h0c-.449-.0038-.8767.1906-1.1691.5314-.3379.3043-.5092.7524-.4605,1.2045.0532.5135.308.985.7085,1.3108l7.0853,6.5893c.3427.3735.8076.6122,1.3108.6731h0c.9112-.0568,1.615-.8231,1.5942-1.7359-.0366-.5185-.2948-.9961-.7085-1.3108l-7.0499-6.6247Z"/><path class="cls-2" d="m374.8267,111.4672h0c-.426.0205-.8295.197-1.1336.496l-1.9839,1.7713c-.3523.2648-.5824.661-.6377,1.0982-.0279.3937.114.7804.3897,1.0628.2478.2907.61.4589.9919.4605h0c.4231-.0325.8227-.2073,1.1336-.496l1.9485-1.7713c.3464-.27.5749-.6635.6377-1.0982.0373-.3884-.0914-.7744-.3543-1.0628-.258-.2769-.6139-.4421-.9919-.4605Z"/><path class="cls-2" d="m385.8089,104.2402c-.3798-.0747-.7737.0016-1.0982.2126-.3709.1969-.6126.5727-.6377.9919-.0659.3393-.0659.6881,0,1.0274.1782.5286.1782,1.101,0,1.6296-.195.5161-.5565.9524-1.0274,1.2399-.4218.3105-.9289.4837-1.4525.496-.5312.0008-1.0501-.1598-1.4879-.4605-.6097-.4237-1.1278-.9659-1.5233-1.5942-.6685-.8476-1.0306-1.8964-1.0274-2.9758.052-.8096.4861-1.5461,1.1691-1.9839.3889-.2918.8601-.453,1.3462-.4605h0c.5234.0174,1.0344.1634,1.4879.4251.312.1991.6618.3318,1.0274.3897.3614.0493.7282-.0392,1.0274-.248.3238-.2382.5402-.5948.6022-.9919.0449-.3724-.0429-.7487-.248-1.0628-.4193-.5385-.9851-.9445-1.6296-1.1691-.794-.2836-1.6454-.3687-2.4799-.248-.9821.1273-1.9184.4921-2.7278,1.0628-.6879.4579-1.278,1.0479-1.7359,1.7359-.4655.6813-.7796,1.4544-.9211,2.2673-.1749.8293-.1749,1.686,0,2.5153.247.9087.6419,1.7704,1.1691,2.5507.3419.499.7336.9619,1.1691,1.3816.4156.3839.8663.7278,1.3462,1.0274.4776.2784.9898.4928,1.5233.6377.4595.1396.9369.2112,1.4171.2126h.248c.5558-.0501,1.1032-.1691,1.6296-.3543.5795-.2468,1.1365-.5431,1.665-.8857.6785-.4549,1.2671-1.0315,1.7359-1.7005.3691-.5837.6218-1.2333.744-1.913.1063-.5857.1063-1.1857,0-1.7713-.0826-.4805-.2635-.9388-.5314-1.3462-.1754-.2987-.4519-.5249-.7794-.6377Z"/><path class="cls-2" d="m396.6848,92.6558c-.1699-.4843-.5274-.88-.9919-1.0982-.8236-.3629-1.7855.0106-2.1483.8342-.0177.0401-.0337.0809-.0481.1223-.1702.4814-.1702,1.0065,0,1.4879l1.2399,2.7987-4.1095,1.7713-1.2399-2.7987c-.1569-.4892-.5007-.8966-.9565-1.1336-.8901-.3371-1.8857.1053-2.2319.9919-.1282.489-.0648,1.0086.1771,1.4525l3.7906,8.7858c.1695.4821.5098.8854.9565,1.1336.2213.0527.4518.0527.6731,0,.2097.0497.428.0497.6377,0,.4372-.1612.7765-.5136.9211-.9565.1859-.4786.1859-1.0094,0-1.4879l-1.4525-3.5426,4.1095-1.7713,1.4525,3.5426c.1803.4759.5178.8759.9565,1.1336.4157.1926.8951.1926,1.3108,0,.4322-.1492.7719-.4888.9211-.9211.1859-.4786.1859-1.0094,0-1.4879l-3.9678-8.8566Z"/><path class="cls-2" d="m413.4415,97.1195l-4.8888-7.0853-.5668-.8502c-.1605-.2362-.351-.4506-.5668-.6377-.2326-.2142-.5114-.3718-.8148-.4605-.3582-.1073-.74-.1073-1.0982,0-.3573.0773-.6875.2485-.9565.496-.2388.2196-.4315.4845-.5668.7794-.1029.3109-.1742.6313-.2126.9565l-1.3816,9.2817v.8148c-.0176.2122-.0176.4255,0,.6377.1059.3988.3764.7337.744.9211.2387.1664.5239.2532.8148.248h.3543c.4371-.0598.8122-.3411.9919-.744.1874-.4627.2952-.9538.3188-1.4525v-1.3462l4.2512-.9919.7794,1.1336.4251.5668c.138.2112.3049.4021.496.5668.1678.1244.3616.2092.5668.248.2188.0704.4543.0704.6731,0,.4214-.0941.7897-.3481,1.0274-.7085.2387-.3397.3164-.7671.2126-1.1691-.1392-.4294-.3422-.8355-.6022-1.2045Zm-5.0305-1.7005l-2.3736.5668.4251-3.5426,1.9485,2.9758Z"/><path class="cls-2" d="m425.3094,86.4207h0c-.3281-.3214-.7837-.4776-1.2399-.4251-.4572-.0056-.8903.2044-1.1691.5668-.2818.4157-.4073.9177-.3543,1.4171l.3188,6.0225c.0872.7202-.0489,1.4498-.3897,2.0902-.4266.4867-1.0545.7483-1.7005.7085-.4751.0631-.9581-.0235-1.3816-.248-.3213-.1673-.5725-.4436-.7085-.7794-.1615-.5051-.2568-1.0291-.2834-1.5588l-.3188-5.9871c.0174-.507-.1601-1.0014-.496-1.3816-.3405-.3275-.8041-.4949-1.2754-.4605-.4514.0187-.8748.224-1.1691.5668-.2931.4239-.4193.9412-.3543,1.4525l.3188,5.8454c.0163.8433.1597,1.6793.4251,2.4798.2288.6633.6183,1.2597,1.1336,1.7359.5413.463,1.1848.7908,1.8776.9565.6402.1357,1.2942.1952,1.9485.1771h.744c.7389-.0214,1.4691-.1651,2.161-.4251.6122-.2351,1.1676-.5974,1.6296-1.0628.5377-.5366.9176-1.2106,1.0982-1.9485.1155-.8344.1155-1.6808,0-2.5153l-.3188-5.8454c.0104-.5059-.1662-.9979-.496-1.3816Z"/><path class="cls-2" d="m437.9566,87.5544c-.7202-.2726-1.4689-.4627-2.2319-.5668l-3.1529-.4251c-.5253-.0905-1.0657.0101-1.5233.2834-.3888.3605-.6289.8533-.6731,1.3816l-1.2045,8.8566c-.0355.3652-.0355.733,0,1.0982.0434.3486.2214.6665.496.8857.3582.243.7731.3894,1.2045.4251l3.1884.4251h1.5588c.4772-.0335.951-.1046,1.4171-.2126.4546-.1476.8845-.3626,1.2754-.6377.4838-.3483.9136-.7661,1.2754-1.2399.3669-.5083.6537-1.0698.8502-1.665.2309-.6553.397-1.3316.496-2.0193.415-1.9399-.081-3.9631-1.3462-5.4911-.4482-.4904-1.0069-.8668-1.6296-1.0982Zm-.3543,6.2351c-.0275,1.2119-.5841,2.3511-1.5233,3.1175-.165.0981-.3443.1698-.5314.2126-.2112.0344-.4265.0344-.6377,0h-.9211l-1.4171-.248.9919-7.3333h1.1691c.6139.0659,1.2125.2335,1.7713.496.4358.2283.7752.6054.9565,1.0628.2861.8688.335,1.7983.1417,2.6924Z"/><path class="cls-2" d="m452.3752,90.9907c-.5803-.406-1.228-.7059-1.913-.8857-.8304-.2892-1.7074-.4214-2.5861-.3897-.7718.0349-1.5141.3071-2.1256.7794-.5687.4426-.9889,1.0482-1.2045,1.7359-.2295.6778-.2295,1.4123,0,2.0902.199.6487.5802,1.2267,1.0982,1.665.6074.5276,1.2593,1.0017,1.9485,1.4171l1.3462.8502c.256.183.4628.4264.6022.7085.0907.2275.0907.4811,0,.7085-.1119.3671-.4074.6492-.7794.744-.5169.1755-1.0773.1755-1.5942,0-.3554-.1014-.6827-.2832-.9565-.5314-.1894-.1766-.3349-.395-.4251-.6377-.0401-.3294-.0401-.6625,0-.9919-.0041-.3612-.1018-.7152-.2834-1.0274-.1502-.3193-.4367-.5536-.7794-.6377-.3694-.178-.7997-.178-1.1691,0-.3789.1544-.6573.4858-.744.8857-.1754.6256-.1754,1.2874,0,1.913.1876.6704.527,1.2886.9919,1.8067.7526.8136,1.7246,1.3919,2.7987,1.665.707.2451,1.4483.3766,2.1964.3897h.6377c.805-.0915,1.567-.411,2.1964-.9211.6046-.4978,1.0484-1.1635,1.2754-1.913.15-.5809.15-1.1904,0-1.7713-.0762-.5439-.2963-1.0576-.6377-1.4879-.3384-.4499-.7447-.8443-1.2045-1.1691-.5359-.3943-1.0916-.7609-1.665-1.0982l-.9919-.6377-.5314-.4605c-.1183-.1243-.2142-.2681-.2834-.4251-.0346-.1276-.0346-.2621,0-.3897.0992-.2668.3252-.4662.6022-.5314.438-.1386.9082-.1386,1.3462,0,.4142.0912.7874.3151,1.0628.6377.2037.3483.3361.7337.3897,1.1336.0359.3221.1321.6345.2834.9211.1655.2998.4476.5177.7794.6022.3826.1743.8219.1743,1.2045,0,.339-.1958.5919-.5119.7085-.8857h0c.0886-.3966.0886-.8079,0-1.2045-.0826-.4805-.2635-.9388-.5314-1.3462-.2836-.4897-.6422-.932-1.0628-1.3108Z"/><path class="cls-2" d="m465.0224,96.2693c-.4366-.2099-.945-.2099-1.3816,0-.4627.1726-.8425.5145-1.0628.9565l-.744,1.5233-1.6296,3.5426c-.207.3953-.3277.83-.3543,1.2754-.0444.4273.1817.8371.5668,1.0274.1859.048.3809.048.5668,0,.2292-.0048.4515-.0789.6377-.2126.3425-.2751.6308-.6114.8502-.9919l2.2673-3.5426c.2213-.3177.4225-.649.6022-.9919.2672-.4688.4359-.9871.496-1.5233-.0565-.4768-.3691-.8845-.8148-1.0628Z"/><path class="cls-2" d="m460.2044,105.1259c-.4024-.1966-.873-.1966-1.2754,0-.4226.1349-.7775.4264-.9919.8148-.1926.4157-.1926.8951,0,1.3108.1363.413.4287.7563.8148.9565.2483.141.5293.2143.8148.2126h.4251c.4502-.1197.8256-.4303,1.0274-.8502.1775-.4066.1775-.8688,0-1.2754-.0672-.4983-.3705-.9336-.8148-1.1691Z"/><path class="cls-5" d="m425.2385,52.3405c-66.64,0-120.6624,54.0224-120.6624,120.6624s54.0224,120.6624,120.6624,120.6624,120.6624-54.0224,120.6624-120.6624h0c0-66.64-54.0224-120.6624-120.6624-120.6624Zm0,212.346c-50.6354.0196-91.6994-41.0127-91.719-91.6481-.0196-50.6354,41.0127-91.6994,91.6481-91.719,50.6354-.0196,91.6994,41.0127,91.719,91.6481v.0354c0,50.6216-41.0265,91.664-91.6481,91.6836Z"/><path class="cls-1" d="m324.7338,226.3551l.7794,2.409-2.4444,1.0982-4.1803-9.2109,2.4444-1.1336.9919,1.665,2.7633-3.9678-4.8888-.6731.4605,1.4525-2.4444,1.1336-3.1884-7.0499,2.4444-1.1336,1.4525,2.409,7.9709,1.3108,5.1014-7.2624-.744-2.4444,2.409-1.0982,4.074,8.9983-2.4444,1.0982-.8502-1.4525-2.409,3.4009,4.1803.5314-.496-1.5588,2.4444-1.0982,3.153,7.0144-2.4444,1.0982-1.3462-2.3027-7.2978-1.0982-5.4911,7.8647Zm17.7132,11.797l7.3687-.5314,1.8067,1.913,2.161-1.6296-4.6409-6.1288-2.1256,1.6296.8148,1.417-4.1803.3897,1.5942-3.826,1.1691,1.2045,2.1256-1.5942-5.9516-7.9001-2.1256,1.6296,1.2753,2.1964-3.3655,8.2189-8.0772.4605-1.9485-2.0193-2.1256,1.6296,4.6409,6.1642,2.161-1.5942-.7794-1.3462,4.9243-.4251-1.8067,4.4992-1.3462-1.4171-2.1256,1.6296,6.0933,8.0772,2.1256-1.6296-1.2754-2.161,3.6135-8.8566Zm11.4782,14.5957l.8502-.8857c1.5233-1.6296,3.0467-3.2592,4.57-4.818l1.9485,1.4879,1.8067-1.9839-7.3333-6.8373-1.8422,1.9485,1.5942,1.8422-4.4637,4.8534-.6731.8503c-1.5233,1.6296-3.0467,3.2592-4.57,4.818l-1.9839-1.2754-1.8067,1.9485,6.2705,5.8808h0l1.0628,1.0274,1.8422-1.9839-1.5942-1.8422,4.322-5.0305Zm22.3895,6.731l2.3736,1.1691,1.4879-2.2319-6.4476-4.2157-1.4525,2.2319,1.2399,1.0628-3.7906,1.7713.1771-4.1449,1.5233.7794,1.4879-2.2319-8.2898-5.4557-1.4525,2.2319,1.9485,1.665-.3897,8.8566-7.4395,3.1884-2.5153-1.2399-1.4879,2.2319,6.483,4.2512,1.4525-2.2319-1.1691-.9919,4.4992-2.0547-.2126,4.818-1.7005-.8502-1.4879,2.2319,8.4669,5.5619,1.4879-2.2673-1.9485-1.5942.4251-9.6006,6.731-2.9404Zm4.818,6.8727c-.7414-.2835-1.5613-.2835-2.3027,0-1.5529.5819-2.367,2.2883-1.8422,3.8615.2891.7415.8452,1.3481,1.5588,1.7005.4022.1778.8357.2741,1.2754.2834,1.6629.0198,3.0271-1.3122,3.0469-2.9752.0141-1.1822-.665-2.2633-1.7361-2.7639v-.1063Zm18.032-.7085l-9.5297-3.2238-.8502,2.5861,2.161.9919c-.6377,2.0901-1.3462,4.2158-2.0547,6.3059l-.3897,1.1691c-.7085,2.1256-1.4525,4.2158-2.161,6.2705l-2.3736-.5314-.8502,2.5507,9.4943,3.2238.8857-2.5507-2.2319-1.0274c.6731-2.0901,1.3816-4.2158,2.0902-6.3059l.3897-1.1691c.7085-2.1256,1.4525-4.2158,2.1964-6.2705l2.3382.5314.8856-2.5507Zm5.2431,1.2754l-3.0112-.6022-.5314,2.6215,2.3027.744c-.3897,2.161-.8148,4.322-1.2399,6.483l-.248,1.2399c-.4251,2.1964-.8502,4.3575-1.3462,6.483l-2.3736-.2125-.5314,2.6215,9.8485,1.9485.5314-2.6215-2.3381-.7085c.3897-2.1964.8148-4.3575,1.2399-6.5184l.248-1.2045c.4251-2.2319.8857-4.3575,1.3462-6.483l2.409.2125.5314-2.657-6.8373-1.3462Zm8.9275,4.322l2.3736.4251c0,2.1964-.248,4.3929-.3897,6.5893v1.2399c0,2.2319-.3188,4.4283-.496,6.6248h-2.4444v2.6924l10.0257.7085v-2.6924l-2.3736-.4251c0-2.1964.248-4.4283.3897-6.6248v-1.2399c0-2.2319.3188-4.4283.496-6.5893h2.4444v-2.6924l-10.0257-.7085v2.6924Zm16.4733,4.8888c-.803.0311-1.5583.3896-2.0902.9919-1.1,1.2186-1.0212,3.0937.1771,4.2158.544.52,1.2667.8116,2.0193.8148h0c1.6425-.0576,2.9273-1.4358,2.8697-3.0783,0-.0013,0-.0025-.0001-.0038-.0381-1.6217-1.3538-2.9218-2.9758-2.9404Zm32.5215,4.6763c-.5668-2.1256-1.1336-4.2512-1.665-6.4122l-.2834-1.2045c-.5314-2.161-1.0628-4.2866-1.5233-6.4122l2.1964-.8148-.6376-2.5861-7.2978,1.7713-1.5588,13.7454-8.0064-11.3719-7.3333,1.8068.6731,2.6215,2.5153-.3188,3.5426,13.9226-2.4799.9919.6377,2.5861,7.8647-1.9485-.8502-2.5507-2.3381.2125-1.8067-7.0853-.4251-1.5233,7.475,10.6279,2.6924-.6731,1.4525-12.7535.744,3.0467c.4251,1.8422.9211,3.7906,1.3816,5.7745l-2.1256.8148.6377,2.5861,9.5297-2.3382-.6377-2.6215-2.3736.1063Zm30.6084-16.0127l-3.5426-5.6328-.6377-1.0628c-1.1691-1.913-2.3027-3.7906-3.5426-5.7037l1.8776-1.4171-1.3816-2.3027-6.3413,4.074,2.657,13.5683-11.1947-8.5732-6.4476,3.9323,1.3816,2.2673,2.3381-1.0274,7.475,12.2576-2.0902,1.7005,1.3816,2.2673,2.3027-1.4171h0l4.6054-2.8341-1.3816-2.2673-2.1964.9211-3.8261-6.3413-.8502-1.3108,10.3091,7.8292,2.3736-1.4525-2.3736-12.4347,1.9839,3.2947,2.7278,4.3575-1.8067,1.4171,1.3816,2.2673,1.4525-.8857h0l7.0853-4.2512-1.4171-2.3027-2.3027,1.0628Zm19.5554-18.776l-9.3526-2.1256-1.7359-7.1916,1.5942-2.0902-1.9485-1.8776-5.2785,5.5974,1.9485,1.8422,1.2399-1.0628,1.0982,4.074-4.074-.9211,1.0628-1.3816-1.9485-1.8422-6.8373,7.1916,1.9485,1.8422,1.9485-1.6296,8.6795,1.9839,1.8067,7.9001-1.665,2.2319,1.913,1.8422,5.3494-5.5974-1.9485-1.8776-1.1691.9919-1.2399-4.818,4.7117,1.0982-1.1336,1.5233,1.9485,1.8422,6.979-7.3333-1.9485-1.8422-1.9484,1.6296Zm13.7454-20.5827l-9.5651-.0709-3.2238-6.6247,1.0982-2.409-2.2673-1.3816-4.0032,6.5539,2.3027,1.3816.9919-1.2754,1.9485,3.7198-4.1449-.0354.7085-1.5588-2.3027-1.3816-5.1368,8.4669,2.3027,1.3816,1.5588-2.0193,8.892.0709,3.4718,7.3333-1.1691,2.5507,2.3027,1.3816,4.0032-6.6248-2.3027-1.3816-.9565,1.2045-2.1964-4.4283,4.818.0354-.8148,1.7359,2.3027,1.4171,5.2431-8.6795-2.3027-1.3816-1.5588,2.0193Zm5.9162-14.0289l-6.1996-2.3027-1.1336-.4605-6.1642-2.409.6377-2.3381-2.409-.9919-3.5426,9.3526,2.5153.9919,1.0982-2.161,6.1996,2.3381,1.1691.4605,6.1288,2.409-.6022,2.3381,2.5153.9565,3.5426-9.3526-2.4798-.9565-1.2754,2.1256Zm-214.9321-22.1769l-3.7198-.248-.248-2.4444,6.5893-.7085h1.2399l6.5539-.6022.5668,2.657,2.657-.248-1.0274-10.6279-2.657.248v2.6924l-6.5893.7085h-1.2045l-6.5893.6022-.248-2.4444,3.5426-.9565-.2834-3.0467-6.5893.8148,1.7005,17.5006,6.6247-.6022-.3188-3.2947Zm-5.3494-19.0948l-2.657-.2834.9565-9.2109c.5314-4.818,2.8341-7.475,6.3768-7.0853,2.1024.1685,3.8805,1.622,4.4637,3.6489,1.0323-1.2018,2.5256-1.9098,4.1095-1.9485l3.2947-.4251.496-2.2673,2.5153.248v.5668c.1442.9273.1442,1.8714,0,2.7987-.1771,1.7005-.7085,3.6843-3.3655,3.8969l-4.0032.3897c-1.7713.1771-2.4798.6731-2.4798,2.409v.5314l5.7391.5668.5314-2.409,2.657.2834-1.0274,9.9548-2.6924-.2834v-2.409l-6.5893-.744h-1.2045l-6.5893-.6377-.5314,2.409Zm6.8373-7.0853v-.9565c.3188-2.6216-1.2753-3.5426-2.6216-3.5426-.7805-.1467-1.587.0325-2.2319.496-.6034.6444-.9446,1.4908-.9565,2.3736h0v1.1691l5.8099.4605Zm-2.8341-17.8195l6.4122,1.7359,1.1691.3188,6.3768,1.8422-.3897,2.3736,2.5861.7085,2.6924-9.6714-2.5861-.7085-.8857,2.2319c-2.161-.5314-4.2866-1.0982-6.4122-1.7005l-1.2045-.3188-6.3768-1.8422.4251-2.409-2.7278-.7085-2.657,9.6714,2.5861.744.9919-2.2673Zm3.0821-11.797l-2.4444-1.1336,3.8615-8.5378c1.8776-4.0386,4.7826-5.6328,7.7938-4.2512,1.6858.7724,2.7559,2.4679,2.7278,4.322,1.4187-1.8144,3.9056-2.403,5.9871-1.4171,1.2754.6022,5.2077,3.0821,1.665,10.6279l-3.5426,7.8647-2.4444-1.1336.7794-2.2673-6.0225-2.8695-1.0274-.4605c-2.0193-.9565-4.0386-1.8776-6.0933-2.7633l-1.2399,2.0193Zm8.5378-4.3929v-.4251c.5112-.8374.7001-1.8322.5314-2.7987-.2625-.7656-.864-1.3671-1.6296-1.6296-.6401-.388-1.4213-.4661-2.1256-.2126-.736.4511-1.2978,1.1377-1.5942,1.9485l-.3543.7794,5.1723,2.3382Zm2.6216.6731l-.248.5314c1.9839.9211,3.8261,1.7713,5.7037,2.5861l.2834-.6022c1.7005-3.7552-.3897-4.7471-1.0628-5.066-1.4879-.6731-3.0821-.8502-4.6763,2.5507Zm.0354-17.8903l5.2431,3.8261,2.4444,1.8776c1.5538,1.2813,3.4796,2.0267,5.4911,2.1256,2.4261-.1337,4.6285-1.4604,5.8808-3.5426,2.161-2.8695,3.5426-7.0853-2.5861-11.7616l-7.0853-5.2431,1.2399-2.1256-2.161-1.5942-4.9243,6.5893,2.1256,1.6296,1.913-2.0547,6.6956,5.0306c1.5042.8886,2.6271,2.3017,3.1529,3.9678.0915.9154-.2039,1.8274-.8148,2.5153-1.1691,1.5588-2.7633,2.5861-6.6247-.3188l-1.7713-1.3108-5.1368-3.8969,1.3816-2.3027-1.9485-1.2753-6.0579,8.0772,2.161,1.5942,1.3816-1.8068Zm21.6264-8.9428l6.0366-5.8356-2.5115-2.598-6.0366,5.8356,2.5115,2.598Zm4.0932-14.297l-1.7005-3.2947,1.9485-1.4525c1.3462,1.7359,2.6924,3.5426,4.0032,5.2785l.744.9919c1.3108,1.8067,2.6216,3.5426,3.8615,5.3494l-1.9839,1.8067,1.5942,2.161,8.5378-6.3059-1.5942-2.161-2.3381,1.3816c-1.3462-1.7359-2.657-3.5426-3.9678-5.2785l-.7439-.8148c-1.3462-1.8067-2.6216-3.5426-3.8969-5.3494l1.9839-1.4879,2.657,2.6216,2.6924-1.9839-4.1095-5.3848-14.1706,10.4508,3.7906,5.4557,2.6924-1.9839Zm13.3912-14.0643l-1.1691-2.4444,14.4186-6.9436,2.9758,5.7037-2.657,1.2399,3.1884,6.9436-2.5153,1.2045-1.3816-2.0902-2.161,1.0274,2.7278,5.3848,4.6054-2.161-.9565-3.5426,3.0112-1.4171,2.3736,5.8454-14.7728,7.0853-1.1691-2.4444,2.0547-1.2753c-.8857-1.9839-1.8422-3.9678-2.7633-5.9871l-.5314-1.1336c-.9565-1.9839-1.913-3.9678-2.905-5.9516l-2.3736.9565Zm13.0015-2.4444l-1.8422-2.657-4.074,1.913c.744,1.4879,1.5233,3.3301,2.3381,5.0306l2.1256-1.0274-.7085-2.409,2.161-.8502Zm29.1559,3.5426l.5668,2.2319-.4605.2834c-.8231.4599-1.7051.8056-2.6216,1.0274-1.665.3897-3.7198.5668-4.7826-1.8776l-1.7713-3.5426c-.744-1.5233-1.3816-1.913-3.1175-1.5233h-.496c.4605,2.0547.9565,3.7906,1.4171,5.5974l2.4444-.3188.6731,2.6216-9.7423,2.409-.6377-2.6216,2.2319-.8148c-.4605-2.161-.9919-4.2866-1.5233-6.4476l-.2834-1.2045c-.5314-2.161-1.0628-4.2866-1.6296-6.4476l-2.409.3188-.6377-2.5861,9.0692-2.2319c4.6409-1.1691,7.9355,0,8.7858,3.5426.4933,2.0734-.3544,4.2349-2.1256,5.4202,1.4628.5688,2.6196,1.7256,3.1884,3.1884l1.5233,2.9758h2.3381Zm-9.8131-10.2028c-.1154-.7598-.5381-1.4388-1.1691-1.8776-.8417-.3352-1.7799-.3352-2.6216,0l-1.1336.2834c.4251,1.8776.8857,3.7198,1.3816,5.7391l.9211-.248c.9749-.1396,1.8477-.6787,2.409-1.4879.4044-.738.4814-1.6116.2126-2.409Zm23.1689,9.6006l-1.1691-3.7198c-.3897-1.7359-.9565-2.1256-2.6924-2.1256h-.5314c.248,1.9839.248,3.8969.248,5.8099l2.4444.1771v2.6924l-10.0257.3188v-2.6924l2.3736-.3188v-8.0418c-.0709-2.1964-.2834-4.4283-.2834-6.6247l-2.409-.1771v-2.6924l9.3172-.2834c4.7471-.2126,7.8647,1.8067,7.8647,5.3494.0309,2.1199-1.2524,4.0379-3.2238,4.818,1.3114.8701,2.2079,2.2405,2.4799,3.7906l.8502,3.2238,2.3381.1771v2.5153l-.496.1771c-.9669.286-1.9677.4409-2.9758.4605-1.9158.3448-3.7509-.9208-4.1095-2.8341Zm-3.5426-14.7728h-.7794v5.8808h.9919c.9679.0533,1.9154-.2924,2.6216-.9565.5063-.6019.7601-1.3762.7085-2.161-.248-1.9839-1.2399-2.7987-3.5426-2.7633Zm18.8823,18.6343l-6.8727-1.1691.4605-2.657h2.409c.3897-2.1256.7794-4.2866,1.1691-6.5185l.2126-1.1336,1.0628-6.5539-2.3381-.6731.4605-2.6216,15.5876,2.6216-.8502,6.3768-2.905-.496-1.1691,7.3687-2.7633-.496v-2.4798l-2.3381-.3897c-.3543,2.0547-.6731,4.0032-.9919,5.9871l4.9951.8148,1.2045-3.3301,3.2947.5668-1.3462,6.2705-9.2817-1.5588v.0709Zm8.1835-13.3203v-3.0821l-4.4283-.7794-.9565,5.4557,2.3027.4251.8148-2.409,2.2673.3897Zm23.7003,19.0948l-7.6875-3.5426,1.665-.4605c5.3494-1.4879,8.3252-2.7633,9.5651-5.6328.6636-1.3498.7405-2.9136.2126-4.322-.655-1.6102-1.9325-2.8876-3.5426-3.5426-2.8669-1.7247-6.5891-.7987-8.3138,2.0682-.0533.0887-.1044.1787-.1531.27v.3897c.0528.9609.6419,1.8103,1.5233,2.1964,1.2045.5314,2.3736,0,3.5426-1.4525l.9211-1.2399h.496c.5832.2305,1.0449.6922,1.2754,1.2753.2226.8141.1472,1.6809-.2126,2.4444-.8502,1.8776-2.6216,3.1884-6.3768,4.7117-1.5942.6377-3.5426,1.3816-5.2785,2.0547h-.2834l-1.2754,2.9404,12.4701,5.5265,1.4525-3.6843Zm4.9951-3.4009c4.1449-6.3059,8.6795-6.5539,11.549-4.6763,1.7363,1.0003,2.874,2.7862,3.0467,4.7826.0258,2.7579-.8582,5.4474-2.5153,7.6521-1.3559,2.3957-3.4766,4.2669-6.0225,5.314-.6717.2352-1.3784.355-2.0902.3543-1.2602.0438-2.5014-.3161-3.5426-1.0274-2.8341-1.8776-4.57-6.0933-.4251-12.3992Zm10.2736-2.4444c-1.1691-.8148-3.1529,1.0982-5.9162,5.0306-2.7633,3.9323-2.7633,5.7745-2.7633,6.5893.0404.3306.2384.6211.5314.7794,1.5233,1.0274,4.0386-2.161,5.8808-4.9597,1.7359-2.7278,3.4363-6.6247,2.2673-7.4395Zm5.9162,17.0401l-5.6682.248h-.2834l-2.1964,2.3736,10.0611,9.2463,2.9404-3.1529-6.1642-5.7037h1.7005c5.5265.3188,8.7503,0,10.8759-2.2319,2.1309-2.1578,2.1092-5.6345-.0486-7.7654-.2358-.2329-.4923-.444-.7662-.6306-2.1081-2.598-5.9231-2.9952-8.5211-.8872-.0294.0238-.0586.048-.0875.0724h0c-.2701.9376.0029,1.9477.7085,2.6216.9919.8857,2.2319.8148,3.7552-.2834l1.2399-.8857.3897.3543c1.0598.898,1.191,2.4852.293,3.5451-.1924.227-.4235.4181-.6827.5644-2.0694,1.8283-4.7933,2.7363-7.5458,2.5153Zm11.3364,12.8598c-.8502.7085-1.7713,1.3816-2.6924,2.0547h0l-2.905-2.5153-1.9485,1.4879,7.6167,9.8131,1.9485-1.4879-1.665-3.3655,2.7278-2.1964,6.3768-4.9951,3.5426-2.6216v-1.2045l-5.8808-4.7117-2.161,1.665,2.2319,2.4444-7.1915,5.6328Zm10.6013,17.0076l3.1246-1.8149-4.2171-7.2602-3.1246,1.8149,4.2171,7.2602Zm12.0716,6.7636c-2.6624.7055-5.4948.3499-7.9001-.9919l-5.2077-2.161h-.2834l-2.9758,1.2045,5.2077,12.3993,4.0032-1.665-3.1529-7.6167,1.5233.8148c4.9243,2.6216,7.9355,3.7198,10.8405,2.5507,1.4013-.5256,2.5273-1.6005,3.1175-2.9758.5439-1.6468.4166-3.4416-.3543-4.9951-1.5233-3.5426-4.4637-5.4202-7.475-4.3929h-.2125c-.6474.7255-.826,1.7559-.4605,2.657.5314,1.2399,1.7005,1.7005,3.5426,1.3462l1.5233-.2834.2125.4605c.2461.5771.2461,1.2296,0,1.8067-.3551.8652-1.0647,1.5361-1.9484,1.8422Zm10.4862,14.5603c.4286,1.9012-.0563,3.8934-1.3108,5.3848-1.8821,2.0065-4.3717,3.3384-7.0853,3.7906-1.3006.3091-2.6311.4754-3.9678.496-1.391.0431-2.7731-.2358-4.0386-.8148-.2342-.1056-.4617-.2255-.6811-.3591-2.9411-1.7911-3.8733-5.6273-2.0822-8.5683,1.8438-2.4482,4.5826-4.066,7.6167-4.4992,7.3687-1.7005,10.8051,1.2399,11.549,4.57Zm-10.4862.0709c-3.1529.744-7.1207,2.0193-6.6956,3.7906.0708.3543.3188.8502,1.4879,1.0628,2.086.1997,4.191-.0048,6.1996-.6022,2.1039-.3531,4.1227-1.0982,5.9516-2.1964.8502-.6731.9565-1.2045.8502-1.5942s-.3543-.8857-1.4879-1.0982c-.4123-.0414-.8277-.0414-1.2399,0-1.707.0253-3.406.2391-5.066.6377Zm7.4041,12.2575h0c-.8431.4656-1.3403,1.3772-1.2754,2.3381,0,1.3462,1.0628,2.161,2.8695,2.409l1.5233.2126c.0173.1767.0173.3547,0,.5314.0582.6152-.1333,1.2279-.5314,1.7005-.5938.6104-1.416.9444-2.2673.9211-2.0547,0-4.0386-.8148-7.0853-3.5426-1.3108-1.1336-2.7987-2.409-4.2512-3.7552h-3.4009l.8502,13.6392,4.322-.2834-.5314-8.3606,1.1691,1.2399c3.7906,4.074,6.2351,6.0579,9.4234,5.9162s5.4202-2.6924,5.2077-6.6602c-.2125-3.9678-2.4799-6.3059-6.0225-6.3059Zm.9211,18.1738h-.1771c-.9205.3253-1.5696,1.154-1.665,2.1256,0,1.3108.7085,2.2673,2.4444,2.8341l1.4525.496v.496c-.1771,1.5588-1.3462,2.3381-3.1884,2.161s-3.8615-1.4879-6.483-4.6054l-3.5426-4.3574v-.248l-3.1884-.3188-1.4171,13.6037,4.322.4251.4606-8.2543.9919,1.4525c3.0467,4.6409,5.1723,7.0853,8.2898,7.3687h.7794c1.2825.0449,2.5388-.3697,3.5426-1.1691,1.2537-1.1978,1.9908-2.8373,2.0547-4.57.2834-4.0032-1.4879-6.9081-4.6763-7.4395Z"/></svg>