<?xml version="1.0" encoding="UTF-8"?><svg id="Calque_3" xmlns="http://www.w3.org/2000/svg" viewBox="0 0 850.3937 850.3937"><defs><style>.cls-1,.cls-2{fill:#af6b2b;}.cls-3{fill:#d8d5d8;}.cls-4,.cls-5{fill:#c57486;}.cls-6,.cls-7,.cls-8{fill:#3c2f24;}.cls-9{fill:#3c3735;}.cls-10,.cls-11,.cls-12,.cls-13,.cls-14,.cls-5,.cls-2,.cls-15{stroke-width:2px;}.cls-10,.cls-12,.cls-5{stroke:#ba6d7e;}.cls-10,.cls-15{fill:none;}.cls-7{opacity:.4;}.cls-7,.cls-8,.cls-16,.cls-17,.cls-18,.cls-15{fill-rule:evenodd;}.cls-8{opacity:.75;}.cls-19{stroke:#cdb342;}.cls-19,.cls-14{fill:#fbd950;}.cls-20{fill:#fff;stroke:#2b2523;}.cls-16{fill:#a65822;stroke:#924e1c;}.cls-16,.cls-15{stroke-miterlimit:2.6131;}.cls-17{fill:#9db0db;}.cls-11{fill:#4b792e;stroke:#33551e;}.cls-12{fill:#f08ba2;}.cls-13{fill:#98c21d;stroke:#71911a;}.cls-14{stroke:#ac9839;}.cls-2{stroke:#83501d;}.cls-18{fill:#ee7255;stroke:#f7aa53;}.cls-15{stroke:#4e586d;}</style></defs><circle class="cls-20" cx="425.2405" cy="172.9987" r="83.6014"/><path class="cls-7" d="m494.2677,220.9588c6.2637-11.9371,9.8052-25.5245,9.8052-39.9371,0-47.5428-38.5423-86.085-86.088-86.085-17.9629,0-34.6425,5.5031-48.4414,14.9147,14.7679-12.7916,34.0347-20.5294,55.1103-20.5294,46.5209,0,84.2233,37.7024,84.2233,84.2144,0,17.587-5.3915,33.9142-14.6093,47.4224Z"/><path class="cls-13" d="m531.3505,155.1419c-7.343-43.9675-41.3493-78.967-84.8955-87.5739-6.8616-1.3543-13.9336-2.1066-21.2163-2.1066-12.0979,0-23.8347,2.0464-34.6986,5.7481-6.3197,2.1968-12.3687,4.8752-18.1167,8.1253-.963.4816-1.9259,1.0835-2.8289,1.6252-10.593,6.4101-20.0426,14.6257-27.807,24.1956-11.4056,13.9939-19.3806,31.0271-22.5405,49.5951-1.0233,5.9588-1.565,12.0077-1.565,18.237,0,24.3462,8.1556,46.9169,21.8785,64.9733,19.6516,25.851,50.7086,42.5833,85.6781,42.5833,59.4058,0,107.5565-48.2109,107.5565-107.6167,0-6.1092-.4816-12.0678-1.4446-17.7857Zm-106.1118,100.7853c-26.9644,0-50.9194-12.8802-66.0868-32.8326-10.5932-13.9336-16.8528-31.3279-16.8528-50.1068,0-4.7849.4214-9.4795,1.2038-14.0539,2.4376-14.3248,8.5768-27.476,17.3945-38.2495,5.9887-7.4032,13.2413-13.7231,21.427-18.6885.6921-.3912,1.4445-.8427,2.1968-1.234,4.4238-2.4977,9.0885-4.5742,13.9637-6.2595,8.3661-2.859,17.4244-4.4239,26.7537-4.4239,5.6276,0,11.0746.5718,16.371,1.5951,33.5852,6.6507,59.8272,33.6452,65.4849,67.5614.7222,4.4238,1.1135,8.9981,1.1135,13.6928,0,45.8333-37.1361,82.9995-82.9694,82.9995Z"/><path class="cls-11" d="m545.1019,214.1245c4.1741.2159,16.1925-.3598,25.5482-14.4653,0,0-13.8176-4.39-21.3021-10.1473-7.4845-5.7573-30.0821-11.0109-40.3013-4.6778l3.6703,13.7456,32.385,15.5448Z"/><path class="cls-12" d="m519.5588,195.7996c.1439-5.3255-4.467-12.189-16.4135-17.2267-11.9465-5.0377-54.6947,2.0151-63.7625,35.5515-9.0678,33.5365,2.5908,67.0729,9.4996,79.4512,0,0,40.7331,11.5952,68.6562-.7514,27.9231-12.3465,42.7482-53.7993,33.1047-77.8362-9.6435-24.0369-46.4905-27.4913-72.6863,1.1515"/><path class="cls-4" d="m519.5536,195.7992c-.7524,0-1.5047.0301-2.2872.0602-2.7084-4.3336-8.0351-8.7874-16.6721-12.4289-8.1255-3.4308-28.5593-2.0163-46.1043,7.6438,16.4315-13.5725,40.2359-16.0702,48.6622-12.489,11.9475,5.0257,16.5518,11.887,16.4013,17.2138Z"/><path class="cls-4" d="m553.0183,240.0978c-.2107-6.1994-1.3241-12.0678-3.4007-17.2441-5.8081-14.4452-19.9826-22.5706-36.5643-22.5706-6.9819,0-14.4453,1.4746-21.8484,4.5141,9.3894-6.109,19.2903-8.968,28.3486-8.9981,14.1142-.0301,26.1518,6.8917,31.0873,19.2001,2.8889,7.2227,3.5812,16.0101,2.3774,25.0986Z"/><path class="cls-10" d="m519.5588,195.7996c.1439-5.3255-4.467-12.189-16.4135-17.2267-11.9465-5.0377-54.6947,2.0151-63.7625,35.5515-9.0678,33.5365,2.5908,67.0729,9.4996,79.4512,0,0,40.7331,11.5952,68.6562-.7514,27.9231-12.3465,42.7482-53.7993,33.1047-77.8362-9.6435-24.0369-46.4905-27.4913-72.6863,1.1515"/><path class="cls-19" d="m475.7914,278.5717l2.185,4.8929-18.4772,8.2507c-.6275-1.9422-.8068-3.9629-.549-6.0657.2615-2.1028,1.2587-5.1842,2.9843-9.2405,1.3894-3.2756,2.1775-5.427,2.3643-6.4541.239-1.4118.1195-2.6481-.3548-3.7126-.5229-1.1728-1.2438-1.9385-2.1551-2.2858-.9151-.3511-1.9273-.2764-3.0403.2204-1.1018.4893-1.8302,1.2139-2.1813,2.1663-.3548.9524-.239,2.2223.3474,3.8023l-5.4868,1.819c-.9823-3.0403-.93-5.5577.1569-7.5597,1.0869-1.9982,2.8685-3.552,5.3448-4.6576,2.7116-1.2101,5.173-1.4305,7.3767-.6611,2.2037.7732,3.791,2.2447,4.7622,4.4223.5528,1.2363.8553,2.5137.9113,3.8321.056,1.3185-.1233,2.805-.5416,4.4596-.2727,1.0981-.9001,2.7789-1.8825,5.0498-.9823,2.2672-1.5837,3.75-1.8078,4.4484-.2204.6984-.3623,1.3446-.4221,1.9459l10.4655-4.6725Z"/><path class="cls-19" d="m479.616,273.4883l4.228-3.7126c.9524,1.0757,1.9609,1.7032,3.0328,1.8825,1.0682.183,2.0617-.0411,2.9768-.6686.9823-.6723,1.5575-1.6098,1.7181-2.8162.1643-1.2064-.1905-2.4427-1.0533-3.7089-.8217-1.1989-1.7928-1.9273-2.9171-2.1887-1.1242-.2577-2.1476-.071-3.0739.5603-.6125.4183-1.2587,1.0346-1.9459,1.8526l-2.129-4.243c1.311-.8479,2.1028-1.7965,2.3755-2.8573.2727-1.057.0747-2.0767-.5976-3.059-.5752-.8366-1.2774-1.3334-2.1178-1.4903-.8366-.1569-1.6658.0448-2.4913.6088-.8142.5565-1.3185,1.3147-1.5089,2.2746-.1868.9599.0261,2.0244.6424,3.1934l-4.9004,2.2597c-.7246-1.7144-1.0832-3.2308-1.0832-4.5493s.3772-2.6145,1.128-3.8807c.7507-1.2699,1.8115-2.3717,3.1785-3.3055,2.3381-1.6023,4.7248-2.1402,7.16-1.6135,1.9982.4258,3.5259,1.4081,4.5754,2.9432,1.494,2.1813,1.4903,4.7397-.0075,7.6717,1.6359-.6723,3.242-.7657,4.8219-.2876,1.5799.4781,2.8834,1.4716,3.9106,2.9731,1.494,2.185,1.9684,4.5866,1.4268,7.2161-.5453,2.6257-2.002,4.751-4.3774,6.3757-2.2485,1.5388-4.5567,2.1663-6.921,1.8862-2.368-.2839-4.3849-1.3894-6.0507-3.3167Z"/><path class="cls-19" d="m500.2259,258.41l-3.9106-4.2467,8.3403-7.6829,3.9106,4.2467-8.3403,7.6829Z"/><path class="cls-19" d="m525.4821,234.9018l4.1608,3.3802-12.7551,15.7058c-1.4342-1.4455-2.5137-3.1673-3.2308-5.1618-.7171-1.9945-1.2214-5.1917-1.5127-9.5915-.239-3.5483-.5117-5.8229-.8105-6.8239-.4221-1.367-1.0869-2.4203-1.9908-3.1524-.9973-.8105-1.9833-1.1653-2.9581-1.0645-.9711.1008-1.8414.6237-2.6108,1.5687-.7619.9338-1.0832,1.9086-.9674,2.9171.1121,1.0122.7881,2.0916,2.0281,3.2383l-4.0712,4.1011c-2.2522-2.2672-3.3428-4.5381-3.2794-6.8164.0672-2.2746.9562-4.4634,2.6631-6.5699,1.875-2.3045,3.9703-3.6118,6.2823-3.9218,2.3157-.3063,4.3961.2876,6.2487,1.7928,1.0495.8553,1.9011,1.8563,2.5436,3.0067.6462,1.1504,1.1579,2.5585,1.5351,4.2206.2502,1.1056.4482,2.8909.5976,5.356.1494,2.4689.2839,4.0637.3996,4.7846.1195.7246.2876,1.367.5005,1.9273l7.2273-8.8968Z"/><path class="cls-19" d="m539.0515,222.5613l-5.3-2.9395-5.976,10.783-4.4185-2.4502-10.3908-20.6995,2.3493-4.243,16.7105,9.2629,1.8115-3.2681,4.4372,2.4614-1.8115,3.2681,5.3,2.9395-2.7116,4.8854Zm-9.7372-5.3971l-9.0014-4.99,5.6436,11.0445,3.3578-6.0545Z"/><path class="cls-11" d="m427.1194,219.7223c-11.3511.5899-33.8915-8.1239-39.5136-10.6916-5.6221-2.5677-29.0196-8.3194-40.4552.482,0,0,15.7999,18.1985,27.2959,22.7314,11.496,4.533,30.6039,6.2871,42.5157-1.6348,11.9118-7.9219,10.1573-10.887,10.1573-10.887Z"/><path class="cls-11" d="m408.2324,244.7646c6.7198-5.6531,16.7461-12.9062,36.0521-10.2397,0,0-4.7998,9.173-14.8262,11.6263-10.0263,2.4532-16.7461,1.4933-19.626,0l-1.5999-1.3866Z"/><path class="cls-11" d="m452.7519,197.4606c-2.2505,4.9511-20.0266-45.6666,30.6467-81.4717,0,0,2.0605,34.4396-2.611,48.0941-4.6714,13.6545-10.169,14.7165-15.006,18.6611-4.837,3.9446-12.2711,13.0476-13.0297,14.7165Z"/><path class="cls-11" d="m484.6829,163.6167c1.3809-6.8141,1.5704-22.1948,8.4085-30.059,6.8381-7.8642,9.7334-7.9758,9.7334-7.9758,0,0-.7383,17.7129-6.3529,25.4797-5.6146,7.7668-11.789,12.5551-11.789,12.5551Z"/><path class="cls-5" d="m390.7206,66.4412c-32.3716,6.0534-56.3867,30.6652-66.7399,46.4348l25.636,23.2546,40.7015-26.0112,2.1917-32.0905-1.7894-11.5877Z"/><path class="cls-11" d="m375.4628,26.9711c-.1806,2.1368-7.7041,14.1142-9.6902,17.7556-1.9863,3.6714-21.2165,21.0358-25.52,32.4113-4.1829,11.165,3.491,22.0892,13.2114,26.1217.2107.0904.4515.1806.6622.2709l14.1142,3.4908,4.5141-3.6113c-.0602-.5417.1806-1.8658.1806-1.8658,0,0-.0904-.4814-.2408-1.3241-.0301-.0301-.0301-.0601,0-.0902-.8727-5.0257-3.822-22.1193-3.7618-26.2723.0602-4.8752,8.306-13.6928,10.0513-22.9918,1.7756-9.3291-3.521-23.8948-3.521-23.8948Z"/><path class="cls-2" d="m368.2387,107.0199c-5.7717-4.4696-14.7792-7.0787-14.7792-7.0787,0,0,.6212-7.1439,3.2303-8.3863,0,0,9.0465-.0588,16.0777,11.8667l-4.5288,3.5982Z"/><path class="cls-14" d="m461.5621,123.3926c-1.5949,23.2328-16.943,59.4359-23.3529,70.6311,0,0-13.2114,7.343-47.3081,12.5793-34.0666,5.2364-58.6535-16.6723-69.4873-30.0941-10.8039-13.4522-13.5124-43.8773-6.5004-55.1927,6.9819-11.3154,23.1725-18.1768,33.4346-18.3272,1.7455-.0301,3.491.0601,5.116.2707.5417.0301,1.0534.0904,1.565.1806,7.4332,1.0534,13.2114,3.5812,13.2114,3.5812l4.5141-3.6113c-.0602-.5417-.0904-1.1436-.0904-1.8357,0-.4214,0-.8727.0301-1.3543-.0301-.0301-.0301-.0601,0-.0902.3009-10.834,5.4169-31.9901,17.5449-36.4741,13.5424-4.9656,30.1241-5.5073,42.9743,6.2896,12.8503,11.827,29.9437,30.2146,28.3486,53.4472Z"/><path class="cls-18" d="m441.6617,133.6764c-6.691-1.5646-8.45-8.9693-3.2764-13.4257.5471-.4713.2187-1.3635-.5034-1.3655-6.7452-.0187-10.3007-6.7905-5.6367-12.6402.4974-.6239-.0895-1.4709-.8517-1.2349-7.236,2.2401-11.6233-1.556-8.7389-8.0605.3223-.7268-.458-1.4233-1.1278-.9949-7.1275,4.5585-15.0735,1.9254-15.9665-3.4325-.116-.6963-.968-.8966-1.3992-.3378-3.3225,4.3061-8.3146,4.1054-10.0808.1528-.2678-.5994-1.075-.6903-1.3936-.1163-2.7763,5.0013-12.4398,7.7252-15.5649,5.2574-.4495-.3549-1.122-.0111-1.2168.5538-.7153,4.2626,1.9067,9.6459,2.0701,11.7445.0488.6262-1.7185,2.3719-2.5389,2.1708-2.9378-.7199-11.4272-3.3335-14.447-3.8617-.491-.0859-.8983.2238-.9311.7212-.1635,2.4794-4.6637,7.0215-10.9495,6.5104-.7006-.057-1.182.7322-.7178,1.2601,3.1196,3.5479,2.0109,9.0914-2.8497,10.2062-.6903.1583-.8872.9736-.3366,1.419,3.3022,2.6719.6277,7.9171-4.4825,10.2489-.6868.3134-.5963,1.301.1388,1.4726,6.7395,1.5731,7.4331,7.8176,1.1407,11.7906-.6668.421-.4032,1.4199.3849,1.4494,7.7871.291,11.4627,6.9689,7.1929,12.9655-.4371.6139.1468,1.4144.8675,1.1942,6.9377-2.1199,11.5823,3.5316,11.0325,9.2332-.0633.656.6348,1.1465,1.1775.7725,5.1288-3.534,16.1683-1.1543,16.8755,5.1531.0783.6987.9051.9676,1.3656.4364,6.853-7.9054,21.0645-2.7962,26.5469,2.2415.4862.4468,1.2969.1945,1.3398-.4645.4539-6.957,12.3178-16.0266,18.5623-15.6917.6007.0322.9654-.5483.7377-1.1051-1.9145-4.6813,3.5275-14.1347,9.7245-15.3955.6332-.1288.9431-.8956.4586-1.3231-4.2737-3.771-3.1287-12.6481,3.581-16.0584.6452-.3279.5178-1.2812-.1869-1.446Z"/><path id="path902" class="cls-17" d="m357.773,119.2035c-9.4314,18.9191-1.7404,41.8957,17.1742,51.3245,18.9151,9.4291,41.8965,1.7427,51.3277-17.1768,9.4309-18.9188,1.7359-41.8983-17.179-51.3272-18.9149-9.4289-41.8921-1.7393-51.3229,17.1795Z"/><path id="path902-2" class="cls-17" d="m357.773,119.2035c-9.4314,18.9191-1.7404,41.8957,17.1742,51.3245,18.9151,9.4291,41.8965,1.7427,51.3277-17.1768,9.4309-18.9188,1.7359-41.8983-17.179-51.3272-18.9149-9.4289-41.8921-1.7393-51.3229,17.1795Z"/><path id="path904" class="cls-16" d="m358.4143,119.6376c-4.6779,9.3842-5.0492,19.7845-1.8726,28.9663l2.1079-1.5864,2.5276.2743.4378-3.7606,1.5081.1333.8718-.6681.1837-1.221-1.5075-1.7199-.1059-1.9489.7435-6.1754,1.544-1.8965-.0794-2.1223.0552-1.8043-.9761-.9008-1.0105.4297-.1917-1.7408-1.6159-.7822.2214-.6364,1.4661-1.0193.3343-2.8321,3.0474-3.1948-.9001-1.3764-.7118-1.7548-1.2945.0142c-1.8362,2.1994-3.4487,4.6469-4.7829,7.3232h0Zm6.4415-9.1746c.438-.4588.8822-.911,1.3407-1.3444.7914-.7485,1.6191-1.454,2.4664-2.1255l2.0111-1.4884.6032.4233,2.7785-.4934,1.1093-.7366,3.2334-1.7545.7266.8-.0322,1.0979,1.8346.3547,1.5584-1.2885,4.8273-2.2256,3.2512-.8296,2.7837.5769,2.808-.397,1.6317.7024,2.423-.1047,1.5863-.948,1.6501.245,1.5389.9361,1.7021,1.8462,3.1264,2.9761,2.2816.239,2.8355,1.746.5941.862-.05.8092-3.9671-.8456.76.9973,2.2873.5041-.487,1.1691-.9508.4301.8993,3.5167,1.8436,1.9227.4906,1.6098,2.5108,1.4849,1.0966,1.4507-.5218,1.0468-3.8673-.6852-1.6806.2006-.9866.8618-1.3854.7739-2.4733,1.13.6449,3.186-1.018,2.0421-2.6174,2.0439.4505,1.018,5.6826-1.467.1893-1.3409.5731-1.1496,1.7897.5769.6462,2.8717-1.5281,3.2697-.5402,1.5042.1422.9636-1.0791,1.7081-1.3485-.7539-.6183-1.5218-5.56-.7006.3841,1.4631,3.4525,1.0849,2.8225,1.0511,2.5979-1.0676.4768-2.2535-.0184-1.1525.898-.4684,1.0708.8783,1.6374,3.4531.3708,2.1506,1.8935,5.4012,1.8839,3.7396.1975,5.0926-.3392.9569c-1.128,1.5444-2.3608,2.9854-3.6824,4.3132l-3.2444,1.4281-.8413-.1861-2.6221.2038-1.2884-1.5466-2.2177-.6796-4.0823.5029-5.4633.2227-1.391,1.1444-3.5917,2.305-1.5964-.3406-1.678.6161-2.7286-.9637-.5943-.6695-.9795.0192-1.0474-.9013-2.5292-3.2735-.2064-1.9523.6912-1.0381.3802-1.5316-.4941-1.8798.6233-1.5621.2484-1.1711,3.4337-2.9966,1.6953-1.8035.9046-.1092.5518.7186,1.031.7179,1.2092-.5406,3.4476-2.4238,1.7289,2.2971.8673-2.2805-.4413-3.9069-.18-2.5693-.5903-1.7702-2.4879,2.1085-1.0212.1268-.7074-1.7876,1.3397-2.0394-5.4913,1.72.9907,5.4587,1.7883,1.0724-.0528,2.0037-1.233.5637-2.6277-1.9224-2.0031.3431-.5323,1.3682-.1551,1.2236-.7001,1.5005.0584,1.5283-1.1362,1.203-.9045-.0953-2.663-2.885-.7707-.0633-.2572-1.4058-.1944-2.168.888-.5084.1877-2.2984,2.3755-.7062,4.8257-4.2278-2.9355-2.3384-.4534-2.2971-1.0319-1.0046-2.1716-.616.0221.8921,1.8446,1.8119-.4449.8925.8236-.1029.6468,1.5127-.164,1.0499-.5647.0394-1.4154-.3673-.8763,1.1091-1.2023-.4824-.1899-.7598-.8467-1.4841.2817-2.0183-.5832-3.1902.6261-2.1325.8565-1.5741,1.1225-.4381.9405-.5056-1.1517-1.0526.5275-.974-1.566-1.3988.6732-.3412-1.3382-1.3032.1992-2.3333,1.3213-.3684-1.9269-4.1693-1.4623-1.715-1.16.8979-2.2474-.5721-.6369-.2355-2.1047.8233-1.3694.7293-2.4167,1.6654-.7962-1.8378-.9925-2.3426h0Zm1.283,18.0603l2.3911-4.4963.8392.0334,1.2216-.733,1.2799,6.5359-.9007,1.0619-3.3031,4.5842-1.7014,2.7282-.7531.0095-.9998-2.7384,1.0809-1.9641.086-1.6256.6261-.6913.1332-2.7044h0Zm8.5617,41.0863c.1764.0914.3491.1857.5276.2747,2.5478,1.2701,5.1721,2.218,7.8258,2.8684l-.6407-3.2305-2.279-.6169-2.3786.6637-3.0552.0405h0Zm21.0502-40.8226c-.1068.2301-.1842.5289-.2306.8711.5528,1.5475,1.8151.5413,3.0757.8681l.8439.2048c.5201.2107,1.0528,1.0062,1.5549.4599.2757-.424.4287-.8858.432-1.3945-.6509-.5048-1.4068-.6805-2.1442-.9112-.9258.1296-2.6828.5228-2.4369-.4683-.4832-.3276-.8594-.1365-1.0949.3702h0Zm27.7049,16.0157l-.6002,3.1138.8622,1.7774.9397.4451,1.3054-.6969.2045-1.6599-1.0453-3.1756-1.1335-.501-.5328.6971Z"/><path class="cls-8" d="m428.4465,140.2182c.7887-3.458,1.183-7.0373,1.2132-10.738-.364-2.2143-.9707-4.368-1.729-6.461l-.182.0304c.6674,5.4599.3943,10.7682-.6065,15.7733-3.3671-3.64-7.8867-6.6733-12.9827-9.191,1.911-7.5833,1.0314-14.1959-1.4559-19.6254,3.6702,1.0314,7.3709,2.6693,11.0413,5.1263l.0909-.1213c-.6672-1.0314-1.3954-2.0021-2.1839-2.9728-3.3064-1.8503-6.6128-3.0939-9.8886-3.8825-1.6077-2.912-3.64-5.4599-5.9757-7.5833-1.2132-.4854-2.457-.8798-3.7006-1.2134l-.0911.1213c3.458,2.4572,5.9757,5.2478,7.7956,8.2203-8.0989-1.5167-15.8945-.2427-22.4768,1.9717-.6978-1.0618-1.4561-2.0325-2.4266-2.821-.9707-.7583-2.093-1.3347-3.276-1.6986,3.1242-2.7908,7.0978-5.3994,12.0725-6.7644l-.0909-.364c-1.2438-.0304-2.4873-.0304-3.7311.0304-4.0949,1.6986-7.4013,4.1556-10.1008,6.643-2.9424-.4247-6.2184.182-9.4337,1.729.1215-.546.2427-1.1223.3943-1.7594l-.182-.0304c-.5763.3338-1.0919.728-1.6379,1.183-.1215.546-.2427,1.0616-.3336,1.5774-2.5481,1.4863-4.9443,3.5793-7.0373,6.1879-.6371.8191-1.2134,1.6683-1.7594,2.5177-.0911-.0304-.1516-.0304-.2124-.0607-.3033.4551-.5763.91-.8492,1.3954.0909,0,.1516.0605.2122.0605-2.1232,3.8827-3.1242,8.0991-2.821,11.8603-.7583,1.0312-1.4863,2.1537-2.1839,3.3366-.0911.6674-.1213,1.3043-.1516,1.9717l.6065.3336c.6978-1.2132,1.365-2.3659,2.093-3.4277.6067,2.5177,1.8201,4.6107,3.64,6.097-.6976,2.9424-1.2132,6.0059-1.2436,8.9483-.0304,5.2476,1.5772,9.9795,3.1546,13.3768q0,.0304.0304.0607c1.183,1.5167,2.5177,2.9422,3.9433,4.2769l.182-.1516c-.0304,0-.2425-.3033-.5763-.8492,2.6997.7583,5.3994,1.1223,8.0991,1.1223,2.275,0,4.55-.2731,6.7642-.7583,3.0333,3.8825,6.9462,7.3406,12.0725,10.2526-.2427.0304-.4549.1213-.6976.1516l.0909.4549c1.9414,0,3.9131-.1516,5.8241-.4549,7.0373-2.2446,13.1948-6.0666,18.1391-10.9502.7887.3943,1.547.7583,2.275,1.0616.3033-.2731.6067-.546.91-.91l.1215-.3034c-.6978-.3033-1.4258-.6672-2.1841-1.0312,5.187-5.4903,8.9483-12.2243,10.9502-19.7469.4551.6067.9101,1.183,1.2741,1.8199l.2729-.1516c.1516-.5763.2427-1.183.3336-1.7592-.4245-.6674-.8796-1.3045-1.3952-1.911Zm-17.6235-30.6971c3.0637,6.1575,3.3062,12.9521,1.8199,19.3827-7.6136-3.5489-16.1676-6.0059-23.7509-7.6136.4247-1.9108.5763-3.8218.3943-5.7025-.1516-1.6381-.5763-3.1548-1.2132-4.5198,6.7035-2.2143,14.5599-3.3669,22.7498-1.5468Zm1.3952,20.9601c-.8796,3.1849-2.1232,6.2486-3.6702,9.0696-2.093,3.822-4.7927,7.462-7.9473,10.6773-6.4913-5.5814-12.9523-11.9513-18.1999-17.3506.4852-.5156.9403-1.0312,1.3952-1.5772,2.2144-2.5784,3.7916-5.4601,4.6714-8.4327,7.4922,1.6077,16.1372,4.0647,23.7507,7.6136Zm-54.5389-.6371c1.6077-2.1535,3.458-4.0342,6.0059-5.9452l-.91-1.2438c-2.1234,1.5774-3.7613,3.1244-5.1868,4.7927.1213-3.0637,1.1223-6.3699,2.8815-9.4943,1.1223.4247,2.3357.9707,3.276,1.4258l.6674-1.4258c-1.0921-.4852-2.1537-.9707-3.1244-1.3347.4551-.6976.9403-1.3954,1.4559-2.0626,1.6685-2.093,3.5491-3.7916,5.4903-5.1263-.2425,2.093-.2729,3.7916-.182,5.6116l1.547-.0605c-.0909-2.1537-.0607-4.0344.364-6.643,2.639-1.4561,5.369-2.2446,7.8867-2.2446.1516,0,.3033.0302.4549.0302-3.1242,3.2153-5.1868,6.3701-6.2183,7.9776l1.3043.8191c1.0919-1.6683,3.3368-5.1263,6.8249-8.554,1.365.3034,2.639.8494,3.7007,1.6986.7583.6067,1.3648,1.3347,1.8806,2.1537-4.2771,1.5774-8.0687,3.4882-11.0109,5.2779l.7887,1.3043c2.9422-1.7594,6.7339-3.6704,11.0411-5.2476.5763,1.2436,1.001,2.6693,1.1223,4.186.1822,1.729.0304,3.4882-.364,5.2476-6.1575-1.2436-11.5569-1.911-14.9238-2.1234l-.1213,1.547c2.8513.182,8.2505.8494,14.6206,2.1234-.8494,2.7299-2.3053,5.3992-4.3376,7.7653-.4247.5156-.8798.9403-1.3045,1.4256-4.3982-4.6105-7.8258-8.3718-9.3425-10.0704l-1.1527,1.0312c1.547,1.729,4.9747,5.5206,9.4336,10.1615-2.5481,2.4268-5.4903,4.1254-8.4023,5.0354-.4852-2.7301-.9403-5.4599-1.3648-8.2203-.2731-1.6986-.5462-3.3973-.8494-5.0656l-1.5167.2731c.2731,1.6683.546,3.3366.8191,5.0656.4549,2.6997.8796,5.4903,1.4256,8.2809-3.1546.6674-6.1273.3034-8.4932-1.2436.8796-3.3973,2.1234-7.0069,3.6704-10.556l-1.4258-.6369c-.6976,1.6076-2.3053,5.5508-3.5489,10.1919-1.547-1.547-2.5481-3.6096-2.8817-6.1273Zm6.734,31.4554c-1.6988-3.1546-4.0344-8.6145-4.004-14.6811.0302-2.3357.4245-5.0656,1.0919-8.008,1.7895,1.0616,3.822,1.5774,6.0059,1.5774,1.0314,0,2.093-.1516,3.1548-.364,1.5772,7.8562,3.9736,15.7125,8.8269,22.5071-4.9139.9403-10.0099.6976-15.0755-1.0314Zm7.7349-21.8397c3.1849-.9403,6.3699-2.8211,9.1605-5.4903,5.2478,5.3992,11.7087,11.7389,18.1999,17.3504-5.2476,5.0656-11.6174,8.9483-18.4424,10.6166-4.9139-6.643-7.3104-14.4386-8.9179-22.4768Zm22.5982,33.9124c-5.3994-2.7908-9.4943-6.2183-12.649-10.0706,6.8857-1.8503,13.3163-5.8543,18.5942-10.9806,4.7927,4.0645,9.555,7.6136,13.8015,10.0403-5.3083,5.1567-12.0422,8.9785-19.7467,11.0109Zm20.8388-12.1636c-4.2467-2.3357-8.9787-5.8846-13.8017-9.9795,3.2153-3.3064,5.9757-7.0373,8.1294-10.9504,1.7288-3.1546,2.9422-6.1879,3.7916-9.0999,5.2172,2.5784,9.8279,5.733,13.0736,9.4943-1.8808,7.8867-5.7937,14.8937-11.1929,20.5356Z"/><path class="cls-7" d="m423.3067,157.7463c2.8222-5.3784,4.4178-11.5004,4.4178-17.9942,0-21.421-17.3657-38.7867-38.788-38.7867-8.0934,0-15.6086,2.4795-21.8259,6.72,6.6539-5.7634,15.3347-9.2498,24.8306-9.2498,20.9606,0,37.9478,16.9873,37.9478,37.9439,0,7.9241-2.4292,15.2805-6.5824,21.3667Z"/><path id="path902-3" class="cls-15" d="m357.773,119.2035c-9.4314,18.9191-1.7404,41.8957,17.1742,51.3245,18.9151,9.4291,41.8965,1.7427,51.3277-17.1768,9.4309-18.9188,1.7359-41.8983-17.179-51.3272-18.9149-9.4289-41.8921-1.7393-51.3229,17.1795Z"/><path class="cls-6" d="m497.0587,125.9427c.9192-.3019,8.8893-5.7422,15.5663-10.5954.3206-.2288.5883-.4009.9089-.6297,3.9516-2.91,7.3695-5.4211,8.3774-6.3818l.2643-.2814c.0819-.8766-2.7516-4.1206-3.5704-4.0949l-.1093.0034c-.701.2954-4.18,2.5897-8.357,5.2887-.3206.2285-.6429.4026-.9636.6311-5.9419,3.9015-12.7896,8.5416-14.6553,10.0207-1.2825.9142-1.2022,1.7313.4593,4.1925,1.1447,1.6577,1.5388,2.0278,2.0794,1.8468Zm-1.1893-3.0769c-.515-.7488-.9723-1.39-.9757-1.499-.0017-.0546.9055-.7387,2.0296-1.4842.1601-.1144.3206-.2288.5883-.4009.9619-.6858,2.7271-1.8886,4.8148-3.2652,1.5502-1.0867,3.2625-2.2331,5.0278-3.4356.856-.5734,1.7124-1.1465,2.5684-1.7199.8017-.5714,1.6031-1.1427,2.3536-1.6034,1.4976-1.0303,2.7818-1.8903,3.6924-2.465.6429-.4026,1.0711-.6892,1.2859-.8053l1.4447-.974.9706,1.3354c.1707.2131.3412.4261.4009.5883.1161.2148.2285.3206.2336.4845.1161.2148.1212.3783.07.4893l-.1058.1127c-.5866.4552-3.7399,2.685-7.4272,5.3139-.3206.2285-.6412.4573-.9619.6858-1.1223.8002-2.2993,1.6017-3.4742,2.4582-.1622.0598-.2694.1178-.3753.2302-1.2825.9146-2.565,1.8288-3.7419,2.6307-.8014.5713-1.5502,1.0867-2.246,1.5457-.5866.4552-1.1749.8562-1.6577,1.1447-.9089.6294-1.6048,1.0884-1.8725,1.2605-.8034.5171-1.5027.8668-1.6663.8719-.0017-.0546-.4607-.7505-.976-1.4993Z"/><path class="cls-6" d="m526.1179,174.246c.5816-.052,1.2157-.0995,1.7974-.1518,5.8693-.517,12.0791-1.3181,12.7506-1.782.615-.4162.7234-1.6131.2641-3.4905-.2984-1.3384-.4549-1.9295-1.4952-2.0238l.0047-.0521c-.2651.0285-.5252.0049-.8373-.0234-.8938.0237-2.2181.1662-4.2329.403-2.6533.3368-5.6187.645-8.2578.8256-.2648.0282-.5816.052-.8464.0805-1.9063.1945-3.5948.3037-4.7013.3609-3.3676.1142-5.5062-2.3351-5.1808-5.9251.3065-3.3816,1.8481-4.7633,6.3835-5.6112,1.0121-.1705,2.242-.4263,3.6275-.6679.1042.0094.2651-.0285.4257-.0661,4.1527-.6728,9.0997-1.4312,10.4145-1.4693.5249-.0049.9506-.0714,1.3811-.1896l.1038.0094c.4258-.0664.8088-.2414.9883-.4874.785-.5583.8794-1.5989.5716-3.4104-.2416-1.3858-.6108-1.9437-2.181-1.981-.3122-.0283-.629-.0048-.8891-.0284l-.0521-.0047c-.8989.0761-2.0669.2324-3.5521.4125-1.6976.2134-4.1429.5687-6.5361.9291-.4775.0614-.96.1752-1.4378.2366-1.116.1614-2.1281.3319-3.0361.5118-5.3254.8813-6.0774,1.0753-7.4819,2.1023-2.0144,1.391-2.7756,2.2662-3.6359,4.2341-1.6354,3.5759-1.1611,8.7598,1.1294,13.0062,1.5236,2.8659,3.2881,4.2321,5.9274,4.6288,1.088.1511,4.6162-.0014,8.5844-.3762Zm-10.0558-1.3307c-.5013-.2555-.8987-.5012-1.3338-.9078-.1942-.1748-.388-.3499-.5254-.572-1.2299-1.4753-2.6026-4.275-3.0336-6.4646-.7482-3.8973-.0586-7.4542,1.8703-9.64.4114-.4871.8607-.8137,1.2579-1.1449.2268-.1891.4493-.3265.7235-.4589,1.2673-.6721,3.0362-1.0887,6.4509-1.7235.6385-.0997,1.2769-.199,2.0192-.2893.4304-.1182.8562-.1846,1.282-.2511l.0518.0047c2.871-.4214,6.0065-.8718,8.4518-1.2271.2648-.0285.5343-.1091.7473-.1423.8938-.0237,1.5843-.1186,2.1187-.2277.2083.0189.421-.014.5772.0001.1086-.0427.2127-.0332.3169-.0238.0568-.0474.1606-.0379.1606-.0379.1562.0142.2554.0756.3027.1324.1989.1227.3265.449.3741,1.0828.0802.2698.104.5867.1231.9556l.1235.9553-4.621.6301c-1.0592.114-2.1234.2798-3.1876.4456-.6905.0949-1.3858.2416-2.0763.3366-1.0642.1658-2.0242.341-2.9843.5162-.5864.1044-1.116.1611-1.6506.2702-2.8281.5307-4.9185,1.0229-5.6847,1.3732-1.9152.8756-3.0263,2.1388-3.5508,3.8746l-.0047.0521c-.5246,1.7361-.5713,3.4105-.1263,4.8669.0806.2698.2082.5961.3409.8704.265.5484.6386,1.0545,1.0693,1.513.4307.4588.9178.8701,1.5138,1.2389.4495.2504.7428.487,1.0503.5674.7046.3261,1.3857.3353,3.5473.2165.8938-.024,2.5303-.1379,4.3844-.3371,1.5323-.1234,3.2823-.332,4.8714-.5027,3.3912-.3746,6.73-.754,7.3593-.7495l1.1586-.0522.1754,1.537c.1137,1.0595.0666,1.5796-.1556,1.717-.0047.0521-.1089.0426-.3216.0759-.3169.0238-.7473.142-1.3811.1896-.0521-.0047-.1038-.0094-.2127.0332-.3736.0708-.7947.0852-1.2722.1469-1.9063.1945-4.4506.4883-7.2598.8107-1.0595.114-2.0669.2324-2.9654.3085-1.2157.0995-2.2752.2132-3.1737.2893-.7426.0899-1.3764.1375-1.9012.1424-2.6912.1758-3.9872.0059-4.9995-.4006Z"/><path class="cls-6" d="m517.2202,147.6823c2.0665-.9641,3.9238-3.1084,4.2728-4.8459.205-.9471.3742-1.1519.791-.9723.1037.0582.207.116.3637.1768.5732.2403,1.4196.3338,2.2151.3719l.0531.0025c1.0104-.0045,1.9197-.1206,2.6245-.4058,1.19-.4216,2.2335-1.1157,3.0165-1.9291,1.5616-1.5201,2.406-3.6065,2.5305-6.2056.0333-1.8059-.1384-2.665-1.557-6.3482-.8455-2.3266-2.0825-5.3632-2.6554-6.7198-.9593-2.1727-1.3479-2.9354-3.4447-2.4511-.1087.048-.2171.096-.3764.0884-1.0787.3202-2.491.9438-4.6052,1.7994-1.1951.5278-2.6579,1.0957-4.1786,1.7673-.1618.0451-.3259.1437-.4877.1892-6.8384,2.9155-15.8018,6.8991-16.244,7.2501-.2197.1488-.3917.4063-.3942.4594-.0051.1062,1.4741,3.633,3.2891,7.92,2.388,5.6436,3.6049,7.988,4.3171,8.6604,2.3411,2.1854,7.2059,2.7374,10.4698,1.1924Zm-9.2117-1.9297c-.7675-.6215-1.6941-2.3673-4.1327-8.0665-2.2468-5.2649-2.9988-7.3213-2.721-7.5738.0556-.0506.3259-.144.6543-.3409.1644-.0986.4346-.1917.6543-.3409.7605-.3358,1.9025-.8658,3.2035-1.3883.3815-.1943.8161-.3863,1.3035-.5755,1.4148-.6766,3.0416-1.3431,4.6685-2.0093.7049-.2855,1.3039-.5758,2.0084-.8611.8692-.3835,1.8469-.8153,2.7132-1.146.1087-.048.2175-.0957.3259-.1437.3262-.144.599-.2903.9223-.3812,4.6659-1.9562,8.5689-3.5238,8.8344-3.5111.4241.0203,2.2948,4.2567,4.2132,9.7185,1.0827,2.9231,1.1661,3.4054.9153,5.3073-.2809,2.5388-1.2719,4.352-2.9241,5.5488-.2753.1997-.5481.346-.8187.4394-.6518.2878-1.2959.4162-2.622.3527l-.3714-.0178c-1.7048.078-1.9652-.0409-2.7251-.8217l-.0506-.0553c-.4041-.4448-.9723-.791-1.1367-.6924-.1615.0452-.4218,1.0429-.5788,2.0987-.4783,3.3266-2.487,5.304-6.0237,5.879-2.1394.2694-4.8775-.2868-6.3121-1.419Z"/><path class="cls-6" d="m528.8198,133.2235c.047-.9819-.4015-2.3025-1.6144-4.9191-.8897-1.9715-1.8674-3.7503-2.1741-3.9227-.6095-.4227-3.7704.6462-6.279,2.0613-.8491.4711-1.5077,1.0693-1.519,1.3049s.7551,2.3194,1.6709,4.5677c1.9437,4.6202,2.5775,5.3591,4.7806,5.3858,2.6332.0867,5.0559-2.0017,5.1351-4.4779Zm-8.6288-1.476c-.7739-1.9267-1.4037-3.5708-1.398-3.6887.0132-.275,4.8372-2.3663,5.4262-2.3381s3.3927,6.4214,3.3382,7.5605c-.0809,1.6888-2.0394,3.1303-4.121,3.0306-1.3745-.0658-1.5577-.3502-3.2453-4.5643Z"/><path class="cls-6" d="m515.2877,142.681c1.4072-1.1219,2.3028-2.676,2.3713-4.1055.0582-1.2148-3.437-9.707-4.1192-10.0059-.4991-.2221-6.6726,2.3931-7.555,3.2003-.3017.2687-.5507.6192-.558.7718-.0124.2599,2.8625,7.7484,3.3834,8.8154.5004,1.0207,1.9004,1.8239,3.5776,2.0402,1.5645.2052,1.8223.1439,2.8999-.7162Zm-4.1655-1.117c-.9206-.5255-1.2807-1.1657-2.5914-4.5414-.8367-2.1581-1.5177-4.0199-1.512-4.1386.0119-.2486,4.4377-2.4378,5.4471-2.7009.6019-.1524.8587.279,2.3545,3.9297,1.6011,3.9333,1.6528,4.1566,1.2394,5.3374-.4914,1.3922-2.1223,2.8092-3.1732,2.7589-.3842-.0184-1.18-.3114-1.7643-.6452Z"/><path class="cls-6" d="m493.1495,117.013c.2586-1.018.7256-2.9982,1.0677-4.3906.3455-1.3397.7913-3.6884.967-5.2298.3465-2.2372.4803-2.6674.9102-2.5335,3.4525,1.2798,5.4643,1.3757,7.0969.3842.1023-.0584.2043-.1171.3036-.2285.3097-.1235.666-.355.92-.5278,2.5284-1.9404,4.1635-4.727,4.4301-7.4349l-.003-.0527c.1321-1.38-.1075-2.7919-.7558-3.9688-.4725-.8706-4.6385-5.3828-7.9455-8.7305-1.6817-1.6983-3.0819-3.0963-3.7466-3.6388-1.8827-1.5285-2.7745-1.4245-4.6741.427-.0496.0557-.0993.1111-.149.1668-.2509.2258-.7502.7295-1.3977,1.4002-.7005.6738-1.5993,1.5703-2.5944,2.6306-.0496.0557-.149.1668-.1986.2225-.3499.3369-.6972.7264-1.0474,1.0633-1.0974,1.119-2.2938,2.3491-3.4406,3.5238-.1459.2194-.3472.3896-.5455.612-3.6919,3.7493-7.126,7.3784-7.9259,8.1635-.8461.8932-1.4789,1.8273-1.4577,2.1954.0453.7895,2.9105,3.7926,3.5946,3.7533.2104-.0121,2.265-1.925,4.5092-4.2187,2.2411-2.3461,4.1381-4.2499,4.2958-4.2589.316-.0182,3.1597,2.6166,3.9043,3.6298.2872.406.5402,1.1303.5674,1.6041.0907,1.5786-.5681,5.7347-1.6479,9.9146l-1.0919,3.9696,2.3927,2.1328c2.7266,2.4307,3.0393,2.3599,3.6622-.5796Zm-4.5501-2.0092l.952-3.6448c1.9135-7.1315,2.132-10.6817.7724-12.2931-1.4153-1.6608-4.4727-4.3364-4.9464-4.3092-.5788.0332-1.1273.5929-5.6126,5.2323l-3.1866,3.351-.9985-.8401c-.5563-.4962-1.0106-1.0508-1.0197-1.2088-.003-.0524.0436-.1607.1922-.3278.1459-.2194.2916-.4389.5398-.7174.1486-.1668.2976-.3339.4432-.5533.3006-.2812.5982-.615.8928-1.0016.2016-.1701.3999-.3926.5459-.612,2.582-2.8409,6.6117-7.1378,10.105-10.6646.5982-.615,1.1437-1.227,1.6956-1.734.2479-.2782.4493-.4479.6448-.7234.9018-.8435,1.6487-1.6257,2.2996-2.2437,1.1004-1.0663,1.8533-1.7431,2.0083-1.8049l.1053-.0061c.105-.006.2134.0406.3741.0842.0557.0493.1641.096.3248.1396.1144.152.3339.2976.6063.4405,1.215.9334,3.1748,2.8796,6.2097,6.0843,5.4488,5.7059,5.7393,6.1642,5.8632,8.3219.0423.7368-.0207,1.4793-.1918,2.1755-.0781.4798-.2613.9653-.4478,1.3985.003.0527-.0496.0557-.0496.0557-.2328.5412-.5213,1.0331-.8129,1.4723-.0497.0554-.0993.1111-.0993.1111-.2915.4392-.6388.8288-1.0414,1.1686-.0993.1114-.251.2255-.3503.3369-.6012.5624-1.2115.967-1.7755,1.2633-1.694.8365-3.4457.6732-6.2051-.4882-1.1878-.4596-1.8313-.634-2.0796-.3559-.1486.1671-.3422,1.3924-.4743,2.7727-.0821,1.3246-.4259,3.6146-.7651,5.0596-.3365,1.4974-.7943,3.6357-1.0466,4.759l-.3589,2.0269-3.1131-2.7253Z"/><path class="cls-6" d="m502.3849,99.1212c1.0672-1.1559,1.3875-2.3861.993-3.8098-.2507-.9629-8.0724-9.1919-8.8606-9.3029-.2382-.0646-1.7275,1.2328-3.3155,2.8485-1.5491,1.6136-2.8321,3.0944-2.8231,3.2504.0112.1948.3473.6054.7595.9725.4509.3652,2.0689,1.9922,3.6457,3.5825,1.579,1.6293,3.3093,3.1717,3.875,3.4911,2.2167,1.1625,3.9976.8648,5.726-1.0325Zm-4.9706-.1056c-.481-.2069-2.2525-1.786-3.9118-3.4499-1.6613-1.7026-3.0801-3.2631-3.1303-3.4556-.0912-.2293.8224-1.3373,1.9676-2.4975l2.109-2.0756,3.4395,3.3987c1.9042,1.8452,3.6592,3.8163,3.9242,4.3482,1.3212,2.5825-1.5882,5.0167-4.3983,3.7317Z"/><path class="cls-6" d="m365.5275,234.2862c.0752-.1365.0092-.2318-.0518-.4434-.3107-.9416-5.0324-6.5659-8.6597-10.5202-.1318-.1913-.243-.3118-.3089-.4075-1.7151-1.8338-3.121-3.2608-3.5754-3.5112-.4092-.2255-.9137-.3849-1.1254-.3237-1.1186.0945-3.994,2.3017-8.9932,7.0717-.5779.5111-1.2058,1.113-1.8338,1.7151-1.4471,1.3355-3.0447,2.9435-4.7625,4.6633-4.2553,4.1728-5.3545,5.5221-5.326,6.5454.0614.2114,1.4487,2.1019,3.2248,4.1473,1.6854,1.9954,4.2516,5.1873,5.7093,7.0576,2.8047,3.6195,2.9161,3.7402,3.5458,3.6725.6504.003,2.8571-1.7435,3.3034-2.4458.6511-1.1814-.1548-2.5145-4.4314-7.6563l-4.2059-5.1625,1.8795-1.6896c1.0149-.9813,1.9044-1.7355,1.975-1.7559.1661-.0861,4.3404,4.7032,6.4162,7.3879,1.7714,2.1614,2.1052,2.523,2.7807,2.4805.6752-.0427,3.0229-1.8297,3.831-2.8656.0954-.0661.1455-.1571.1955-.2478.3758-.6818-.303-1.7076-4.4228-6.704-2.0597-2.4979-3.8311-4.6594-3.8516-4.7299-.0659-.0956.7373-1.0156,1.7523-1.9969.0706-.0204.1206-.1111.1911-.1315,1.8589-1.7606,2.1206-1.9125,2.7115-1.5869.3634.2003,2.6554,2.7079,5.0537,5.4518,2.4642,2.8395,4.5538,5.1763,4.781,5.3015.4546.2506,1.1687-.1855,3.0233-1.8299.5779-.5111.8692-.8244.9944-1.0516.0752-.1365.1048-.2978.18-.4342Zm-1.4276-.3127c.1066.2363-2.2458,2.1397-2.5185,1.9894-.1365-.0752-1.649-1.7385-3.3341-3.7337-1.6854-1.9954-3.7954-4.4028-4.7107-5.3221-.9358-.9899-1.6082-1.5973-2.2333-1.6457-.207-.0548-.3934-.0389-.6049.0221-.2114.0614-.448.1679-.664.3451-.2618.1522-.5235.3042-.7896.5724-.1456.1566-.3368.2882-.5278.4201-.1707.2021-.412.4246-.6532.6472-1.1102,1.0471-2.1548,2.1899-2.3802,2.5988-.4009.7273-.2154,1.8961.4207,2.2466.182.1003,2.0035,2.1707,4.043,4.5985.2431.3116.4656.5528.6632.8393.1111.1206.177.2162.2882.3368.577.6735,1.0176,1.2719,1.3718,1.704.243.3118.4406.5983.5925.86.1976.2865.3499.5483.4359.7144.0614.2114.102.3524.052.4431-.3006.5454-1.7729,1.9266-2.2207,2.0942-.1411.0408-1.6128-1.4813-3.2072-3.4265-3.6949-4.5843-5.46-6.3274-6.3423-6.3396-.0701.0203-.1862.0156-.3775.1475-.2113.0611-.4025.193-.6187.37-.2614.1521-.4776.3292-.7189.5517-1.4878,1.1948-3.3311,3.1416-3.2837,3.7007q.038.7913,3.8535,5.2645c.7993.9147,1.483,1.8245,2.1256,2.5936.6427.769,1.1946,1.4881,1.6349,2.0862.4656.5528.7951,1.0306,1.013,1.3879.218.3571.3247.5934.2996.6389-.0501.091-.5779.5111-1.1307.9768-.5782.511-1.192.7651-1.374.6648-.0455-.0251-.2883-.3365-.6882-.7941-.2682-.2661-.5313-.6483-.8858-1.0806-.5062-.6938-1.1037-1.4379-1.7213-2.2524-1.6555-2.1565-4.1151-5.1121-5.4506-6.5591-1.9125-2.1206-2.328-2.7644-2.1025-3.1736.4258-.7725,5.1177-5.4154,9.6096-9.6947,3.5723-3.3641,6.949-6.4802,8.0706-7.2251l1.7448-1.2307,1.011.8534c.3132.2913,1.0063.9695,1.8966,1.9343.6928.678,1.5172,1.5472,2.3623,2.4871.5768.6734,1.199,1.3718,1.8216,2.0705.6018.6279,1.1334,1.2764,1.6192,1.8996.2225.2413.3998.4576.577.6735.7993.9147,1.533,1.7338,2.0394,2.4278.6223.6985.9765,1.1306,1.0173,1.2717l-.0251.0455Z"/><path class="cls-6" d="m382.257,247.1772c-.753-1.8381-1.0422-2.1742-3.4824-3.8771-3.9737-2.9182-9.9003-6.3494-10.7943-6.3118-.0522-.0039-.2083-.0156-.2644.0326l-.0039.0522c-.5888.1654-1.2923,1.1608-3.2348,4.0024-1.007,1.5491-2.0142,3.0982-2.9651,4.599l-1.2469,1.9504c-4.7629,7.6088-8.3896,14.0447-8.1838,14.7939.2214.5405,3.5723,2.6786,4.4584,2.745.521.0391,1.1606-.8041,3.3779-4.5159,1.4943-2.4558,2.8011-4.5064,2.9573-4.4947.1565.0117.8549.4831,1.5973,1.063,1.196.8231,1.3812,1.1514,1.5075,2.2615.1511,1.4789-.4882,4.4178-1.6518,8.0515-1.0081,2.9641-.8754,3.2885,1.87,5.1188,3.6923,2.4778,4.0922,2.0363,4.7056-6.1456l.4415-5.8888,1.0942.082c2.1329.2124,4.0558-.2723,5.9812-1.4906.2722-.137.6008-.3218.8809-.5628.1679-.1448.2801-.2413.444-.3336,1.617-1.2938,2.6591-3.3118,3.0837-5.4812.2971-1.8643.1851-3.8641-.5721-5.6504Zm-1.7715,8.2524c-.723,1.256-1.8995,2.2681-3.2049,2.904-.6566.3701-1.4097.6281-2.155.7817-.2162.0887-.3727.077-.5849.1135-.9575.1902-1.8955.1199-2.8779-.0587l-1.652-.3334-.1131,3.6076c.0038,2.0442-.2306,5.1709-.5235,6.983-.2411,1.8163-.5627,3.3119-.667,3.3041-.1004-.06-1.0033-.5991-1.9466-1.2987-1.5895-1.1674-1.7861-1.3395-1.5231-2.0532.1395-.4613.6372-2.2057,1.1231-3.7938,1.6283-5.6428,1.3271-7.9188-1.3736-9.641-2.3958-1.5947-3.1972-1.3928-4.5911,1.123-.3152.7101-1.3903,2.4636-2.345,4.0166l-1.7339,2.8572-1.2925-.9353c-.6984-.4717-1.2325-1.0357-1.3251-1.2-.0443-.1082.2034-.6136.6268-1.3681.0675-.2045.1835-.3528.3035-.5536.6748-1.312,1.7012-3.1216,2.8998-5.1278.3596-.6022.7191-1.2041,1.0826-1.8582.899-1.5047,1.8577-3.1099,2.8611-4.6068,3.1043-5.0604,6.1254-9.7076,6.562-9.9369.2722-.1366,6.6925,3.6984,9.9277,5.9849,3.1347,2.2265,3.8189,3.5879,3.4854,7.336-.1446,1.9285-.3675,2.8026-.9627,3.7537Z"/><path class="cls-6" d="m377.4496,249.9076c-.3743-1.7354-1.0226-2.4049-4.5378-4.686-2.481-1.583-3.8915-1.9216-4.7295-1.0918-.7552.7581-3.8988,6.4592-3.7291,6.7824.274.4861,4.2262,3.1493,6.0947,4.1043,2.0556,1.0465,2.2485,1.0609,3.6036.5804,1.3911-.4388,2.4396-1.4856,3.0927-2.9499.4667-1.0513.4986-1.4757.2054-2.7394Zm-2.7392,3.8348c-1.0849,1.0415-2.5336.7393-5.6054-1.1559-1.4825-.8856-2.731-1.7922-2.7936-1.9907-.1521-.5533,2.285-5.1722,2.8916-5.5139.3611-.1665,1.2977.2521,3.1833,1.439,3.3597,2.1879,3.5734,2.4363,3.7304,3.9582.0915,1.362-.2416,2.189-1.4062,3.2633Z"/><path class="cls-6" d="m395.9099,252.1944c-5.2245-1.6449-6.1564-1.8651-7.0095-1.5038-.0949.0402-.1968.1952-.4009.5052.0201.0474-.0073.115-.0547.1351-.1293.2223-.2862.5125-.4228.8498-.6559,1.6193-1.6142,4.3728-2.636,7.7684-.1712.5198-.3697,1.1067-.5208,1.674-1.1241,3.5505-2.1968,7.75-3.2421,11.8822l-1.3204,5.1986,1.1801.6743c1.1798.6744,4.0355,1.4776,4.4623,1.2969.1421-.0602.4572-1.0322.7195-2.2611.9215-3.6325,2.3114-7.7429,2.6706-7.9509.1895-.0802,1.1214.14,2.1133.5027,1.5792.5613,1.7343.6631,1.8586,1.6167.0784.5816.3218,2.2118.5318,3.632.2777,1.4478.4041,3.4626.4062,4.5238-.019,2.859.2288,3.313,2.9553,4.3387,1.3021.5667,2.5512.8761,2.8356.7557.2369-.1003.5229-.6128.5795-1.1397.116-1.838-.5167-7.1602-1.1683-9.6233l-.6517-2.4631,1.508-.1356c2.2316-.2742,3.2341-.8106,5.1155-2.8369.2241-.2628.421-.4577.5502-.6803l.0474-.0201c.1023-.1549.2242-.2625.3264-.4176l.0472-.02c.6598-.9502.8183-1.6321,1.1715-3.5705l.5461-2.8028-1.0838-2.5596c-1.7261-4.0765-2.5216-4.6342-11.1139-7.3686Zm9.8726,14.6024c-.1841.3574-.4156.7348-.6945,1.1324-.0271.0674-.0745.0875-.1019.155s-.1022.1552-.1293.2223c-.0949.0402-.1223.1077-.1971.1954-.3461.3704-.7127.6931-1.0989.9686l-.0949.0402c-.8751.7059-1.9252,1.2622-3.001,1.4942-.3516.0929-.771.1589-1.143.2046-.257.0529-.487.0384-.7166.024-1.933-.0761-2.0421.1939-.9784,2.7061.4015.9481.9126,3.0794,1.1759,4.7567.2429,1.63.4642,3.6046.4134,4.4088l.0477,1.4333-1.8417-.7855-1.8018-.6905-.0829-2.704c-.048-1.4332-.3057-4.2866-.6219-6.221l-.539-3.517-2.3012-.8144c-3.246-1.1971-3.6253-1.0365-4.7401,2.0072-.4792,1.3766-1.1712,3.5704-1.5557,4.9073-.3168,1.3638-.6192,2.498-.6264,2.613-.1421.0602-.9116-.1732-1.7213-.5011l-1.6868-.6832,1.0106-3.9497c.8869-3.45,2.1509-8.1219,3.3586-12.2669,1.6794-5.4066,3.1931-10.0166,3.4775-10.137.3318-.1405,10.4636,3.0601,12.5954,4.0022,1.7743.7578,2.6755,1.8296,3.7594,4.3892.8702,1.9237.8128,4.2957-.1639,6.61Z"/><path class="cls-6" d="m400.9737,259.8729c-1.2518-1.0013-8.8669-3.7368-9.5688-3.4396-.2106.0892-.8093,1.9981-1.3797,4.2677-.7688,2.9745-.9343,4.245-.6506,4.6216.224.2361,1.153.6706,2.0427.9147.8897.2439,2.6289.832,3.8979,1.2879,1.3192.4761,2.7342.7877,3.3201.705,1.6578-.2879,2.1194-.5663,3.2003-1.7275.7139-.7578.9918-1.3721.9957-2.2428-.0085-1.4864-.9151-3.6274-1.8577-4.387Zm.3026,5.211c-.2428.5995-.7096.9629-1.8327,1.4384-1.3337.5647-1.6943.5931-2.7231.1184-.6993-.2834-2.3033-.8458-3.628-1.237-1.3244-.3911-2.4585-.8215-2.5328-.997s.2479-1.7604.7157-3.4899l.8996-3.1542,2.2088.7204c4.083,1.3338,5.7209,2.1717,6.357,3.1854.7753,1.2445.9606,2.3663.5356,3.4155Z"/><path class="cls-6" d="m416.1916,257.3894c-4.4457-.2565-4.7953-.1875-5.1639.5942-.101.206-.2473.8107-.3312,1.6869-.2465,1.7589-.3644,4.5735-.5273,7.7865q.0066.0785-.0293.1211c-.3823,8.5643-.3893,19.7042.2062,20.2069.2552.2154,2.8837.4673,5.8908.5294,2.9716.1045,7.3388.3672,9.6109.61,3.3049.3134,4.3672.2632,4.7624-.2049.6822-.8082,1.171-4.8391.7032-5.234-.2552-.2154-3.5603-.5286-7.4077-.717-3.89-.2244-7.1887-.4592-7.4304-.5179-.4056-.1236-.6398-4.7649-.238-5.1545.2154-.2552,8.5019.1113,11.2938.4282,1.275.1293,1.9384.0339,2.2976-.3916.3949-.4678.7264-2.1545.8065-3.544.0839-.8762.0178-1.6607-.1522-1.8043-.4681-.3951-4.2145-.7896-9.644-1.0021-2.3799-.115-4.3672-.2632-4.4949-.371-.1275-.1076-.1193-1.4119-.0456-2.8796.0319-.5555.0214-1.1472.1385-1.6314.0416-.912.1387-1.6311.2463-1.7586.1438-.1703,3.5205.0579,7.4597.3968,4.4949.3705,7.388.4817,7.6394.1839.1076-.1275.2154-.2552.2738-.4971.6065-1.2362.8679-4.2209.4294-4.7369-.5237-.5879-8.1931-1.5989-16.2937-2.0992Zm15.0728,3.5455c.0691.3495-.0056.8694-.1255,1.7882l-.1492,1.0394-2.1869-.1708-.0423-.0357-4.858-.4587c-7.6432-.6971-8.2347-.6864-8.6097.0164-.1012.2062-.2409.8895-.3251,1.7655l.0426.0359c-.0546.7551-.1321,1.7097-.1734,2.6218-.0243,1.5819.0231,3.079.1481,3.6215q.049.1142.0915.1502c.0492.1145.2552.2154.54.31.6899.2182,2.2068.4059,4.6647.5143.8337.0479,1.6248.0604,2.3799.115.157-.0133.2779.0158.4347.0028l.1211.0293c2.4222.1507,4.253.3121,5.1715.4317.2779.0163.4773.0388.5624.1106.1211.0293.1994.0229.2417.0587.1277.1078-.0628,2.0594-.2677,2.9063-.0293.1206-.0227.1991-.0946.2843-.0293.1211-.065.1634-.065.1634,0,0-.3204-.0518-.7551-.0546-.4773-.0388-1.033-.0709-1.6737-.1747-3.6255-.3649-7.9012-.4779-10.0616-.3346-.706.0594-1.134.1351-1.2059.2203-.1795.2126-.2861,1.288-.3437,2.4781-.099,2.1018.0481,4.7754.3459,5.0267.2126.1795,3.596.4862,7.5645.704,3.9685.2178,7.3454.4457,7.4306.5176,0,0,.0066.0785.013.1568-.0158.2779-.0839.8762-.1877,1.5169l-.2305,1.4812-1.9518-.1907c-2.9061-.268-12.2322-.7834-13.7718-.7719-1.7747.0313-2.3825.3199-2.5709-1.442-.0556-.1928-.0398-.4706-.0663-.7842-.0263-.3139-.053-.6277-.0502-1.0624-.0143-1.1049.0526-2.6509.0373-4.7037.0475-4.1122.1867-8.0741.3138-11.2446l-.0426-.0359c.0293-.1211.0586-.2422.0522-.3205l.0357-.0423c-.0133-.157.0094-.3566-.0041-.5134-.0263-.3139-.0102-.5915.0482-.8334.0028-.4347.0122-.7913.0576-1.1901.0827-1.8239.163-3.2131.2894-4.0534.1068-1.0756.217-1.638.2889-1.7231s.3857-.1114.8564-.1512c1.8175.0044,6.4626.2833,12.4025.9272.8762.0839,1.5952.1813,2.2718.2425,2.4717.2654,3.2758.4342,3.4073,1.0552Z"/><path class="cls-6" d="m360.8703,218.7131q.0067-.0819-.0309-.1261l.0443-.0376c-.0176-.2893-.0351-.5792-.0018-.9879.0007-1.5228-.1327-3.9208-.2778-5.1679-.7994-5.3336-3.6685-13.5529-6.4729-18.0211-.3245-.5616-.6494-1.1232-.8987-1.5963-.4305-.7762-1.0115-1.7291-1.6498-2.4808l-2.6286-3.0958c-1.4645-1.7248-3.3618-3.6908-4.2523-4.3807-2.132-1.6148-3.038-1.6063-5.0549.4104l-.9422.9524-.5374.5324c-.2722.3069-.4557.5389-.6392.7708-.3054.7159-.1884,1.3018.187,1.7439l1.0515,1.2384c3.2975,3.9734,5.8752,7.1887,6.1623,7.7057,1.1106,2.0253.5666,2.6396-4.3525,4.9136-2.9447,1.2823-6.0354,2.8413-9.0951,4.526-.7762.4305-1.5523.8614-2.284,1.2541-6.8074,3.7249-13.1509,7.8173-16.6003,10.7461-1.592,1.3518-1.7822,1.6656-1.6855,2.4967.1519,1.1647,2.1743,4.6228,3.1025,5.357,1.286.887,3.0766.1275,10.019-4.2448,3.6925-2.3739,7.0886-4.6488,10.2326-6.8617.7896-.5943,1.6165-1.144,2.3616-1.7004,1.9769-1.5266,3.8651-2.9775,5.7158-4.4727,5.9945-4.8617,6.0321-4.8175,8.0973-2.3851,2.5536,3.0075,5.3641,8.9168,7.8266,16.568.0243.2075.5834.4179,1.2001.4271l.528.084c.1259-.0307.252-.0616.3405-.1368.5749-.4882.5205-2.3446.5348-4.0309Zm-42.483,4.1058c-.3472.2186-.6059.362-.9021.4612-.3027.1813-.5616.325-.7317.3932-.1328.1128-.3029.181-.429.2119-.548.161-.8821.2162-1.1647.1519-.2387-.1016-.5458-.3736-1.034-.9486-.1501-.1768-.2186-.3472-.4063-.5683-.4063-.5683-.8435-1.2627-1.0115-1.7291l-.4924-1.028.0443-.0376,2.4501-1.7756c.6566-.4818,1.4016-1.0382,2.2286-1.588,1.0483-.7377,2.1846-1.5506,3.3963-2.2747,1.8683-1.2059,3.8251-2.4869,5.7752-3.6861.044-.0374.1325-.1125.2144-.1059.9088-.5431,1.8173-1.0864,2.7261-1.6295.347-.2189.7317-.3932,1.0347-.5742,1.4261-.8304,2.7635-1.5855,3.9245-2.1904.3846-.1746.7317-.3932,1.0723-.53.0883-.0749.2211-.1877.3472-.2186.4286-.212.8576-.4239,1.2424-.5982.4288-.2122.7251-.3114.9328-.3354.1259-.0312.252-.0621.3272.0265.1194.0509.232.1835.3754.4421.0994.2965.4614.9024.7862,1.4637.1125.1325.2186.3472.3687.524l.393.732.3999.6499-2.9365,2.1886c-.1771.1503-.3539.3005-.6123.4442-.2587.1434-.4357.2938-.6501.3996-.8336.6316-1.7048,1.219-2.6643,1.8817-2.6269,1.9257-5.6758,3.9821-8.371,5.7377-2.6069,1.6807-4.9483,3.1358-6.6331,4.1097Zm40.3919-3.7001c-2.2815-7.3483-7.051-15.4757-9.5396-16.2549-.3202-.1085-.6474-.1355-1.0189-.1244-.4088-.0334-.7426.0215-1.0762.0767-.8821.2162-1.7533.8035-2.6069,1.6807-.6392.7708-1.6563,1.6344-2.2555,1.9151-.5173.2869-1.0589.3663-1.2092.1892-.0749-.0883-.1059-.2144-.2184-.3469-.1437-.2589-.3247-.5619-.4993-.9464-.386-.8136-.8102-1.6714-.7899-1.9167l-.0376-.0443.0883-.0749c.1838-.2322,1.4261-.8304,2.8765-1.4529,2.9821-1.2383,3.9552-2.0645,4.2521-3.6865.1995-.9303.1335-1.6356-.71-2.8983-.1437-.2584-.3623-.6056-.625-.915-.5876-.8715-1.4445-1.9704-2.6835-3.4296l-3.8235-4.5929,1.0947-1.3099c.9995-1.1534,1.6628-1.7165,2.3614-1.7007.2077-.024.4088.0334.6101.091.2387.1016.433.2413.665.4248,1.8184,1.4244,7.6871,8.6947,9.4227,11.6354,4.0388,6.9976,7.087,18.5654,6.3062,24.0994l-.1219.484-.0334.4088-.4281-1.3106Z"/><path class="cls-6" d="m437.4965,106.0384l3.6268-.8041,1.9768-.7112,1.0216-.473c7.3984-3.4702,11.1975-6.8643,11.0939-9.7355-.0339-1.0498.1625-1.4765.7244-2.0287.4953-.3169.9369-.6235.9906-.6337.0204.1071-.3748,1.2389-.9541,2.5728-1.4313,3.2754-1.3412,4.0366.5547,5.2309,2.6625,1.7153,4.1674,2.3172,4.9845,1.9389.355-.1791,1.07-1.0937,2.0244-2.4993.2066-.373.4571-.8101.7605-1.2572.3038-.4472.5974-.9478.8806-1.5024.4133-.7461.8372-1.4385,1.2402-2.2382.3804-.6285.74-1.3646,1.1102-2.0468.2066-.373.3596-.7358.5666-1.1089.7732-1.4819,1.5362-3.0175,2.2558-4.4892.2296-.5444.4592-1.0884.699-1.579.1095-.2988.2296-.5444.3391-.8432.1967-.4268.3931-.8535.5896-1.2799.3723-.9608.8315-2.0492,1.2705-3.245.1861-.4804.3723-.9605.5585-1.4409.0332-.1176.0664-.2349.1533-.3628.153-.3628.242-.769.3953-1.1318.0661-.2349.1427-.4165.2194-.5977.2091-.6517.385-1.1855.5609-1.7196.1304-.1915.1533-.3628.2296-.544.1098-.2992.1656-.5878.2857-.833,1.5379-4.4634,2.6732-6.9598,3.687-7.7649.7765-.5928.8937-.5599,3.4951.8335,4.2005,2.1996,9.0963,5.7119,11.5808,8.2396,1.2421,1.2639,2.6883,2.4328,3.1048,2.5758.2988.1095.5775.1119.7383.0812l.0537-.0103c.1607-.0307.2579-.1049.378-.3501-.0103-.0537.0434-.0639.0434-.0639.153-.3628.0427-1.2311-.2491-2.1763-.2381-.9552-1.3145-2.8065-1.3145-2.8065-.2964-.3879-.6133-.8835-.9407-1.4324-.7284-1.1951-1.2245-2.0457-1.5622-2.6483l-2.5739-3.2887c-.4677-.4108-1.1043-1.1233-2.027-2.1699-2.8318-3.1841-7.6718-6.985-10.679-8.4675-.7895-.3497-1.4822-.7732-1.4925-.8269l-2.4654-.9746c-4.2055-1.6428-10.2574-2.766-11.8357-2.2979-.7842.2611-1.1109.8793-2.161,4.6937,0,0,.0693.6539.1283,1.2541.0283.4394.3247.8277.4525.9142.478.4648,1.4487.8909,2.3481.9413,3.6378.4171,9.8922,2.8918,10.1176,4.0716.2869,1.502-.8791,3.8373-5.3052,10.3532-.2501.437-.5539.8842-.8142,1.2675-.6941,1.0223-1.3886,2.0443-2.0827,3.0663-.0869.1279-.1635.3095-.3038.4472-.2935.5009-.5973.9481-.8474,1.3851-.4338.6387-.8142,1.2675-1.2049,1.8423-.3469.5111-.6941,1.0223-.9877,1.5229-.8576,1.3314-1.4878,2.3968-1.858,3.079-.74,1.3646-1.4801,2.7289-1.9035,3.4216-.1201.2452-.1967.4268-.2402.4904-.3034.4472-.6355.4549-2.4749.1392-1.7959-.3797-2.0951-.4892-2.2385-1.2402-.0615-.3218-.1763-.6334-.4628-.9679-1.0764-1.8514-4.314-3.957-7.4435-4.916-2.9482-.882-6.2027-1.0387-10.4604-.3367-2.1559.3562-4.6664.8914-7.5221,1.6591-1.9001.5299-2.8987.8319-3.3506,1.0849-.4087.1894-.4854.3706-.4443.5854-.035,1.5631,6.0972,4.5614,13.7897,6.7057,0,0,.0537-.0103.0639.0434,2.5854.7291,4.3252,1.3974,4.0776,1.556s-1.1618.6111-2.1297,1.0739c-2.1297,1.0739-4.9895,3.5662-6.7992,6.0242l-1.4295,1.8299-1.1282,1.661c-.0332.1176-.1198.2451-.2066.373l-.0537.0103c-.5768,1.0552-1.9905,3.5491-1.4362,3.8325.662.2628,5.5071-.2739,5.5071-.2739.4727-.1456,1.3205-.3632,2.7048-.6833Zm26.9813-11.5474c-.1656.5878-.7732,1.4819-1.6637,2.9309-.1304.1915-.2172.3194-.3038.4472-.2172.3194-.3907.5748-.5104.8203-1.182,1.6709-1.6087,1.4746-4.0592-.003-.437-.2501-.8203-.5104-1.1396-.7273-.1915-.1304-.3194-.2172-.3935-.314-.0639-.0434-.1279-.0869-.1381-.1406-.0512-.2681,1.3267-3.5333,2.5387-6.211l.4465-.8637,1.0527.8552c.266.2271.7132.5309,1.2138.8245.0537-.0103.0639.0434.0639.0434.4907.2398,1.0449.5232,1.5253.7093.2455.1197.4804.1861.6617.2628l.0102.0534c.7793.296,1.0453.5231.6956,1.3126Zm9.5695-27.9017c.7937-1.3745,1.3296-2.6445,1.5743-3.6919.1759-.5338.2444-1.0474.2596-1.5507.0127-.2247.0255-.4494.0586-.567.0378-.6743-.1208-.9219-.8235-1.3995-1.809-1.3222-5.6517-2.8118-8.7837-3.4924-1.0908-.1808-2.0951-.4892-2.6928-.7085-.2452-.1201-.4267-.1964-.5546-.2833l-.0636-.0435c-.2201-.5694.1974-3.0397.6442-3.9034.3162-.6719.3699-.6821,2.8094-.4254,3.0068.315,6.3077,1.2969,9.5831,2.7282,1.3338.5789,2.6342,1.2755,3.8812,1.9827.6284.3801,1.2572.7605,1.8959,1.1943.6288.3804,1.2675.8142,1.9164,1.3017,4.416,3.326,8.6255,8.1927,11.6322,13.4557.4324.8071.844,1.5069,1.1711,2.0559.1152.3116.2738.5592.3684.7633.1046.2583.189.4087.189.4087l-.0537.0103-.0103-.0537s-.0534.0102-.1173-.0332c-.1074.0205-.1815-.0763-.2557-.1734-.1173-.0332-.2554-.1735-.3935-.314-.1275-.0866-.2759-.2809-.4779-.4645-3.2585-3.3805-8.0063-6.6989-13.9138-9.6843l-2.0263-1.0028-1.2943,1.0813c-1.3278,1.1987-2.4811,3.3093-3.6136,6.6945-.0767.1813-.143.4165-.2194.5977-.143.4165-.3497.7895-.4695,1.0347-.1635.3095-.2935.5009-.3472.5112s-.1074.0205-.1713-.0229c-.1071.0204-.171-.023-.2886-.0558-.2989-.1099-.7793-.296-1.2163-.5461l-.6822-.3702-.5543-.2833-.0103-.0537.0534-.0102.8143-1.2672.8576-1.3314c.5309-.7129.9446-1.459,1.3246-2.0877Zm-9.8316,14.8873c.7605-1.2572,1.5644-2.5784,2.3352-3.7819l.0435-.0636.8576-1.3314.6072-.8944.674-1.1294,1.2046-1.8422.1815.0763,1.6963.7323.1918.1303,1.5995.8064-.1989.7051-.0537.0103-.4285,1.2491c-.0434.0639-.0332.1176-.0229.1713-.0664.2349-.1861.4804-.296.7793-.1861.4804-.3723.9605-.5482,1.4946l-.0537.0103c.0205.1074-.0664.2349-.0996.3526s-.1198.2451-.153.3628c-.449,1.1421-.995,2.3583-1.5846,3.6382-.153.3628-.3059.7255-.4694,1.035-.4158,1.0244-.8852,2.0591-1.3215,2.9765-.1201.2452-.1964.4267-.2731.608-.3165.6719-.5998,1.2265-.883,1.7811-.0763.1812-.1965.4264-.3264.6182,0,0,.0103.0537-.0434.0639-.5232,1.0449-.9467,1.7373-1.1512,1.832-.1939.1483-.7715.0361-1.4868-.2162-.5977-.2194-1.2696-.5359-1.8882-.8626-.1914-.13-.373-.2066-.5645-.337-.1918-.13-.3833-.2603-.5751-.3903l-.0103-.0537c-.1276-.0869-.2554-.1735-.437-.2501l-.0103-.0537c-.0639-.0434-.1914-.13-.2017-.1837-.3193-.2169-.4677-.4112-.478-.4648-.0102-.0534.0562-.2886.2628-.6617.5461-1.2163,2.1332-3.9656,3.9047-6.9168Zm-14.2898,9.0118c-.3218.0615-.6973.1332-1.1368.1615-2.6053.3307-3.3972.2597-6.5931-.464-.0639-.0434-.1713-.0229-.2349-.0664-.2889-.0558-.5238-.1222-.8227-.232-.6309-.1017-1.2826-.3108-1.9877-.5097-1.7091-.5076-3.5894-1.0378-4.9025-1.5097-2.1361-.7039-4.6756-1.7753-5.6771-2.3624l-1.7581-1.054-.0639-.0434,1.4713-.4477.9449-.2918.1074-.0205.5797-.1664c1.7723-.6164,3.3611-1.0312,4.8628-1.3181,1.8772-.3586,3.6781-.5356,5.5736-.5085.1071-.0204.2783.0021.3857-.0184,4.4651.0924,8.3099,1.3037,10.5411,3.3793.3398.3243.6161.6051.8485.9499l.9432,1.154-.7818-.0176c-.3423-.0456-2.3859-.267-4.8791-.5135,0,0-.0102-.0534-.0639-.0431-.567-.0586-1.2413-.0964-1.8723-.1985-3.3057-.4249-6.1949-.7067-6.4094-.6657-.5366.1025-.5871,1.0015-.0862,1.295.0636.0435.2886.0562.6411.1554.3423.0459.8022.1247,1.3692.1833.5772.112,1.1982.1603,1.9365.2416.6846.0915,1.4865.2165,2.2785.2875,1.0806.1271,2.0436.2211,2.8356.2924.8559.1144,1.5405.2059,2.1075.2645.7383.0812,1.2621.2034,1.6044.2493.4063.0893.5875.1657.7051.1989.1915.1304.0615.3218-.1554.6411-.0869.1279-.12.2455-.2172.3197-.3137.3935-.7966.4857-2.0941.6779Zm3.808-.7274c.498-.5956.7022-.6903,1.7828-.5631.631.1021,1.336.3009,1.4102.3981.3603.4313-2.6324,2.2262-3.1435,1.879-.5748-.3907-.6235-.9372-.0495-1.714Zm-22.1972,15.6368c-.3628-.153-.1766-.6334.9516-2.2944.314-.3935.6612-.9047,1.0516-1.4794,3.0887-4.2038,5.8616-6.5682,9.5902-8.0028,1.2462-.4606,2.6203-.8344,4.1757-1.1315,2.6819-.5123,4.3962-.5615,4.8533-.2043.0639.0434.1381.1406.1484.1942,0,0-.0434.0639-.0869.1276-.6051.6161-5.6533,3.5817-9.3002,5.4459-1.5169.7899-2.4106,1.3498-2.7144,1.7971-.0869.1279-.1303.1918-.12.2455-.0763.1812.0183.3854.2098.5157.5649.337,2.4469-.5787,8.9586-4.3244,1.0011-.5801,1.8079-1.0125,2.454-1.4138.3985-.2427.6998-.4116.9576-.5165s.5157-.2098.6666-.2939c.2042-.0946.3652-.1254.3857-.0184.0639.0434.0845.1508.0615.3221-.1374,1.0269-.4436,1.7525-1.189,2.5063-.3243.3398-.7023.69-1.1872,1.0608-.2377.212-.4854.3706-.7765.5928-1.7566,1.2809-3.3399,2.3058-5.0076,3.1804-1.1081.6009-2.2371,1.0944-3.3863,1.4806-1.1925.4504-2.4596.8037-3.7903,1.1132-.6867.1868-1.384.32-2.135.4635-2.2961.4942-4.4187.7331-4.7713.6335Z"/><path class="cls-1" d="m361.5787,235.9898c-.1549-.0854-1.6602-1.786-3.342-3.7732-1.6866-1.9899-3.7923-4.3875-4.6873-5.3289-2.2053-2.32-2.7609-2.2853-5.482.3616-1.0863,1.0549-2.1529,2.2343-2.3637,2.6167-.4136.7504-.2201,1.911.3802,2.2418.2033.1121,2.0277,2.1842,4.053,4.6132,2.7595,3.307,3.6162,4.5239,3.4241,4.8725-.3015.547-1.7775,1.9426-2.2167,2.0981-.1657.0601-1.6055-1.4845-3.1926-3.4258-3.7431-4.5686-5.4825-6.291-6.3775-6.3046-.9299-.0076-5.0567,3.8843-5.0114,4.7297q.0504.7789,3.8555,5.2807c3.1604,3.7363,5.2114,6.4508,5.0699,6.7074-.0373.0678-.5427.5151-1.1182.9868-.5782.4766-1.1839.7739-1.3475.6585-.1663-.1106-1.6629-1.9642-3.3255-4.1238-1.6652-2.1548-4.1046-5.115-5.4195-6.5656-1.9115-2.1202-2.334-2.7506-2.1046-3.167.7551-1.37,15.2128-15.2459,17.6456-16.9345l1.751-1.2187,1.0154.8373c1.6163,1.3389,11.1141,12.0709,11.3319,12.8095.0831.273-2.2863,2.1671-2.538,2.0283Z"/><path class="cls-1" d="m377.9461,244.3185c-3.2065-2.2582-9.6299-6.1155-9.9145-5.9428-.6049.304-5.531,8.0444-9.4327,14.5422-.3577.6328-.7127,1.2269-1.0677,1.8212-1.2007,2.044-2.2272,3.8295-2.9071,5.1367-.1303.1842-.222.3713-.3135.5584-.4081.7843-.6386,1.2715-.6087,1.39.0657.1603.6453.7082,1.3466,1.1875l1.2896.9114,1.6861-2.8223c.9705-1.5571,2.0353-3.3397,2.3962-4.011,1.3928-2.5341,2.1846-2.7464,4.55-1.1722,2.7012,1.7547,2.9964,4.0271,1.3692,9.6869-.4689,1.5945-.9848,3.3019-1.0967,3.7591-.2478.7187-.0694.926,1.5145,2.0536.957.6925,1.8454,1.2635,1.9583,1.3108.1156.0087.4213-1.4817.6731-3.2864.2545-1.8436.4888-4.969.5236-6.9839l.0761-3.6028,1.6833.3202c.956.1879,1.9235.2216,2.8668.0596.1958-.0239.3915-.0481.5902-.1109,2.1686-.4581,4.2078-1.7798,5.3584-3.6724.5768-.9656.7979-1.8414.9811-3.7678.319-3.74-.3542-5.1096-3.5223-7.3649Zm-.7018,8.3285c-.6531,1.4644-1.7016,2.5112-3.0927,2.9499-1.3552.4805-1.548.4661-3.6036-.5804-1.8685-.955-5.8207-3.6182-6.0947-4.1043-.1697-.3232,2.9739-6.0243,3.7291-6.7824.8381-.8298,2.2486-.4912,4.7295,1.0918,3.5152,2.2811,4.1634,2.9506,4.5378,4.686.2932,1.2637.2614,1.688-.2054,2.7394Z"/><path class="cls-1" d="m402.1876,255.7995c-2.1281-.92-12.2733-4.157-12.6241-4.0084-.4914.2081-4.8368,14.382-6.8135,22.4207l-.9829,3.9345,1.6486.6676c.8493.3442,1.6041.5624,1.7092.5179.0406-.0998.3359-1.2596.6769-2.6044.3413-1.3447,1.0262-3.5387,1.5227-4.9077,1.1143-3.0379,1.5003-3.2014,4.7733-2.0212l2.2533.8256.5803,3.5206c.2868,1.948.5698,4.7669.6136,6.2383l.0886,2.6529,1.7984.7284,1.8133.7636-.0287-1.4364c.0334-.8005-.1832-2.7783-.4213-4.4157-.2382-1.6377-.7694-3.772-1.1854-4.7545-1.0552-2.4919-.9338-2.7916.9726-2.6882.2551.016.4954-.0029.7357-.0218.3954-.0434.7763-.1218,1.1569-.2001,1.0571-.2407,2.1153-.7717,3.0141-1.4835l.0703-.0298c.4117-.2984.7586-.6521,1.1053-1.0061.0553-.0646.1106-.1295.166-.1943s.1106-.1297.1659-.1946c.3171-.424.5843-.8681.7665-1.3178.9659-2.3127,1.0462-4.6645.1936-6.5801-1.0997-2.5971-1.991-3.6268-3.7691-4.4052Zm.6438,8.4605c-.0039.8707-.2819,1.485-.9957,2.2428-1.0808,1.1612-1.5425,1.4396-3.2003,1.7275-.5859.0826-2.0009-.2289-3.3201-.705-1.269-.456-3.0082-1.044-3.8979-1.2879-.8898-.2442-1.8187-.6786-2.0427-.9147-.2837-.3765-.1182-1.6471.6506-4.6216.5704-2.2695,1.1691-4.1785,1.3797-4.2677.702-.2972,8.317,2.4383,9.5688,3.4396.9426.7596,1.8492,2.9007,1.8577,4.387Z"/><path class="cls-1" d="m431.1354,262.7124l-.1318,1.0293-7.1275-.6474c-7.6321-.6932-8.1916-.6922-8.5918.0485-.411.7626-.6138,7.5749-.2465,8.1876.2389.3879,1.7732.6201,5.2719.7958,5.1296.2566,8.6176.5552,8.8622.7617.1903.1606-.1929,3.3444-.4001,3.3325-.0933-.0089-1.1745-.1069-2.4089-.2256-4.9188-.4512-10.9962-.5225-11.329-.1284-.4621.5566-.4472,7.1569.0149,7.547.2039.1721,3.6212.4808,7.6025.6914,3.9774.2152,7.2996.4436,7.3857.5162.0823.0772.0274.8224-.1252,1.6557l-.2837,1.5218-1.918-.1914c-2.8982-.2895-12.2538-.816-13.7906-.7787-2.918.074-2.7139.6963-2.625-8.0123.1077-10.2291.592-19.6359,1.0275-19.9588.4355-.3229,5.8403.003,13.275.8012,6.3605.6828,5.8884.4239,5.5384,3.0538Z"/><path class="cls-9" d="m340.2722,208.0303l-2.9831,2.2248c-6.7082,4.9986-19.0131,12.9819-21.0075,13.6214-1.0721.3509-1.2507.2837-2.1231-.7915-.5219-.6432-1.1753-1.6611-1.446-2.2663l-.4936-1.0969,2.4751-1.8016c6.1204-4.459,17.0404-11.1042,21.9964-13.3829,1.0842-.499,1.3194-.4798,1.602.1395.1825.3963.6997,1.311,1.1534,2.0364l.8264,1.3169Z"/><path class="cls-3" d="m359.2159,220.5547l-.4463-1.4613c-2.2602-7.3308-7.0496-15.4731-9.5369-16.2066-1.6955-.4979-3.2021.0192-4.6701,1.6224-.698.7629-1.7148,1.6181-2.2557,1.9072-.5362.2851-1.0909.3669-1.2208.1853-.5347-.7539-1.5468-2.9103-1.5158-3.2366.0204-.1956,1.3394-.8859,2.9277-1.5454,2.967-1.2222,3.9294-2.0556,4.2642-3.6855.3449-1.6466-.1676-2.5653-4.0469-7.2487l-3.7992-4.5891,1.0879-1.2966c1.617-1.9242,2.3602-2.1661,3.6137-1.1957,1.8434,1.4263,7.7061,8.6653,9.4389,11.6609,4.0508,6.9859,7.0835,18.5492,6.3105,24.0453l-.151,1.0443Z"/><path class="cls-1" d="m514.7191,171.9769c-1.3686-1.1745-3.0502-4.5061-3.5487-7.0209-.7704-3.8916-.0732-7.4546,1.882-9.6074,1.7058-1.868,2.9516-2.3586,8.4195-3.3214,5.4503-.9532,14.8664-2.2622,15.7364-2.1834.5043.0457.6264.3641.8168,2.1469l.102.9703-4.6312.6084c-7.1642.9376-14.0487,2.2414-15.5594,2.9426-1.9131.8882-3.0468,2.1153-3.599,3.8923-1.1119,3.5758-.0641,6.7494,2.8045,8.5123,1.4396.8848,1.5383.9049,4.5928.8017,1.7209-.0619,5.9008-.4375,9.3003-.8334,3.3945-.402,6.6947-.751,7.334-.7769l1.1612-.0512.1838,1.5476c.1263,1.0731.0786,1.5995-.1617,1.7231-.1874.0947-4.8917.6462-10.4428,1.2327-11.2821,1.1846-12.3844,1.1406-14.3905-.5833Z"/><path class="cls-1" d="m514.2955,147.1716c3.5703-.5769,5.5926-2.5271,6.0293-5.8915.1687-1.0548.4121-2.0273.5729-2.0984.202-.1083.7368.2323,1.1855.7262.7872.8251,1.0191.9147,2.7529.8798l.3533.0169c1.3373.0247,2.0106-.0613,2.656-.3845.2806-.1048.5238-.2505.8081-.4337,1.631-1.1816,2.6246-3.0237,2.9434-5.567.208-1.8795.1522-2.3547-.9282-5.2801-1.9435-5.4467-3.8256-9.7095-4.2182-9.7283-.275-.0132-4.1694,1.5718-8.8286,3.5136-.3199.1026-.6024.2467-.9242.3887-1.0026.3849-2.048.8466-3.0524,1.2709-.6829.2823-1.3262.5664-2.0089.8487-1.648.7082-3.2546,1.3792-4.6632,2.0202-.4826.2131-.9239.3889-1.3262.5664-1.2867.5681-2.4128,1.0653-3.1779,1.4222-.2432.146-.4826.2131-.6452.3235-.363.1794-.6043.286-.6867.3607-.2469.2244.4801,2.3062,2.7473,7.5716,2.4428,5.7068,3.3438,7.4428,4.1028,8.0301,1.481,1.1339,4.2077,1.7368,6.3082,1.4439Zm2.9378-19.4237c.0113-.2356.6699-.8338,1.519-1.3049,2.5086-1.4151,5.6696-2.484,6.279-2.0613.3067.1723,1.2845,1.9512,2.1741,3.9227,1.2129,2.6167,1.6614,3.9373,1.6144,4.9191-.0792,2.4762-2.5019,4.5646-5.1351,4.4779-2.2031-.0267-2.8369-.7656-4.7806-5.3858-.9158-2.2483-1.6822-4.332-1.6709-4.5677Zm-4.8426,15.6322c-1.6831-.1988-3.0612-1.0128-3.5641-2.021-.5384-1.0885-3.4091-8.548-3.3959-8.823.0075-.157.2601-.4991.5482-.7608.9056-.8228,7.0537-3.4413,7.5549-3.2205.6937.3088,4.1833,8.8213,4.125,10.0388-.0677,1.4138-.9697,2.9847-2.3616,4.099-1.1035.8525-1.3429.9198-2.9065.6875Z"/><path class="cls-1" d="m496.8673,124.3656c-.0487-.0683-.506-.7348-1.0243-1.4867-.5124-.7521-.9351-1.4255-.9374-1.5011s.9017-.7499,2.0128-1.5063c1.1112-.7507,5.8007-3.9355,10.4219-7.0717,4.6212-3.1362,9.0725-6.1215,9.8946-6.6303l1.4895-.9371.9663,1.3082c.5771.7734.8477,1.4225.6787,1.6024-.4343.4384-20.0612,14.2352-21.8645,15.3683-.8562.5331-1.5889.9228-1.6376.8545Z"/><path class="cls-1" d="m492.079,115.701c.2469-1.1477.7126-3.2464,1.0563-4.7516.3457-1.4662.6835-3.7527.7632-5.0864.1187-1.336.3198-2.5982.4669-2.7632.2203-.2472.8938-.0905,2.055.3902,3.6831,1.5085,5.5878,1.3208,8.006-.8115,2.0834-1.8396,3.1204-4.2057,2.9772-6.6993-.1231-2.1429-.4249-2.6337-5.8735-8.3407-3.0368-3.1873-4.9865-5.1473-6.2113-6.0542-.2449-.1813-.4489-.3261-.6114-.434-.1212-.0713-.2405-.1036-.3207-.1379-.1212-.0713-.2405-.1036-.3572-.0969l-.078.0045c-.7681.2395-11.6165,11.4562-16.7623,17.1462-.1813.2449-.3652.4509-.551.6179-.3304.3709-.622.7396-.8791,1.0278-.1836.2062-.3306.3709-.4774.5356-.2181.2862-.4017.4921-.5465.6961-.1078.1625-.1791.2839-.1769.3227.0112.195.4735.7547,1.0089,1.2321l.9868.8423,3.2084-3.3506c4.4636-4.6345,5.0191-5.1746,5.6036-5.2081.5063-.0291,3.5508,2.6107,4.9371,4.2902,1.382,1.6015,1.1549,5.1325-.7412,12.2779l-.963,3.6516,3.0877,2.7153.3924-2.0162Zm4.5799-15.5473c-.5657-.3194-2.296-1.8618-3.875-3.4911-1.5768-1.5903-3.1948-3.2174-3.6457-3.5825-.4121-.3671-.7483-.7778-.7595-.9725-.009-.156,1.2741-1.6369,2.8231-3.2504,1.5881-1.6158,3.0773-2.9131,3.3155-2.8485.7882.111,8.6099,8.34,8.8606,9.3029.3946,1.4237.0742,2.6539-.993,3.8098-1.7284,1.8973-3.5093,2.195-5.726,1.0325Z"/><path class="cls-3" d="m497.0878,74.4666c-.0566.0759-.6217-.4024-1.2639-1.0673-3.2505-3.3763-8.0233-6.6927-13.943-9.6894l-2.0319-1.0272-1.2736,1.1138c-1.3438,1.1805-2.4822,3.2811-3.6183,6.6958-.3771,1.1261-.8519,2.0814-1.0633,2.1217-.2057.0393-.9413-.2465-1.6293-.6244l-1.2512-.6907,1.7394-2.6122c1.9776-2.9774,3.0253-5.3982,3.1685-7.3145.0889-1.1777.0064-1.3928-.8054-1.9839-1.7842-1.3113-5.6405-2.8368-8.7845-3.4857-1.756-.3574-3.2576-.8404-3.3367-1.0681-.1891-.5561.2292-3.0165.6554-3.8855.3332-.6736.4086-.6821,2.8385-.4238,4.8358.5153,10.3992,2.6384,15.3622,5.8653,5.0299,3.2673,10.0893,8.797,13.5248,14.785.9935,1.7289,1.7678,3.2095,1.7124,3.2911Z"/><path class="cls-9" d="m431.5615,105.394c-.4501-.1864-.0791-.8791,2.006-3.7586,4.1124-5.6591,7.5637-7.9587,13.7376-9.1499,3.0555-.5896,4.8624-.5854,4.9748.0031.0589.3085-5.445,3.5805-9.3476,5.5636-2.5597,1.2943-3.3397,2.0473-2.6251,2.5326.5512.3744,2.4161-.5267,8.9386-4.2952,4.3464-2.512,4.6201-2.6294,4.5363-1.9206-.1861,1.5989-.8577,2.4852-3.163,4.1809-4.6405,3.4209-8.3575,5.0429-14.2952,6.2304-2.3106.4591-4.4542.7383-4.7623.6136Z"/><path class="cls-9" d="m448.7777,90.6468c-2.6551.3295-3.4189.2681-6.824-.5382-2.1038-.5042-5.5688-1.5004-7.6969-2.225-2.1281-.7245-4.6776-1.795-5.6719-2.3808l-1.8091-1.0697,3.0406-.9776c4.2681-1.3719,7.2978-1.8796,10.8485-1.8295,5.0712.0735,9.3863,1.7068,11.4194,4.3208l.9105,1.1703-.7926-.0262c-.4346-.0117-3.4968-.3565-6.8061-.7547-3.3104-.404-6.186-.7015-6.386-.6633-.5496.0991-.6215,1.0247-.1093,1.2881.2419.1196,3.0471.5135,6.2302.8707,8.0905.9061,7.6374.7973,7.0866,1.696-.4051.6696-.7506.7829-3.44,1.119Z"/><path class="cls-9" d="m461.1591,90.0524c-.6075-.4524-1.1215-.9109-1.1401-1.008-.0753-.3942,3.4095-6.425,6.5873-11.3963l3.3456-5.2403,1.8324.8817,1.8278.8885-.6639,1.9803c-1.617,4.8035-6.3978,15.2093-7.2236,15.7223-.5184.3241-3.0388-.6868-4.5655-1.8282Z"/><path class="cls-9" d="m457.9176,98.6896c-.8843-.5061-1.6279-1.051-1.6563-1.1996-.0458-.2399,1.3254-3.5397,2.5723-6.1881l.4101-.86,1.0376.844c.5754.4704,1.847,1.175,2.8235,1.5747,2.0871.8508,2.0952.7071-.2765,4.5356-1.8639,3.0149-1.9199,3.0315-4.9108,1.2933Z"/></svg>