<?xml version="1.0" encoding="UTF-8"?><svg id="Calque_9" xmlns="http://www.w3.org/2000/svg" viewBox="0 0 850.3937 850.3937"><defs><style>.cls-1{stroke:#357840;}.cls-1,.cls-2,.cls-3,.cls-4,.cls-5,.cls-6{fill:none;}.cls-1,.cls-2,.cls-3,.cls-4,.cls-5,.cls-6,.cls-7{stroke-miterlimit:10;}.cls-1,.cls-2,.cls-3,.cls-4,.cls-5,.cls-7{stroke-width:3px;}.cls-2{stroke:#8c422d;}.cls-3{stroke:#616160;}.cls-4{stroke:#bc9808;}.cls-5{stroke:#2d4492;}.cls-8{font-size:18.766px;}.cls-8,.cls-9,.cls-10{fill:#525252;font-family:Arial-Black, 'Arial Black';font-weight:800;}.cls-9{font-size:18.7659px;}.cls-10{font-size:6.1696px;}.cls-11{fill:#f3e745;}.cls-12{fill:#ea7950;}.cls-13{fill:#fff;}.cls-14{fill:#ffd312;}.cls-15{fill:#b55b3d;}.cls-16,.cls-17{fill:#8d412d;}.cls-18{fill:#dfdfdf;}.cls-19{fill:#475da6;}.cls-20{fill:#51ac51;}.cls-6{stroke-width:2px;}.cls-6,.cls-17{stroke:#8d412d;}.cls-7{fill:#a65921;stroke:#7e4621;}.cls-21{fill:#3c2f24;opacity:.4;}</style></defs><path class="cls-21" d="m545.039,780.7753c-41.3765,7.5557-44.1854,33.8208,5.9714,42.4559,50.1568,8.6351,71.8145,13.7662,91.3884,13.7192,19.5738-.047,63.9011,8.9479,82.9341,6.4294,19.0329-2.5186,181.987-14.108,20.2756-72.5368"/><path class="cls-14" d="m753.0198,560.9789c-8.532-10.1002-23.4163-8.9974-37.4085-10.3239-16.131-1.527-48.226-8.3187-65.7144-7.3007-17.4909,1.018-14.4343,3.0566-25.4728,2.7172-11.0359-.3393-7.6401-4.0745-23.9407,1.3573-16.3033,5.4344-28.5294,4.7558-34.1309,9.1696-.725.5707-1.3394,1.1902-1.8689,1.8458v.0026c-.5424,2.6581-.8046,5.5989-.6144,8.7841.0463.7609.1182,1.5372.2185,2.329,2.1516,16.9819,14.9434,23.095,34.0743,26.6039,19.131,3.509,29.8867,1.1311,43.6964.7917,13.8097-.3393,22.0745,1.6992,35.0924,1.473,13.0204-.2262,25.5859-1.018,44.0383-4.1902,8.7866-1.5116,16.3418-5.5861,21.9793-9.8611,1.5656-1.1851,2.9846-2.3856,4.239-3.5527,3.7172-3.4499,6.0077-6.5861,6.4961-8.0925,1.0489-3.2391-1.2699-6.0797-.6838-11.7531Z"/><path class="cls-15" d="m753.7036,572.7321c-.4884,1.5064-2.7789,4.6426-6.4961,8.0925-37.8507-5.0103-144.264-11.9125-183.3384-13.5938-.1902-3.1851.072-6.1259.6144-8.784v-.0026c.5296-.6555,1.1439-1.2751,1.8689-1.8458,5.6015-4.4139,17.8277-3.7352,34.1309-9.1696,16.3007-5.4318,12.9048-1.6966,23.9407-1.3573,11.0385.3393,7.982-1.6992,25.4729-2.7172,17.4883-1.018,49.5833,5.7737,65.7143,7.3007,13.9922,1.3265,28.8765.2236,37.4085,10.3239-.5861,5.6735,1.7326,8.5141.6838,11.7531Z"/><path class="cls-2" d="m753.7036,572.7321c-.6529,2.0154-4.5347,6.9511-10.7351,11.6452-5.6375,4.275-13.1927,8.3496-21.9793,9.8611-18.4524,3.1722-31.0178,3.964-44.0383,4.1902-13.0179.2262-21.2827-1.8123-35.0924-1.473-13.8097.3393-24.5654,2.7172-43.6964-.7918-19.131-3.509-31.9227-9.6221-34.0744-26.604-.5193-4.0925-.2751-7.8174.3959-11.1131v-.0026c.5296-.6555,1.1439-1.2751,1.8689-1.8458,5.6015-4.4139,17.8277-3.7352,34.1309-9.1696,16.3007-5.4318,12.9048-1.6966,23.9407-1.3573,11.0385.3393,7.982-1.6992,25.4729-2.7172,17.4883-1.018,49.5833,5.7737,65.7143,7.3007,13.9922,1.3265,28.8765.2236,37.4085,10.3239-.5861,5.6735,1.7326,8.5141.6838,11.7531Z"/><path class="cls-14" d="m716.375,555.4106c9.7428-.8187,18.424.65,18.1693,9.4521-.2547,8.8021-9.3393,14.2923-15.9618,13.6698-6.6224-.6225-18.2305-4.7963-18.7636-12.8708-.4245-6.4304,6.4526-9.402,16.5561-10.251Z"/><path class="cls-4" d="m716.375,555.4106c9.7428-.8187,18.424.65,18.1693,9.4521-.2547,8.8021-9.3393,14.2923-15.9618,13.6698-6.6224-.6225-18.2305-4.7963-18.7636-12.8708-.4245-6.4304,6.4526-9.402,16.5561-10.251Z"/><path class="cls-11" d="m717.5624,553.033c-2.0077-2.5038-4.4858-4.1671-7.2519-5.2236-5.7712-2.2082-12.7943-1.7738-19.4061-.8046-3.8251.5604-6.8457,1.1748-9.2339,2.0437-5.5604,2.0179-7.6786,5.401-8.5038,12.6555-1.1799,10.3676,24.2749,29.7916,36.9252,18.275,12.6503-11.5141,13.6683-19.2184,7.4704-26.9459Z"/><path class="cls-14" d="m710.092,579.9788c-12.6503,11.5166-38.1052-7.9074-36.9253-18.275.8252-7.2545,2.9434-10.6375,8.5038-12.6555-1.3676,2.5141-2.1182,4.563-1.8046,5.6144.4242,1.4267,2.2082,4.3984,15.3675,3.8894,11.1953-.4319,18.1053-1.2982,15.077-10.7429,2.7661,1.0565,5.2442,2.7198,7.2519,5.2236,6.1979,7.7275,5.1799,15.4318-7.4704,26.9459Z"/><path class="cls-4" d="m717.5624,553.033c-2.0077-2.5038-4.4858-4.1671-7.2519-5.2236-5.7712-2.2082-12.7943-1.7738-19.4061-.8046-3.8252.5604-6.8457,1.1748-9.2339,2.0437-5.5604,2.018-7.6786,5.401-8.5038,12.6555-1.1799,10.3675,24.2749,29.7916,36.9253,18.275,12.6503-11.5141,13.6683-19.2184,7.4704-26.9459Z"/><path class="cls-11" d="m669.4367,534.9996c-4.0488-2.5064-9.4627-3.3625-14.1927-3.5321-9.4241-.3394-19.8482,2.0822-31.3289,10.2724-3.6016,2.5707-6.4601,4.9871-8.6863,7.2725-7.4884,7.6812-7.8149,13.8534-5.0668,19.2184,3.5656,6.9614,44.064,8.491,53.1488,4.7558,9.0848-3.7378,10.7814-11.293,12.1414-24.7068.6761-6.6837-1.9974-10.7943-6.0154-13.2801Z"/><path class="cls-14" d="m675.4521,548.2798c-1.3599,13.4138-3.0565,20.969-12.1413,24.7068-9.0848,3.7352-49.5833,2.2056-53.1488-4.7558-2.7481-5.365-2.4216-11.5372,5.0668-19.2184,1.509,6.4318,5.3213,10.3624,11.9125,10.6426,7.982.3393,26.8302-6.3676,35.0666-14.0076,3.6581-3.3959,5.928-7.0951,7.2288-10.6478,4.018,2.4858,6.6915,6.5964,6.0154,13.2801Z"/><path class="cls-4" d="m669.4367,534.9996c-4.0488-2.5064-9.4627-3.3625-14.1927-3.5321-9.4241-.3393-19.8482,2.0822-31.3289,10.2724-3.6015,2.5707-6.4601,4.9871-8.6863,7.2725-7.4884,7.6812-7.8149,13.8534-5.0668,19.2184,3.5655,6.9614,44.064,8.491,53.1488,4.7558,9.0848-3.7378,10.7814-11.293,12.1413-24.7068.6761-6.6838-1.9974-10.7943-6.0154-13.2801Z"/><path class="cls-11" d="m612.4061,557.2231c-1.6941-9.4858-12.1028-10.2904-24.3187-9.4138-8.2621.5938-17.0744,3.7018-21.239,10.0565-1.4884,2.2673-2.383,4.946-2.4498,8.0719-.2545,11.8843,16.131,14.4344,23.6888,14.0411,7.5552-.3907,21.9896-.6247,24.2801-16.2467.3702-2.527.3676-4.6786.0386-6.509Z"/><path class="cls-14" d="m612.3676,563.7321c-2.2905,15.622-16.7248,15.856-24.2801,16.2467-7.5578.3933-23.9433-2.1568-23.6888-14.0411.0668-3.1259.9614-5.8046,2.4499-8.0719.635,6.1671,3.0463,12.3521,12.748,12.7428,9.6863.3907,23.2467-5.6555,32.8096-13.3855.329,1.8303.3316,3.982-.0386,6.5089Z"/><path class="cls-4" d="m612.4061,557.2232c-1.6941-9.4858-12.1028-10.2904-24.3186-9.4138-8.2622.5938-17.0745,3.7018-21.239,10.0565-1.4884,2.2673-2.383,4.946-2.4499,8.0719-.2545,11.8843,16.131,14.4344,23.6888,14.0411,7.5552-.3907,21.9896-.6247,24.2801-16.2467.3702-2.527.3676-4.6786.0386-6.5089Z"/><path class="cls-11" d="m685.3286,565.0329c-.5038-.5142-.9922-.9769-1.4704-1.3959-5.0154-4.401-8.9511-4.1824-17.3212-9.2441-11.7635-7.1182-25.1593-5.1439-31.7814.27-1.4653,1.1954-2.5989,2.5604-3.311,4.0308-3.9357,8.1259-.2262,18.113,6.7917,24.2261s32.8276,8.8303,41.4316,3.6221,11.4344-15.622,5.6606-21.5089Z"/><path class="cls-14" d="m679.668,586.5418c-8.6041,5.2082-34.4137,2.491-41.4317-3.6221-7.018-6.1131-10.7274-16.1002-6.7917-24.2261.7121-1.4704,1.8457-2.8355,3.311-4.0308,1.2236,6.1079,3.455,10.5835,12.0848,14.2673,11.8843,5.0745,25.8945,3.4601,32.771-1.6324,1.5578-1.1542,2.9743-2.3933,4.2468-3.6607.4781.419.9666.8818,1.4704,1.3959,5.7738,5.8868,2.9434,16.3007-5.6606,21.5089Z"/><path class="cls-4" d="m685.3286,565.0329c-.5039-.5141-.9923-.9769-1.4704-1.3959-5.0154-4.401-8.9511-4.1825-17.3212-9.2442-11.7634-7.1182-25.1592-5.1439-31.7813.2699-1.4653,1.1954-2.599,2.5604-3.311,4.0308-3.9357,8.1259-.2262,18.113,6.7917,24.2261,7.018,6.1131,32.8276,8.8303,41.4317,3.6221,8.6041-5.2082,11.4344-15.622,5.6606-21.5089Z"/><path class="cls-11" d="m747.1098,565.4288c-1.7635-1.3342-3.7789-2.3265-6.0103-2.9486-5.7224-1.6015-12.8534-.7789-20.7351,2.9486-6.5964,3.1208-8.4884,4.7557-10.2725,7.473-.5964.9075-1.5732,2.5938-2.3239,4.6735-1.4884,4.1362-2.0822,9.8251,3.0026,14.0051,7.6426,6.2827,18.5938,4.0745,29.3777-1.7841,10.7814-5.8586,13.2441-19.6118,6.9614-24.3675Z"/><path class="cls-14" d="m740.1484,589.7963c-10.784,5.8586-21.7351,8.0668-29.3777,1.7841-5.0848-4.1799-4.491-9.8688-3.0026-14.0051,3.0771,4.2031,7.5064,8.3907,13.2776,8.1465,7.9794-.3393,13.838-6.3676,18.6786-13.8406,1.7249-2.6632,1.8843-6.0925,1.3753-9.401,2.2314.6221,4.2468,1.6144,6.0103,2.9486,6.2827,4.7558,3.82,18.5089-6.9614,24.3675Z"/><path class="cls-4" d="m747.1098,565.4288c-1.7635-1.3342-3.7789-2.3265-6.0103-2.9486-5.7223-1.6015-12.8534-.7789-20.7351,2.9486-6.5964,3.1208-8.4884,4.7558-10.2724,7.473-.5964.9074-1.5733,2.5938-2.3239,4.6735-1.4884,4.1362-2.0822,9.8251,3.0026,14.0051,7.6426,6.2827,18.5937,4.0745,29.3777-1.7841,10.7815-5.8586,13.2442-19.6117,6.9614-24.3675Z"/><path class="cls-11" d="m706.6113,580.1176c-2.257-3.2776-5.4884-5.437-9.4266-6.7866-6.8766-2.3573-15.9023-2.2391-25.6374-1.2802-11.7583,1.1594-18.748,4.5578-22.3984,8.4216-3.5732,3.784-3.9511,8.0102-2.4781,11.0231,3.2262,6.5938,19.8663,15.4523,39.3083,12.5654,19.4446-2.8868,26.8302-14.9434,20.6323-23.9433Z"/><path class="cls-14" d="m685.979,604.061c-19.4421,2.8869-36.0821-5.9717-39.3083-12.5655-1.473-3.0128-1.0951-7.239,2.4781-11.0231,6.9203,5.8946,12.5526,9.5012,27.3212,7.5424,11.7275-1.5527,17.4986-7.6581,20.7145-14.6837,3.9383,1.3496,7.1696,3.509,9.4267,6.7866,6.1979,8.9999-1.1877,21.0564-20.6323,23.9433Z"/><path class="cls-4" d="m706.6113,580.1177c-2.257-3.2776-5.4884-5.437-9.4267-6.7866-6.8766-2.3573-15.9022-2.2391-25.6374-1.2802-11.7583,1.1594-18.748,4.5578-22.3983,8.4216-3.5733,3.784-3.9511,8.0102-2.4781,11.0231,3.2262,6.5938,19.8662,15.4524,39.3083,12.5655,19.4446-2.8869,26.8302-14.9434,20.6323-23.9433Z"/><path class="cls-11" d="m634.2646,568.9301c-7.6581-3.4499-19.0899-4.018-31.5757-1.18-12.311,2.7995-20.1233,5.8303-24.6965,9.5732-3.7532,3.072-5.3265,6.6221-5.4138,10.9177-.2263,11.0925,35.0923,16.4138,47.7709,13.4704s23.5474-5.5475,23.6605-19.3572c.0488-6.1182-3.653-10.6812-9.7454-13.4241Z"/><path class="cls-14" d="m644.0101,582.3541c-.1131,13.8097-10.982,16.4138-23.6606,19.3572-12.6786,2.9434-47.9972-2.3779-47.7709-13.4704.0874-4.2956,1.6606-7.8457,5.4139-10.9177,2.1002,5.7917,3.8432,7.8997,11.9048,9.6709,9.2827,2.0385,26.7171,5.1028,37.6965-2.7686,4.6812-3.3547,6.3161-9.2287,6.6709-15.2955,6.0925,2.7429,9.7943,7.3059,9.7455,13.4241Z"/><path class="cls-4" d="m634.2646,568.93c-7.6581-3.4498-19.0899-4.018-31.5757-1.1799-12.311,2.7995-20.1233,5.8303-24.6965,9.5732-3.7532,3.072-5.3265,6.6221-5.4139,10.9177-.2262,11.0925,35.0924,16.4138,47.7709,13.4704,12.6786-2.9434,23.5474-5.5475,23.6606-19.3572.0488-6.1182-3.6529-10.6812-9.7455-13.4241Z"/><path class="cls-12" d="m767.4027,785.3273c-9.6812-10.6966-7.6426-10.6966-9.1696-16.8097-1.5295-6.1131,1.1876-16.3007,1.0179-20.2081-.1696-3.9048-4.5861-17.3187-5.6041-27.5089-.2802-2.7994-1.2313-4.7197-2.1414-6.9357,3.7454-10.3341,5.7275-24.6039,4.5192-30.2518-1.5295-7.131-.4807-29.8842.3548-36.1669.455-3.437-.4628-11.7866-4.3419-19.3547-.1157.0977-.2313.1954-.347.293-10.3136,8.5681-24.2672,8.1619-40.3262,12.9485-1.6478.491-3.1774.9048-4.6067,1.2493-13.8894,3.3753-18.023.4164-23.4112.108-4.5629-.2596-7.9254,1.0797-17.9999.7944h-.0026c-1.9923.7043-4.2236,1.4653-6.7892,2.2622-3.4884,1.0822-8.1336,1.6426-13.7223,1.7198h-.0026c-14.5526.2031-35.4703-2.8689-58.7812-8.5115-14.7403-3.5707-22.9228-7.4216-27.514-11.0077-3.27,8.7712-3.5373,20.6863-2.8818,31.0436.8483,13.4164,2.3779,11.0385,2.3779,21.3958,0,4.5141-1.1389,9.9614-1.9743,13.9819v.0026c-4.0463,6.3624-7.1799,14.3907-6.6863,20.5449.5013,6.2468,1.6915,12.8611,1.6401,20.7068-5.2468,9.5552-7.2956,17.4703-9.4498,20.838-2.7172,4.2442-5.2647,11.5475-19.1901,17.8302-13.9228,6.2828-2.7172,21.3958,15.622,23.7711,16.455,2.1337,6.5244,4.6735,33.6374-.1389,8.8123,5.3676,20.6683,10.4705,35.645,10.1594,8.7609-.1826,16.4318-1.3419,23.9073-2.9846.8972-.1979,1.7918-.4011,2.6838-.6118,5.5552,1.1876,12.6375,1.5732,22.4832.7095,25.131-2.2083,32.0923-7.1183,48.5627-6.7866,16.473.3342,37.1875,6.4473,57.9046,6.2776,20.7171-.1722,14.2647-8.6606,4.5861-19.3598Z"/><path class="cls-15" d="m762.8166,804.6871c-20.7171.1697-41.4317-5.9434-57.9046-6.2776-16.4704-.3316-23.4317,4.5784-48.5627,6.7866-9.8457.8637-16.9279.4781-22.4832-.7095-.6735-.1439-1.3239-.3008-1.9537-.4679,1.1517-1.6581,2.3316-3.1183,3.2673-3.7481,2.7738-1.8689,13.5269-3.3959,26.7711-6.4524,13.2467-3.0565,29.2081-17.9999,37.19-26.3186,7.9794-8.3213,11.7146-8.3213,14.0925-10.0205,2.3779-1.6967,7.8123-7.9794,11.5475-17.6734,3.7352-9.6966,4.7532-36.4934,3.9049-46.5113-.8483-10.0205-.7918-15.7377-13.131-28.3032-12.3393-12.5655-25.5834-14.149-33.735-14.6015-8.1516-.455-14.7171,1.1311-21.5089,1.1311-4.9408,0-8.4447-.9589-15.4781-4.054,5.5887-.0771,10.2339-.6375,13.7223-1.7198,2.5655-.7969,4.7969-1.5578,6.7892-2.2622h.0026c10.0745.2853,13.4369-1.054,17.9999-.7943,5.3882.3085,9.5218,3.2673,23.4112-.108,1.4293-.3445,2.9589-.7584,4.6067-1.2493,16.059-4.7866,30.0127-4.3804,40.3263-12.9485.1157-.0977.2313-.1954.347-.293,3.8792,7.5681,4.7969,15.9176,4.3419,19.3546-.8355,6.2827-1.8843,29.0358-.3548,36.1669,1.2082,5.6478-.7738,19.9176-4.5192,30.2518.91,2.2159,1.8612,4.1362,2.1414,6.9357,1.018,10.1902,5.4345,23.604,5.6041,27.5089.1697,3.9074-2.5475,14.095-1.018,20.2081,1.527,6.1131-.5116,6.1131,9.1696,16.8097,9.6786,10.6992,16.131,19.1876-4.5861,19.3598Z"/><path class="cls-2" d="m767.4027,785.3274c-9.6812-10.6966-7.6426-10.6966-9.1696-16.8097-1.5295-6.1131,1.1877-16.3007,1.018-20.2081-.1696-3.9049-4.5861-17.3187-5.6041-27.5089-.2802-2.7995-1.2313-4.7198-2.1414-6.9357,3.7455-10.3341,5.7275-24.604,4.5192-30.2518-1.5295-7.1311-.4807-29.8842.3548-36.1669.455-3.437-.4627-11.7866-4.3419-19.3546-.1157.0977-.2313.1954-.347.293-10.3136,8.5681-24.2672,8.1619-40.3263,12.9485-1.6478.491-3.1774.9049-4.6067,1.2493-13.8894,3.3753-18.023.4164-23.4112.108-4.563-.2596-7.9254,1.0797-17.9999.7943h-.0026c-1.9923.7044-4.2236,1.4653-6.7892,2.2622-3.4884,1.0822-8.1336,1.6427-13.7223,1.7198h-.0026c-14.5526.2031-35.4703-2.8689-58.7812-8.5115-14.7403-3.5707-22.9228-7.4216-27.514-11.0077-3.2699,8.7712-3.5373,20.6863-2.8817,31.0435.8483,13.4164,2.3779,11.0385,2.3779,21.3958,0,4.5141-1.1388,9.9614-1.9743,13.9819v.0026c-4.0462,6.3624-7.1799,14.3907-6.6863,20.5449.5013,6.2468,1.6915,12.8611,1.6401,20.7068-5.2468,9.5552-7.2956,17.4704-9.4498,20.838-2.7172,4.2442-5.2647,11.5475-19.1901,17.8302-13.9228,6.2828-2.7172,21.3958,15.622,23.7711,16.4549,2.1336,6.5244,4.6735,33.6374-.1388,8.8123,5.3676,20.6683,10.4704,35.645,10.1593,8.7609-.1825,16.4318-1.3419,23.9073-2.9846.8972-.1979,1.7918-.401,2.6838-.6118,5.5552,1.1877,12.6375,1.5733,22.4832.7095,25.131-2.2082,32.0924-7.1182,48.5627-6.7866,16.4729.3342,37.1875,6.4473,57.9046,6.2776,20.7171-.1722,14.2647-8.6606,4.5861-19.3598Z"/><path class="cls-2" d="m551.0106,735.6233c-.0154,2.6349.6949,6.4892,0,11.6682"/><path class="cls-2" d="m563.8077,686.6707c-3.8755,2.5471-6.4964,5.7265-7.7509,7.6982"/><path class="cls-2" d="m571.63,797.9237c-1.5707-.9563-4.7127-2.6187-6.524-5.2374"/><path class="cls-2" d="m624.9922,801.4558c2.0668,1.0026,6.275,2.3445,8.874,3.0308"/><path class="cls-2" d="m751.5057,713.865c-.9846,2.7172-2.09,5.1619-3.293,7.1054"/><path class="cls-6" d="m680.641,709.8929c3.9102,24.2987-12.851,47.197-37.4366,51.1534-14.4764,2.3296-28.4338-2.4324-38.2741-11.7137-6.8631-6.468-11.7157-15.1409-13.3204-25.1126-.4095-2.5445-.5862-5.0559-.556-7.5535.0833-7.821,2.2687-15.2983,6.0685-21.789h0c2.5837-4.4372,5.9469-8.4119,9.9122-11.7544h0c.34-.2899.7021-.5833,1.068-.8539h0c2.1581-1.7113,4.4862-3.2147,6.9583-4.5297,4.2569-2.2371,8.9791-3.8437,13.9893-4.6499,3.015-.4852,5.9893-.6581,8.9155-.5646,18.5916.6298,34.9708,12.6686,40.9001,30.1517.7827,2.3198,1.3732,4.7176,1.7753,7.2162Z"/><path class="cls-16" d="m604.331,737.8352c-.2441,1.027-.3253.8049-.2441,1.027.0591.2257-.2107.3867-.4032,1.7346-.2146,1.3515-.1518,1.1768.0881,2.3846s.0259.0194.2289.8568c.203.8375.0923.432.613,1.1242.4986.6958,0,.1411.3656.7172.3619.5532.1919.7687.2617,2.3331s-.2146,1.2104-.2146,1.2104l-.0296.0988c-6.8631-6.468-11.7157-15.1409-13.3204-25.1126-.4095-2.5445-.5862-5.0559-.556-7.5535.1033.5007.0517.0387.2621.922.2399,1.0667.0369.2292.1883.6047.1477.3525.2808.0489.8975,1.0549s.2363.4793.5096,1.0468c.277.5904.0701.2944.3102.6556.2438.3841.299.869.5095,1.4701s.0738.3174.3432,1.4263.1588.4213.4577,1.5725.2363.4793.3913,1.301.4911,1.3555.7385,1.7625.1182.3102.5023.7187c.3841.4085.0295.1834.5319.4788s.4987.2725.9126-.1233.2956-.2827.6873-.2517.7647.2297,1.2672.384c.5024.1543.4359.3061,1.3926,1.0223.9567.7162,1.0011.5679,1.64,1.7115.8974,1.6194.3249.7473.8974,1.6194.5688.8491.4986.6958.8087,1.9158.2325,1.162.1919,1.0509-.0374,1.8874Z"/><path class="cls-16" d="m607.0346,683.1231c-.1774.3108-.1258.6317-.3439,1.1136-.2662.6072-.3327.759-.5768,1.6449-.2478.863-.3217.9689-.6434,1.9379-.3217.9689-.6506,1.3276-1.2125,2.3587s-.5138.7647-1.1975,1.6037c-.6874.8161-1.4265,1.1702-2.2727,1.7062-.8499.513-1.127.4871-2.0656.8733s-.8092.3419-1.5778.5126l-.0222.0036c2.6059-4.4407,5.9432-8.4348,9.9122-11.7544Z"/><path class="cls-16" d="m615.0572,677.7166c-.0961.2506-.244.6037-.584,1.0347-.4546.567-.3992.6286-.961,1.3775-.5396.7453-.5026.5512-1.0015,1.1254-.4804.5477-.9423.6455-1.3968.9303-.4324.2812-1.0531.24-1.5666.158-.5099-.0591-.8978-.2083-1.4705-.0926,2.1803-1.7148,4.5083-3.2183,6.9804-4.5333Z"/><path id="path4259" class="cls-16" d="m615.2083,679.2209c1.3156-1.1524,2.3873-1.9833,3.1485-2.6232.765-.617.643-.6679,1.4449-.9145s.6023-.2145,1.7329-.3965l1.9065-.3068c.4434-.0714,1.2563-.3903,1.6331-.1687.3731.1986.436.0239.4322.4243-.0001.4233.1477.2114-.3105.7555s-.499.8564-1.2381,1.6338c-.7391.7774-1.009,1.3617-1.7851,2.051-.7539.6857-.972,1.0265-1.4819,1.2497s-.5432.2991-.9792.2752-.5542-.0519-.8424-.0055-.521.2955-.521.2955c0,0-.3659.4116-.2588.7942.0812.3632.2843.6362-.0556.785s.1293.0968-.691.2288-.7094.2553-1.1675.0938,0,0-.5985-.327c-.4248-.2374-.24-.5023-.4469-.516-.2106-.0367-.2845-.0718-.4914.0556-.2291.1309-.6245.3592-1.0089.7973-.388.4152-.5396.7453-.85.9364-.3104.1911-.388.2741-.7871.3383s-.5469.2761-.6429-.0377c-.0738-.3174-.3103-.3734-.0294-.7478s.5506-.5354.8648-1.1269c.3807-.6021,1.7112-2.3684,3.0232-3.5437Z"/><path class="cls-16" d="m678.8657,702.6767c-.1774.0285-.399.0642-.5136.0591-.181.0056-.3768-.0805-.7463-.2562-.3473-.1793-.3657-.2939-.676-.5262s-.4432-.6342-.7497-1.1257c-.3287-.488-.3656-.7172-.698-1.3692-.3545-.6485-.1772-.5359-.3065-.7738s-.2733-.4264-.4617-.6077-.3287-.3469-.3287-.3469c0,0-.1626.1202-.547.5584s-.0481.2664-.1628.8258-.2107.3867-.0779,1.2119.0662,1.1182.2323,2.0086c.166.8904.0738.3174.2362.9027.1661.6082.3545.9307.5464,1.5583s.4099.7101.4763,1.1227.1107.6877.0107,1.3387-.1147.5593-.2885,1.3163c-.1702.7799-.0592.3388-.5027.8334-.4213.4911-.292.3057-.5322.5089-.2439.1804-.5505.1121-.5505.1121,0,0-.3362-.2516-.6685-.7625-.3324-.5109-.0996-.6189-.1733-1.2185-.0774-.6225-.2362-1.0438-.3542-1.7773-.1217-.7565-.5799-.7768-.9898-1.4869s-.82-.9969-1.5291-2.0116c-.7091-1.0147-1.5661-1.6764-1.5661-1.6764,0,0-.6058-.6551-1.086-.954-.4802-.299-.6576-.2705-1.4666-.6341-.8054-.3407-.4212.0678-.8831.1656s-.4508.1666-.872.3755-.3142.4503-.5322.7912-.2033.2914-.6209.6643-.3363.1717-1.5149.3379-.4951.0326-1.8177-.2719c-1.3226-.3045-.2808-.19-1.2819-.6168s-.4322-.2832-1.3336-.7966c-.9014-.5134-.5837-.2353-1.4112-.5725s-.4175-.1915-1.0972-.4584c-.6761-.244-.4064-.1227-.6835-.1487-.2808-.0489-.4471.0484-.4471.0484,0,0-.2328.2491-.2144.3637s.1809.4177.4912.9322c.2881.5181.3324.3698,1.0416,1.1023.7129.7554.4469.516,1.1857,1.0086.7351.4696,1.4407,1.0381,2.3162,1.5321.8977.4905.3288.2058.7536.4431s.1552-.025.7723-.43.2291-.1309,1.1602-.4219c.9533-.2945.4692-.052,1.2266-.0093s.2882.0947.857.5206.3435.5797.384.8318-.148.7764-.3107,1.461c-.1627.6847-.4694.6164-1.0497,1.5329s-1.471,2.024-1.763,2.3297-.2218.459-.4473.8951c-.2218.459-.2181.4819-.5877,1.0117s-.1664.3795-.3216.6867c-.1368.2807-.3917.3923-.5691.5619s-.3363.1717-.7021.3011c-.3695.1065-.4138-.0275-.6502-.0835-.2143-.0596-.532-.3377-.6907-.9001s-.6759-.8084-1.2964-1.5551c-.6168-.7238-.4062-.6872-.9898-1.4869s-.9308-.979-1.7767-1.8541c-.8237-.8787-.6723-.6444-1.4369-1.2974s-.6944-.6408-1.4997-1.4048c-.7831-.7676-.6538-.5297-1.2559-1.0208-.5799-.4946-.7351-.4696-.942-.4834-.2032.0092-.2882.0464-.5026.4101s.0073.187.1476.7758c.1661.6082.2105.3189.7497,1.1257.5614.8033.3435.2975,1.1303,1.2291.783.9087,1.363,1.5444,2.1977,2.4919.8385.9704,2.0463,2.1165,2.8626,2.9493.7978.8593.4026.382.9456,1.0707.5651.6851,1.1598,1.4125,1.374,1.6132s.4138.1686.5985.327c.1847.1584.3066.2093.5874.2582s.399-.0642.8166-.1549c.3954-.0871.3806-.1788.8905-.402s.4508-.1666.7723-.43.3806-.1788.691-.2288c.2882-.0464.2476-.0163.4877.0626s.2771.1671.3656.5761c.0886.409-.0149.4727-.1924,1.2068-.1775.7341-.1664.6617-.6064,2.026-.4363,1.3872-.6839,1.5446-1.3936,2.9287-.7097,1.3841-.7874,1.6083-1.6043,3.3154s-.647,1.7738-.8025,3.0688.1325,1.813.3058,3.4548.0403,1.381.1729,2.7707c.129,1.3667-.1925,1.489-.5365,3.026-.3662,1.5405-.5582,1.3362-1.0906,2.5507-.5323,1.2145-.5914.9888-1.2197,1.7484-.6283.7596-.8982,1.485-1.8554,2.7443-.9351,1.2558-1.1605,1.5507-1.9773,2.5523-.7946.998-.2292.4131-.876,1.4814-.6505,1.0454-.51.6465-1.009,1.2206-.4952.5971-.5211.7188-1.0533,1.0867-.5284.3908-.5469.2761-1.4262.3236-.8572.0439-.5837-.0942-1.2154-.4864-.6317-.3922-.9272-.5328-1.3852-1.1176-.458-.5848-.4543-.4207-.82-.9969-.3619-.5532-.1551-.3983-.2325-1.0208-.0811-.6454-.3878-.7137-1.0193-1.5292-.6316-.8155-.2253-.2695-1.1303-1.088-.9087-.8415-.5097-.6235-1.2595-1.467-.724-.8242-.65-.9301-1.252-2.1267-.5761-1.1772-.3027-1.1742-.4133-1.8619s.0149-.3316.1258-.7728c.111-.4412.1739-1.0392.3109-2.1666.1592-1.1309-.2399-1.0667-.3616-1.8232s-.1107-.5466-.3434-1.003c-.2363-.4793-.9309-.5557-1.3594-.816-.4285-.2603-.5762-.6128-1.2411-1.3524-.6612-.7167-.639-.5792-.7387-.9159-.1218-.3331.0555-.2206.1924-1.0657s-.0848-.6683-.2435-1.5129-.3767-.6449-.8199-1.138c-.4432-.4931-.7167-.2139-1.1637-.4477-.4248-.2374-.1663.2384-.2734.1381s-.3251-.324-.9973-.9683c-.6723-.6444-1.0492-.3015-2.3275-.6132-1.2783-.3117-1.7661.1901-2.5568.3644-.7944.1514-.6614.13-.9016.1921s-.207.2685-.6985.7474c-.4952.456-.7539.5446-1.9991.8626s-1.4299.0184-2.5641-.2459-1.8397-.9739-2.922-1.905-1.0416-1.1023-1.6732-2.0589c-.6279-.9337-.613-1.1242-1.1004-2.4568-.4911-1.3555-.0627-.5308-.2582-1.7457s.063-.5981.1409-1.81.063-.8803.4106-2.1121.2404-1.0499.6287-2.4529c.3661-1.3994.5545-1.3592,1.0277-2.376.4769-.9939.2365-.2262.7318-.8233.4916-.62.1257-.3495,1.0827-.6211s.2882-.0464.6392-.1264c.351-.08.2476-.1574.4288-.7275s.2958-.9883.2886-1.5986c-.0035-.5874-.0184-.2557.5396-.6042.5395-.322.3326-.1946,1.1049-.6246s.6134-.2868,1.4744-.7311c.8573-.4672.6947-.2059,1.7441-.6099,1.0494-.404.4914-.0556,1.3338-.1911.8203-.132.4545-.2848.4545-.2848,0,0,.8499-.513,1.9252-.8977s.5394-.0398,2.0321.0493.7832.2032,1.6588.5562.5504.4523,1.0601.9347c.4876.4859.3435.4386.7424.7977.3768.3627.3066.2093,1.0677.275s.4434-.0714,1.3042-.0923.9237-.0546,2.1208-.2472.7353-.2359,2.2909-.6038c1.5334-.3643,2.4349-.4154,3.3475-.5387s1.0641-.1712,1.8105-.3384c.7427-.1901.266-.0428.6466-.2216.4028-.1824.3401-.5721.3401-.5721,0,0,.1516-.6123.0484-1.2542s-.2067-.7193-.4431-1.0575c-.2364-.3382-.24-.5023-.3619-.6943-.1219-.192-.3398-.4157-.5799-.4946-.2623-.0754-.1995.0321-.4508.1666s-.2623.0657-.6762.3205-.3769.0606-1.2415.1998c-.8424.1356-.4359-.165-.931-.4146s-.3398-.4157-.3693-.599-.4616-1.031-.65-1.2124-.1588-.4213-.3139-.5374c-.1773-.1126-.4286.0219-.8239.1091-.4175.0907-.1589.1432-.5507.6765s-.0776.2241-.3586.8808c-.2773.6796.0147.2328-.2145.7871-.2107.5278-.1589.2843-.2218.459-.0665.1518-.6023.2145-.9311.1498-.351-.0611-.4027-.2409-.6575-.6938-.2585-.4758-.0627-.2486-.2252-.8339-.1587-.5624-.0516-.3209-.0959-.7371-.0442-.4162-.2548-.4529-.4173-.7559s-.1772-.3948-.4506-.68c-.2512-.2888-.3583-.3892-.6871-.5949-.3288-.2058-.1847-.1584-.9162-.3229-.7574-.1838-.3732-.0575-.7906-.1079-.4397-.0468-.3842-.1263-.6798-.1258-.2993-.0224-.5099-.0591-.8424-.0055s-.0887.0143-.1958.055.0074.0458.0701.2944c.0591.2257.4802.299.9235.5099.4396.1879.4322.1421,1.0972.4584.6428.3199.772.6989,1.1413,1.2979s.1219.192.4912.7911c.3693.599.1034.2185.2954.8461.192.6276.0332.3474.0368.6526.0258.3016-.1848.1238-.4803.1243-.2919.0235-.3103-.0912-.7795-.3214-.447-.2338-.2512-.2888-.6612-.7167-.4137-.4508-.2327-.3153-.7683-.6759s-.3805-.2445-1.1268-.5007c-.7684-.2526-.5172-.246-1.112-.409s-.266.0428-.8942.3791-.3547.0571-1.1971.1926-.6244.077-1.282-.0524c-.6576-.1293-.3658-.0117-.7537.1213-.4138.1136-.1663.2384-.5581.7718s-.122.3724-.3475.9496c-.2477.5807-.4066.865-.9278,1.5838s-.207.2685-.6911.7932-.5026.4101-.994.6068c-.4693.1931-.8203.132-1.4816-.0203s-.7019-.5455-1.1155-1.1374c-.4358-.5883-.229-.4335-.4431-1.0575s-.1107-.6877.0188-1.4376c.1332-.7269.5249-.837,1.4043-1.3078.8795-.4708,1.5814-.3486,2.0433-.4464s.7463-.026,1.2932-.1611c.5505-.1121.266-.0428.5136-.2002s.1146-.2771.026-.5451c-.0627-.2486-.2585-.3347-.676-.6673-.4137-.3097-.3989-.3591-.6206-.4645s-.2105-.3189-.229-.4335.0149-.3316.366-.835c.6837-.8391.6541-.7402.7503-.9909.1072-.323.0407-.1712-.1772-.5359-.1404-.1655-.4322-.2832-.6169-.4416s-.314-.2552-.4581-.3026c-.1699-.0667-.4691-.3713-.4284-.6836,0,0-.1217-.7565.174-1.4625.2736-.7025.2883-.6108.5877-1.0117.2994-.4009.3881-.4152.5913-.5655.2254-.1539.2439-.0392.2439-.0392l.1884.1813s-.1183.2542-.1849.5471c-.0703.27.0886.409.2067.8604s.3175.8425.4541,1.2674.1662.326.3583.5303.0886.409.3324.5109.1774-.0285.5321-.0856.3769-.0606.7279-.1407c.351-.08.2402-.0622.2402-.0622l.17-.2155-.0036-.4462s.1368-.2807.7391-.7774c.6061-.4738.6578-.4351,1.3192-.7061.6799-.2975.3547-.0571,1.3523-.2176s.436-.1172,1.2489-.295c.8166-.1549.34-.1488.9607-.3898s.484-.1014.7981-.2695.2365-.0851.4324-.2812c.2217-.1768.0296-.2399.1886-.8064.1812-.57.0444-.4305.1592-1.1309.0925-.6969-.0442-.4162.0187-1.0142.063-.5981-.0369-.3703-.2436-1.0896s-.1181-.3102-.4654-.6306c-.1071-.1003-.1588-.1391-.1884-.1813-.0222.0036-.1552.025-.3288.0764-.2402.0622-.1478.2119-.4435.6358-.2957.4239-.0555.2206-.2515.84-.196.6195-.1035.3459-.1258.7728s.0738.3174.1956.7916c.0996.4778.0923.432.1735.6541.0591.2257.0701.4355.0701.4355,0,0-.1774.1696-.7981.2695s-.4692.052-1.09.1519-.9606-.1747-1.2155-.2042c-.2512-.0066-.8238-.3142-1.2006-.6769-.3546-.3662-.2807-.4722-.3804-.8089-.0775-.3403-.1698-.6312-.2141-.7651-.0443-.134.2365-.0851,1.1049-.6246.8721-.5166.547-.5584,1.3082-1.1982.765-.617,1.0237-.9878,1.4376-1.3837.4139-.3958.244-.4626.3623-.8579.1146-.4182.4509-.731,1.2861-1.4769.8315-.7688.2291-.1309.7945-.4336.5875-.3062.266-.0428.7094-.1142s.5321-.0856.6724.0799.2327.3153.4654.4895c.2327.1742.3251.1829.8607.5435s.3214.1599.8054.3407.5246.2919.8127.3866c.2845.0718.3473.0382.5838-.0469.2623-.0657.1442-.2348.5951-.9659s.7835-1.0668,1.2899-1.5951c.4841-.5247.122-.2313.473-.4524.3474-.244.4249-.186.8979-.3561s.2845-.0693.6097-.3098c.1219-.0902.1848-.1238.2254-.1539-.0111-.0688-.0591-.2257-.229-.2924-.218-.0825-.5283-.1737-1.0788-.3438-.5246-.1507-.5541-.3341-1.075-.7442-.5245-.433-.6575-.5527-1.0121-1.06s-.4211-.4966-.8273-1.0427c-.4321-.5654-.3361-.5338-.3361-.5338l-.0184-.1146c18.6211.6721,35.0003,12.7109,40.9296,30.194Z"/><path id="path5771" class="cls-16" d="m659.3927,739.3925c-.1031-1.2063-.1549-1.245-.0401-2.0865.1111-.8645-.1402-.8711.6396-1.8197.7761-.9715.6172-.6872,1.3452-1.3923.728-.7051.7318-.9644,1.0126-1.0566.2808-.0922.4324-.2812.6798-.0153s.4138-.1136.4321.8476.0367,1.0759-.2961,2.1171c-.3365,1.0183-.0149.4727-.6285,1.6062-.6321,1.16-.3365,1.0183-.8281,1.7794-.4694.7575-.4215,1.3377-.8317,1.4743-.4065.1595-.7723.2889-.9274.3139s-.1478-.0703-.277-.4493c-.1366-.4248-.2805-1.3189-.2805-1.3189h0Z"/><path class="cls-6" d="m635.9361,677.1552c6.2888,27.3494,10.5308,54.5578,12.9253,82.581"/><path class="cls-6" d="m622.7344,679.2092c2.6051,27.9187,7.0872,55.0649,13.6015,82.4016"/><path class="cls-6" d="m610.56,680.4393c-2.7525,28.969,1.1615,52.8673,12.8485,79.4185"/><path class="cls-6" d="m600.1495,690.369c-9.7051,25.7607-7.1672,41.8141,10.5987,63.6009"/><path class="cls-6" d="m647.6085,673.7953c.0074.0458.0332.0652.0406.111,11.9455,27.027,15.7671,51.1989,12.8667,80.5209"/><path class="cls-6" d="m659.4228,678.8081c19.0773,22.8692,21.8183,39.3368,10.5312,67.5626"/><path class="cls-6" d="m675.7898,695.7168c-26.2062,13.5299-54.8709,18.1427-83.9987,13.5173"/><path class="cls-6" d="m665.6436,683.263c-21.4282,10.4328-44.5062,14.1466-68.1256,10.963"/><path class="cls-6" d="m647.4607,673.8661c-11.4952,4.0369-23.4222,5.9562-35.6036,5.7294"/><path class="cls-6" d="m680.8144,710.9703c-27.8283,13.7674-58.2184,18.6814-88.9868,14.32"/><path class="cls-6" d="m679.5573,728.8809c-25.6514,11.0419-53.0968,15.4585-80.9172,13.0214"/><path class="cls-6" d="m665.9776,750.35c-15.5152,4.6368-31.5213,7.2125-47.7079,7.6773"/><path class="cls-6" d="m626.6875,658.408c.6638-.1068,1.3262-.2023,1.987-.2867,3.3425-.4269,6.646-.5705,9.9047-.4663,24.7982.84,46.6454,16.8978,54.5541,40.2175,1.044,3.0943,1.8317,6.2925,2.368,9.6253,1.4913,9.2673.7284,18.3819-1.8883,26.7968"/><path class="cls-6" d="m640.3486,776.3415c-17.4133,1.2956-33.8947-4.9775-45.8331-16.2377-9.1543-8.6273-15.6269-20.1955-17.7673-33.4961-.5462-3.3939-.7819-6.7437-.7416-10.0752.0878-8.2465,1.9278-16.2066,5.1986-23.4565"/><path class="cls-17" d="m654.9409,763.3142c-.2508-.3965-1.7728-.952-3.776-1.1645-1.5401-.1633-4.3032.0477-6.3804.4407-2.0054.3794-4.2024.805-8.8112,3.2512l1.6718,3.092s2.0633-.8763,3.379-1.3692c1.2276-.4598,2.165-.7283,2.165-.7283l1.41,4.9527.0019-.0005.2852,1.0004.3171,1.1264.0191.0756.2902.9562.0421.1663.2599.9638.023.0907.3284,1.1074.5197,1.8634.1336.4649.0764.2381.065.257.0572.1625.0767.3668.0916.2985.8099,2.8196s.0193.1399.2619.3359c.2314.215.3561.1995.3561.1995l2.5438-.6918s.2268-.0574.3511-.2657c.1092-.2046.0783-.3899.0783-.3899l-1.1599-3.5675-.8126-2.4489-.2137-.6538-.3473-1.1187-.3357-1.009-.3625-1.1149-.1184-.4044-.5419-1.6968-.121.0306-.0548.0155.0522-.0149.1199-.0304-1.6885-5.0789s3.2546-.9927,4.8526-1.3238c1.7227-.357,3.5382-.4351,3.5382-.4351,0,0,.9015-.1203.5471-.7688Z"/><path class="cls-17" d="m661.145,779.2539l-5.6977-12.6524,8.8129-4.1697.6721,1.491-7.2092,3.3942,1.7392,3.8826,6.7436-3.1782.6721,1.491-6.7436,3.1782,1.9423,4.2967,7.4827-3.5323.6721,1.491-9.0863,4.3078Z"/><path class="cls-17" d="m673.7825,772.705l-8.4618-10.8906,4.6378-3.827c.9239-.7601,1.7073-1.2625,2.3576-1.4612.6281-.1952,1.2895-.184,1.9693.0829.6798.2669,1.2486.6927,1.7066,1.2775.602.7732.8752,1.6229.7974,2.5526s-.5621,1.8777-1.4527,2.8442c.5025-.1279.9274-.1728,1.2488-.1539.7131.0499,1.4667.2108,2.2647.5057l4.1266,1.476-1.748,1.4336-3.1402-1.1409c-.9162-.3229-1.6329-.5368-2.1575-.6876-.5209-.1278-.9606-.1747-1.2746-.1476s-.5986.0963-.8498.2308c-.1885.1009-.4545.2848-.8167.5782l-1.6075,1.3169,3.76,4.8509-1.36,1.1595Zm-3.3456-7.2222l2.9712-2.4536c.643-.5268,1.068-.995,1.3157-1.4346s.3586-.8808.3107-1.3199-.2067-.8604-.4911-1.2144c-.4026-.5231-.9013-.7956-1.522-.8368s-1.3228.2599-2.084.8998l-3.3148,2.7205,2.8144,3.639Z"/><path class="cls-17" d="m685.283,762.4823l-10.7753-8.4488,3.5777-4.9029c.7281-.9873,1.3712-1.6552,1.9291-2.0037.5802-.352,1.2157-.5013,1.9324-.4286.7168.0728,1.3743.3432,1.9506.8149.7573.6072,1.2189,1.356,1.3665,2.2729s-.0929,1.9668-.725,3.1268c.4619-.239.8684-.3984,1.1787-.4484.6836-.1335,1.4742-.1667,2.3277-.0924l4.3375.3838-1.3416,1.8386-3.2993-.2922c-.968-.0794-1.7032-.1257-2.2463-.1088s-.968.0617-1.2673.1804-.5506.2532-.7723.43c-.1589.1432-.3696.3887-.6505.7631l-1.2271,1.7026,4.7874,3.7449-1.0829,1.4677Zm-4.953-6.1875l2.2915-3.1438c.4842-.6658.8021-1.2344.95-1.7285s.1443-.9404-.0144-1.3617c-.1588-.4213-.3988-.7824-.7608-1.0534-.5172-.3871-1.0639-.5343-1.681-.4115-.5949.1192-1.2009.593-1.796,1.4178l-2.5539,3.4917,3.5647,2.7893Z"/><path class="cls-17" d="m693.906,749.6419l-12.3869-5.6026,3.8411-9.2018,1.4703.657-3.135,7.5125,3.8014,1.7164,2.9391-7.0342,1.4482.6606-2.9391,7.0342,4.2189,1.9079,3.2459-7.8126,1.4703.657-3.9742,9.5054Z"/><path class="cls-17" d="m593.2758,692.6762c-.0545-.2367-.2186-.3412-.2186-.3412l-3.6872-1.8614-2.384-1.1875-.641-.3224-1.0701-.5479-.996-.4943-1.086-.5453-.3921-.1988-1.5151-.7708-4.3282-2.1837s1.7413-3.1115,2.8826-4.3588c1.1412-1.2474,3.1398-2.8619,3.1398-2.8619,0,0,.0002-.5073-.4614-.6294-.4748-.1037-2.3439.1807-3.7638.9165-1.4174.7518-4.339,3.5459-5.6075,5.2228-1.2843,1.6796-3.1479,3.8288-3.7409,9.1938l3.6937.6821s.1301-2.3449.7346-3.5713c.5886-1.2239,1.3549-1.9529,1.3549-1.9529l4.3616,2.3912,2.0816,1.138,1.0592.5823.9878.5448,1.0592.5823,1.7585.9608.4316.2415.233.1261.2331.1262.1615.0886.3256.193.2861.1503,2.6747,1.468s.1111.0803.4327.0449c.3241-.0195.4071-.1147.4071-.1147l1.5506-2.2624s.1127-.2145.0424-.4487Z"/><path class="cls-17" d="m593.8878,687.3553l-10.221-8.8202,3.7365-4.6227c.7613-.9221,1.4081-1.5671,1.9919-1.8962.5838-.3291,1.2046-.429,1.9029-.3297.702.1222,1.3411.4191,1.8952.8944.7166.6372,1.1339,1.3932,1.2593,2.3137.0995.9011-.1668,1.9317-.8506,3.053.4656-.216.8536-.349,1.1861-.4025.6909-.0877,1.441-.0908,2.2796.0329l4.2561.585-1.4044,1.7311-3.2327-.444c-.931-.1324-1.67-.2016-2.2168-.2077-.5283-.0326-.9532.0123-1.2562.1081-.303.0958-.5543.2303-.7797.3842-.1626.1202-.3733.3658-.68.7209l-1.2899,1.5951,4.5435,3.9252-1.1198,1.3796Zm-4.5872-6.3169l2.4097-2.9746c.5137-.6236.8575-1.1727,1.0091-1.6439.1516-.4712.1702-.921.0336-1.3459-.1366-.4248-.3545-.7896-.6943-1.0641-.4765-.4172-1.027-.5873-1.6255-.491s-1.212.5243-1.8366,1.3068l-2.6758,3.2997,3.3799,2.9131Z"/><path class="cls-17" d="m602.68,677.4037l-8.7242-10.4016,1.3119-1.1753,8.7021,10.4051-1.2897,1.1717Z"/><path class="cls-17" d="m605.8397,674.426l-7.0835-11.6533,4.2053-2.6992c.8684-.5395,1.6111-.8707,2.2762-.9777s1.2747.0065,1.8694.3106c.5948.3041,1.0491.7248,1.363,1.2622.3065.4916.4653,1.0539.4725,1.6642.0072.6103-.1703,1.2032-.5251,1.8248.8055-.2237,1.537-.2003,2.2131.0436.6576.2705,1.2117.7457,1.6142,1.4099.3361.5338.5207,1.1156.5981,1.7381.0516.6031.0034,1.1518-.1741,1.6036-.1738.4748-.4658.9216-.8723,1.3633-.4065.4417-.9719.8854-1.6925,1.3541l-4.2644,2.7557Zm-2.6028-7.6945l2.4352-1.5442c.6615-.4122,1.1049-.7657,1.3341-1.0378.3068-.3551.4731-.7346.5028-1.1156s-.0811-.7865-.3285-1.1935c-.2438-.3841-.5393-.6658-.8865-.845-.3473-.1793-.7389-.2103-1.1342-.1232-.3917.1101-1.0014.4198-1.8069.9257l-2.2467,1.4433,2.131,3.4903Zm3.2537,5.3792l2.7826-1.7882c.473-.3113.8019-.5288.9793-.6985.2956-.2827.5211-.5777.6579-.8584.1331-.3036.1923-.6424.1776-1.0163-.0147-.3739-.1439-.7529-.384-1.1141-.2733-.4264-.5984-.7503-1.0121-.9189-.4175-.1915-.8313-.219-1.2894-.0982s-1.0494.404-1.7515.8463l-2.5978,1.6644,2.4375,3.9819Z"/><path class="cls-17" d="m619.7189,652.4148l1.6591-.5727,2.5253,7.4953c.4356,1.2939.6349,2.3906.6162,3.2638s-.3219,1.6745-.9095,2.404c-.5876.7295-1.4708,1.3185-2.6754,1.7475-1.1639.399-2.2096.5437-3.0778.3777-.8904-.1624-1.6181-.5862-2.2054-1.2678-.5873-.6816-1.1154-1.7019-1.5658-3.0874l-2.5253-7.4953,1.6591-.5727,2.5216,7.4724c.384,1.1141.7643,1.923,1.1337,2.3809s.8718.7534,1.4592.8705,1.2377.0595,1.9472-.1958c1.2268-.4326,1.9991-1.0037,2.3096-1.7592.3327-.759.2111-1.9388-.3242-3.5694l-2.5474-7.4918Z"/><path class="cls-13" d="m728.7423,694.0194c-9.6118,1.2725-30.6039,6.1722-30.6039,6.1722,0,0-2.3959-5.3136-4.2056-15.3855-.5861-3.2622.1388-16.7171-.6915-32.807,6.8586,1.7198,14.7557,5.2956,22.3135,12.9922,12.3393,12.5655,12.2827,18.2827,13.131,28.3032.0206.2339.0386.4756.0565.7249Z"/><path class="cls-18" d="m750.4748,660.8113c-.6157-7.6773.1602-15.9129-2.0103-30.0975-.2705-1.7679-1.2571-3.4087-2.0591-5.1337l-54.7555,8.6992c.4421,3.2879.7892,6.5784,1.0591,9.8149.2262,2.6838.3985,5.3264.5321,7.9048,6.8586,1.7198,14.7557,5.2956,22.3135,12.9922,12.3393,12.5655,12.2827,18.2827,13.131,28.3032.0206.2339.0386.4756.0565.7249,1.4447-.1902,2.6324-.3008,3.4524-.2982,6.2827.0103,16.3007-.9254,19.0488-2.6941,0,0-.4951-26.8047-.7687-30.2158Z"/><path class="cls-3" d="m750.4748,660.8113c-.11-5.9792-.11-15.7431-2.0103-30.0975-.2347-1.773-1.2571-3.4087-2.0591-5.1337l-54.7555,8.6992c.4421,3.2879.7892,6.5784,1.0591,9.8149.2262,2.6838.3985,5.3264.5321,7.9048.8303,16.0899.1054,29.5448.6915,32.807,1.8098,10.0719,4.2056,15.3855,4.2056,15.3855,0,0,20.9922-4.8997,30.6039-6.1722,1.4447-.1902,2.6324-.3008,3.4524-.2982,6.2827.0103,16.3007-.9254,19.0488-2.6941,0,0-.7057-26.7944-.7687-30.2158Z"/><text class="cls-8" transform="translate(697.0677 661.9371) rotate(-8.7936)"><tspan x="0" y="0">2</tspan></text><text class="cls-8" transform="translate(709.4297 660.0233) rotate(-8.7921)"><tspan x="0" y="0">0</tspan></text><text class="cls-8" transform="translate(721.7863 658.0937) rotate(-8.5711)"><tspan x="0" y="0">2</tspan></text><text class="cls-8" transform="translate(734.1087 656.2415) rotate(-7.3639)"><tspan x="0" y="0">4</tspan></text><text class="cls-9" transform="translate(698.6606 680.0114) rotate(-9.2881)"><tspan x="0" y="0">2</tspan></text><text class="cls-9" transform="translate(710.9289 677.9818) rotate(-7.7334)"><tspan x="0" y="0">0</tspan></text><text class="cls-9" transform="translate(723.471 676.5124) rotate(-7.2241)"><tspan x="0" y="0">2</tspan></text><text class="cls-9" transform="translate(736.4933 674.7008) rotate(-12.1228)"><tspan x="0" y="0">5</tspan></text><text class="cls-10" transform="translate(699.5459 694.8516) rotate(-12.6652)"><tspan x="0" y="0">E</tspan></text><text class="cls-10" transform="translate(703.874 693.8779) rotate(-12.0652)"><tspan x="0" y="0">S</tspan></text><text class="cls-10" transform="translate(708.2324 692.9463) rotate(-11.3864)"><tspan x="0" y="0">T</tspan></text><text class="cls-10" transform="translate(711.666 692.2549) rotate(-10.9707)"><tspan x="0" y="0">.</tspan></text><text class="cls-10" transform="translate(713.6816 691.8643) rotate(-10.5474)"><tspan x="0" y="0">:</tspan></text><text class="cls-10" transform="translate(715.6846 691.4902) rotate(-10.0659)"><tspan x="0" y="0"> </tspan></text><text class="cls-10" transform="translate(717.6797 691.127) rotate(-9.1601)"><tspan x="0" y="0">2</tspan></text><text class="cls-10" transform="translate(721.7227 690.4688) rotate(-7.3427)"><tspan x="0" y="0">2</tspan></text><text class="cls-10" transform="translate(725.7793 689.9609) rotate(-4.9918)"><tspan x="0" y="0">.</tspan></text><text class="cls-10" transform="translate(727.7891 689.7949) rotate(-3.2171)"><tspan x="0" y="0">0</tspan></text><text class="cls-10" transform="translate(731.8711 689.5693) rotate(-3.9856)"><tspan x="0" y="0">3</tspan></text><text class="cls-10" transform="translate(735.9658 689.2773) rotate(-4.9133)"><tspan x="0" y="0">.</tspan></text><text class="cls-10" transform="translate(738.0127 689.1201) rotate(-6.5026)"><tspan x="0" y="0">2</tspan></text><text class="cls-10" transform="translate(742.3311 688.6523) rotate(-11.8068)"><tspan x="0" y="0">4</tspan></text><path class="cls-20" d="m773.4308,652.3945c4.777,9.966,8.1092,21.4608,19.3625,26.7619l2.2342-8.4657c-8.0206-3.854-10.3748-8.2472-15.3828-21.531-4.943-13.1043-17.6169-26.1208-40.1153-31.5396l.6333,6.2185c21.8349,7.9794,27.9013,17.351,33.268,28.5559Z"/><path class="cls-19" d="m741.0201,632.205c.1374.0432.2766.0856.4149.1306,13.4155,4.2001,21.0912,12.4047,26.8942,25.6106,1.7,3.8689,3.3576,7.2288,4.9871,10.1409,6.1674,11.0254,11.9088,15.6483,17.8121,17.3694l1.6649-6.3001c-11.2534-5.3011-14.5855-16.796-19.3625-26.7619-5.3667-11.2049-11.4331-20.5765-33.268-28.5559l.1265,1.2306.7071,6.9056.0237.2302Z"/><path class="cls-1" d="m792.7933,679.1565l2.2342-8.4657c-8.0206-3.854-10.3748-8.2472-15.3828-21.531-4.943-13.1043-17.6169-26.1208-40.1153-31.5396l.6333,6.2185"/><path class="cls-5" d="m740.2892,625.0693l.7071,6.9056.0237.2302c.1374.0432.2766.0856.4149.1306,13.4155,4.2001,21.0912,12.4047,26.8942,25.6106,1.7,3.8689,3.3576,7.2288,4.9871,10.1409,6.1674,11.0254,11.9088,15.6483,17.8121,17.3694l1.6649-6.3001"/><path class="cls-7" d="m780.9147,678.8604c3.2421,3.4332,6.4334,5.3838,9.6666,6.4286-.6766-6.2217-.9211-12.5628-.8962-17.9359-3.3512-2.8288-5.4622-6.6435-8.1193-13.2341-1.0405,5.9249-1.1528,16.2158-.6511,24.7414Z"/><path class="cls-7" d="m768.2913,657.8591c1.2493-7.6014,3.0903-15.002,4.7185-20.322-1.9924-2.5143-4.33-4.9337-7.0329-7.1914-1.6199,4.2042-3.2521,9.9237-4.5702,15.5614,2.6288,3.4098,4.8678,7.3798,6.8847,11.952Z"/><path class="cls-7" d="m742.9259,632.8278c3.2772,1.1355,6.1958,2.5284,8.8229,4.1945.3094-5.2123.8826-10.3019,1.5369-14.6576-2.6711-1.2448-5.5436-2.3613-8.623-3.3246-.7553,4.4331-1.3595,9.3181-1.7368,13.7877Z"/><path class="cls-20" d="m768.6233,690.3017l5.9883-5.5356c-1.1219-4.5117-1.3845-8.2799-1.2953-16.679.0049-.4703.0116-.9504.0195-1.4508.2247-15.8098-9.1455-40.5921-27.0046-46.285l-4.9475,3.8621c17.2189,8.6641,26.4658,27.754,25.4476,42.2172-.5752,8.1579-2.3365,15.2561,1.7921,23.8711Z"/><path class="cls-19" d="m763.1824,695.3302l5.4409-5.0285c-4.1286-8.6149-2.3673-15.7132-1.7921-23.8711,1.0182-14.4632-8.2287-33.5531-25.4476-42.2172l-1.0945.8558-4.1253,3.224c1.6937,1.2002,3.3057,2.4268,4.8325,3.6816.1462.1203.2915.2388.4386.3608,14.6311,12.1862,21.322,26.7611,18.4639,41.2133-1.4126,7.1423.1295,14.9042,3.2836,21.7813Z"/><path class="cls-1" d="m768.6233,690.3017l5.9883-5.5356c-1.1219-4.5117-1.3845-8.2799-1.2953-16.679.0049-.4703.0116-.9504.0195-1.4508.2247-15.8098-9.1455-40.5921-27.0046-46.285l-4.9475,3.8621"/><path class="cls-5" d="m740.2892,625.0693l-4.1253,3.224c1.6937,1.2002,3.3057,2.4268,4.8325,3.6816.1462.1203.2915.2388.4386.3608,14.6311,12.1862,21.322,26.7611,18.4639,41.2133-1.4126,7.1423.1295,14.9042,3.2836,21.7813l5.4409-5.0285"/><path class="cls-7" d="m762.4805,693.7195c3.2672-7.1011,7.3571-14.1639,10.8553-19.5468-.0415-1.7442-.0455-3.7329-.0195-6.0854.0049-.4703.0116-.9504.0195-1.4508.0306-2.1439-.1163-4.4544-.4363-6.8589-3.8491,4.0656-9.3214,12.4643-13.5195,19.9883l.0009.0018c.1018,4.7053,1.2522,9.4844,3.0997,13.9519Z"/><path class="cls-7" d="m759.6625,659.2854c2.3786-6.9625,5.2173-13.5879,7.5604-18.3624-1.5222-3.1531-3.3237-6.1708-5.3984-8.9001-2.3267,3.8657-4.9697,9.458-7.2732,15.0483,2.4433,3.9699,4.161,8.0609,5.1113,12.2142Z"/><path class="cls-7" d="m737.3875,629.1765c1.2506.9163,2.4542,1.8488,3.6089,2.7984.1462.1203.2915.2388.4386.3608,1.3865,1.1558,2.7038,2.332,3.9457,3.5293.8957-5.2219,2.0578-10.3159,3.2215-14.668-.7398-.3159-1.4967-.5992-2.271-.8456l-6.042,4.7179-2.4282,1.898c-.1647.7434-.3231,1.4816-.4735,2.2092Z"/><path class="cls-12" d="m756.192,596.2024c5.6504-8.5835,5.3136-18.8945.275-29.7556-.9819-2.1183-2.1387-3.9229-3.4473-5.4678-.5861,5.6735,1.7327,8.514.6838,11.7531-.6529,2.0154-4.5347,6.9511-10.7351,11.6452-5.6375,4.275-13.1927,8.3495-21.9793,9.8611-18.4524,3.1722-31.0179,3.964-44.0383,4.1902-13.0179.2262-21.2827-1.8123-35.0924-1.473-13.8097.3394-24.5654,2.7172-43.6964-.7917-19.131-3.509-31.9227-9.6221-34.0743-26.6039-.5193-4.0926-.2751-7.8174.3959-11.1131-5.8867,5.3313-3.9841,10.3565-5.4622,14.7935-1.6966,5.0925-5.0647,9.6794-3.7074,14.4326.5527,1.9383,1.982,5.0359,3.6786,8.1182-2.4422,7.311-6.9614,17.7223-6.5656,21.4292.2776,2.5809.653,6.4653,6.108,10.7274,4.5912,3.5861,12.7737,7.437,27.514,11.0077,23.3109,5.6426,44.2286,8.7146,58.7812,8.5115h.0026c5.5887-.0771,10.2339-.6376,13.7223-1.7198,2.5656-.7969,4.7969-1.5579,6.7892-2.2622h.0026c10.0745.2853,13.437-1.054,17.9999-.7944,5.3882.3085,9.5218,3.2673,23.4112-.108,1.4293-.3445,2.9589-.7584,4.6067-1.2493,16.059-4.7866,30.0126-4.3804,40.3262-12.9485.1157-.0977.2314-.1953.347-.293.9048-.7764,1.7815-1.6221,2.6273-2.5501,9.0848-9.964,2.1414-9.054,1.527-29.3366v-.0026Z"/><path class="cls-15" d="m756.192,596.205c.6144,20.2827,7.5578,19.3727-1.527,29.3366-.8458.928-1.7224,1.7738-2.6273,2.5501-.1157.0977-.2313.1954-.347.293-10.3136,8.5681-24.2672,8.1619-40.3263,12.9485-1.6478.491-3.1774.9049-4.6067,1.2493,4.0694-3.2005,8.9331-6.4858,12.5321-7.2493,7.4704-1.5861,9.2827-4.0771,12.3393-8.2647,3.0565-4.1876,5.7738-10.3007,5.7738-10.3007-5.8869-.1131-9.5089,1.018-20.8302,2.036-11.3213,1.0206-33.4368,4.9126-47.064,4.5707-13.6272-.3393-23.185-6.3239-23.185-6.3239,9.8457,1.6966,53.8352,2.0385,80.3235-6.9614,21.9228-7.4473,20.82-17.6889,16.3213-25.7119,6.2005-4.6941,10.0822-9.6298,10.7351-11.6452,1.0489-3.2391-1.2699-6.0796-.6838-11.7531,1.3085,1.545,2.4653,3.3496,3.4473,5.4678,5.0386,10.8611,5.3753,21.1721-.275,29.7556v.0026Z"/><path class="cls-2" d="m756.192,596.2024c5.6504-8.5835,5.3136-18.8945.275-29.7556-.982-2.1183-2.1388-3.9229-3.4473-5.4678-.5861,5.6735,1.7326,8.5141.6838,11.7531-.6529,2.0154-4.5347,6.9511-10.7351,11.6452-5.6375,4.275-13.1927,8.3496-21.9793,9.8611-18.4524,3.1722-31.0178,3.964-44.0383,4.1902-13.0179.2262-21.2827-1.8123-35.0924-1.473-13.8097.3393-24.5654,2.7172-43.6964-.7918-19.131-3.509-30.1677-7.5016-32.3193-24.4835-.5193-4.0925-2.4547-10.3987-1.7837-13.6943-5.2923,2.8867-5.0664,12.6406-5.9715,16.9807-1.0959,5.2547-4.1308,7.953-2.7735,12.7062.5527,1.9383,1.982,5.036,3.6786,8.1182-2.4421,7.311-6.9614,17.7223-6.5655,21.4292.2776,2.581.6529,6.4653,6.1079,10.7275,4.5912,3.5861,12.7737,7.437,27.514,11.0077,23.3109,5.6426,44.2286,8.7146,58.7812,8.5115h.0026c5.5887-.0771,10.2339-.6375,13.7223-1.7198,2.5655-.7969,4.7969-1.5578,6.7892-2.2622h.0026c10.0745.2853,13.4369-1.054,17.9999-.7943,5.3882.3085,9.5218,3.2673,23.4112-.108,1.4293-.3445,2.9589-.7584,4.6067-1.2493,16.059-4.7866,30.0127-4.3804,40.3263-12.9485.1157-.0977.2313-.1954.347-.293.9049-.7764,1.7815-1.6221,2.6273-2.5501,9.0848-9.9639,2.1414-9.0539,1.527-29.3366v-.0026Z"/><path class="cls-2" d="m558.9925,595.7911c2.4601,4.473,5.6321,8.0143,11.2643,9.712"/><path class="cls-2" d="m756.192,596.205c-2.6555,4.0308-6.6272,7.6786-12.0539,10.8277"/><path class="cls-2" d="m665.3467,643.4849c7.766-2.7429,14.7746-6.3415,18.1708-6.3127"/><path class="cls-11" d="m738.8245,788.0574c-5.7764-3.0797-13.2648-4.347-19.3084-4.5115-11.0334-.3007-24.2595,5.3059-27.5269,13.6503-.4293,1.0925-.6864,2.2339-.7455,3.4139-.509,10.1902,12.7351,6.8766,21.9048,11.0385,9.1696,4.1593,16.5552,2.6323,20.1232,2.1208,3.5656-.509,15.0256.5115,14.6863-12.5655-.1594-6.1773-3.9614-10.3907-9.1336-13.1465Z"/><path class="cls-14" d="m733.2718,813.7694c-3.5681.5116-10.9537,2.0385-20.1233-2.1208-9.1696-4.1619-22.4138-.8483-21.9048-11.0385.0591-1.18.3162-2.3213.7455-3.4139,4.6195,3.5141,5.8432,5.1156,12.8663,5.3393,8.8868.2828,7.473-.5656,11.9999-.3393,4.5295.2262,12.3958,2.7172,17.2081-4.6992,2.8175-4.3444,4.2185-6.2802,4.7609-9.4395,5.1722,2.7558,8.9742,6.9691,9.1336,13.1465.3393,13.0771-11.1208,12.0565-14.6863,12.5655Z"/><path class="cls-4" d="m747.9581,801.2039c-.1594-6.1773-3.9614-10.3907-9.1336-13.1465-5.7763-3.0797-13.2647-4.347-19.3084-4.5116-11.0334-.3007-24.2595,5.3059-27.5268,13.6503-.4293,1.0925-.6864,2.2339-.7455,3.4139-.509,10.1901,12.7351,6.8766,21.9048,11.0385,9.1696,4.1593,16.5552,2.6324,20.1233,2.1208,3.5656-.509,15.0256.5116,14.6863-12.5655Z"/></svg>