<?xml version="1.0" encoding="UTF-8"?><svg id="Calque_3" xmlns="http://www.w3.org/2000/svg" xmlns:xlink="http://www.w3.org/1999/xlink" viewBox="0 0 850.3937 850.3937"><defs><style>.cls-1,.cls-2,.cls-3,.cls-4,.cls-5,.cls-6,.cls-7,.cls-8,.cls-9,.cls-10{stroke-miterlimit:10;}.cls-1,.cls-2,.cls-3,.cls-5,.cls-6,.cls-7,.cls-9,.cls-10,.cls-11,.cls-12,.cls-13,.cls-14,.cls-15,.cls-16,.cls-17{stroke-width:2px;}.cls-1,.cls-5,.cls-6,.cls-7,.cls-8{fill:none;}.cls-1,.cls-5,.cls-9,.cls-10{stroke:#cc9a1d;}.cls-1,.cls-18,.cls-19,.cls-20{fill-rule:evenodd;}.cls-21{fill:url(#Dégradé_sans_nom_2);stroke:#b27027;}.cls-22,.cls-19{fill:#ffd305;}.cls-23{fill:#7d4621;}.cls-24{fill:#b79400;}.cls-25{fill:#8e4819;}.cls-26,.cls-3{fill:#a65822;}.cls-27{fill:#367840;}.cls-28{fill:#3e873e;}.cls-29{fill:#52ac52;}.cls-30{fill:#2d4393;}.cls-31{fill:#475da6;}.cls-32{fill:#394e87;}.cls-33,.cls-4,.cls-11{fill:#4c4c4c;}.cls-2{fill:#9db0db;}.cls-2,.cls-3,.cls-4,.cls-6,.cls-34,.cls-8,.cls-11{stroke:#4c4c4c;}.cls-7{stroke:#e8b521;}.cls-18{fill:#3c2f24;opacity:.4;}.cls-34{fill:#5e5e5e;}.cls-35{fill:#f4f4f4;stroke:#2b2523;}.cls-9,.cls-20{fill:rgba(244,188,32,.9922);}.cls-10{fill:rgba(168,140,26,.9922);}.cls-12{fill:#77932b;}.cls-12,.cls-14,.cls-15,.cls-16{stroke:#6b7c27;}.cls-13{fill:#cc1f1f;stroke:#9f2224;}.cls-14{fill:#a9c943;}.cls-15{fill:#96bb38;}.cls-16{fill:#8ea831;}.cls-17{fill:#dbdbdb;stroke:#b2b2b2;}</style><linearGradient id="Dégradé_sans_nom_2" x1="318.8975" y1="226.3785" x2="526.3051" y2="123.7284" gradientUnits="userSpaceOnUse"><stop offset="0" stop-color="#edab31"/><stop offset=".1225" stop-color="#eeaf3b"/><stop offset=".7088" stop-color="#f6c56c"/><stop offset="1" stop-color="#face7f"/></linearGradient></defs><path class="cls-32" d="m425.9367,630.2515c-.0092,4.2368-.0735,8.5012-.1838,12.7748,0,.1471-.0092.3033-.0092.4504-.0551,2.0311-.1194,4.0714-.193,6.1117-.0459,1.397-.0919,2.8031-.1471,4.2093,0,.147-.0091.3033-.0183.4503-.0092.2665-.0184.5239-.0276.7904-.1746,4.2828-.3676,8.5748-.5882,12.8667-.0091.1471-.0183.3033-.0275.4503-.1746,3.4281-.3676,6.8469-.579,10.275v.0735c-.0092.1471-.0184.3033-.0276.4503-.0183.2666-.0275.5239-.0459.7904-.2665,4.292-.5514,8.5839-.8455,12.8667-.0184.1562-.0276.3032-.0367.4503-.1838,2.6285-.3768,5.2569-.5882,7.8763-.0735.9742-.1471,1.9392-.2206,2.9042-.0184.2666-.046.5331-.0643.7996-.3492,4.2828-.7077,8.5656-1.1029,12.8392-.0735.8088-.147,1.6083-.2298,2.4079-.2206,2.4447-.4595,4.8894-.7077,7.3248l-.1011,1.0018c-.0184.147-.0275.3033-.0459.4503-.0276.2665-.0551.5239-.0827.7904-.4503,4.2552-.9191,8.5104-1.4429,12.738-.0183.1471-.0367.3033-.0551.4504-.1103.9099-.2298,1.8197-.3492,2.7296v.0184c-.0551.4319-.1103.8731-.1654,1.305-.0459.34-.0919.6893-.147,1.0385-.0459.3492-.0919.6985-.1379,1.0385-.1011.7077-.2022,1.4245-.3032,2.1322-.0092.0643-.0184.1195-.0276.1838-.0643.4687-.1287.9282-.193,1.3969,1.3878.6893,5.6522,1.397,8.2255,1.397,1.397,0,3.3546-.239,5.0088-.579,1.1396-.239,2.1414-.5147,2.6928-.7996.0827-.5147.1562-1.0293.2206-1.544.3584-2.5642.6801-5.1191.9926-7.6741.0276-.147.0459-.294.0551-.4503v-.0092c.0735-.5238.1379-1.0569.193-1.5807.147-1.2224.2849-2.4447.4227-3.6578.1011-.8547.193-1.7003.2849-2.5458.0276-.2665.0551-.5331.0827-.7996.0735-.6341.1379-1.2591.2022-1.884.0184-.1563.0368-.3125.0551-.4687.0276-.2666.0552-.5331.0827-.7996.4595-4.338.8731-8.6759,1.2683-13.0138.0184-.1562.0275-.3032.0367-.4595.0827-.8823.1654-1.7646.239-2.6469l.5055-6.0014.1563-1.8106c.0091-.1562.0275-.3032.0367-.4595.0184-.2665.0459-.533.0643-.7996.3492-4.3379.6709-8.6759.9742-13.0137.0092-.1562.0184-.3033.0275-.4595.0643-.8455.1195-1.7003.1746-2.5458l.5147-7.913c.0184-.147.0276-.3033.0276-.4503.0184-.2666.0367-.5423.0551-.8088.2665-4.3471.5055-8.6851.726-13.0321.0092-.1563.0184-.3033.0276-.4595l.0643-1.4521.4136-9.0343c.0091-.147.0183-.3032.0183-.4503.0184-.2665.0276-.5422.0368-.8088.1746-4.3563.3216-8.7126.4227-13.0873.0092-.147.0092-.3033.0092-.4595.0184-.5882.0367-1.1856.0459-1.7738.0368-1.4337.0551-2.8766.0735-4.3288.0184-1.4889.0367-2.9869.0367-4.485.0092-.1562.0092-.3124,0-.4687.0092-.2758.0092-.5423.0092-.818h-15.7893Z"/><path class="cls-30" d="m439.9982,630.2515c0,.726,0,1.4429-.0092,2.1689,0,.1562,0,.3033-.0091.4595,0,.772,0,1.5348-.0184,2.3068v.7077c-.0184,1.5623-.0459,3.1247-.0827,4.6871l-.0091.5423c-.0184.7628-.0368,1.5256-.0552,2.2884-.0091.147-.0091.3032-.0183.4595-.1011,3.9152-.2298,7.8211-.386,11.7271-.0276.7168-.0552,1.4337-.0919,2.1414,0,.1563-.0092.3033-.0184.4503-.0275.772-.0643,1.5349-.1011,2.2976l-.2757,5.8912c-.0367.7628-.0827,1.5256-.1195,2.2792-.0092.1562-.0184.3033-.0184.4595-.2022,3.8968-.4227,7.7844-.6617,11.6812-.0459.7168-.0919,1.4245-.1379,2.1414,0,.147-.0183.3032-.0275.4503-.0459.7628-.0919,1.5256-.1471,2.2884l-.1286,2.0127c-.0827,1.2866-.1746,2.5825-.2666,3.8692-.0459.7628-.1011,1.5165-.1562,2.2701-.0092.1562-.0184.3124-.0276.4595-.2757,3.8968-.5698,7.7843-.8823,11.672-.0551.7076-.1103,1.4245-.1746,2.1322-.0092.147-.0184.3032-.0368.4503-.0643.7628-.1194,1.5256-.193,2.2884l-.2298,2.6285c-.0827,1.0845-.1746,2.1689-.2849,3.2535-.0551.7536-.1287,1.5164-.2022,2.27-.0092.1562-.0183.3033-.0367.4595-.3584,3.8876-.7352,7.7752-1.1396,11.6628-.0735.7077-.1471,1.4245-.2298,2.1322-.0092.1562-.0276.3124-.0551.4595-.0735.7628-.1563,1.5256-.239,2.2884l-.6801,5.882c-.0919.7628-.1838,1.5256-.2757,2.2792-.0184.1562-.0368.3124-.0643.4595-.2897,2.3828-.6054,4.7622-.9429,7.1471-1.7772.4328-4.194.7659-5.8397.7659h-.0092c-2.5917,0-6.9021-.7168-8.2531-1.4153-.0092.0643-.0184.1195-.0276.1838-.0735.5698-.1562,1.1304-.239,1.7002v.0184c.1011.0551.2298.1195.3676.1838.34.1287.7812.2666,1.2866.3952,1.737.4411,4.2461.8088,6.1025.8639v.0091h.5055c1.3786,0,3.327-.2389,4.9629-.579.3033-.0643.5974-.1286.8731-.2022.772-.193,1.4337-.4044,1.8289-.6157.2114-.1103.3584-.2206.4044-.3309v-.0091c.4411-3.1615.8547-6.3139,1.2315-9.4571.1011-.8271.2022-1.6543.2941-2.4815.3584-2.9777.6801-5.9554.9926-8.924.0184-.1746.0367-.3584.0551-.5331h.0092c.4595-4.439.8915-8.8597,1.2867-13.2895l.1286-1.5256.8364-9.8522c.0183-.1746.0275-.3584.0459-.5331.3492-4.4298.6801-8.8505.9926-13.2803.1195-1.7646.2481-3.5383.3584-5.3029l.046-.6984c.1195-1.7922.2298-3.5751.34-5.3673.0183-.1838.0275-.3676.0367-.5514.2703-4.428.5128-8.8597.737-13.2935.0025-.0017.005-.0034.0075-.0052l.4687-10.2199c.0184-.3952.0367-.7904.0459-1.1856h.0092c0-.1838.0092-.3584.0184-.5423.1838-4.4482.3308-8.8964.4411-13.363.0092-.2022.0092-.3952.0092-.5974.0459-1.691.0735-3.3821.1011-5.0732.0276-1.9392.0367-3.8876.0459-5.8452v-.5514h-2.0679Z"/><path class="cls-28" d="m425.9367,630.2515c-.0092,4.2368-.0735,8.5012-.1838,12.7748,0,.1471-.0092.3033-.0092.4504-.0551,2.0311-.1194,4.0714-.193,6.1117-.0459,1.397-.0919,2.8031-.1471,4.2093,0,.147-.0091.3033-.0183.4503-.0092.2665-.0184.5239-.0276.7904-.1746,4.2828-.3676,8.5748-.5882,12.8667-.0091.1471-.0183.3033-.0275.4503-.1746,3.4281-.3676,6.8469-.579,10.275v.0735c-.0092.1471-.0184.3033-.0276.4503-.0183.2666-.0275.5239-.0459.7904-.2665,4.292-.5514,8.5839-.8455,12.8667-.0184.1562-.0276.3032-.0367.4503-.1838,2.6285-.3768,5.2569-.5882,7.8763-.0735.9742-.1471,1.9392-.2206,2.9042-.0184.2666-.046.5331-.0643.7996-.3492,4.2828-.7077,8.5656-1.1029,12.8392-.0735.8088-.147,1.6083-.2298,2.4079-.2206,2.4447-.4595,4.8894-.7077,7.3248l-.1011,1.0018c-.0184.147-.0275.3033-.0459.4503-.0276.2665-.0551.5239-.0827.7904-.4503,4.2552-.9191,8.5104-1.4429,12.738-.0183.1471-.0367.3033-.0551.4504-.1103.9099-.2298,1.8197-.3492,2.7296v.0184c-.0551.4319-.1103.8731-.1654,1.305-.0459.34-.0919.6893-.147,1.0385-.0459.3492-.0919.6985-.1379,1.0385-.1011.7077-.2022,1.4245-.3032,2.1322-.0092.0643-.0184.1195-.0276.1838-.0643.4687-.1287.9282-.193,1.3969,1.3051.6525,5.1743,1.3142,7.766,1.3878.0827-.5239.1563-1.0477.2298-1.5624.193-1.3142.3768-2.6285.5515-3.9519.0183-.147.0367-.3033.0551-.4503.1011-.7536.2022-1.5073.2941-2.2517.2481-1.9392.4871-3.8784.7076-5.8176v-.0091c.1011-.7536.1838-1.4981.2666-2.2517v-.0092c.0183-.1562.0367-.2941.0459-.4411v-.0092c.2665-2.2793.5147-4.5677.7536-6.8469s.4687-4.5677.6893-6.8561c.0183-.147.0275-.2941.0459-.4503.0735-.7536.147-1.5073.2114-2.27.1838-1.9484.3676-3.8968.5331-5.8452.0643-.7536.1379-1.5072.2022-2.2608.0092-.1562.0276-.3033.0368-.4595.193-2.2884.386-4.5769.5698-6.8653.1838-2.2792.3584-4.5677.5239-6.8561.0183-.1471.0275-.3033.0275-.4595.0643-.7536.1195-1.5073.1746-2.2701.1471-1.9484.2849-3.8968.4044-5.8544h.0092c.0551-.7536.1011-1.5073.147-2.2608.0184-.1563.0276-.3125.0368-.4687.1562-2.2884.3033-4.5861.4411-6.8745.1379-2.2884.2757-4.5861.4044-6.8745,0-.1562.0092-.3033.0184-.4503.0459-.7536.0827-1.5073.1195-2.2609.1103-1.9576.2114-3.906.2941-5.8636.0459-.7536.0827-1.5164.1103-2.2792.0183-.147.0275-.3033.0275-.4595.1103-2.2884.2114-4.5861.3033-6.8837.0919-2.2884.1746-4.5769.2482-6.8745.0091-.1471.0091-.3033.0183-.4595.0184-.7536.0459-1.5165.0735-2.2793.0551-1.9576.1011-3.9152.1379-5.8636.0183-.7628.0367-1.5256.0459-2.2792,0-.147,0-.3033.0092-.4503.0275-2.2976.0551-4.5953.0551-6.8929h-7.8947Z"/><path class="cls-27" d="m425.5966,630.2515c-.0092,4.3196-.0735,8.6575-.193,13.0229-.0367,1.6359-.0919,3.2718-.147,4.9169-.0367,1.25-.0735,2.4907-.1287,3.7314-.0367,1.0293-.0735,2.0679-.1195,3.1063-.2114,5.2294-.4595,10.4588-.7444,15.6974-.1195,2.2333-.239,4.4574-.3768,6.6907-.0459.8363-.0919,1.6727-.1471,2.509-.2665,4.3747-.5514,8.7494-.8639,13.1241l-.0827,1.1212c-.2022,2.9042-.4228,5.8084-.6525,8.7034l-.1103,1.4062c-.0184.1746-.0275.3584-.0459.5331-.3492,4.3655-.7169,8.731-1.1213,13.0965-.34,3.7313-.6984,7.4627-1.0845,11.1756-.0183.1746-.0367.3584-.0551.5331-.4595,4.3379-.9374,8.6759-1.4705,12.9862-.2298,1.8105-.4595,3.6119-.6985,5.404-.0184.1378-.0367.2757-.0551.4044-.193,1.4153-.3952,2.8215-.6065,4.2276,0,.0367,0,.0735-.0092.1103.0459.0827.1562.1746.3124.2574.1011.0551.2298.1195.3676.1838.34.1287.7812.2666,1.2866.3952,1.737.4411,4.2461.8088,6.1025.8639.1011-.6433.193-1.2959.2849-1.9392-1.8564-.0523-4.3594-.4119-6.109-.8497.0945-.6441.1847-1.2927.273-1.935l.7077-5.3489.0551-.3952c.0919-.7536.1838-1.4981.2757-2.2425.0183-.1562.0367-.3033.0551-.4503.4595-3.8141.8823-7.6373,1.2866-11.4606.0735-.7076.1471-1.4061.2114-2.1138.0183-.147.0367-.2941.0459-.4503.0827-.7444.1562-1.4889.2298-2.2425l.5514-5.7992c.0735-.7536.1379-1.5073.2022-2.2609.0183-.1562.0275-.3033.0459-.4503.3492-3.8416.6709-7.6925.9834-11.5341.0551-.7077.1103-1.4062.1654-2.1138.0092-.1471.0276-.3033.0276-.4595.1011-1.2132.193-2.4355.2849-3.6579.1654-2.2241.3308-4.4482.4779-6.6815.0184-.1471.0276-.2941.0368-.4504.2757-3.8508.5238-7.7108.7628-11.5616.046-.7077.0827-1.4154.1287-2.123.0092-.1471.0184-.3033.0276-.4503.0459-.7536.0827-1.5073.1286-2.2609v-.0276l.2206-3.9611.1011-1.8472c.0367-.7628.0827-1.5165.1103-2.2701.0184-.147.0184-.2941.0275-.4411.193-3.86.3676-7.7109.5239-11.5617.0276-.7077.0551-1.4062.0827-2.1138.0092-.1562.0092-.3033.0183-.4595.0276-.7536.0552-1.5073.0827-2.2609l.1838-5.8176c.0184-.7536.0367-1.5072.0551-2.2608.0092-.1471.0092-.2941.0092-.4503.0919-3.8416.1562-7.6741.1562-11.4973h-2.0679Z"/><path class="cls-25" d="m425.4052,653.7933c.1332-3.4432.2481-6.8841.3381-10.3187,2.6798-1.9357,5.3583-3.8919,8.0201-5.876,2.665-1.9854,5.318-3.9986,7.9553-6.0603-.0111,3.5456-.0692,7.0672-.1526,10.5816-2.6788,1.9893-5.3654,3.9518-8.0601,5.8952l-8.1008,5.7782Z"/><polygon class="cls-25" points="424.1608 678.6994 424.741 668.3573 432.9234 662.6898 441.0767 656.9336 440.5941 667.4182 432.3899 673.096 424.1608 678.6994"/><polygon class="cls-25" points="422.4311 703.596 423.2058 693.2659 431.4956 687.755 439.7631 682.1687 439.0747 692.6294 430.7643 698.1491 422.4311 703.596"/><polygon class="cls-25" points="420.1931 728.415 421.1919 718.1271 429.5906 712.7884 437.9646 707.3608 437.0712 717.816 428.6466 723.1654 420.1931 728.415"/><path class="cls-25" d="m417.199,752.9892c.4954-3.3608.9466-6.748,1.3683-10.147,2.8587-1.6601,5.7061-3.354,8.5511-5.0703,2.8442-1.7177,5.6804-3.4591,8.514-5.2195-.3698,3.4885-.7618,6.9787-1.1844,10.4731-2.8583,1.7242-5.7245,3.4234-8.5989,5.0886-2.876,1.6649-5.7562,3.2977-8.6502,4.8752Z"/><path class="cls-23" d="m425.0323,654.4944c.1471-3.743.2749-7.4837.371-11.216,5.5959-4.0445,11.164-8.1589,16.6621-12.4756-.007,3.8617-.0668,7.6944-.1595,11.517-5.5935,4.1522-11.22,8.1942-16.8737,12.1746Zm14.9352-19.3049c-4.1506,3.1625-8.3301,6.2388-12.5277,9.2701l-.182,5.8213c4.2198-3.0049,8.4247-6.0495,12.6079-9.1586l.1018-5.9328Z"/><path class="cls-23" d="m423.774,679.3939l.6329-11.2425c5.7021-3.9165,11.3839-7.8869,17.0435-11.9299l-.5215,11.4047c-5.7,3.9795-11.4191,7.8994-17.1548,11.7678Zm15.4255-18.9082c-4.2495,3.0028-8.5146,5.9682-12.7872,8.9031l-.321,5.8316c4.2861-2.9159,8.5653-5.8613,12.8299-8.8409l.2783-5.8938Z"/><path class="cls-23" d="m422.0315,704.2829l.8439-11.2293c5.7752-3.8095,11.5343-7.6721,17.2767-11.5875l-.7467,11.3775c-5.7748,3.867-11.5661,7.6821-17.3739,11.4393Zm15.7829-18.606c-4.3103,2.9137-8.6273,5.7983-12.9568,8.6525l-.4311,5.8253c4.3419-2.8344,8.6727-5.7002,12.9947-8.5953l.3932-5.8825Z"/><path class="cls-23" d="m419.7764,729.0898c.3857-3.7209.7473-7.449,1.0895-11.1814,5.8518-3.6827,11.685-7.4354,17.5008-11.2431l-.9696,11.3718c-5.8533,3.7547-11.726,7.4481-17.6207,11.0527Zm16.1725-18.2567c-4.3665,2.8318-8.7403,5.631-13.127,8.3903l-.5556,5.8054c4.4032-2.7308,8.7919-5.5067,13.1729-8.3172l.5096-5.8785Z"/><path class="cls-23" d="m435.6786,732.0917c-.6157.386-1.2407.772-1.8564,1.1488-2.2149,1.3786-4.439,2.7388-6.6631,4.0806v.0092c-2.2149,1.3326-4.439,2.6652-6.6631,3.9611-.6249.3768-1.2499.7352-1.8749,1.1028-.1194.0735-.2481.1471-.3676.2114,0,.0092-.0092.0092-.0092.0092-.2206,1.8013-.4503,3.6027-.6893,5.3948-.0184.1378-.0367.2757-.0551.4044-.193,1.4153-.3952,2.8215-.6065,4.2276,0,.0367,0,.0735-.0092.1103.0459.0827.1562.1746.3124.2574.1011.0551.2298.1195.3676.1838.4871-.2665.9742-.533,1.4613-.8087,2.2609-1.2408,4.5126-2.5182,6.7643-3.8233,2.2425-1.2958,4.485-2.6101,6.7183-3.9519.6249-.3676,1.2499-.7444,1.8748-1.1213.1287-.0735.2482-.147.3768-.2206,0-.0092.0092-.0092.0092-.0092.1011-.8271.2022-1.6543.2849-2.4723.3584-2.9777.6801-5.9554.9926-8.924-.1195.0735-.2482.1562-.3676.2298Zm-15.5687,12.2877l.0551-.3952c2.2333-1.2959,4.4574-2.6193,6.6815-3.9428v-.0091c2.2333-1.3326,4.4574-2.6837,6.6815-4.0439l-.6801,5.882c-2.2241,1.3418-4.4666,2.6744-6.7091,3.9887-2.2425,1.305-4.485,2.6009-6.7367,3.8692l.7077-5.3489Z"/><path class="cls-10" d="m405.7729,834.4541l-2.6526,6.4414c-2.2881.8791-3.6789-.0033-4.1021-1.611l3.8074-9.2381,2.9473,4.4076Z"/><path class="cls-22" d="m426.5,741.7l-.44,6.49-.09-.01c-4.2599-.2-8.58,2.06-12.48,6.56-7.28,8.35-12.2,22.98-13.16,39.11-1.53,25.37,7.15,46.58,19.41,47.96.23.03.46.05.7.06.53.03,1.06.02,1.59-.04l2.49,6.0601c-1.51.3799-3.03.54-4.56.46-.22,0-.44-.02-.65-.04-.09,0-.18-.01-.27-.02-14.88-1.67-25.49-25.79-23.7599-54.57,1.06-17.84,6.65-34.18,14.9399-43.7,4.97-5.72,10.59-8.6,16.22-8.3199h.06Z"/><path class="cls-24" d="m424.52,847.89c-1.51.3799-3.03.54-4.56.46-.22,0-.44-.02-.65-.04-.09,0-.18-.01-.27-.02-13.27-1.49-23.13-20.82-23.9-45.39l5.25,3.32c1.43,19.57,9.15,34.44,19.35,35.59.23.03.46.05.7.06.53.03,1.06.02,1.59-.04l2.49,6.0601Z"/><path class="cls-5" d="m419.3051,848.3075l-.2637-.0206c-14.8857-1.6636-25.4885-25.784-23.7615-54.5641,1.0632-17.843,6.648-34.1788,14.9381-43.705,4.9747-5.7209,10.6527-8.5367,16.2844-8.3135h0"/><path class="cls-5" d="m426.0615,748.1891h0c-4.2751-.0814-8.6697,2.0543-12.5763,6.547-7.2726,8.3543-12.1966,22.982-13.1575,39.1165-1.5234,25.3717,7.1538,46.5729,19.4106,47.9605"/><path class="cls-10" d="m414.4422,813.5432l-7.5797,18.4003c-2.288.8791-3.6788-.0034-4.1021-1.611l7.6051-18.4683,4.0767,1.6791Z"/><path id="path902" class="cls-19" d="m427.0764,760.3521c-19.1545-2.141-36.4128,11.649-38.553,30.7988-2.1402,19.1503,11.6472,36.4142,30.802,38.5549,19.154,2.1406,36.4136-11.6537,38.5538-30.8037,2.1402-19.1501-11.6488-36.4093-30.8028-38.55Z"/><path id="path904" class="cls-20" d="m426.9853,760.3081c-9.7047-1.0846-18.9183,1.9224-25.9299,7.6415l2.0625,1.335.5698,2.2982,3.4287-.8218.3665,1.3615.8635.5483,1.1266-.2305,1.0211-1.8692,1.6703-.7169,5.6384-1.3281,2.1531.7427,1.8304-.7493,1.5955-.5297.475-1.1421-.6994-.746,1.4608-.7253.1664-1.6636.6274-.0102,1.361.9555,2.5837-.6149,3.77,1.6414.9153-1.228,1.3065-1.1846-.4271-1.1274c-2.5115-.9012-5.1683-1.5272-7.9361-1.8366h0Zm10.0863,2.6939c.5415.2361,1.0792.4796,1.6051.7417.9081.4523,1.7902.9501,2.6488,1.4759l1.9458,1.2818-.1769.6631,1.3215,2.2717.9995.734,2.57,2.2655-.4669.8916-.9704.3235.2775,1.718,1.626.95,3.4926,3.5083,1.7669,2.5773.3873,2.619,1.2467,2.3283-.0916,1.6519.8678,2.0853,1.3372,1.0835.3143,1.5214-.3256,1.6455-1.0692,2.0798-1.601,3.6872.5219,2.0718-.6185,3.0388-.5635.7957-.7236.2155-.5314-3.74-.6287.9841.2919,2.1616-1.1784-.0513-.6807-.6936-2.7872,1.9129-1.0908,2.2281-1.2506.9447-.4942,2.6712-.9173,1.4237-1.0826-.121-.6397-3.6014-.7138-1.4053-1.0696-.5867-1.1206-.9636-1.7805-1.8008-2.5794,1.5845-2.1119-.236-2.6258-1.6341-.7459.7201,3.1032,4.4993,1.2332-.264,1.1888.1329.0688,1.7499-2.3042,1.485-3.3488-.2889-1.4884.0095-.7971.4331-1.8393-.3964.2273-1.4207,1.1327-1.0282-1.1685-5.0865-1.1564.8045.1572,3.3666-.015,2.8049,1.7658,1.9298,2.1234-.3049,1.0019-.3853.6973.6352-.4251,1.2178-2.4951,2.538-1.7618,1.0131-4.1166,3.386-2.6667,2.8454-4.3901,1.8041-.9454.0099c-1.7118-.4916-3.3669-1.1081-4.9514-1.8385l-2.2881-2.3797-.1068-.7953-1.0182-2.2277.9398-1.6221-.1161-2.157-1.7475-3.4087-1.9449-4.7061-1.4463-.8498-3.1662-2.4025-.2135-1.5051-1.0763-1.27-.0314-2.6948.3951-.7342-.3306-.8504.4527-1.2046,2.0524-3.2603,1.6411-.8059,1.1292.2719,1.4611-.1582,1.4856-1.0342,1.5656.0446,1.1037-.1579,3.7204,2.0427,2.1201.9047.3853.7561-.4516.7128-.2975,1.1316.8601.8842,3.2239,2.2384-1.4549,2.2477,2.2721.0279,3.2751-1.6374,2.1891-.9804,1.3589-1.0833-2.6408-1.5001-.438-.8524,1.3366-1.1913,2.2125.5182-3.2631-4.2509-4.4561,2.615-.3649,1.9074-1.7691.5957-.8879-.8976.8393-2.9137-.9417-1.6418-1.3669-.0272-1.1197.2563-1.5364-.1315-1.3178.5406-1.416-.6082-.2064-.8215,1.6698-3.2529-.1915-.6942,1.147-.6752,1.8335-.8645.729.6137,2.07-.5721,1.3786,1.8511,5.2429,2.8656,1.1045-3.316,1.8635-1.1324.5479-1.2241-.157-2.0963-.773.3051-.9936,2.1935-.923-.1032.3539.6873-1.1156,1.0502-.9707.1929-.2154-.4812-.1322-1.3554-1.2505-.411.0367-1.2059.6036-.4095,1.0265-1.2159,1.8551-.4002,2.6029-1.5319,2.0654-.1356,1.6509.2448.7427.8412.7434.6605.5516-1.3443,1.0207.1492.7216-1.8175.514.4794.7109-1.5877,2.1042-.5733.7454,1.0374,3.0286-3.0206,1.0313-1.8281-1.1568-.7268-.2196-2.1485.0019-.6324-1.3941-1.5768-1.0764-.9639-2.2305-1.5799,1.3521-1.285,1.7306-1.6183h0Zm-15.3822,6.9073l4.6979.6506.2396.7445,1.0323.8334-5.3055,3.213-1.2171-.4475-5.0669-1.4199-2.9307-.6138-.2495-.6555,2.0744-1.7515,2.0638.316,1.4491-.4456.8051.3261,2.4076-.7498h0Zm-33.186,20.6485c-.0234.1835-.0505.3647-.0712.5493-.2945,2.6349-.2827,5.2334-.0014,7.7623l2.6197-1.5951-.1906-2.1905-1.3424-1.8674-1.0141-2.6587h0Zm42.4413,5.3307c-.2355-.0197-.5215.0083-.8356.0774-1.1762.9792.1081,1.7606.2261,2.9677l.0913.8036c-.0177.5223-.5426,1.243.0959,1.5071.4591.1052.912.0911,1.3579-.069.2329-.7309.1444-1.4482.11-2.1669-.4099-.7681-1.3166-2.1786-.3711-2.281.1317-.5275-.1559-.7952-.6745-.8389h0Zm-5.1303,29.3575l-2.9152.4726-1.2781,1.3234-.0882.9643,1.0276.9183,1.517-.3529,2.4421-1.9314.075-1.1517-.7803-.2426Z"/><g id="g952"><path id="path906" class="cls-7" d="m445.4675,779.4782c-2.106,6.3562-11.1799,9.7024-20.339,6.2812-9.0768-3.0239-14.6377-10.8765-12.5322-17.2333,2.1063-6.3567,11.1708-9.0578,20.2489-6.0335,9.0761,3.0238,14.7278,10.6291,12.6223,16.9856h0Z"/><path id="path908" class="cls-7" d="m411.2844,761.8379c-12.0441,4.0746-16.4571,30.4749,13.6733,36.3916,30.1566,5.9165,31.7823-18.6269,26.2952-24.6825"/><path id="path910" class="cls-7" d="m392.3743,777.8109c-1.0268,32.7315,56.7758,48.6077,66.1277,14.383"/><path id="path912" class="cls-7" d="m387.9174,793.7483c9.8724,26.4087,48.9865,36.679,67.5286,15.9564"/><path id="path914" class="cls-7" d="m390.16,807.1051c12.2193,19.9316,36.3829,24.9483,55.8911,14.9611"/><path id="path916" class="cls-7" d="m428.774,829.763c11.8057-14.2872,5.0611-48.1242,2.5243-56.7616"/><path id="path920" class="cls-7" d="m408.157,826.6403c.4424-14.4429,15.5978-44.2606,20.6571-53.6992"/><path id="path924" class="cls-7" d="m391.4005,810.2959c2.2027-22.6521,19.7365-30.2871,34.421-38.6989"/><path id="path928" class="cls-7" d="m423.381,768.5481c-5.8601-.3403-13.6107.0196-19.178,2.0081-8.4467,3.0165-13.5822,10.6928-13.5822,10.6928"/><path id="path932" class="cls-7" d="m434.1322,768.5108c2.6693-1.1441,4.9906-1.8245,9.363-2.3204"/><path id="path936" class="cls-7" d="m435.7837,771.6947c5.9379,1.3304,14.9803,4.1593,20.9486,12.459"/><path id="path942" class="cls-7" d="m451.9238,815.7204c4.6498-18.8934-6.8055-33.3486-16.7737-41.4167"/><path id="path946" class="cls-7" d="m429.5629,760.4507c.2417,1.1913.0999,3.2389-.05,5.1335"/><path id="path950" class="cls-7" d="m425.2894,766.3088c-4.0727-2.682-7.5179-3.7612-12.7026-4.6024"/></g><path class="cls-18" d="m458.1347,800.7935c-2.7806,16.9959-17.6578,29.8662-35.4012,29.631-17.7522-.2353-32.2742-13.4954-34.6033-30.5591,7.4906,11.246,20.2212,18.7195,34.7577,18.9122s27.452-6.9408,35.2468-17.9842Z"/><path id="path900" class="cls-1" d="m423.6702,759.6306c-19.553-.2592-35.6094,15.3783-35.8685,34.9266s15.3765,35.6109,34.93,35.8701c19.5525.2592,35.6094-15.3832,35.8686-34.9315.2592-19.5486-15.3776-35.606-34.93-35.8652Z"/><path class="cls-9" d="m439.8242,751.5712l-7.5797,18.4003c-2.288.8791-3.6788-.0034-4.1021-1.611l7.6051-18.4683,4.0767,1.6791Z"/><path class="cls-22" d="m426.5,741.7l-.44,6.49c.2,0,.41.03.61.05,12.27,1.37,20.92,22.59,19.4,47.97-.96,16.14-5.89,30.77-13.16,39.12-1.95,2.2401-4.0099,3.9301-6.1,5.03-1.56.82-3.15,1.31-4.73,1.46l1.45,6.28c4.41-.81,8.72-3.55,12.64-8.05,8.3-9.53,13.88-25.87,14.95-43.71,1.76-29.34-9.27-53.83-24.62-54.64Z"/><path class="cls-24" d="m450.5377,802.6902c-1.8731,15.3232-7.0702,28.9721-14.3698,37.3594-4.9631,5.7123-10.5662,8.5753-16.2008,8.3062-.2199-.0062-.4395-.0224-.6589-.0486l.4333-6.4904c.2194.0262.459.0429.6986.0597,2.128.1001,4.2633-.4098,6.3655-1.521,2.0916-1.0914,4.1502-2.784,6.1041-5.0198,5.7899-6.6493,10.0807-17.2524,12.0754-29.441,2.1711-.7191,4.1373-1.9741,5.5526-3.2047Z"/><path class="cls-5" d="m419.3051,848.3075l.6597.0471c5.6344.2751,11.2387-2.5916,16.2037-8.3048,8.2989-9.5252,13.8846-25.8697,14.9478-43.7128,1.7624-29.3345-9.2683-53.8308-24.6137-54.6327m-.441,6.4847c.2033.005.4047.0275.6061.05,12.2675,1.371,20.9252,22.5877,19.4009,47.9682-.9619,16.1433-5.8859,30.771-13.1585,39.1252-1.9523,2.2376-4.0122,3.9312-6.1029,5.0274-2.1004,1.104-4.2413,1.6183-6.3663,1.5138-.2384-.0089-.4748-.0353-.7025-.0608"/><path class="cls-9" d="m442.2367,740.2978c-1.0302-.3811-2.0324-.298-2.4715.1405l-.2329.5768-3.3903,8.2829c.4232,1.6076,1.814,2.49,4.102,1.611l3.3183-8.1136.4239-1.0165.001-.0088c-.1864-.5528-.8477-1.1409-1.7504-1.4723Z"/><path class="cls-9" d="m443.9871,741.77l-.001.0088-.4239,1.0165c-.5101.2799-1.3614.2823-2.2291-.0452-1.0477-.383-1.774-1.1025-1.8009-1.735l.2329-.5768c.4391-.4385,1.4413-.5216,2.4715-.1405.9027.3314,1.564.9195,1.7504,1.4723Z"/><path class="cls-31" d="m433.1605,752.7059c-.5514.2849-1.5532.5698-2.7112.8088-1.6451.34-3.6119.579-5.0088.579-2.5641,0-6.8377-.7077-8.2255-1.397-.0827-.5147-.1563-1.0385-.2206-1.5532-.294-2.1138-.5698-4.2276-.8271-6.3506-.0184-.1471-.0368-.3033-.0551-.4595-.5423-4.3471-1.0201-8.6943-1.4797-13.0321-.0276-.2666-.0552-.5423-.0827-.8088-.0184-.1471-.0276-.3033-.0459-.4503l-.0459-.4503-.965-10.0085c-.0183-.1563-.0367-.3125-.0459-.4687-.3952-4.338-.7628-8.6759-1.112-13.0046-.0184-.2665-.046-.533-.0643-.7996-.0092-.1562-.0276-.3032-.0368-.4595l-.1011-1.3694-.6801-9.0894c-.0184-.1562-.0276-.3032-.0367-.4595-.3125-4.3379-.5974-8.6759-.8548-13.0137-.0183-.2665-.0367-.5331-.0459-.7996-.0092-.1562-.0183-.3217-.0275-.4779-.0827-1.3786-.1654-2.748-.239-4.1265l-.1011-1.7462c0-.0551-.0092-.1103-.0092-.1654-.0919-1.4797-.1654-2.9593-.239-4.4298-.0092-.147-.0184-.2941-.0276-.4411-.2298-4.3471-.4227-8.6943-.5974-13.0505-.0092-.2757-.0184-.5422-.0276-.818-.0092-.1562-.0183-.3032-.0183-.4595-.0276-.6249-.0551-1.2591-.0735-1.884-.1103-2.8674-.2022-5.7441-.2757-8.6207-.0092-.147-.0092-.3032-.0184-.4595-.1103-4.3746-.1746-8.7585-.1838-13.1792h15.7801c0,.2665,0,.5147.0092.7812v.0092c-.0092.147-.0092.2941,0,.4411,0,1.4521.0184,2.9134.0368,4.3747,0,.0919,0,.1746.0092.2574.0183,1.8748.0551,3.7497.1011,5.6338,0,.147.0092.2941.0092.4503.1011,4.2736.2481,8.5564.4227,12.8391.0092.2666.0184.5239.0368.7904.0275.7996.0551,1.5991.1011,2.3987l.0092.2757c.0827,2.0127.1746,4.0439.2849,6.0566l.0919,2.0587c.0092.1562.0184.3032.0276.4595.2114,4.292.4595,8.5839.7168,12.8667.0184.2665.0368.533.0551.7996.0368.7168.0827,1.4245.1287,2.1322l.4687,7.0675.1378,2.0403c.3033,4.292.625,8.5748.965,12.8575.0183.2666.0459.5331.0643.7996.0092.1471.0276.2941.0368.4412l.1011,1.2132c.2482,3.0329.5055,6.0749.7812,9.0986.0092.1562.0276.3033.0368.4503.386,4.2828.7996,8.5472,1.2499,12.8116.0276.2574.0551.5239.0827.7812.0183.147.0275.3032.0459.4503.0643.6249.1287,1.2407.2022,1.8564.2941,2.8032.6158,5.5971.9558,8.3818.0183.1562.0367.3032.0551.4503.1562,1.3326.3216,2.656.4963,3.9795v.0092c.0551.4503.1195.8915.1838,1.3326.1746,1.4153.3676,2.8215.5698,4.2276.0459.3309.1011.6709.147,1.0018.0184.1287.0368.2482.0551.3676.0092.0643.0184.1378.0276.2022Z"/><path class="cls-30" d="m431.9841,741.2821c-.1286-1.0385-.2481-2.0771-.3676-3.1156-.2114-1.8105-.4136-3.6303-.6066-5.45-.1011-.8547-.1838-1.7094-.2757-2.5641-.0183-.1746-.0367-.3492-.0551-.5239-.4595-4.3471-.8823-8.7035-1.2683-13.0689-.34-3.7313-.6617-7.4719-.9558-11.2032-.0184-.1746-.0276-.3584-.0459-.533-.4044-5.0824-.7812-10.1647-1.1213-15.2471-.2114-3.0329-.4136-6.0749-.5974-9.1078-.0184-.1746-.0276-.3584-.0368-.5331-.2665-4.3747-.5147-8.7586-.7352-13.1332-.193-3.7497-.3584-7.4995-.5147-11.24,0-.1746-.0092-.3492-.0184-.5239-.1654-4.3746-.3216-8.7493-.4227-13.1056-.0092-.1838-.0092-.3768-.0092-.5607-.0459-1.6543-.0735-3.3086-.1011-4.9536-.0276-1.8841-.0368-3.7589-.046-5.6338v-.5239h-2.0679c0,.6985,0,1.3969.0092,2.0954,0,.1563,0,.3125.0092.4595,0,.9834.0092,1.9576.0184,2.941l.0827,4.5677.0092.533c.0184.7536.0368,1.5073.0551,2.2609,0,.1562.0092.3033.0184.4503.0919,3.8508.2298,7.7017.3768,11.5525.0276.7077.0551,1.4062.0919,2.1138,0,.1562.0092.3033.0183.4595.0276.7536.0643,1.4981.1011,2.2517l.2757,5.8268c.0367.7536.0735,1.5072.1195,2.27,0,.147.0092.2941.0183.4503.2022,3.8508.4136,7.7109.6525,11.5709.0459.7076.0827,1.4061.1379,2.1138,0,.147.0092.3033.0275.4503.0368.7536.0919,1.5073.1379,2.2609l.147,2.1873c.1287,1.9759.2574,3.9427.4044,5.9095.0092.1562.0184.3033.0276.4503.2757,3.8508.5698,7.7017.8731,11.5525.0551.7077.1103,1.4061.1746,2.1138.0092.147.0184.3033.0368.4503.0551.7536.1195,1.4981.1838,2.2517l.5055,5.8176c.0643.7536.1287,1.5072.2022,2.27.0092.1471.0276.2941.0368.4412.3584,3.8416.726,7.6741,1.1304,11.5065.0735.6985.147,1.4062.2298,2.1047.0092.147.0276.3032.0459.4503.0735.7444.1562,1.4981.239,2.2425l.5147,4.485c.1379,1.1764.2757,2.3528.4228,3.5291.0183.1471.0367.2941.0551.4411.3528,2.8829.7431,5.7502,1.1523,8.6086-1.794.4627-4.358.8301-6.0784.8301h-.046c.0919.6433.1838,1.2959.2849,1.9392,1.3786,0,3.327-.2389,4.9537-.579.4136-.0827.7996-.1746,1.158-.2665.726-.193,1.3142-.4044,1.6543-.6065.1562-.1011.2666-.193.3033-.2849-.5515-3.7865-1.0569-7.6098-1.5257-11.4514Z"/><path class="cls-29" d="m425.3853,754.0937c-2.5641-.0092-6.7918-.7077-8.1703-1.397-.0827-.5147-.1563-1.0385-.2206-1.5532-.294-2.1138-.5698-4.2276-.8271-6.3506-.0184-.1471-.0368-.3033-.0551-.4595-.5423-4.3471-1.0201-8.6943-1.4797-13.0321-.0276-.2666-.0552-.5423-.0827-.8088-.0184-.1471-.0276-.3033-.0459-.4503l-.0459-.4503-.965-10.0085c-.0183-.1563-.0367-.3125-.0459-.4687-.3952-4.338-.7628-8.6759-1.112-13.0046-.0184-.2665-.046-.533-.0643-.7996-.0092-.1562-.0276-.3032-.0368-.4595l-.1011-1.3694-.6801-9.0894c-.0184-.1562-.0276-.3032-.0367-.4595-.3125-4.3379-.5974-8.6759-.8548-13.0137-.0183-.2665-.0367-.5331-.0459-.7996-.0092-.1562-.0183-.3217-.0275-.4779-.0827-1.3786-.1654-2.748-.239-4.1265l-.1011-1.7462c0-.0551-.0092-.1103-.0092-.1654-.0919-1.4797-.1654-2.9593-.239-4.4298-.0092-.147-.0184-.2941-.0276-.4411-.2298-4.3471-.4227-8.6943-.5974-13.0505-.0092-.2757-.0184-.5422-.0276-.818-.0092-.1562-.0183-.3032-.0183-.4595-.0276-.6249-.0551-1.2591-.0735-1.884-.1103-2.8674-.2022-5.7441-.2757-8.6207-.0092-.147-.0092-.3032-.0184-.4595-.1103-4.3746-.1746-8.7585-.1838-13.1792h7.8947c0,2.2976.0275,4.5953.0551,6.8929.0092.147.0092.3033.0092.4503.0091.7536.0275,1.5165.0459,2.2792.0367,1.9484.0827,3.906.1378,5.8636.0276.7628.0551,1.5257.0735,2.2793.0092.1562.0092.3124.0184.4595.0735,2.2976.1562,4.5861.2482,6.8745.0919,2.2976.193,4.5953.294,6.8837.0092.1562.0184.3033.0276.4503.0275.7628.0643,1.5257.1103,2.2792.0827,1.9484.1838,3.906.2941,5.8544.0367.7536.0827,1.5072.1287,2.27,0,.147.0091.3033.0183.4595.1287,2.2884.2666,4.5861.4044,6.8745.1379,2.2885.2849,4.5861.432,6.8745.0092.147.0183.3032.0367.4595.0459.7536.1011,1.5164.1471,2.27.1378,1.9576.2757,3.906.4135,5.8544.0551.7628.1103,1.5165.1746,2.2701.0092.1562.0184.3032.0276.4503.1746,2.2884.3492,4.5769.5331,6.8653.1838,2.2885.3768,4.5769.5698,6.8653.0091.1562.0275.3033.0367.4595.0643.7536.1287,1.5073.2022,2.2608.1655,1.9484.3492,3.8968.5331,5.8452.0643.7628.1379,1.5164.2114,2.27.0091.1562.0275.3033.0459.4503.2114,2.2885.4411,4.5769.6801,6.8561s.4871,4.5585.7536,6.8377c.0092.147.0275.3033.0459.4595.0827.7444.1654,1.4981.2665,2.2517.2206,1.9484.4595,3.8876.7077,5.836.0919.7444.193,1.4981.2941,2.2517.0184.1562.0367.3033.0551.4595.1746,1.3142.3584,2.6377.5514,3.9519.0735.5147.1471,1.0385.2298,1.5624Z"/><path class="cls-27" d="m425.1555,752.5313c-1.818-.0065-4.4544-.3555-6.335-.8033-.0137-.1032-.0292-.2058-.0432-.3087-.0367-.239-.0735-.4687-.1011-.7077-.239-1.6819-.4595-3.3729-.6617-5.0548l-.0184-.1195c-.1011-.7536-.193-1.5165-.2849-2.2792-.0184-.1471-.0367-.3033-.0551-.4595-.4687-3.8968-.9007-7.7844-1.305-11.6812-.0735-.7077-.1471-1.4245-.2114-2.1322-.0275-.147-.0367-.3033-.0459-.4503-.0827-.7628-.1654-1.5257-.239-2.2884l-.2757-2.8674c-.1011-1.0018-.193-2.0127-.2757-3.0145-.0827-.7536-.1471-1.5073-.2114-2.2608-.0184-.1563-.0368-.3217-.046-.4779-.3492-3.8876-.6801-7.766-.9925-11.6536-.0551-.7077-.1103-1.4245-.1655-2.1322-.0183-.1471-.0275-.3033-.0367-.4503-.0643-.7628-.1195-1.5349-.1746-2.2976-.0367-.4687-.0735-.9375-.1103-1.4062l-.3308-4.4666c-.0551-.7536-.1011-1.5073-.1562-2.2701-.0092-.1562-.0276-.3124-.0368-.4687-.2665-3.8876-.5239-7.7844-.7628-11.672-.0459-.7077-.0827-1.4154-.1286-2.123-.0092-.1563-.0184-.3125-.0184-.4687-.0551-.7628-.1011-1.5257-.1379-2.2884-.0275-.4687-.0551-.9375-.0827-1.4154-.0827-1.4889-.1654-2.9777-.239-4.4758-.0459-.7536-.0827-1.5072-.1195-2.27-.0092-.1471-.0184-.3033-.0275-.4595-.2022-3.8968-.3768-7.7935-.5331-11.6995-.0276-.7169-.0551-1.4246-.0827-2.1414-.0092-.1471-.0092-.2941-.0183-.4503-.0276-.7628-.0551-1.5257-.0827-2.2976l-.1838-5.9095c-.0183-.7628-.0367-1.5257-.0551-2.2885-.0092-.1562-.0092-.3124-.0092-.4687-.1011-3.9152-.1562-7.8487-.1654-11.7915h-2.0679c.0092,4.5125.0827,8.9975.2022,13.4549.0367,1.6267.0827,3.2534.1378,4.871.0735,2.1873.1563,4.3747.239,6.562,0,.1838.0092.3584.0184.5422.1838,4.4482.386,8.8872.6157,13.3263l.0092.1654.6341,11.2216c.0092.1746.0184.3584.0275.5331.2758,4.439.5607,8.8596.8823,13.2895l.8547,11.3779c.0092.1746.0184.3584.0368.5331.3584,4.4206.7352,8.8413,1.1488,13.2711.1286,1.4889.2665,2.9777.4135,4.4666.2206,2.3068.4504,4.6137.6893,6.9205.0184.1838.0368.3584.0551.5422.4687,4.4298.9558,8.8689,1.5073,13.3079.3308,2.702.6801,5.3857,1.0753,8.0968.046.1011.1838.2114.386.3125.3952.2022,1.0385.4136,1.8289.5974.0184.0091.0367.0183.0643.0183.1287.0368.2665.0643.4044.1011,1.8381.3952,4.2184.6984,5.8819.6984-.1011-.6433-.193-1.2958-.2849-1.9392Z"/><path class="cls-26" d="m409.2208,654.4123c-.1354-3.4998-.2525-7.0034-.3445-10.5147,2.5787-2.1192,5.1601-4.2182,7.7592-6.2899,2.5958-2.0719,5.2048-4.1165,7.8293-6.1127.0105,3.4026.0668,6.8287.1483,10.2605-2.5824,2.0658-5.156,4.1581-7.7202,6.2688l-7.6721,6.388Z"/><polygon class="cls-26" points="410.4818 679.6551 409.8944 669.1854 417.4755 662.6989 425.0935 656.2932 425.5694 666.6311 418.009 673.1051 410.4818 679.6551"/><polygon class="cls-26" points="412.2322 704.8495 411.4481 694.3934 418.9032 687.7641 426.3903 681.2017 427.0707 691.5406 419.6346 698.1583 412.2322 704.8495"/><polygon class="cls-26" points="414.5038 730.0388 413.4884 719.5798 420.8082 712.7975 428.1673 706.0938 429.0486 716.4076 421.7523 723.1746 414.5038 730.0388"/><path class="cls-26" d="m431.6257,741.1351c-.5239.5055-1.0385,1.0109-1.5532,1.5164-1.8565,1.8106-3.6946,3.6303-5.5235,5.4684-1.8106,1.8289-3.6211,3.6762-5.3948,5.5511-.0276,0-.0459-.0092-.0643-.0183-.7904-.1838-1.4337-.3952-1.8289-.5974-.3952-2.7572-.7536-5.5051-1.0937-8.2623.5147-.5147,1.0293-1.0293,1.544-1.5348,1.8473-1.8381,3.7037-3.6671,5.5695-5.4776,1.8656-1.8106,3.7313-3.6027,5.6154-5.3856.5239-.5055,1.0477-1.0018,1.5716-1.4981.0643.6249.1287,1.2407.2022,1.8564.2941,2.8032.6158,5.5971.9558,8.3818Z"/><path class="cls-23" d="m408.9053,655.152c-.1495-3.8064-.2798-7.6166-.3782-11.437,5.3802-4.4211,10.795-8.7745,16.2804-12.9264.0066,3.6935.0641,7.4156.1548,11.1459-5.3886,4.3138-10.7393,8.7361-16.057,13.2175Zm13.8636-20.0976c-4.0754,3.1797-8.12,6.4448-12.1435,9.7538l.1848,5.9106c3.9993-3.3339,8.0165-6.6294,12.0583-9.8614l-.0996-5.8029Z"/><path class="cls-23" d="m410.1811,680.3999l-.641-11.3871c5.263-4.5406,10.5522-9.0296,15.8691-13.4483l.5139,11.2371c-5.2715,4.4782-10.5183,9.0136-15.742,13.5983Zm13.3445-20.4547c-3.9695,3.3337-7.9202,6.7032-11.86,10.1023l.3241,5.8882c3.9242-3.4164,7.8589-6.8044,11.8112-10.1598l-.2753-5.8307Z"/><path class="cls-23" d="m411.9454,705.6001l-.8547-11.3724c5.1763-4.6378,10.3763-9.2254,15.5992-13.7624l.7376,11.2393c-5.1848,4.581-10.3463,9.211-15.4821,13.8956Zm12.9518-20.7101c-3.9,3.4156-7.7896,6.8594-11.6625,10.3314l.4351,5.8803c3.8576-3.4897,7.731-6.9501,11.6169-10.3827l-.3896-5.829Z"/><path class="cls-23" d="m414.2364,730.7982c-.3933-3.7939-.7611-7.5859-1.1086-11.3771,5.0791-4.7504,10.1895-9.4355,15.3254-14.0689l.9559,11.2117c-5.0906,4.6793-10.1516,9.4157-15.1727,14.2343Zm12.5085-20.9902c-3.8329,3.4884-7.6532,7.0077-11.4535,10.5639l.5626,5.8788c3.7784-3.581,7.58-7.1206,11.395-10.6274l-.5041-5.8152Z"/><path class="cls-23" d="m431.6165,738.1665c-.2114-1.8105-.4136-3.6303-.6066-5.45-.1011-.8547-.1838-1.7094-.2757-2.5641-.1011.1011-.2114.193-.3124.2941-.5239.4963-1.0477.9925-1.5716,1.4981-1.884,1.7738-3.7497,3.5659-5.6154,5.3764-1.8657,1.8105-3.7221,3.6303-5.5787,5.4776-.5147.5055-1.0293,1.0201-1.544,1.5348-.1011.1011-.2114.2114-.3125.3124.3308,2.702.6801,5.3857,1.0753,8.0968.046.1011.1838.2114.386.3125.3952.2022,1.0385.4136,1.8289.5974.0184.0091.0367.0183.0643.0183.1287.0368.2665.0643.4044.1011,1.6635-1.7554,3.3454-3.474,5.0456-5.1927,1.8289-1.8473,3.6762-3.6762,5.5235-5.4868.5239-.5055,1.0385-1.0109,1.5532-1.5072.1011-.1103.2022-.2022.3032-.3033-.1286-1.0385-.2481-2.0771-.3676-3.1156Zm-12.8392,13.2528l-.0091.0091-.0919-.7168-.6617-5.0548-.0184-.1195c1.8381-1.8473,3.6946-3.6854,5.5511-5.5051,1.8565-1.8106,3.7222-3.6119,5.5879-5.3948l.5147,4.485.1471,1.2958c-1.8565,1.8014-3.7038,3.6119-5.5419,5.45-1.8381,1.8289-3.6578,3.6762-5.4776,5.5511Z"/><circle class="cls-35" cx="425.2385" cy="173.0029" r="91.6481"/><path class="cls-18" d="m500.9097,225.5792c6.8666-13.0861,10.7489-27.9813,10.7489-43.7811,0-52.1188-42.252-94.3708-94.374-94.3708-19.6918,0-37.9769,6.0328-53.1039,16.3503,16.1894-14.0228,37.3105-22.5054,60.4147-22.5054,50.9986,0,92.3299,41.3313,92.3299,92.3202,0,19.2798-5.9104,37.1785-16.0155,51.9868Z"/><path class="cls-2" d="m496.6465,157.5793c1.2607,19.7864-13.9467,36.855-33.9668,38.1305-11.7882.7511-22.6129-4.1444-29.7876-12.3462-5.0044-5.7162-8.2264-13.0452-8.7438-21.1652-.132-2.072-.0799-4.0995.137-6.1.6702-6.2651,2.9997-12.0924,6.5475-17.004h0c2.4142-3.3587,5.4178-6.2865,8.8554-8.6609h0c.295-.2062.608-.4136.9223-.6023h0c1.8626-1.2057,3.8454-2.2317,5.9292-3.0954,3.5861-1.4655,7.4968-2.3894,11.5766-2.6493,2.4551-.1564,4.8535-.0656,7.1927.2352,14.8597,1.9395,27.0651,12.857,30.4707,27.334.4486,1.9206.7372,3.8889.8668,5.9236Z"/><path class="cls-33" d="m428.1235,206.3161c.9981-3.5504-3.2933-8.2369-5.2087-8.8583-.3008-.0976-.812-.3982-1.1552-.6092.1472.4061.2229.9605.194,1.228-.217,2.007,2.772,7.6086,6.1699,8.2395Z"/><path class="cls-8" d="m427.4078,205.0383s.8666,1.4531,1.2387,1.8737c.4145.4684,1.0167.8127,1.0167.8127"/><path class="cls-6" d="m458.0484,113.4744c2.9692-.1518,5.8738-.0254,8.7112.3394,19.2487,2.5124,35.0591,16.6545,39.4706,35.4074.5811,2.4879.9549,5.0375,1.1228,7.6732.4755,7.4627-.8575,14.6268-3.6262,21.0745"/><path class="cls-6" d="m458.5796,206.3551c-13.394-.4766-25.4957-6.554-33.8117-16.0606-6.4825-7.4045-10.6562-16.8983-11.3264-27.4166-.171-2.684-.1035-5.3103.1774-7.9017.6861-6.4136,2.7146-12.4731,5.8035-17.8728"/><path id="path4227" class="cls-6" d="m487.4124,183.8427l-3.9466,1.8549c-1.2031.3469-2.3858.7609-3.5426,1.2399-1.2767.5921-2.6048,1.0664-3.9678,1.4171-1.9839.5668-.3543.3897-2.8341.8502s-2.6924.7085-4.322.9919-1.5233.2834-3.7906.5314l-5.3494.4605c-.9655.1037-1.9394.1037-2.905,0-1.8164.1258-3.6393.1258-5.4557,0-1.8422-.2126.2834,0-2.5861-.3543-2.2053-.3264-4.3927-.7639-6.5539-1.3108l-3.4696-.8308"/><path id="path4223" class="cls-6" d="m496.0047,166.9626s-1.7338,1.0926-3.7531,2.1554c-1.8452,1.0013-3.75,1.8886-5.7037,2.657-1.6533.7483-3.3442,1.4105-5.066,1.9839-2.6924.7794-3.2947,1.0982-5.7745,1.665s-4.57,1.0628-6.5893,1.3816-4.8888.6022-5.1014.6022c-.8408.1781-1.6932.2965-2.5507.3543h-3.7552c-1.1087.0778-2.2214.0778-3.3301,0-3.1175,0-4.3929,0-6.6956-.2126s-2.7633,0-4.6409-.3188-2.161-.248-4.4992-.6731l-4.9951-.9565c-1.2681-.2359-2.5219-.5434-3.7552-.9211l-2.2673-.6731"/><path id="path4219" class="cls-6" d="m495.0857,151.086c-1.8422.8502-1.8776.7794-3.5426,1.4525-1.0555.5003-2.1445.9264-3.2592,1.2753-1.4799.5975-2.9941,1.1062-4.5346,1.5233-1.913.4251-3.0112.8502-4.6409,1.2045s-4.3574,1.1336-6.6602,1.4879-3.1529.6731-4.8534.8148-2.161.3543-4.57.496-2.7278,0-4.7471,0h-9.2109c-.9211,0-1.7005,0-3.2238-.2834s-1.9485-.1771-3.9678-.5668l-4.8888-.8857c-1.3809-.1686-2.7367-.5016-4.0386-.9919-2.9404-.9211-4.7826-1.3816-6.3059-2.0193l-2.0193-.8711"/><path id="path4209" class="cls-6" d="m431.885,138.0136s0,.2834,1.2399.6377c.9836.4308,2.0031.7745,3.0467,1.0274,1.9839.4251,2.657.6731,4.7826,1.0628s3.5426.6377,5.2431.8502,3.8615.6377,6.0225.744,3.8969,0,5.8099,0,3.1175,0,5.5265-.2834c2.1325-.0479,4.2557-.297,6.3413-.744,2.5507-.5668,4.7826-.9565,7.2978-1.7713,2.5153-.8148,2.8695-.8502,4.6409-1.4879,1.3866-.4937,2.7362-1.0856,4.0386-1.7713l.8857-.5314h0"/><path id="path4261" class="cls-6" d="m448.6417,125.9332s0,.2834.9919.496.6377.3543,1.7005.4605c.8164.1744,1.6459.281,2.4799.3188h3.0821c.7903.0531,1.5833.0531,2.3736,0,.9565,0,1.7005,0,2.9758-.3188,2.161-.3188.9919,0,2.0193-.3543.7309-.175,1.4522-.3879,2.161-.6377.9919-.3188,2.3381-.9211,2.3381-.9211"/><path id="path4229" class="cls-6" d="m442.1797,190.9686s-.3044-.3467-1.9341-2.4015c-1.316-1.4895-2.5013-3.0896-3.5426-4.7826-1.3366-2.1214-2.5205-4.3352-3.5426-6.6247-1.2552-2.2098-2.1633-4.5995-2.6924-7.0853-.3188-2.6216-.5668-4.2512-.5668-5.4202-.1991-1.4813-.1991-2.9825,0-4.4637.052-2.5648.5309-5.103,1.417-7.5104.6449-2.1311,1.438-4.2146,2.3736-6.2351,1.1215-2.2815,2.4372-4.4624,3.9323-6.5185,1.2837-1.7228,2.6553-3.3782,4.1095-4.9597,1.2671-1.5683,2.6528-3.0369,4.1449-4.3929l4.8534-3.9678"/><path id="path4235" class="cls-6" d="m454.5933,127.4211s.6731-.9211-.9565,1.7359c-1.1539,1.8851-2.1949,3.837-3.1175,5.8454-1.3789,2.4175-2.5635,4.9407-3.5426,7.5458-1.1078,2.2573-1.9518,4.6348-2.5153,7.0853-.9919,4.3929-1.665,7.3333-1.9839,9.9902-.3408,2.0835-.4478,4.1986-.3188,6.3059.0663,1.0263.0663,2.0558,0,3.0821,0,.4251,0,.6731.6022,3.5426.3479,2.5049.929,4.9719,1.7359,7.3687.6742,2.2593,1.7415,4.3819,3.1529,6.2705,1.0759,2.1239,2.501,4.052,4.2157,5.7037,2.5861,2.6924,3.6067,3.5693,3.6067,3.5693"/><path id="path4241" class="cls-6" d="m458.5257,127.3503v1.7713c0,3.5426.2834,4.8888.4251,8.1481.1417,3.2592,0,3.0467.4251,7.9001.4251,4.8534.2834,4.7117.5668,9.4588.2834,4.7471.2834,5.2431.6022,10.0611.3188,4.818.496,8.5378.7794,13.0369.2834,4.4992.4605,5.5619.6377,9.3526.1771,3.7906.2123,8.6591.2123,8.6591"/><path id="path4245" class="cls-6" d="m461.714,127.0668s-.3543-.4251,1.0982,1.4879c1.3881,1.7042,2.6887,3.4778,3.8969,5.314,1.0628,1.8067,1.7713,2.409,2.6216,4.1803s1.5233,2.7278,2.5507,4.6763,1.5233,3.1884,2.5507,5.6682c.7501,1.6643,1.3777,3.3811,1.8776,5.1368.6377,2.1964.9565,3.0112,1.4171,5.2077.4368,1.9258.7445,3.8786.9211,5.8454.1768,1.5403.2478,3.0909.2126,4.6409.0008,1.7997-.1057,3.5978-.3188,5.3848-.1635,1.8251-.5563,3.6224-1.1691,5.3494-.5244,1.9008-1.2737,3.7323-2.2319,5.4557-.7812,1.6075-1.6935,3.1479-2.7278,4.6054-1.0901,1.4791-2.8087,3.5617-4.0779,4.8902"/><path id="path4249" class="cls-6" d="m466.2486,126.1103l1.4525,1.0274c1.4525.9919,2.1964,1.3462,3.5426,2.5153s2.3381,1.5942,4.1095,3.2238c1.3844,1.0703,2.6761,2.2554,3.8615,3.5426,1.7005,2.0193,2.409,2.5861,3.5426,4.4283,1.2361,1.5499,2.3271,3.2101,3.2592,4.9597.9505,1.5898,1.7567,3.2615,2.409,4.9951.7649,1.7968,1.3234,3.6746,1.665,5.5974.4786,1.7298.7053,3.5195.6731,5.314.0635,2.6265-.1623,5.2521-.6731,7.8292-.2224,1.5574-.639,3.0807-1.2399,4.5346-.595,1.9322-1.3657,3.8059-2.3027,5.5974-1.2754,2.4444-2.7633,4.7117-3.5426,6.3059l-2.3012,3.6459,1.4864-2.0871"/><path class="cls-3" d="m433.2987,174.0978c-.275.8047-.323.6203-.275.8047.0299.1855-.1988.2938-.4571,1.3598-.2764,1.0672-.2125.9319-.1134,1.9189s.0192.0175.1174.7047c.0982.6872.0407.3535.4048.9488.3461.5964-.0109.1132.2378.6033.2475.4715.0946.6312.0299,1.8911s-.2655.954-.2655.954l-.0313.077c-5.0044-5.7162-8.2264-13.0452-8.7438-21.1652-.132-2.072-.0799-4.0995.137-6.1,0,0,.0385.035.139.7596.1101.8739.0119.1867.1043.4994.0912.2941.2214.0609.6383.9152s.1525.4026.3279.8787c.1765.4948.0335.2415.1982.5496.1658.3268.1727.7199.2951,1.2182s.0347.2602.1652,1.1702.0948.3501.2457,1.2963.1525.4026.2134,1.0735.2892,1.1249.4562,1.4703.0708.2579.3473.6151c.2765.3572.0095.1493.3896.425s.3789.257.7413-.0285.2589-.2039.5705-.1488.5955.2432.9865.4057c.391.1625.3259.2791,1.0379.9272.7119.6481.759.5327,1.183,1.499.5947,1.3678.2029.6243.5947,1.3678.3906.7248.3461.5964.5006,1.5987.0968.9497.0728.8575-.1756,1.5106Z"/><path class="cls-3" d="m439.816,130.5552s-.2774.3753-.4895.7449c-.2603.4664-.3254.583-.5894,1.2745-.2653.6729-.3327.7521-.6654,1.5043-.3327.7521-.6241,1.0144-1.1542,1.7978s-.471.5735-1.084,1.1936c-.6142.6014-1.2341.8283-1.9541,1.1928-.7211.3458-.9413.3036-1.7237.5409s-.6753.2117-1.3047.2893l-.0181.0012c2.4323-3.3599,5.6224-6.5393,8.9832-8.5393Z"/><path class="cls-3" d="m446.5386,126.9222c-.0964.1936-.2422.2604-.5482.5797-.4083.4196-.3686.4733-.8769,1.0305-.4902.556-.4456.4032-.89.8251-.4275.4021-.8054.4449-1.1919.6382-.3684.1922-.8629.1112-1.2684.0058-.4043-.0867-.4882-.0523-.9564-.0037,1.8807-1.2069,3.6479-2.212,5.7317-3.0757Z"/><path id="path4259" class="cls-3" d="m446.5437,127.9352c1.1439-.8226,2.0674-1.4062,2.7272-1.8606.661-.4357.5672-.486,1.2292-.6218s.4995-.1255,1.4202-.1842l1.5525-.0989c.361-.023,1.0375-.216,1.3226-.0093.2839.1881.3478.0528.3138.3736-.0327.3394.1022.1809-.3073.5818s-.4662.6482-1.1189,1.2146c-.6527.5664-.9142,1.0141-1.5897,1.507-.6574.4917-.8586.7482-1.2847.8878s-.4587.1979-.8064.1451-.4404-.0844-.6751-.0694-.4406.1968-.4406.1968c0,0-.3252.3019-.2688.6169.0371.2975.1789.5321-.1052.6252s.0962.0876-.5717.1301-.5886.15-.9435-.0149,0,0-.4547-.3084c-.3224-.2231-.1537-.4213-.3186-.4483-.166-.0456-.2226-.0795-.3983.0066-.1938.0873-.5285.2398-.8705.5615-.3432.303-.4902.556-.7539.6853-.2636.1293-.3323.1899-.6572.2106s-.4598.1792-.5126-.0798c-.0347-.2602-.22-.3233.0341-.6019s.4829-.3869.7805-.8369c.3517-.4535,1.555-1.7671,2.6976-2.6084Z"/><path class="cls-3" d="m495.7797,151.6558c-.1444.0092-.3249.0207-.4164.0078-.1456-.0095-.296-.0936-.5787-.263-.2646-.1706-.2706-.2639-.5015-.4741s-.3065-.5427-.5143-.9606c-.2259-.4167-.2378-.6033-.454-1.1518-.2343-.5473-.1008-.4434-.186-.6441s-.1863-.363-.3233-.5229-.2368-.3035-.2368-.3035c0,0-.1397.0839-.4817.4055s-.0591.2099-.1942.6496-.1988.2938-.156.9658-.0332.9017.0313,1.6286c.0644.7268.0347.2602.1198.7421.0863.5005.2124.7736.3179,1.2917s.2739.601.2953.937.0357.56-.0947,1.0743-.1351.4397-.3329,1.0333c-.1966.6123-.0736.2671-.4674.6295-.3757.3613-.2577.2226-.466.367-.2095.1258-.4501.0474-.4501.0474,0,0-.2501-.2277-.4773-.6631-.2271-.4353-.0321-.504-.045-.9905-.0141-.5051-.1089-.8552-.1469-1.4525-.0392-.616-.4051-.6677-.679-1.2687s-.5806-.8626-1.0709-1.731c-.4903-.8684-1.1265-1.4651-1.1265-1.4651,0,0-.4352-.572-.7972-.8488-.362-.2768-.5064-.2676-1.1271-.6216-.6195-.3354-.343.0219-.7209.0647s-.3743.0988-.7283.2338-.2867.3369-.4878.5933-.1855.218-.5491.4848-.2829.1117-1.2409.154-.3995-.012-1.4366-.3583c-1.0371-.3463-.2105-.174-.9803-.5935s-.3247-.2604-1.0079-.7417c-.6832-.4813-.4499-.2337-1.0875-.5679s-.32-.1858-.8445-.4522c-.5233-.2478-.3164-.1298-.5366-.172-.2214-.0609-.3622.0043-.3622.0043,0,0-.2059.1818-.2.2751s.1129.3489.3219.7854c.191.4376.238.3222.7502.9643.5134.6608.3186.4483.873.9002.5532.4333,1.0752.9436,1.7391,1.4073.682.4626.2478.1904.5701.4135s.1264-.0081.6525-.2852.1938-.0873.9629-.2488c.7872-.1626.3803-.0055.9843.0872s.2238.0982.6471.4836.2307.4913.2438.6967-.1786.6111-.3619,1.1476c-.1833.5365-.424.4581-.96,1.1482s-1.3357,1.5095-1.5934,1.7321-.2133.3509-.4277.6832c-.2133.3509-.2121.3696-.5493.7659s-.1627.2915-.3109.5259c-.1313.2145-.3444.2843-.4997.4067s-.2829.1117-.5862.1873c-.3045.0569-.3297-.054-.515-.1171-.1672-.0643-.4005-.3118-.4844-.7751s-.4796-.7004-.9196-1.3471c-.4388-.628-.2727-.5824-.679-1.2687s-.6709-.8569-1.2816-1.6239c-.5927-.7681-.4894-.5686-1.0521-1.1512s-.5074-.5674-1.0942-1.2422c-.5687-.676-.4834-.4752-.9284-.9154-.4269-.4414-.5532-.4333-.7181-.4603-.1637-.0083-.2347.015-.4347.2901s-.0085.1505.0585.6335c.0863.5005.1442.2719.5143.9606.3882.6875.2525.265.8115,1.0728.5578.7891.9738,1.3436,1.57,2.1678.5975.8428,1.4776,1.855,2.0679,2.5859.5735.7506.2934.3374.6756.9316.4003.593.821,1.2222.9773,1.3996s.3188.1671.4547.3084c.1359.1413.2297.1915.4511.2524s.3249-.0207.6667-.0612c.3238-.0394.319-.114.7451-.2536s.3743-.0988.6525-.2852.319-.114.5717-.1301c.2347-.015.1998.006.3862.0878s.2093.1553.2487.4902c.0395.3348-.0484.3779-.2474.9529-.199.5749-.1845.5178-.6426,1.5778-.4569,1.0787-.6676,1.1858-1.3435,2.241s-.7555,1.2289-1.5423,2.5348-.6557,1.3725-.8803,2.3989-.0336,1.464-.0214,2.794-.0742,1.1105-.0751,2.2351c-.002,1.1059-.2693,1.1792-.6637,2.3851-.4125,1.207-.5507,1.0284-1.0713,1.9612-.5206.9328-.5505.7473-1.113,1.3079-.5624.5606-.8348,1.1215-1.6996,2.0575-.8467.9348-1.0503,1.154-1.7825,1.8941-.7142.739-.2156.3136-.8168,1.1203-.6023.7881-.4589.4791-.9033.901-.4432.4406-.4734.5362-.9284.7901-.4539.2726-.4598.1792-1.1686.1494-.6907-.031-.4608-.1206-.9371-.4838-.4763-.3632-.7024-.4988-1.0246-1.003-.3221-.5043-.3319-.3724-.5806-.8626-.2476-.4715-.0936-.3314-.1077-.8365-.0152-.5238-.2559-.6022-.6994-1.3049-.4435-.7027-.1599-.2335-.8224-.9597-.6637-.7449-.3606-.5393-.8968-1.2736-.5169-.7168-.4495-.796-.8398-1.802-.3711-.9884-.1521-.9649-.1878-1.5249s.0375-.2648.1605-.61c.123-.3452.2196-.8199.4165-1.7133.2149-.8946-.1101-.8739-.1493-1.4899s-.0466-.4468-.1979-.8308c-.1525-.4026-.7036-.5174-1.0272-.7592-.3235-.2418-.4148-.5358-.8908-1.1802-.4749-.6257-.4677-.5137-.5217-.7914-.072-.2765.0615-.1726.2365-.8397s-.0164-.5425-.0785-1.232-.2523-.5462-.5697-.9758c-.3174-.4296-.5582-.2268-.8986-.4488-.3224-.2231-.1518.1783-.2299.0896s-.2357-.2849-.725-.8534c-.4894-.5686-.8181-.3227-1.8191-.6713-1.001-.3486-1.4309.0162-2.0784.0949-.6487.0601-.5404.0532-.7378.0845s-.1867.1993-.6178.5454c-.4323.3274-.6465.3786-1.6696.5374s-1.148-.0955-2.0371-.395-1.4001-.9229-2.1961-1.753-.7502-.9643-1.1828-1.7801c-.4314-.7972-.4048-.9488-.6928-2.055-.2892-1.1249-.0093-.4305-.0723-1.4198s.0966-.4747.2526-1.4405.1185-.701.4923-1.6619.2738-.8234.6934-1.9184c.4016-1.0939.5496-1.0471,1.0074-1.826.4591-.7602.2071-.1631.6503-.6037.442-.4592.1278-.2705.9161-.4145s.2347-.015.5223-.052c.2876-.0371.2107-.1071.4-.5503s.3135-.7697.3548-1.2596c.0425-.4713.005-.2065.4793-.4429.4575-.2166.2817-.1304.9342-.4156s.514-.1827,1.2387-.4725c.7235-.3085.5729-.1115,1.4456-.3545.8727-.243.3983-.0066,1.0843-.0503.6679-.0426.3864-.1933.3864-.1933,0,0,.7211-.3458,1.613-.5713s.4356.0097,1.6257.1963.6124.2234,1.2872.574.4065.4052.778.8313c.3535.4273.2416.3782.5338.6969.2741.3199.2297.1915.835.3029s.361-.023,1.053.0266.7449.0275,1.7197-.0346.6078-.1324,1.8836-.3074c1.2577-.1738,1.9846-.1452,2.7259-.1737s.8665-.0552,1.4779-.1317c.6102-.0951.2166-.0138.5356-.1278.337-.1152.3168-.4325.3168-.4325,0,0,.1688-.4793.1355-1.002s-.1103-.5927-.2737-.8822c-.1634-.2895-.1537-.4213-.2366-.5847-.0829-.1634-.2404-.3595-.4269-.4414-.2045-.0807-.1625.0104-.3743.0988s-.2154.0325-.567.2048-.3069.0196-1.0109.0644c-.686.0437-.3368-.166-.7145-.4043s-.2404-.3595-.2499-.5089-.2906-.8624-.4276-1.0223-.0948-.3501-.2103-.4552c-.1335-.1039-.3454-.0155-.6691.0239-.3418.0405-.1385.1025-.4938.5s-.0796.1737-.3555.6786c-.2748.5236-.0062.1878-.2327.6146-.2097.4069-.1494.2157-.2133.3509-.0651.1166-.4995.1255-.7582.0483-.2767-.0761-.3043-.2243-.4737-.6071-.1706-.4015-.0311-.2042-.1162-.6861-.0839-.4632-.0167-.2613-.02-.5985-.0034-.3371-.1694-.3828-.2763-.6384s-.1117-.3302-.3088-.5801c-.1791-.251-.2573-.3397-.505-.5301-.2478-.1904-.1359-.1413-.7098-.3296-.5931-.2059-.2948-.0749-.6257-.1476-.3489-.0715-.2984-.1309-.5354-.1533-.2382-.041-.4043-.0867-.6751-.0694s-.0722.0046-.1613.029.0024.0373.0335.2415c.0299.1855.362.2768.7012.4801.338.1846.3356.1473.8445.4522.4908.3061.5651.62.8151,1.1288s.0829.1634.3328.6723c.2499.5089.066.1832.1716.7013.1055.5181-.0002.2811-.0209.5261-.0026.2438-.1577.085-.3948.0626-.2359-.0037-.2418-.097-.6003-.3179-.3404-.222-.1791-.251-.4749-.6257-.297-.3934-.1623-.2708-.564-.6013s-.2862-.2254-.8649-.4884c-.5967-.2619-.3958-.2372-.8601-.4138s-.2166.0138-.7463.235-.2888.0184-.9748.0621-.5067.0135-1.024-.1409c-.5174-.1545-.2924-.0376-.6138.0391-.3406.0592-.1518.1783-.5071.5758s-.1266.2892-.352.7346c-.2434.4466-.3928.6623-.8662,1.1985s-.1867.1993-.6154.5827-.4347.2901-.8439.4099c-.3912.1186-.6679.0426-1.1865-.1306s-.5207-.4916-.8067-.9982c-.3041-.5054-.1502-.3653-.2737-.8822s-.0357-.56.126-1.1513c.1629-.5726.4855-.6307,1.227-.9403.7415-.3096,1.295-.1575,1.6729-.2003s.6005.0367,1.0494-.0294c.4501-.0474.2166-.0138.4273-.1209s.1133-.2134.0629-.4351c-.0311-.2042-.1815-.2883-.4906-.5872-.3079-.2803-.2922-.3187-.4618-.4204s-.1442-.2719-.1502-.3653.0375-.2648.3579-.6413c.613-.6201.5817-.5431.6781-.7367.1109-.2507.0458-.1341-.1008-.4434-.0998-.1436-.3247-.2604-.4606-.4017s-.2321-.2289-.344-.278c-.1311-.0666-.3475-.334-.2908-.5812,0,0-.0392-.616.2524-1.1594.2736-.5422.2783-.4675.5493-.7659.271-.2984.3432-.303.5178-.4078.1926-.106.1986-.0127.1986-.0127l.1371.1599s-.1145.1947-.1905.4245c-.0772.2111.0395.3348.0993.7059s.1896.7001.2664,1.0513.1081.2742.2464.4529.0395.3348.2271.4353.1444-.0092.4333-.0276.3069-.0196.5945-.0566c.2876-.0371.1974-.0313.1974-.0313l.153-.1597.0316-.3581s.1313-.2145.6527-.5664c.5225-.3332.561-.2981,1.1123-.4645.5682-.1861.2888-.0184,1.1012-.0702s.3587-.0603,1.0242-.1402c.6667-.0612.2841-.0931.8005-.2384s.396-.044.6608-.1546.1962-.05.3684-.1922c.1914-.1247.0423-.1901.2135-.6321.1893-.4431.0689-.3417.2149-.8946.128-.5517-.0034-.3371.0933-.8119.0966-.4747-.001-.2998-.1112-.8925s-.0708-.2579-.3245-.5416c-.0782-.0887-.1166-.1238-.1371-.1599-.0181.0012-.1264.0081-.2696.0359-.1974.0313-.1349.1585-.4047.4756-.2698.3171-.0615.1726-.2665.6542-.2049.4816-.1097.2694-.1605.61s.0347.2602.0958.6499c.043.3908.0407.3535.0886.5379.0299.1855.0226.3547.0226.3547,0,0-.1553.1224-.6608.1546s-.3803.0055-.8858.0377-.7568-.2142-.9589-.2575c-.201-.0247-.6364-.3156-.9105-.6355-.2561-.321-.1886-.4003-.2426-.678-.0359-.2788-.0875-.5192-.1126-.6301-.0252-.1108.1962-.05.9342-.4156.7392-.347.4817-.4055,1.1415-.8599.661-.4357.8971-.7131,1.2595-.9986.3624-.2855.2313-.3521.3567-.66.1242-.3265.418-.5514,1.1453-1.0851.7261-.5523.1938-.0873.6705-.2864.4948-.2002.2166-.0138.5777-.0368s.4333-.0276.533.116.1623.2708.3354.4284c.1732.1576.2466.1717.6483.5022s.2454.153.6195.3354.3981.2745.6219.3727c.2226.0795.2755.0574.4717.0074.2154-.0325.1337-.1772.5517-.7286s.7106-.795,1.1574-1.1795c.4287-.3834.1157-.176.4142-.3263.2974-.1689.3551-.1163.7475-.2163s.2335-.0336.5128-.2014c.1047-.0629.1577-.085.1926-.106-.0036-.056-.0299-.1855-.1611-.2521-.1684-.083-.4102-.18-.8385-.3589-.409-.1614-.4186-.3107-.8046-.6797-.3872-.3877-.4846-.4939-.7298-.9281s-.2993-.4307-.583-.9c-.3029-.4867-.2283-.454-.2283-.454l-.0059-.0933c14.8801,1.9757,27.0855,12.8932,30.4911,27.3702Z"/><path id="path5771" class="cls-3" d="m477.3317,179.5951c.0104-.9753-.0281-1.0103.1288-1.6763.1558-.6846-.0452-.7093.6533-1.4098.6973-.7192.5479-.5035,1.1861-1.0127.6382-.5092.6612-.7169.8935-.7691.2323-.0523.3684-.1922.5463.0402s.3406-.0592.2811.713-.0536.8656-.4008,1.6749c-.3484.7906-.0484.3779-.6279,1.2395-.5964.8814-.3484.7906-.8013,1.363-.4349.5712-.4412,1.0402-.7807,1.118-.3382.0965-.6416.1721-.7679.1801s-.1131-.0678-.1874-.3816c-.0768-.3512-.1231-1.0792-.1231-1.0792h0Z"/><path class="cls-33" d="m422.7407,139.0646c-3.3763,1.484-4.2706,7.7752-3.5341,9.6494.1157.2944.2081.8801.2632,1.2792.2202-.3716.6003-.7822.8253-.9298,1.6881-1.1071,4.1164-6.9735,2.4456-9.9988Z"/><path class="cls-33" d="m423.7219,138.5347c-1.6066,3.3197,1.7945,8.6875,3.5709,9.6359.279.149.7294.5347,1.0302.8027-.0735-.4256-.0507-.9848.0248-1.243.5664-1.9377-1.3917-7.9774-4.6259-9.1956Z"/><path class="cls-8" d="m422.2083,140.429s.572-1.5923.6605-2.1468c.0986-.6176-.018-1.3015-.018-1.3015"/><path class="cls-8" d="m424.203,139.7473c-.5284-1.2201-1.0996-1.2882-1.3114-1.6466"/><path class="cls-11" d="m425.6995,139.0384l-8.523-5.8082,1.6107-2.1503,8.7551,5.5191c.3355.2115.4075.6702.153.9743l-1.1248,1.3442c-.2161.2582-.5928.3105-.8711.1209Z"/><path class="cls-17" d="m415.4851,128.9949l3.3022,2.085-1.6107,2.1503-3.313-2.254s-.4605.6865-1.0269,1.6225c-.5794.9368-1.0749,2.646-1.0749,2.646l-2.9093-.832c1.3145-4.1534,2.72-5.7793,3.7365-7.146,3.1376-4.2184,7.0553-3.7782,7.0553-3.7782l-4.1592,5.5063Z"/><path class="cls-11" d="m465.5191,203.9739l-2.5489.4536,1.8005,9.8547s.0047.1137.1841.2896c.169.1903.2702.1874.2702.1874l2.0932-.3585s.1863-.0285.302-.186c.1033-.1557.0929-.3066.0929-.3066l-2.194-9.9342Z"/><path class="cls-17" d="m464.5538,199.7713l.9621,4.203-.0985.0151-2.1747.4001-.2734.0423-.7485-4.0803s-.7724.1429-1.7923.4169c-1.0931.2937-2.8152.8372-2.8152.8372l-1.102-2.6084c3.9882-1.4583,5.3944-1.6133,7.3164-1.9272,4.2062-.687,7.0836,1.6316,7.0836,1.6316l-6.3574,1.0697Z"/><polygon class="cls-4" points="476.741 209.5828 475.6939 206.5196 481.3467 204.4913 480.744 202.7117 475.0911 204.74 474.175 202.0245 480.2178 199.859 479.6151 198.0794 471.7124 200.9257 475.502 212.042 483.6166 209.1072 483.0138 207.3277 476.741 209.5828"/><path class="cls-4" d="m489.3436,199.7086c-.1095-.0118-.219-.0235-.3466-.0341.5239-.5956.8301-1.1962.9364-1.8027.1475-.8153-.0108-1.5923-.4736-2.3126-.3618-.558-.8236-.9784-1.3854-1.2612-.5798-.2817-1.1658-.3755-1.7556-.2443-.5536.129-1.2387.4725-2.0911,1.0328l-4.2407,2.8566,6.2299,9.8738,1.6351-1.0788-2.6407-4.1799,1.1643-.7864c.3648-.2482.5587-.3355.6465-.3786.1769-.0674.3924-.0999.6102-.0951.2178.0049.5295.06.9193.2039.4078.1427.9661.3695,1.6578.7003l2.5781,1.2039,2.0505-1.3864-3.6439-1.717c-.6352-.2969-1.2644-.5004-1.8504-.5943Zm-1.3511-2.1442c.001.2998-.0895.5867-.2894.8618-.1988.2938-.5769.6178-1.0983.9696l-2.3467,1.5739-1.672-2.6298,2.6248-1.7603c.6093-.3949,1.1413-.5787,1.5624-.5119.4031.0681.7242.2725.9659.6507.1791.251.2511.5275.2532.846Z"/><path class="cls-4" d="m497.4329,191.8275c-.1083.0069-.2154.0325-.3406.0591.3543-.6973.5113-1.3633.472-1.9792-.0692-.8015-.4056-1.5298-1.0225-2.1089-.4642-.4577-1.026-.7405-1.6324-.8706-.6245-.1289-1.2009-.0734-1.7451.2049-.5273.2585-1.1125.7456-1.7882,1.5197l-3.4339,3.8547,8.3939,7.9929,1.337-1.4908-3.55-3.3723.9479-1.0537c.2879-.3182.4601-.4604.5287-.521.1733-.1235.3672-.2108.5814-.262.2131-.0698.5392-.0718.9399-.0411.438.0471,1.0228.1223,1.7748.2617l2.7699.517,1.6573-1.8674-3.9431-.7234c-.7147-.1231-1.3525-.1762-1.9471-.1196Zm-6.8803.4009l2.1487-2.4047c.5083-.5572.961-.8484,1.3931-.8947.4152-.0265.7677.101,1.0948.3988.231.2102.3727.4448.4471.7587.0732.2952.038.5974-.0862.9239-.1411.3463-.423.7579-.8457,1.2346l-1.9127,2.1273-2.2392-2.1439Z"/><polygon class="cls-4" points="506.8763 182.1546 503.6707 188.1689 500.9233 186.5822 503.8228 181.1684 502.2422 180.257 499.3427 185.6708 496.9152 184.2699 500.0087 178.4876 498.4101 177.5774 494.3608 185.1448 504.3317 190.8632 508.475 183.0648 506.8763 182.1546"/><path class="cls-4" d="m432.1962,124.9322c-.6798-.1441-1.3188-.2158-1.8976-.1977-.0903.0057-.1986.0126-.3238.0394.3748-.6611.569-1.3107.549-1.9092-.015-.8049-.3153-1.5355-.8973-2.1356-.4473-.4775-.9934-.7989-1.583-.9487-.6076-.1487-1.1853-.1119-1.7318.1291-.5297.2212-1.1342.6907-1.8315,1.4099l-3.5577,3.619,7.8859,8.2689,1.4151-1.4021-3.3405-3.4982.9695-.9988c.3071-.3007.4792-.4429.5491-.4848.1565-.1037.3515-.1724.5657-.2235.2155-.0325.5236-.0333.9254.0161.42.0482.9891.1619,1.7255.3398l2.7061.6522,1.7186-1.7588-3.8467-.9169Zm-3.731-1.093c-.1603.3288-.4614.7228-.8866,1.1622l-1.9571,1.999-2.0983-2.2091,2.2136-2.2402c.4926-.5187.9645-.7924,1.3798-.8188l.0181-.0012c.4152-.0264.7689.1197,1.0611.4384.196.2312.339.4844.3941.7808s.0188.5798-.1246.8889Z"/><polygon class="cls-4" points="431.6523 115.2584 430.0593 116.4282 436.5724 125.9091 438.1473 124.7404 431.6523 115.2584"/><path class="cls-4" d="m445.4823,116.6825c-.2932-.6185-.7405-1.0961-1.3022-1.3789-.4126-.2173-.8723-.3193-1.3608-.3069.1783-.33.2821-.6927.3137-1.0508.0377-.5459-.0485-1.0464-.278-1.5191-.2488-.4902-.6203-.9164-1.1111-1.2225-.4919-.3247-1.0442-.4583-1.6411-.439-.5777.0368-1.253.2485-2.0078.634l-3.826,1.9681,5.0117,10.3825,3.897-1.9913c.614-.3203,1.1365-.6534,1.5135-.996.395-.3438.6793-.718.8721-1.1052.1928-.3871.2895-.8618.2911-1.4055s-.1231-1.0792-.3719-1.5694Zm-4.1572-2.3778c-.0387.2462-.1689.4793-.4085.7007-.1879.1807-.5539.4102-1.08.6873l-1.8251.941-1.192-2.4918,1.6674-.856c.6489-.3412,1.1268-.5216,1.4313-.5785.2696-.0359.4897.0063.7159.1418.2274.1542.4029.3492.5483.6398.1274.2917.1813.5695.1426.8156Zm-1.1027,6.8737l-1.3986-2.8909,1.9659-1.0061c.5791-.2993,1.0582-.4611,1.3988-.5202.3237-.0394.5981-.0006.8615.1512.2634.1519.4763.3633.6241.6912.1262.2731.1789.5321.1775.7946-.0014.2625-.0593.4911-.175.6672-.1145.1947-.2843.3742-.5263.5583-.1204.1014-.3998.2691-.7862.4624l-2.1417,1.0923Z"/><path class="cls-4" d="m455.2825,112.6095l-1.5006-6.4829-1.8922.4579,1.4994,6.4642c.2975,1.2555.3016,2.1736.0257,2.6785-.276.5049-.8864.8812-1.8144,1.1089-.5525.1477-1.0423.1414-1.449.0174s-.7122-.367-.9514-.7078c-.2416-.3782-.4818-1.0189-.6833-1.9056l-1.4994-6.4643-1.8922.4579,1.5006,6.4829c.2735,1.1633.6206,2.0596,1.0594,2.6876.458.6455,1.0654,1.0754,1.8222,1.2896.4247.1229.9169.1665,1.4404.1331.3791-.0242.7739-.0868,1.1663-.1868,1.0532-.2545,1.8598-.6807,2.4211-1.26.5612-.5793.8987-1.2568.9955-2.0126.0992-.7186.0037-1.6495-.2482-2.7581Z"/><path class="cls-12" d="m401.2019,229.3732c-5.5045,2.4579-11.2747,3.5141-16.9229,3.2753-.9387-.0411-1.868-.1062-2.7956-.2122-.7657-3.0591-1.6331-5.8527-2.5927-8.405,8.3411-8.426,19.9469-14.6484,36.2995-11.9874,1.2671.1944,2.5641.4555,3.9.7593-3.8437,7.1179-9.9486,13.0248-17.8884,16.5701Z"/><path class="cls-12" d="m381.4834,232.4363c-2.7993-.3104-5.5604-.9381-8.2106-1.8554-1.6591-.5795-3.2814-1.2555-4.8575-2.0522-7.4795-3.8023-13.7615-10.1199-17.4483-18.3766-2.0705-4.637-3.1436-9.4595-3.278-14.2408,1.7589.3549,3.5552.7932,5.346,1.354,8.3344,2.5804,16.7195,7.7389,22.9134,19.9974,1.0552,2.0496,2.0366,4.2922,2.9424,6.7686.9596,2.5524,1.827,5.3459,2.5927,8.405Z"/><path class="cls-16" d="m378.8907,224.0312c-.9058-2.4764-1.8871-4.719-2.9424-6.7686,2.3481-4.3294,4.0914-9.7892,2.6264-14.9967,2.9954-2.1178,5.5327-3.2907,7.8408-3.9012.8028-.2184,1.5871-.3885,2.3437-.4863,4.9529-.6911,9.1154.6111,15.059-1.0426,4.618-1.2618,7.7998-2.9626,9.9612-4.708,1.041-.8049,1.8298-1.6372,2.4534-2.4359,3.1708,10.1476,1.5819,16.9388-1.0426,22.3519-16.3527-2.661-27.9584,3.5614-36.2995,11.9874Z"/><path class="cls-16" d="m375.9483,217.2626c-6.1939-12.2586-14.579-17.417-22.9134-19.9974-.6749-6.2605-.0529-13.3803,3.4814-20.3401.3925,1.6854,1.0368,3.2182,1.978,4.6985,2.2524,3.6555,6.2406,7.0763,12.7824,11.3773.3342.2109.6517.4292.936.6623l.0075.0167c3.575,2.585,5.5146,5.5399,6.3546,8.5859,1.465,5.2075-.2783,10.6674-2.6264,14.9967Z"/><path class="cls-16" d="m372.2127,193.6632c-.2842-.2332-.6017-.4515-.936-.6623-6.5418-4.301-10.53-7.7218-12.7824-11.3773,2.5651-5.3666,8.1293-12.9327,20.878-14.6241-.235.325-.4867.6575-.7476,1.0141-1.5569.6351-2.7409,1.3439-3.6168,2.1151-2.4409,2.1502-2.4032,4.6541-1.1904,6.6533,2.4572,4.0243.6499,6.8319-1.0063,10.1121-.9944,1.9845-1.1944,4.3145-.5985,6.7691Z"/><path class="cls-15" d="m403.8182,196.8357c-5.9436,1.6537-10.1061.3515-15.059,1.0426-.7566.0978-1.5409.2679-2.3437.4863.7196-1.1215,1.5435-2.0095,2.5493-2.7588,1.5559-1.1749,3.4909-2.0389,5.9488-2.8963,4.8844-1.7408,11.4515-4.1931,9.0256-16.9739l-.0075-.0167c-.1648-.9067-.3852-1.8486-.6523-2.8497,8.1196,5.9972,10.3336,13.151,10.4999,19.2585-2.1614,1.7454-5.3432,3.4462-9.9612,4.708Z"/><path class="cls-14" d="m388.9648,195.6059c.0465-3.1216-.9649-5.6109-3.3737-8.4965-3.4107-4.0987-9.0482-5.7026-.7989-18.9488,9.5381-.6379,15.1741,3.2472,19.1396,7.5584l.0075.0167c2.4259,12.7808-4.1412,15.2331-9.0256,16.9739-2.4579.8575-4.3929,1.7215-5.9488,2.8963Z"/><path class="cls-15" d="m378.5747,202.2659c-.8399-3.046-2.7796-6.001-6.3546-8.5859l-.0075-.0167c-.5959-2.4547-.3959-4.7846.5985-6.7691,1.6562-3.2802,3.4635-6.0878,1.0063-10.1121-1.2129-1.9992-1.2505-4.5031,1.1904-6.6533.8759-.7712,2.0599-1.48,3.6168-2.1151,1.8905-.7842,4.347-1.4209,7.4567-1.8492-.4718.6908-.8935,1.3592-1.2893,1.9962-8.2493,13.2462-2.6118,14.8501.7989,18.9488,2.4088,2.8855,3.4202,5.3748,3.3737,8.4965-1.0058.7492-1.8297,1.6373-2.5493,2.7588-2.3081.6106-4.8453,1.7834-7.8408,3.9012Z"/><path class="cls-12" d="m379.5572,241.5188l-9.896-2.5832c.7051-3.0357.6273-7.2422-1.2459-10.407,1.5761.7967,3.1984,1.4727,4.8575,2.0522,2.6502.9173,5.4113,1.545,8.2106,1.8554.9276.106,1.857.1711,2.7956.2122-3.5151,2.0296-4.1307,6.3857-4.7218,8.8704Z"/><path class="cls-12" d="m461.3512,245.2614c1.6914-3.658,2.4481-7.506,2.3382-11.2838-.0192-.6278-.0546-1.2497-.1173-1.8707-2.0382-.5387-3.898-1.1431-5.5958-1.807-5.7058,5.5018-9.9674,13.2053-8.3322,24.1601.1188.8487.282,1.718.4733,2.6137,4.7919-2.5069,8.7942-6.536,11.2339-11.8124Z"/><path class="cls-12" d="m463.572,232.1069c-.1829-1.874-.5782-3.7252-1.1681-5.5049-.3728-1.1141-.8105-2.2046-1.3292-3.2651-2.476-5.0333-6.644-9.2882-12.131-11.8252-3.0815-1.4248-6.2958-2.1845-9.4909-2.3164.2218,1.1789.499,2.3835.8581,3.5855,1.6517,5.594,5.0264,11.2446,13.1665,15.4928,1.3608.7234,2.8513,1.3991,4.4988,2.0264,1.6978.6639,3.5576,1.2683,5.5958,1.807Z"/><path class="cls-16" d="m457.9762,230.2999c-1.6475-.6272-3.138-1.303-4.4988-2.0264-2.9147,1.5316-6.5798,2.649-10.048,1.6239-1.442,1.9838-2.2483,3.6696-2.6768,5.2071-.153.5347-.2736,1.0575-.3457,1.5624-.5055,3.3049.3284,6.0988-.8293,10.0574-.884,3.076-2.049,5.1879-3.2347,6.6175-.5472.6888-1.1105,1.2088-1.6499,1.6186,6.7556,2.2087,11.3093,1.2063,14.9509-.5005-1.6352-10.9548,2.6264-18.6583,8.3322-24.1601Z"/><path class="cls-16" d="m453.4774,228.2736c-8.1401-4.2482-11.5148-9.8988-13.1665-15.4928-4.1791-.5061-8.944-.1529-13.6274,2.1485,1.1232.2772,2.1422.7214,3.1235,1.3635,2.4238,1.5378,4.6755,4.2339,7.4931,8.6447.138.2253.2812.4394.4345.6315l.0111.0051c1.6966,2.4125,3.6549,3.7351,5.6837,4.3233,3.4682,1.0251,7.1333-.0923,10.048-1.6239Z"/><path class="cls-16" d="m437.7346,225.569c-.1534-.192-.2965-.4062-.4345-.6315-2.8176-4.4109-5.0693-7.1069-7.4931-8.6447-3.61,1.6676-8.7166,5.3206-9.9593,13.828.2193-.1542.4438-.3195.6845-.4909.4382-1.0352.9224-1.8204,1.4457-2.3992,1.4588-1.6128,3.1323-1.5656,4.4581-.7373,2.6686,1.6779,4.5613.4945,6.7685-.5839,1.3353-.6473,2.8946-.7605,4.5303-.3406Z"/><path class="cls-15" d="m439.5777,246.7244c1.1577-3.9586.3237-6.7526.8293-10.0574.072-.5049.1926-1.0277.3457-1.5624-.756.4712-1.3569,1.0141-1.8666,1.6799-.7991,1.0298-1.3936,2.3157-1.9884,3.9512-1.2066,3.2498-2.9036,7.6182-11.4259,5.8843l-.0111-.0051c-.6046-.1181-1.2324-.2738-1.8992-.4611,3.9377,5.4804,8.7003,7.0233,12.7816,7.1882,1.1857-1.4295,2.3507-3.5415,3.2347-6.6175Z"/><path class="cls-14" d="m438.886,236.7845c-2.0872.0036-3.7423-.6943-5.6501-2.3299-2.7099-2.316-3.7325-6.0986-12.6598-.7006-.5102,6.3704,2.0374,10.1721,4.8844,12.8608l.0111.0051c8.5224,1.734,10.2193-2.6345,11.4259-5.8843.5948-1.6355,1.1894-2.9214,1.9884-3.9512Z"/><path class="cls-15" d="m443.4294,229.8975c-2.0288-.5882-3.9871-1.9108-5.6837-4.3233l-.0111-.0051c-1.6357-.4199-3.1949-.3067-4.5303.3406-2.2073,1.0783-4.1,2.2618-6.7685.5839-1.3258-.8283-2.9993-.8755-4.4581.7373-.5233.5788-1.0075,1.364-1.4457,2.3992-.5408,1.2569-.988,2.8934-1.3017,4.9684.4659-.3093.9165-.5854,1.3457-.8444,8.9273-5.3981,9.9499-1.6154,12.6598.7006,1.9078,1.6356,3.5629,2.3335,5.6501,2.3299.5097-.6658,1.1106-1.2087,1.8666-1.6799.4284-1.5375,1.2348-3.2233,2.6768-5.2071Z"/><path class="cls-12" d="m469.6604,230.8991l-1.6399-6.638c-2.0355.4447-4.8468.3557-6.9459-.9243.5187,1.0606.9564,2.151,1.3292,3.2651.5899,1.7797.9852,3.6309,1.1681,5.5049.0627.621.0981,1.2428.1173,1.8707,1.3877-2.3319,4.305-2.7051,5.9711-3.0785Z"/><path class="cls-12" d="m405.3961,139.2766c0,3.3-.7599,6.42-2.14,9.19-.23.46-.47.91-.73,1.35-1.7-.3-3.29-.49-4.78-.58-2.35-6.05-2.87-13.24,2.11-20.82.38-.59.8-1.18,1.25-1.78,2.7,3.5099,4.29,7.8799,4.29,12.64Z"/><path class="cls-12" d="m402.5261,149.8166c-.78,1.33-1.71,2.57-2.76,3.69-.66.7-1.36,1.36-2.11,1.97-3.57,2.89-8.13,4.62-13.08,4.62-2.78,0-5.43-.54-7.85-1.54.57-.8,1.19-1.6,1.87-2.37,3.15-3.59,7.6-6.63,15.11-6.99,1.26-.07,2.6-.06,4.04.04,1.49.09,3.08.28,4.78.58Z"/><path class="cls-16" d="m397.7462,149.2366c-1.44-.1-2.78-.11-4.04-.04-1.64-2.14-3.98-4.23-6.91-4.66-.39-1.97-.41-3.5-.2-4.79.07-.45.16-.88.28-1.28.76-2.63,2.34-4.42,2.84-7.76.4-2.59.26-4.56-.13-6.03-.17-.7-.41-1.28-.67-1.77,5.78.68,8.82,2.99,10.94,5.51-4.98,7.58-4.46,14.77-2.11,20.82Z"/><path class="cls-16" d="m393.7061,149.1966c-7.5099.36-11.96,3.4-15.11,6.99-3.28-1.06-6.7-2.96-9.39-6.28.9301.18,1.84.2,2.79.06,2.33-.31,4.93-1.54,8.54-3.85.18-.12.36-.23.54-.32h.01c2.09-1.21,4-1.52,5.71-1.26,2.93.43,5.27,2.52,6.91,4.66Z"/><path class="cls-16" d="m381.0761,145.7966c-.18.09-.36.2-.54.32-3.61,2.31-6.21,3.54-8.54,3.85-2.11-2.48-4.65-6.95-2.65-13.7.11.19.22.39.34.6-.03.92.06,1.67.25,2.28.53,1.7,1.79,2.2401,3.06,2.08,2.56-.33,3.56,1.2,4.83,2.76.77.94,1.89,1.56,3.25,1.81Z"/><path class="cls-15" d="m389.7161,130.7066c-.5,3.34-2.08,5.13-2.84,7.76-.12.4-.21.83-.28,1.28-.4-.61-.66-1.22-.81-1.89-.24-1.04-.24-2.2-.12-3.62.22-2.83.46-6.66-6.47-8.3h-.01c-.49-.12-1.01-.22-1.57-.31,4.81-2.72,8.88-2.23,11.97-.95.39,1.47.53,3.44.13,6.03Z"/><path class="cls-14" d="m385.7861,137.8566c-1.55-.72-3.02-.77-5-.21-2.81.79-4.87,3.25-9.65-3.83,1.81-4.91,5.0099-6.86,8.05-7.88h.01c6.93,1.64,6.69,5.47,6.47,8.3-.12,1.42-.12,2.58.12,3.62Z"/><path class="cls-15" d="m386.7961,144.5366c-1.71-.26-3.62.05-5.71,1.26h-.01c-1.36-.25-2.48-.87-3.25-1.81-1.27-1.56-2.27-3.09-4.83-2.76-1.27.16-2.53-.38-3.06-2.08-.19-.61-.28-1.36-.25-2.28.03-1.12.26-2.49.74-4.14.24.39.48.75.71,1.09,4.78,7.08,6.84,4.62,9.65,3.83,1.98-.56,3.45-.5099,5,.21.15.67.41,1.28.81,1.89-.21,1.29-.19,2.82.2,4.79Z"/><path class="cls-12" d="m406.6362,152.8066l-3.5,4.37c-1.36-1.03-3.48-1.93-5.48-1.7.75-.61,1.45-1.27,2.11-1.97,1.05-1.12,1.98-2.36,2.76-3.69.26-.44.5-.89.73-1.35.23,2.21,2.27,3.49,3.38,4.34Z"/><path class="cls-34" d="m356.9718,142.9259h0c-.5032-.0966-1.0202-.0966-1.5233,0l-8.4315.5668h-1.8422c-.3085.0953-.5885.2657-.8148.496-.2752.2448-.4723.5651-.5668.9211-.1015.359-.1015.7392,0,1.0982.0713.3068.2039.596.3897.8502.2181.2536.4549.4905.7085.7085l7.0853,5.9516.6377.496c.1851.1335.3878.2408.6022.3188h.4251c.2624-.004.519-.0773.744-.2126.3658-.1988.6439-.5274.7794-.9211.1804-.3936.1804-.8463,0-1.2399-.3252-.3837-.6937-.7284-1.0982-1.0274l-1.0628-.8502,1.3462-4.1449h2.7987c.1927-.0928.3716-.2121.5314-.3543.1463-.1828.2656-.3856.3543-.6022.1758-.3946.1758-.8453,0-1.2399-.2246-.4084-.6101-.7039-1.0628-.8148Zm-5.5619,3.3655l-.744,2.3027-2.8341-2.161,3.5781-.1417Z"/><path class="cls-34" d="m363.0652,131.5894c-.3354-.1491-.696-.2332-1.0628-.248-.5426-.0356-1.087-.0356-1.6296,0-.6209.0424-1.2372.1372-1.8422.2834l-.8148.248c.1459-.6413.1459-1.3072,0-1.9485-.3182-.8529-.9525-1.5507-1.7713-1.9485-.8305-.5043-1.8398-.6208-2.7633-.3188-.4445.1189-.8563.3369-1.2045.6377-.3328.2435-.6205.5432-.8502.8857-.248.3543-.496.7794-.7794,1.2754l-1.8776,3.5426c-.2929.4504-.3829,1.0033-.248,1.5233.1666.498.5416.8988,1.0274,1.0982l8.2189,4.3929c.3473.1945.7359.3038,1.1336.3188h.3188c.4592-.1191.8458-.4284,1.0628-.8502.1733-.4075.1733-.8679,0-1.2754-.1928-.4734-.5608-.8541-1.0274-1.0628l-3.0821-1.665.2126-.3897c.1415-.2808.3336-.533.5668-.744.2269-.18.4945-.3017.7794-.3543.5245-.1102,1.0583-.1695,1.5942-.1771h2.9758c.2852-.0287.562-.113.8148-.248.2891-.1487.5244-.384.6731-.6731.1367-.25.2097-.5299.2126-.8148.0353-.2614-.0278-.5265-.1771-.744-.035-.3042-.2038-.577-.4605-.744Zm-8.0772.7085c-.1326.4592-.323.8997-.5668,1.3108l-.8148,1.5588-2.2319-1.1691.8857-1.6296c.2045-.4727.4925-.9048.8502-1.2754.1821-.1519.4029-.2501.6377-.2834.2219-.0468.4512-.0468.6731,0,.4914.251.7307.8193.5668,1.3462v.1417Z"/><path class="cls-34" d="m366.9621,125.5315l-6.731-5.066,1.3816-1.8067c.2755-.3409.4256-.7661.4251-1.2045-.0414-.3955-.2471-.7555-.5668-.9919-.315-.2621-.7323-.3664-1.1336-.2834-.4272.1027-.7965.3701-1.0274.744l-4.7117,6.2705c-.2896.3329-.4416.7636-.4251,1.2045.0101.4049.2231.7776.5668.9919.2989.2662.7079.3717,1.0982.2834.4371-.1013.818-.3679,1.0628-.744l1.3462-1.8067,6.731,5.066c.3602.2991.8077.4732,1.2754.496h0c.4517-.0666.859-.3084,1.1336-.6731.28-.3478.3845-.805.2834-1.2399-.0741-.4869-.3266-.9289-.7085-1.2399Z"/><path class="cls-34" d="m365.6867,112.53h0c-.3356-.3772-.8068-.6064-1.3108-.6377h0c-.449-.0038-.8767.1906-1.1691.5314-.3379.3043-.5092.7524-.4605,1.2045.0532.5135.308.985.7085,1.3108l7.0853,6.5893c.3427.3735.8076.6122,1.3108.6731h0c.9112-.0568,1.615-.8231,1.5942-1.7359-.0366-.5185-.2948-.9961-.7085-1.3108l-7.0499-6.6247Z"/><path class="cls-34" d="m374.8267,111.4672h0c-.426.0205-.8295.197-1.1336.496l-1.9839,1.7713c-.3523.2648-.5824.661-.6377,1.0982-.0279.3937.114.7804.3897,1.0628.2478.2907.61.4589.9919.4605h0c.4231-.0325.8227-.2073,1.1336-.496l1.9485-1.7713c.3464-.27.5749-.6635.6377-1.0982.0373-.3884-.0914-.7744-.3543-1.0628-.258-.2769-.6139-.4421-.9919-.4605Z"/><path class="cls-34" d="m385.8089,104.2402c-.3798-.0747-.7737.0016-1.0982.2126-.3709.1969-.6126.5727-.6377.9919-.0659.3393-.0659.6881,0,1.0274.1782.5286.1782,1.101,0,1.6296-.195.5161-.5565.9524-1.0274,1.2399-.4218.3105-.9289.4837-1.4525.496-.5312.0008-1.0501-.1598-1.4879-.4605-.6097-.4237-1.1278-.9659-1.5233-1.5942-.6685-.8476-1.0306-1.8964-1.0274-2.9758.052-.8096.4861-1.5461,1.1691-1.9839.3889-.2918.8601-.453,1.3462-.4605h0c.5234.0174,1.0344.1634,1.4879.4251.312.1991.6618.3318,1.0274.3897.3614.0493.7282-.0392,1.0274-.248.3238-.2382.5402-.5948.6022-.9919.0449-.3724-.0429-.7487-.248-1.0628-.4193-.5385-.9851-.9445-1.6296-1.1691-.794-.2836-1.6454-.3687-2.4799-.248-.9821.1273-1.9184.4921-2.7278,1.0628-.6879.4579-1.278,1.0479-1.7359,1.7359-.4655.6813-.7796,1.4544-.9211,2.2673-.1749.8293-.1749,1.686,0,2.5153.247.9087.6419,1.7704,1.1691,2.5507.3419.499.7336.9619,1.1691,1.3816.4156.3839.8663.7278,1.3462,1.0274.4776.2784.9898.4928,1.5233.6377.4595.1396.9369.2112,1.4171.2126h.248c.5558-.0501,1.1032-.1691,1.6296-.3543.5795-.2468,1.1365-.5431,1.665-.8857.6785-.4549,1.2671-1.0315,1.7359-1.7005.3691-.5837.6218-1.2333.744-1.913.1063-.5857.1063-1.1857,0-1.7713-.0826-.4805-.2635-.9388-.5314-1.3462-.1754-.2987-.4519-.5249-.7794-.6377Z"/><path class="cls-34" d="m396.6848,92.6558c-.1699-.4843-.5274-.88-.9919-1.0982-.8236-.3629-1.7855.0106-2.1483.8342-.0177.0401-.0337.0809-.0481.1223-.1702.4814-.1702,1.0065,0,1.4879l1.2399,2.7987-4.1095,1.7713-1.2399-2.7987c-.1569-.4892-.5007-.8966-.9565-1.1336-.8901-.3371-1.8857.1053-2.2319.9919-.1282.489-.0648,1.0086.1771,1.4525l3.7906,8.7858c.1695.4821.5098.8854.9565,1.1336.2213.0527.4518.0527.6731,0,.2097.0497.428.0497.6377,0,.4372-.1612.7765-.5136.9211-.9565.1859-.4786.1859-1.0094,0-1.4879l-1.4525-3.5426,4.1095-1.7713,1.4525,3.5426c.1803.4759.5178.8759.9565,1.1336.4157.1926.8951.1926,1.3108,0,.4322-.1492.7719-.4888.9211-.9211.1859-.4786.1859-1.0094,0-1.4879l-3.9678-8.8566Z"/><path class="cls-34" d="m413.4415,97.1195l-4.8888-7.0853-.5668-.8502c-.1605-.2362-.351-.4506-.5668-.6377-.2326-.2142-.5114-.3718-.8148-.4605-.3582-.1073-.74-.1073-1.0982,0-.3573.0773-.6875.2485-.9565.496-.2388.2196-.4315.4845-.5668.7794-.1029.3109-.1742.6313-.2126.9565l-1.3816,9.2817v.8148c-.0176.2122-.0176.4255,0,.6377.1059.3988.3764.7337.744.9211.2387.1664.5239.2532.8148.248h.3543c.4371-.0598.8122-.3411.9919-.744.1874-.4627.2952-.9538.3188-1.4525v-1.3462l4.2512-.9919.7794,1.1336.4251.5668c.138.2112.3049.4021.496.5668.1678.1244.3616.2092.5668.248.2188.0704.4543.0704.6731,0,.4214-.0941.7897-.3481,1.0274-.7085.2387-.3397.3164-.7671.2126-1.1691-.1392-.4294-.3422-.8355-.6022-1.2045Zm-5.0305-1.7005l-2.3736.5668.4251-3.5426,1.9485,2.9758Z"/><path class="cls-34" d="m425.3094,86.4207h0c-.3281-.3214-.7837-.4776-1.2399-.4251-.4572-.0056-.8903.2044-1.1691.5668-.2818.4157-.4073.9177-.3543,1.4171l.3188,6.0225c.0872.7202-.0489,1.4498-.3897,2.0902-.4266.4867-1.0545.7483-1.7005.7085-.4751.0631-.9581-.0235-1.3816-.248-.3213-.1673-.5725-.4436-.7085-.7794-.1615-.5051-.2568-1.0291-.2834-1.5588l-.3188-5.9871c.0174-.507-.1601-1.0014-.496-1.3816-.3405-.3275-.8041-.4949-1.2754-.4605-.4514.0187-.8748.224-1.1691.5668-.2931.4239-.4193.9412-.3543,1.4525l.3188,5.8454c.0163.8433.1597,1.6793.4251,2.4798.2288.6633.6183,1.2597,1.1336,1.7359.5413.463,1.1848.7908,1.8776.9565.6402.1357,1.2942.1952,1.9485.1771h.744c.7389-.0214,1.4691-.1651,2.161-.4251.6122-.2351,1.1676-.5974,1.6296-1.0628.5377-.5366.9176-1.2106,1.0982-1.9485.1155-.8344.1155-1.6808,0-2.5153l-.3188-5.8454c.0104-.5059-.1662-.9979-.496-1.3816Z"/><path class="cls-34" d="m437.9566,87.5544c-.7202-.2726-1.4689-.4627-2.2319-.5668l-3.1529-.4251c-.5253-.0905-1.0657.0101-1.5233.2834-.3888.3605-.6289.8533-.6731,1.3816l-1.2045,8.8566c-.0355.3652-.0355.733,0,1.0982.0434.3486.2214.6665.496.8857.3582.243.7731.3894,1.2045.4251l3.1884.4251h1.5588c.4772-.0335.951-.1046,1.4171-.2126.4546-.1476.8845-.3626,1.2754-.6377.4838-.3483.9136-.7661,1.2754-1.2399.3669-.5083.6537-1.0698.8502-1.665.2309-.6553.397-1.3316.496-2.0193.415-1.9399-.081-3.9631-1.3462-5.4911-.4482-.4904-1.0069-.8668-1.6296-1.0982Zm-.3543,6.2351c-.0275,1.2119-.5841,2.3511-1.5233,3.1175-.165.0981-.3443.1698-.5314.2126-.2112.0344-.4265.0344-.6377,0h-.9211l-1.4171-.248.9919-7.3333h1.1691c.6139.0659,1.2125.2335,1.7713.496.4358.2283.7752.6054.9565,1.0628.2861.8688.335,1.7983.1417,2.6924Z"/><path class="cls-34" d="m452.3752,90.9907c-.5803-.406-1.228-.7059-1.913-.8857-.8304-.2892-1.7074-.4214-2.5861-.3897-.7718.0349-1.5141.3071-2.1256.7794-.5687.4426-.9889,1.0482-1.2045,1.7359-.2295.6778-.2295,1.4123,0,2.0902.199.6487.5802,1.2267,1.0982,1.665.6074.5276,1.2593,1.0017,1.9485,1.4171l1.3462.8502c.256.183.4628.4264.6022.7085.0907.2275.0907.4811,0,.7085-.1119.3671-.4074.6492-.7794.744-.5169.1755-1.0773.1755-1.5942,0-.3554-.1014-.6827-.2832-.9565-.5314-.1894-.1766-.3349-.395-.4251-.6377-.0401-.3294-.0401-.6625,0-.9919-.0041-.3612-.1018-.7152-.2834-1.0274-.1502-.3193-.4367-.5536-.7794-.6377-.3694-.178-.7997-.178-1.1691,0-.3789.1544-.6573.4858-.744.8857-.1754.6256-.1754,1.2874,0,1.913.1876.6704.527,1.2886.9919,1.8067.7526.8136,1.7246,1.3919,2.7987,1.665.707.2451,1.4483.3766,2.1964.3897h.6377c.805-.0915,1.567-.411,2.1964-.9211.6046-.4978,1.0484-1.1635,1.2754-1.913.15-.5809.15-1.1904,0-1.7713-.0762-.5439-.2963-1.0576-.6377-1.4879-.3384-.4499-.7447-.8443-1.2045-1.1691-.5359-.3943-1.0916-.7609-1.665-1.0982l-.9919-.6377-.5314-.4605c-.1183-.1243-.2142-.2681-.2834-.4251-.0346-.1276-.0346-.2621,0-.3897.0992-.2668.3252-.4662.6022-.5314.438-.1386.9082-.1386,1.3462,0,.4142.0912.7874.3151,1.0628.6377.2037.3483.3361.7337.3897,1.1336.0359.3221.1321.6345.2834.9211.1655.2998.4476.5177.7794.6022.3826.1743.8219.1743,1.2045,0,.339-.1958.5919-.5119.7085-.8857h0c.0886-.3966.0886-.8079,0-1.2045-.0826-.4805-.2635-.9388-.5314-1.3462-.2836-.4897-.6422-.932-1.0628-1.3108Z"/><path class="cls-34" d="m465.0224,96.2693c-.4366-.2099-.945-.2099-1.3816,0-.4627.1726-.8425.5145-1.0628.9565l-.744,1.5233-1.6296,3.5426c-.207.3953-.3277.83-.3543,1.2754-.0444.4273.1817.8371.5668,1.0274.1859.048.3809.048.5668,0,.2292-.0048.4515-.0789.6377-.2126.3425-.2751.6308-.6114.8502-.9919l2.2673-3.5426c.2213-.3177.4225-.649.6022-.9919.2672-.4688.4359-.9871.496-1.5233-.0565-.4768-.3691-.8845-.8148-1.0628Z"/><path class="cls-34" d="m460.2044,105.1259c-.4024-.1966-.873-.1966-1.2754,0-.4226.1349-.7775.4264-.9919.8148-.1926.4157-.1926.8951,0,1.3108.1363.413.4287.7563.8148.9565.2483.141.5293.2143.8148.2126h.4251c.4502-.1197.8256-.4303,1.0274-.8502.1775-.4066.1775-.8688,0-1.2754-.0672-.4983-.3705-.9336-.8148-1.1691Z"/><path class="cls-13" d="m425.2385,52.3405c-66.64,0-120.6624,54.0224-120.6624,120.6624s54.0224,120.6624,120.6624,120.6624,120.6624-54.0224,120.6624-120.6624h0c0-66.64-54.0224-120.6624-120.6624-120.6624Zm0,212.346c-50.6354.0196-91.6994-41.0127-91.719-91.6481-.0196-50.6354,41.0127-91.6994,91.6481-91.719,50.6354-.0196,91.6994,41.0127,91.719,91.6481v.0354c0,50.6216-41.0265,91.664-91.6481,91.6836Z"/><path class="cls-21" d="m324.7338,226.3551l.7794,2.409-2.4444,1.0982-4.1803-9.2109,2.4444-1.1336.9919,1.665,2.7633-3.9678-4.8888-.6731.4605,1.4525-2.4444,1.1336-3.1884-7.0499,2.4444-1.1336,1.4525,2.409,7.9709,1.3108,5.1014-7.2624-.744-2.4444,2.409-1.0982,4.074,8.9983-2.4444,1.0982-.8502-1.4525-2.409,3.4009,4.1803.5314-.496-1.5588,2.4444-1.0982,3.153,7.0144-2.4444,1.0982-1.3462-2.3027-7.2978-1.0982-5.4911,7.8647Zm17.7132,11.797l7.3687-.5314,1.8067,1.913,2.161-1.6296-4.6409-6.1288-2.1256,1.6296.8148,1.417-4.1803.3897,1.5942-3.826,1.1691,1.2045,2.1256-1.5942-5.9516-7.9001-2.1256,1.6296,1.2753,2.1964-3.3655,8.2189-8.0772.4605-1.9485-2.0193-2.1256,1.6296,4.6409,6.1642,2.161-1.5942-.7794-1.3462,4.9243-.4251-1.8067,4.4992-1.3462-1.4171-2.1256,1.6296,6.0933,8.0772,2.1256-1.6296-1.2754-2.161,3.6135-8.8566Zm11.4782,14.5957l.8502-.8857c1.5233-1.6296,3.0467-3.2592,4.57-4.818l1.9485,1.4879,1.8067-1.9839-7.3333-6.8373-1.8422,1.9485,1.5942,1.8422-4.4637,4.8534-.6731.8503c-1.5233,1.6296-3.0467,3.2592-4.57,4.818l-1.9839-1.2754-1.8067,1.9485,6.2705,5.8808h0l1.0628,1.0274,1.8422-1.9839-1.5942-1.8422,4.322-5.0305Zm22.3895,6.731l2.3736,1.1691,1.4879-2.2319-6.4476-4.2157-1.4525,2.2319,1.2399,1.0628-3.7906,1.7713.1771-4.1449,1.5233.7794,1.4879-2.2319-8.2898-5.4557-1.4525,2.2319,1.9485,1.665-.3897,8.8566-7.4395,3.1884-2.5153-1.2399-1.4879,2.2319,6.483,4.2512,1.4525-2.2319-1.1691-.9919,4.4992-2.0547-.2126,4.818-1.7005-.8502-1.4879,2.2319,8.4669,5.5619,1.4879-2.2673-1.9485-1.5942.4251-9.6006,6.731-2.9404Zm4.818,6.8727c-.7414-.2835-1.5613-.2835-2.3027,0-1.5529.5819-2.367,2.2883-1.8422,3.8615.2891.7415.8452,1.3481,1.5588,1.7005.4022.1778.8357.2741,1.2754.2834,1.6629.0198,3.0271-1.3122,3.0469-2.9752.0141-1.1822-.665-2.2633-1.7361-2.7639v-.1063Zm18.032-.7085l-9.5297-3.2238-.8502,2.5861,2.161.9919c-.6377,2.0901-1.3462,4.2158-2.0547,6.3059l-.3897,1.1691c-.7085,2.1256-1.4525,4.2158-2.161,6.2705l-2.3736-.5314-.8502,2.5507,9.4943,3.2238.8857-2.5507-2.2319-1.0274c.6731-2.0901,1.3816-4.2158,2.0902-6.3059l.3897-1.1691c.7085-2.1256,1.4525-4.2158,2.1964-6.2705l2.3382.5314.8856-2.5507Zm5.2431,1.2754l-3.0112-.6022-.5314,2.6215,2.3027.744c-.3897,2.161-.8148,4.322-1.2399,6.483l-.248,1.2399c-.4251,2.1964-.8502,4.3575-1.3462,6.483l-2.3736-.2125-.5314,2.6215,9.8485,1.9485.5314-2.6215-2.3381-.7085c.3897-2.1964.8148-4.3575,1.2399-6.5184l.248-1.2045c.4251-2.2319.8857-4.3575,1.3462-6.483l2.409.2125.5314-2.657-6.8373-1.3462Zm8.9275,4.322l2.3736.4251c0,2.1964-.248,4.3929-.3897,6.5893v1.2399c0,2.2319-.3188,4.4283-.496,6.6248h-2.4444v2.6924l10.0257.7085v-2.6924l-2.3736-.4251c0-2.1964.248-4.4283.3897-6.6248v-1.2399c0-2.2319.3188-4.4283.496-6.5893h2.4444v-2.6924l-10.0257-.7085v2.6924Zm16.4733,4.8888c-.803.0311-1.5583.3896-2.0902.9919-1.1,1.2186-1.0212,3.0937.1771,4.2158.544.52,1.2667.8116,2.0193.8148h0c1.6425-.0576,2.9273-1.4358,2.8697-3.0783,0-.0013,0-.0025-.0001-.0038-.0381-1.6217-1.3538-2.9218-2.9758-2.9404Zm32.5215,4.6763c-.5668-2.1256-1.1336-4.2512-1.665-6.4122l-.2834-1.2045c-.5314-2.161-1.0628-4.2866-1.5233-6.4122l2.1964-.8148-.6376-2.5861-7.2978,1.7713-1.5588,13.7454-8.0064-11.3719-7.3333,1.8068.6731,2.6215,2.5153-.3188,3.5426,13.9226-2.4799.9919.6377,2.5861,7.8647-1.9485-.8502-2.5507-2.3381.2125-1.8067-7.0853-.4251-1.5233,7.475,10.6279,2.6924-.6731,1.4525-12.7535.744,3.0467c.4251,1.8422.9211,3.7906,1.3816,5.7745l-2.1256.8148.6377,2.5861,9.5297-2.3382-.6377-2.6215-2.3736.1063Zm30.6084-16.0127l-3.5426-5.6328-.6377-1.0628c-1.1691-1.913-2.3027-3.7906-3.5426-5.7037l1.8776-1.4171-1.3816-2.3027-6.3413,4.074,2.657,13.5683-11.1947-8.5732-6.4476,3.9323,1.3816,2.2673,2.3381-1.0274,7.475,12.2576-2.0902,1.7005,1.3816,2.2673,2.3027-1.4171h0l4.6054-2.8341-1.3816-2.2673-2.1964.9211-3.8261-6.3413-.8502-1.3108,10.3091,7.8292,2.3736-1.4525-2.3736-12.4347,1.9839,3.2947,2.7278,4.3575-1.8067,1.4171,1.3816,2.2673,1.4525-.8857h0l7.0853-4.2512-1.4171-2.3027-2.3027,1.0628Zm19.5554-18.776l-9.3526-2.1256-1.7359-7.1916,1.5942-2.0902-1.9485-1.8776-5.2785,5.5974,1.9485,1.8422,1.2399-1.0628,1.0982,4.074-4.074-.9211,1.0628-1.3816-1.9485-1.8422-6.8373,7.1916,1.9485,1.8422,1.9485-1.6296,8.6795,1.9839,1.8067,7.9001-1.665,2.2319,1.913,1.8422,5.3494-5.5974-1.9485-1.8776-1.1691.9919-1.2399-4.818,4.7117,1.0982-1.1336,1.5233,1.9485,1.8422,6.979-7.3333-1.9485-1.8422-1.9484,1.6296Zm13.7454-20.5827l-9.5651-.0709-3.2238-6.6247,1.0982-2.409-2.2673-1.3816-4.0032,6.5539,2.3027,1.3816.9919-1.2754,1.9485,3.7198-4.1449-.0354.7085-1.5588-2.3027-1.3816-5.1368,8.4669,2.3027,1.3816,1.5588-2.0193,8.892.0709,3.4718,7.3333-1.1691,2.5507,2.3027,1.3816,4.0032-6.6248-2.3027-1.3816-.9565,1.2045-2.1964-4.4283,4.818.0354-.8148,1.7359,2.3027,1.4171,5.2431-8.6795-2.3027-1.3816-1.5588,2.0193Zm5.9162-14.0289l-6.1996-2.3027-1.1336-.4605-6.1642-2.409.6377-2.3381-2.409-.9919-3.5426,9.3526,2.5153.9919,1.0982-2.161,6.1996,2.3381,1.1691.4605,6.1288,2.409-.6022,2.3381,2.5153.9565,3.5426-9.3526-2.4798-.9565-1.2754,2.1256Zm-214.9321-22.1769l-3.7198-.248-.248-2.4444,6.5893-.7085h1.2399l6.5539-.6022.5668,2.657,2.657-.248-1.0274-10.6279-2.657.248v2.6924l-6.5893.7085h-1.2045l-6.5893.6022-.248-2.4444,3.5426-.9565-.2834-3.0467-6.5893.8148,1.7005,17.5006,6.6247-.6022-.3188-3.2947Zm-5.3494-19.0948l-2.657-.2834.9565-9.2109c.5314-4.818,2.8341-7.475,6.3768-7.0853,2.1024.1685,3.8805,1.622,4.4637,3.6489,1.0323-1.2018,2.5256-1.9098,4.1095-1.9485l3.2947-.4251.496-2.2673,2.5153.248v.5668c.1442.9273.1442,1.8714,0,2.7987-.1771,1.7005-.7085,3.6843-3.3655,3.8969l-4.0032.3897c-1.7713.1771-2.4798.6731-2.4798,2.409v.5314l5.7391.5668.5314-2.409,2.657.2834-1.0274,9.9548-2.6924-.2834v-2.409l-6.5893-.744h-1.2045l-6.5893-.6377-.5314,2.409Zm6.8373-7.0853v-.9565c.3188-2.6216-1.2753-3.5426-2.6216-3.5426-.7805-.1467-1.587.0325-2.2319.496-.6034.6444-.9446,1.4908-.9565,2.3736h0v1.1691l5.8099.4605Zm-2.8341-17.8195l6.4122,1.7359,1.1691.3188,6.3768,1.8422-.3897,2.3736,2.5861.7085,2.6924-9.6714-2.5861-.7085-.8857,2.2319c-2.161-.5314-4.2866-1.0982-6.4122-1.7005l-1.2045-.3188-6.3768-1.8422.4251-2.409-2.7278-.7085-2.657,9.6714,2.5861.744.9919-2.2673Zm3.0821-11.797l-2.4444-1.1336,3.8615-8.5378c1.8776-4.0386,4.7826-5.6328,7.7938-4.2512,1.6858.7724,2.7559,2.4679,2.7278,4.322,1.4187-1.8144,3.9056-2.403,5.9871-1.4171,1.2754.6022,5.2077,3.0821,1.665,10.6279l-3.5426,7.8647-2.4444-1.1336.7794-2.2673-6.0225-2.8695-1.0274-.4605c-2.0193-.9565-4.0386-1.8776-6.0933-2.7633l-1.2399,2.0193Zm8.5378-4.3929v-.4251c.5112-.8374.7001-1.8322.5314-2.7987-.2625-.7656-.864-1.3671-1.6296-1.6296-.6401-.388-1.4213-.4661-2.1256-.2126-.736.4511-1.2978,1.1377-1.5942,1.9485l-.3543.7794,5.1723,2.3382Zm2.6216.6731l-.248.5314c1.9839.9211,3.8261,1.7713,5.7037,2.5861l.2834-.6022c1.7005-3.7552-.3897-4.7471-1.0628-5.066-1.4879-.6731-3.0821-.8502-4.6763,2.5507Zm.0354-17.8903l5.2431,3.8261,2.4444,1.8776c1.5538,1.2813,3.4796,2.0267,5.4911,2.1256,2.4261-.1337,4.6285-1.4604,5.8808-3.5426,2.161-2.8695,3.5426-7.0853-2.5861-11.7616l-7.0853-5.2431,1.2399-2.1256-2.161-1.5942-4.9243,6.5893,2.1256,1.6296,1.913-2.0547,6.6956,5.0306c1.5042.8886,2.6271,2.3017,3.1529,3.9678.0915.9154-.2039,1.8274-.8148,2.5153-1.1691,1.5588-2.7633,2.5861-6.6247-.3188l-1.7713-1.3108-5.1368-3.8969,1.3816-2.3027-1.9485-1.2753-6.0579,8.0772,2.161,1.5942,1.3816-1.8068Zm21.6264-8.9428l6.0366-5.8356-2.5115-2.598-6.0366,5.8356,2.5115,2.598Zm4.0932-14.297l-1.7005-3.2947,1.9485-1.4525c1.3462,1.7359,2.6924,3.5426,4.0032,5.2785l.744.9919c1.3108,1.8067,2.6216,3.5426,3.8615,5.3494l-1.9839,1.8067,1.5942,2.161,8.5378-6.3059-1.5942-2.161-2.3381,1.3816c-1.3462-1.7359-2.657-3.5426-3.9678-5.2785l-.7439-.8148c-1.3462-1.8067-2.6216-3.5426-3.8969-5.3494l1.9839-1.4879,2.657,2.6216,2.6924-1.9839-4.1095-5.3848-14.1706,10.4508,3.7906,5.4557,2.6924-1.9839Zm13.3912-14.0643l-1.1691-2.4444,14.4186-6.9436,2.9758,5.7037-2.657,1.2399,3.1884,6.9436-2.5153,1.2045-1.3816-2.0902-2.161,1.0274,2.7278,5.3848,4.6054-2.161-.9565-3.5426,3.0112-1.4171,2.3736,5.8454-14.7728,7.0853-1.1691-2.4444,2.0547-1.2753c-.8857-1.9839-1.8422-3.9678-2.7633-5.9871l-.5314-1.1336c-.9565-1.9839-1.913-3.9678-2.905-5.9516l-2.3736.9565Zm13.0015-2.4444l-1.8422-2.657-4.074,1.913c.744,1.4879,1.5233,3.3301,2.3381,5.0306l2.1256-1.0274-.7085-2.409,2.161-.8502Zm29.1559,3.5426l.5668,2.2319-.4605.2834c-.8231.4599-1.7051.8056-2.6216,1.0274-1.665.3897-3.7198.5668-4.7826-1.8776l-1.7713-3.5426c-.744-1.5233-1.3816-1.913-3.1175-1.5233h-.496c.4605,2.0547.9565,3.7906,1.4171,5.5974l2.4444-.3188.6731,2.6216-9.7423,2.409-.6377-2.6216,2.2319-.8148c-.4605-2.161-.9919-4.2866-1.5233-6.4476l-.2834-1.2045c-.5314-2.161-1.0628-4.2866-1.6296-6.4476l-2.409.3188-.6377-2.5861,9.0692-2.2319c4.6409-1.1691,7.9355,0,8.7858,3.5426.4933,2.0734-.3544,4.2349-2.1256,5.4202,1.4628.5688,2.6196,1.7256,3.1884,3.1884l1.5233,2.9758h2.3381Zm-9.8131-10.2028c-.1154-.7598-.5381-1.4388-1.1691-1.8776-.8417-.3352-1.7799-.3352-2.6216,0l-1.1336.2834c.4251,1.8776.8857,3.7198,1.3816,5.7391l.9211-.248c.9749-.1396,1.8477-.6787,2.409-1.4879.4044-.738.4814-1.6116.2126-2.409Zm23.1689,9.6006l-1.1691-3.7198c-.3897-1.7359-.9565-2.1256-2.6924-2.1256h-.5314c.248,1.9839.248,3.8969.248,5.8099l2.4444.1771v2.6924l-10.0257.3188v-2.6924l2.3736-.3188v-8.0418c-.0709-2.1964-.2834-4.4283-.2834-6.6247l-2.409-.1771v-2.6924l9.3172-.2834c4.7471-.2126,7.8647,1.8067,7.8647,5.3494.0309,2.1199-1.2524,4.0379-3.2238,4.818,1.3114.8701,2.2079,2.2405,2.4799,3.7906l.8502,3.2238,2.3381.1771v2.5153l-.496.1771c-.9669.286-1.9677.4409-2.9758.4605-1.9158.3448-3.7509-.9208-4.1095-2.8341Zm-3.5426-14.7728h-.7794v5.8808h.9919c.9679.0533,1.9154-.2924,2.6216-.9565.5063-.6019.7601-1.3762.7085-2.161-.248-1.9839-1.2399-2.7987-3.5426-2.7633Zm18.8823,18.6343l-6.8727-1.1691.4605-2.657h2.409c.3897-2.1256.7794-4.2866,1.1691-6.5185l.2126-1.1336,1.0628-6.5539-2.3381-.6731.4605-2.6216,15.5876,2.6216-.8502,6.3768-2.905-.496-1.1691,7.3687-2.7633-.496v-2.4798l-2.3381-.3897c-.3543,2.0547-.6731,4.0032-.9919,5.9871l4.9951.8148,1.2045-3.3301,3.2947.5668-1.3462,6.2705-9.2817-1.5588v.0709Zm8.1835-13.3203v-3.0821l-4.4283-.7794-.9565,5.4557,2.3027.4251.8148-2.409,2.2673.3897Zm23.7003,19.0948l-7.6875-3.5426,1.665-.4605c5.3494-1.4879,8.3252-2.7633,9.5651-5.6328.6636-1.3498.7405-2.9136.2126-4.322-.655-1.6102-1.9325-2.8876-3.5426-3.5426-2.8669-1.7247-6.5891-.7987-8.3138,2.0682-.0533.0887-.1044.1787-.1531.27v.3897c.0528.9609.6419,1.8103,1.5233,2.1964,1.2045.5314,2.3736,0,3.5426-1.4525l.9211-1.2399h.496c.5832.2305,1.0449.6922,1.2754,1.2753.2226.8141.1472,1.6809-.2126,2.4444-.8502,1.8776-2.6216,3.1884-6.3768,4.7117-1.5942.6377-3.5426,1.3816-5.2785,2.0547h-.2834l-1.2754,2.9404,12.4701,5.5265,1.4525-3.6843Zm4.9951-3.4009c4.1449-6.3059,8.6795-6.5539,11.549-4.6763,1.7363,1.0003,2.874,2.7862,3.0467,4.7826.0258,2.7579-.8582,5.4474-2.5153,7.6521-1.3559,2.3957-3.4766,4.2669-6.0225,5.314-.6717.2352-1.3784.355-2.0902.3543-1.2602.0438-2.5014-.3161-3.5426-1.0274-2.8341-1.8776-4.57-6.0933-.4251-12.3992Zm10.2736-2.4444c-1.1691-.8148-3.1529,1.0982-5.9162,5.0306-2.7633,3.9323-2.7633,5.7745-2.7633,6.5893.0404.3306.2384.6211.5314.7794,1.5233,1.0274,4.0386-2.161,5.8808-4.9597,1.7359-2.7278,3.4363-6.6247,2.2673-7.4395Zm5.9162,17.0401l-5.6682.248h-.2834l-2.1964,2.3736,10.0611,9.2463,2.9404-3.1529-6.1642-5.7037h1.7005c5.5265.3188,8.7503,0,10.8759-2.2319,2.1309-2.1578,2.1092-5.6345-.0486-7.7654-.2358-.2329-.4923-.444-.7662-.6306-2.1081-2.598-5.9231-2.9952-8.5211-.8872-.0294.0238-.0586.048-.0875.0724h0c-.2701.9376.0029,1.9477.7085,2.6216.9919.8857,2.2319.8148,3.7552-.2834l1.2399-.8857.3897.3543c1.0598.898,1.191,2.4852.293,3.5451-.1924.227-.4235.4181-.6827.5644-2.0694,1.8283-4.7933,2.7363-7.5458,2.5153Zm11.3364,12.8598c-.8502.7085-1.7713,1.3816-2.6924,2.0547h0l-2.905-2.5153-1.9485,1.4879,7.6167,9.8131,1.9485-1.4879-1.665-3.3655,2.7278-2.1964,6.3768-4.9951,3.5426-2.6216v-1.2045l-5.8808-4.7117-2.161,1.665,2.2319,2.4444-7.1915,5.6328Zm10.6013,17.0076l3.1246-1.8149-4.2171-7.2602-3.1246,1.8149,4.2171,7.2602Zm12.0716,6.7636c-2.6624.7055-5.4948.3499-7.9001-.9919l-5.2077-2.161h-.2834l-2.9758,1.2045,5.2077,12.3993,4.0032-1.665-3.1529-7.6167,1.5233.8148c4.9243,2.6216,7.9355,3.7198,10.8405,2.5507,1.4013-.5256,2.5273-1.6005,3.1175-2.9758.5439-1.6468.4166-3.4416-.3543-4.9951-1.5233-3.5426-4.4637-5.4202-7.475-4.3929h-.2125c-.6474.7255-.826,1.7559-.4605,2.657.5314,1.2399,1.7005,1.7005,3.5426,1.3462l1.5233-.2834.2125.4605c.2461.5771.2461,1.2296,0,1.8067-.3551.8652-1.0647,1.5361-1.9484,1.8422Zm10.4862,14.5603c.4286,1.9012-.0563,3.8934-1.3108,5.3848-1.8821,2.0065-4.3717,3.3384-7.0853,3.7906-1.3006.3091-2.6311.4754-3.9678.496-1.391.0431-2.7731-.2358-4.0386-.8148-.2342-.1056-.4617-.2255-.6811-.3591-2.9411-1.7911-3.8733-5.6273-2.0822-8.5683,1.8438-2.4482,4.5826-4.066,7.6167-4.4992,7.3687-1.7005,10.8051,1.2399,11.549,4.57Zm-10.4862.0709c-3.1529.744-7.1207,2.0193-6.6956,3.7906.0708.3543.3188.8502,1.4879,1.0628,2.086.1997,4.191-.0048,6.1996-.6022,2.1039-.3531,4.1227-1.0982,5.9516-2.1964.8502-.6731.9565-1.2045.8502-1.5942s-.3543-.8857-1.4879-1.0982c-.4123-.0414-.8277-.0414-1.2399,0-1.707.0253-3.406.2391-5.066.6377Zm7.4041,12.2575h0c-.8431.4656-1.3403,1.3772-1.2754,2.3381,0,1.3462,1.0628,2.161,2.8695,2.409l1.5233.2126c.0173.1767.0173.3547,0,.5314.0582.6152-.1333,1.2279-.5314,1.7005-.5938.6104-1.416.9444-2.2673.9211-2.0547,0-4.0386-.8148-7.0853-3.5426-1.3108-1.1336-2.7987-2.409-4.2512-3.7552h-3.4009l.8502,13.6392,4.322-.2834-.5314-8.3606,1.1691,1.2399c3.7906,4.074,6.2351,6.0579,9.4234,5.9162s5.4202-2.6924,5.2077-6.6602c-.2125-3.9678-2.4799-6.3059-6.0225-6.3059Zm.9211,18.1738h-.1771c-.9205.3253-1.5696,1.154-1.665,2.1256,0,1.3108.7085,2.2673,2.4444,2.8341l1.4525.496v.496c-.1771,1.5588-1.3462,2.3381-3.1884,2.161s-3.8615-1.4879-6.483-4.6054l-3.5426-4.3574v-.248l-3.1884-.3188-1.4171,13.6037,4.322.4251.4606-8.2543.9919,1.4525c3.0467,4.6409,5.1723,7.0853,8.2898,7.3687h.7794c1.2825.0449,2.5388-.3697,3.5426-1.1691,1.2537-1.1978,1.9908-2.8373,2.0547-4.57.2834-4.0032-1.4879-6.9081-4.6763-7.4395Z"/></svg>