<?xml version="1.0" encoding="UTF-8"?><svg id="Calque_6" xmlns="http://www.w3.org/2000/svg" xmlns:xlink="http://www.w3.org/1999/xlink" viewBox="0 0 850.3937 850.3937"><defs><style>.cls-1{fill:url(#Dégradé_sans_nom_55-14);}.cls-2{fill:url(#Dégradé_sans_nom_55-15);}.cls-3{fill:url(#Dégradé_sans_nom_55-19);}.cls-4{fill:url(#Dégradé_sans_nom_55-12);}.cls-5{fill:url(#Dégradé_sans_nom_55-13);}.cls-6{fill:url(#Dégradé_sans_nom_55-32);}.cls-7{fill:url(#Dégradé_sans_nom_55-21);}.cls-8{fill:url(#Dégradé_sans_nom_55-20);}.cls-9{fill:url(#Dégradé_sans_nom_55-28);}.cls-10{fill:url(#Dégradé_sans_nom_55-29);}.cls-11{fill:url(#Dégradé_sans_nom_55-27);}.cls-12{fill:url(#Dégradé_sans_nom_55-25);}.cls-13{fill:url(#Dégradé_sans_nom_55-24);}.cls-14{fill:url(#Dégradé_sans_nom_55-22);}.cls-15{fill:url(#Dégradé_sans_nom_55-23);}.cls-16{fill:url(#Dégradé_sans_nom_55-26);}.cls-17{fill:url(#Dégradé_sans_nom_55-31);}.cls-18{fill:url(#Dégradé_sans_nom_55-30);}.cls-19{fill:url(#Dégradé_sans_nom_55-11);}.cls-20{fill:url(#Dégradé_sans_nom_55-18);}.cls-21{fill:url(#Dégradé_sans_nom_55-16);}.cls-22{fill:url(#Dégradé_sans_nom_55-10);}.cls-23{fill:url(#Dégradé_sans_nom_55-17);}.cls-24{fill:url(#Dégradé_sans_nom_55);}.cls-25{fill:url(#Dégradé_sans_nom_55-3);}.cls-26{fill:url(#Dégradé_sans_nom_55-2);}.cls-27{fill:url(#Dégradé_sans_nom_55-4);}.cls-28{fill:url(#Dégradé_sans_nom_55-5);}.cls-29{fill:url(#Dégradé_sans_nom_55-7);}.cls-30{fill:url(#Dégradé_sans_nom_55-6);}.cls-31{fill:url(#Dégradé_sans_nom_55-8);}.cls-32{fill:url(#Dégradé_sans_nom_55-9);}</style><linearGradient id="Dégradé_sans_nom_55" x1="425.1969" y1="425.1969" x2="850.3937" y2="425.1969" gradientUnits="userSpaceOnUse"><stop offset="0" stop-color="#ffe448"/><stop offset="1" stop-color="#ffe448" stop-opacity="0"/></linearGradient><linearGradient id="Dégradé_sans_nom_55-2" x1="675.0637" y1="745.2019" x2="1100.2605" y2="745.2019" gradientTransform="translate(1100.2605 1170.3987) rotate(-180)" xlink:href="#Dégradé_sans_nom_55"/><linearGradient id="Dégradé_sans_nom_55-3" x1="295.1938" y1="555.1986" x2="720.3906" y2="555.1986" gradientTransform="translate(980.3955 130.0031) rotate(90)" xlink:href="#Dégradé_sans_nom_55"/><linearGradient id="Dégradé_sans_nom_55-4" x1="805.0668" y1="615.2001" x2="1230.2636" y2="615.2001" gradientTransform="translate(-190.0032 1230.2636) rotate(-90)" xlink:href="#Dégradé_sans_nom_55"/><linearGradient id="Dégradé_sans_nom_55-5" x1="517.1223" y1="463.2741" x2="942.3191" y2="463.2741" gradientTransform="translate(-268.0481 463.2732) rotate(-45)" xlink:href="#Dégradé_sans_nom_55"/><linearGradient id="Dégradé_sans_nom_55-6" x1="583.1383" y1="707.1246" x2="1008.3351" y2="707.1246" gradientTransform="translate(1337.5505 512.8684) rotate(135)" xlink:href="#Dégradé_sans_nom_55"/><linearGradient id="Dégradé_sans_nom_55-7" x1="333.2711" y1="463.2732" x2="758.4679" y2="463.2732" gradientTransform="translate(517.1223 -138.045) rotate(45)" xlink:href="#Dégradé_sans_nom_55"/><linearGradient id="Dégradé_sans_nom_55-8" x1="766.9895" y1="707.1255" x2="1192.1863" y2="707.1255" gradientTransform="translate(467.5271 1467.5535) rotate(-135)" xlink:href="#Dégradé_sans_nom_55"/><linearGradient id="Dégradé_sans_nom_55-9" x1="474.9466" y1="435.0929" x2="900.1434" y2="435.0929" gradientTransform="translate(-180.0994 204.9776) rotate(-22.5)" xlink:href="#Dégradé_sans_nom_55"/><linearGradient id="Dégradé_sans_nom_55-10" x1="625.314" y1="735.3058" x2="1050.5108" y2="735.3058" gradientTransform="translate(1284.3009 865.2335) rotate(157.5)" xlink:href="#Dégradé_sans_nom_55"/><linearGradient id="Dégradé_sans_nom_55-11" x1="305.0899" y1="505.4489" x2="730.2867" y2="505.4489" gradientTransform="translate(775.4179 -50.0963) rotate(67.5)" xlink:href="#Dégradé_sans_nom_55"/><linearGradient id="Dégradé_sans_nom_55-12" x1="795.1707" y1="664.9498" x2="1220.3675" y2="664.9498" gradientTransform="translate(115.162 1414.304) rotate(-112.5)" xlink:href="#Dégradé_sans_nom_55"/><linearGradient id="Dégradé_sans_nom_55-13" x1="545.303" y1="505.4501" x2="970.4999" y2="505.4501" gradientTransform="translate(-250.4566 735.5638) rotate(-67.5)" xlink:href="#Dégradé_sans_nom_55"/><linearGradient id="Dégradé_sans_nom_55-14" x1="554.9575" y1="664.9486" x2="980.1543" y2="664.9486" gradientTransform="translate(1251.9023 166.9478) rotate(112.5)" xlink:href="#Dégradé_sans_nom_55"/><linearGradient id="Dégradé_sans_nom_55-15" x1="375.447" y1="435.0924" x2="800.6439" y2="435.0924" gradientTransform="translate(244.8317 -120.4535) rotate(22.5)" xlink:href="#Dégradé_sans_nom_55"/><linearGradient id="Dégradé_sans_nom_55-16" x1="724.8135" y1="735.3063" x2="1150.0104" y2="735.3063" gradientTransform="translate(813.4477 1381.9054) rotate(-157.5)" xlink:href="#Dégradé_sans_nom_55"/><linearGradient id="Dégradé_sans_nom_55-17" x1="450.5591" y1="427.6949" x2="875.7559" y2="427.6949" gradientTransform="translate(-100.144 93.6197) rotate(-11.25)" xlink:href="#Dégradé_sans_nom_55"/><linearGradient id="Dégradé_sans_nom_55-18" x1="649.7015" y1="742.7038" x2="1074.8983" y2="742.7038" gradientTransform="translate(1207.3088 1026.8793) rotate(168.75)" xlink:href="#Dégradé_sans_nom_55"/><linearGradient id="Dégradé_sans_nom_55-19" x1="297.6918" y1="529.8364" x2="722.8887" y2="529.8364" gradientTransform="translate(886.7758 29.8591) rotate(78.75)" xlink:href="#Dégradé_sans_nom_55"/><linearGradient id="Dégradé_sans_nom_55-20" x1="802.5687" y1="640.5623" x2="1227.7655" y2="640.5623" gradientTransform="translate(-46.4838 1337.3119) rotate(-101.25)" xlink:href="#Dégradé_sans_nom_55"/><linearGradient id="Dégradé_sans_nom_55-21" x1="533.2896" y1="482.9743" x2="958.4865" y2="482.9743" gradientTransform="translate(-272.6615 600.2848) rotate(-56.25)" xlink:href="#Dégradé_sans_nom_55"/><linearGradient id="Dégradé_sans_nom_55-22" x1="566.9709" y1="687.4244" x2="992.1677" y2="687.4244" gradientTransform="translate(1311.7615 335.6903) rotate(123.75)" xlink:href="#Dégradé_sans_nom_55"/><linearGradient id="Dégradé_sans_nom_55-23" x1="352.9713" y1="447.1058" x2="778.1681" y2="447.1058" gradientTransform="translate(380.1107 -142.6584) rotate(33.75)" xlink:href="#Dégradé_sans_nom_55"/><linearGradient id="Dégradé_sans_nom_55-24" x1="747.2893" y1="723.2929" x2="1172.4861" y2="723.2929" gradientTransform="translate(644.7052 1441.7646) rotate(-146.25)" xlink:href="#Dégradé_sans_nom_55"/><linearGradient id="Dégradé_sans_nom_55-25" x1="497.4222" y1="447.1066" x2="922.6191" y2="447.1066" gradientTransform="translate(-236.7937 329.7943) rotate(-33.75)" xlink:href="#Dégradé_sans_nom_55"/><linearGradient id="Dégradé_sans_nom_55-26" x1="602.8383" y1="723.2921" x2="1028.0352" y2="723.2921" gradientTransform="translate(1328.2782 691.6733) rotate(146.25)" xlink:href="#Dégradé_sans_nom_55"/><linearGradient id="Dégradé_sans_nom_55-27" x1="317.1035" y1="482.9733" x2="742.3003" y2="482.9733" gradientTransform="translate(650.6012 -106.7906) rotate(56.25)" xlink:href="#Dégradé_sans_nom_55"/><linearGradient id="Dégradé_sans_nom_55-28" x1="783.1571" y1="687.4255" x2="1208.3539" y2="687.4255" gradientTransform="translate(288.7222 1458.2813) rotate(-123.75)" xlink:href="#Dégradé_sans_nom_55"/><linearGradient id="Dégradé_sans_nom_55-29" x1="552.7008" y1="529.8377" x2="977.8977" y2="529.8377" gradientTransform="translate(-202.2868 863.9114) rotate(-78.75)" xlink:href="#Dégradé_sans_nom_55"/><linearGradient id="Dégradé_sans_nom_55-30" x1="547.5597" y1="640.561" x2="972.7566" y2="640.561" gradientTransform="translate(1160.2733 13.1256) rotate(101.25)" xlink:href="#Dégradé_sans_nom_55"/><linearGradient id="Dégradé_sans_nom_55-31" x1="399.8346" y1="427.6947" x2="825.0315" y2="427.6947" gradientTransform="translate(116.484 -72.2837) rotate(11.25)" xlink:href="#Dégradé_sans_nom_55"/><linearGradient id="Dégradé_sans_nom_55-32" x1="700.4259" y1="742.704" x2="1125.6228" y2="742.704" gradientTransform="translate(967.2699 1290.2763) rotate(-168.75)" xlink:href="#Dégradé_sans_nom_55"/></defs><path class="cls-24" d="m850.3937,448.7292l-425.1969-18.6898c15.8522,0,28.701-2.1685,28.701-4.8412,0-2.6754-12.8487-4.8439-28.701-4.8439l425.1969-18.6898v47.0647Z"/><path class="cls-26" d="m0,401.6645l425.1969,18.6898c-15.8522,0-28.701,2.1685-28.701,4.8412,0,2.6754,12.8487,4.8439,28.701,4.8439L0,448.7292v-47.0647Z"/><path class="cls-25" d="m401.6645,850.3937l18.6898-425.1969c0,15.8522,2.1685,28.701,4.8412,28.701,2.6754,0,4.8439-12.8487,4.8439-28.701l18.6898,425.1969h-47.0647Z"/><path class="cls-27" d="m448.7292,0l-18.6898,425.1969c0-15.8522-2.1685-28.701-4.8412-28.701-2.6754,0-4.8439,12.8487-4.8439,28.701L401.6645,0h47.0647Z"/><path class="cls-28" d="m742.4963,141.1771l-313.8753,287.4439c11.2092-11.2092,18.7613-21.828,16.8714-23.7179-1.8918-1.8918-12.5106,5.6603-23.7198,16.8695L709.2166,107.8974l33.2797,33.2797Z"/><path class="cls-30" d="m107.8974,709.2166l313.8753-287.4439c-11.2092,11.2092-18.7613,21.828-16.8714,23.7179,1.8918,1.8918,12.5106-5.6603,23.7198-16.8695l-287.4439,313.8753-33.2797-33.2797Z"/><path class="cls-29" d="m709.2166,742.4963l-287.4439-313.8753c11.2092,11.2092,21.828,18.7613,23.7179,16.8714,1.8918-1.8918-5.6603-12.5106-16.8695-23.7198l313.8753,287.4439-33.2797,33.2797Z"/><path class="cls-31" d="m141.1771,107.8974l287.4439,313.8753c-11.2092-11.2092-21.828-18.7613-23.7179-16.8714-1.8918,1.8918,5.6603,12.5106,16.8695,23.7198L107.8974,141.1771l33.2797-33.2797Z"/><path class="cls-32" d="m827.033,284.2221l-399.9829,145.4487c14.6455-6.0664,25.6864-12.9868,24.6636-15.456-1.0238-2.4717-13.7244.4418-28.3699,6.5082l385.6784-179.9829,18.0109,43.4821Z"/><path class="cls-22" d="m23.3607,566.1716l399.9829-145.4487c-14.6455,6.0664-25.6864,12.9868-24.6636,15.456,1.0238,2.4717,13.7244-.4418,28.3699-6.5082L41.3716,609.6537l-18.0109-43.4821Z"/><path class="cls-19" d="m566.1716,827.033l-145.4487-399.9829c6.0664,14.6455,12.9868,25.6864,15.456,24.6636,2.4717-1.0238-.4418-13.7244-6.5082-28.3699l179.9829,385.6784-43.4821,18.0109Z"/><path class="cls-4" d="m284.2221,23.3607l145.4487,399.9829c-6.0664-14.6455-12.9868-25.6864-15.456-24.6636-2.4717,1.0238.4418,13.7244,6.5082,28.3699L240.74,41.3716l43.4821-18.0109Z"/><path class="cls-5" d="m609.6537,41.3716l-179.9829,385.6784c6.0664-14.6455,8.9799-27.3461,6.5107-28.3689-2.4717-1.0238-9.3922,10.017-15.4586,24.6625L566.1716,23.3607l43.4821,18.0109Z"/><path class="cls-1" d="m240.74,809.0221l179.9829-385.6784c-6.0664,14.6455-8.9799,27.3461-6.5107,28.3689,2.4717,1.0238,9.3922-10.017,15.4586-24.6625l-145.4487,399.9829-43.4821-18.0109Z"/><path class="cls-2" d="m809.0221,609.6537l-385.6784-179.9829c14.6455,6.0664,27.3461,8.9799,28.3689,6.5107,1.0238-2.4717-10.017-9.3922-24.6625-15.4586l399.9829,145.4487-18.0109,43.4821Z"/><path class="cls-21" d="m41.3716,240.74l385.6784,179.9829c-14.6455-6.0664-27.3461-8.9799-28.3689-6.5107-1.0238,2.4717,10.017,9.3922,24.6625,15.4586L23.3607,284.2221l18.0109-43.4821Z"/><path class="cls-23" d="m846.8146,365.3252l-420.673,64.6211c15.5476-3.0926,27.7264-7.7261,27.205-10.3474-.5219-2.624-13.5468-2.2442-29.0945.8485l413.3806-101.2825,9.1819,46.1603Z"/><path class="cls-20" d="m3.5791,485.0685l420.673-64.6211c-15.5476,3.0926-27.7264,7.7261-27.205,10.3474.5219,2.624,13.5468,2.2442,29.0945-.8485L12.761,531.2288l-9.1819-46.1603Z"/><path class="cls-3" d="m485.0685,846.8146l-64.6211-420.673c3.0926,15.5476,7.7261,27.7264,10.3474,27.205,2.624-.5219,2.2442-13.5468-.8485-29.0945l101.2825,413.3806-46.1603,9.1819Z"/><path class="cls-8" d="m365.3252,3.5791l64.6211,420.673c-3.0926-15.5476-7.7261-27.7264-10.3474-27.205-2.624.5219-2.2442,13.5468.8485,29.0945L319.1649,12.761l46.1603-9.1819Z"/><path class="cls-7" d="m680.99,84.7325l-251.7667,343.1548c8.807-13.1806,14.1423-25.0687,11.9201-26.5536-2.2245-1.4864-11.1659,7.9922-19.9729,21.1728L641.8571,58.5847l39.1328,26.1477Z"/><path class="cls-14" d="m169.4037,765.6612l251.7667-343.1548c-8.807,13.1806-14.1423,25.0687-11.9201,26.5536,2.2245,1.4864,11.1659-7.9922,19.9729-21.1728l-220.6867,363.9218-39.1328-26.1477Z"/><path class="cls-15" d="m765.6612,680.99l-343.1548-251.7667c13.1806,8.807,25.0687,14.1423,26.5536,11.9201,1.4864-2.2245-7.9922-11.1659-21.1728-19.9729l363.9218,220.6867-26.1477,39.1328Z"/><path class="cls-13" d="m84.7325,169.4037l343.1548,251.7667c-13.1806-8.807-25.0687-14.1423-26.5536-11.9201-1.4864,2.2245,7.9922,11.1659,21.1728,19.9729L58.5847,208.5366l26.1477-39.1328Z"/><path class="cls-12" d="m791.809,208.5366l-363.9218,220.6867c13.1806-8.807,22.6592-17.7484,21.1744-19.9707-1.4864-2.2245-13.3745,3.1108-26.5551,11.9178l343.1548-251.7667,26.1477,39.1328Z"/><path class="cls-16" d="m58.5847,641.8571l363.9218-220.6867c-13.1806,8.807-22.6592,17.7484-21.1744,19.9707,1.4864,2.2245,13.3745-3.1108,26.5551-11.9178l-343.1548,251.7667-26.1477-39.1328Z"/><path class="cls-11" d="m641.8571,791.809l-220.6867-363.9218c8.807,13.1806,17.7484,22.6592,19.9707,21.1744,2.2245-1.4864-3.1108-13.3745-11.9178-26.5551l251.7667,343.1548-39.1328,26.1477Z"/><path class="cls-9" d="m208.5366,58.5847l220.6867,363.9218c-8.807-13.1806-17.7484-22.6592-19.9707-21.1744-2.2245,1.4864,3.1108,13.3745,11.9178,26.5551L169.4037,84.7325l39.1328-26.1477Z"/><path class="cls-10" d="m531.2288,12.761l-101.2825,413.3806c3.0926-15.5476,3.4724-28.5725.8511-29.0939-2.624-.5219-7.2575,11.6569-10.3501,27.2045L485.0685,3.5791l46.1603,9.1819Z"/><path class="cls-18" d="m319.1649,837.6327l101.2825-413.3806c-3.0926,15.5476-3.4724,28.5725-.8511,29.0939,2.624.5219,7.2575-11.6569,10.3501-27.2045l-64.6211,420.673-46.1603-9.1819Z"/><path class="cls-17" d="m837.6327,531.2288l-413.3806-101.2825c15.5476,3.0926,28.5725,3.4724,29.0939.8511.5219-2.624-11.6569-7.2575-27.2045-10.3501l420.673,64.6211-9.1819,46.1603Z"/><path class="cls-6" d="m12.761,319.1649l413.3806,101.2825c-15.5476-3.0926-28.5725-3.4724-29.0939-.8511-.5219,2.624,11.6569,7.2575,27.2045,10.3501L3.5791,365.3252l9.1819-46.1603Z"/></svg>