<?xml version="1.0" encoding="UTF-8"?><svg id="Calque_2" xmlns="http://www.w3.org/2000/svg" viewBox="0 0 708.6614 708.6614"><defs><style>.cls-1{fill:#0f98d5;}.cls-2{fill:#582c81;}.cls-3{fill:#4b64ac;}.cls-4{fill:#792a81;}</style></defs><path class="cls-2" d="m124.513,666.0044l-7.86-19.63-25.93-64.75h-20.1l-25.92,64.75-7.86,19.63-6.16,15.39h20.7l6.16-15.39h46.6l6.16,15.39h20.37l-6.16-15.39Zm-59.11-19.63l15.44-38.55v-.01h.01l15.43,38.56h-30.88Z"/><polygon class="cls-2" points="231.8731 599.7745 231.8731 581.6244 161.7931 581.6244 161.7931 681.3945 182.4931 681.3945 182.4931 639.9444 218.713 639.9444 218.713 621.7945 182.4931 621.7945 182.4931 599.7745 231.8731 599.7745"/><polygon class="cls-2" points="352.4031 581.6244 331.7031 581.6244 331.7031 643.2845 267.7631 581.6244 262.9946 581.6244 262.9931 581.6244 262.9931 681.3945 283.6931 681.3945 283.6931 619.7345 347.6331 681.3945 347.6375 681.3945 352.4031 681.3945 352.4031 581.6244"/><polygon class="cls-2" points="453.6031 599.7745 453.6031 581.6244 383.5231 581.6244 383.5231 681.3945 453.6031 681.3945 453.6031 663.2444 404.2231 663.2444 404.2231 639.9444 440.4431 639.9444 440.4431 621.7945 404.2231 621.7945 404.2231 599.7745 453.6031 599.7745"/><path class="cls-2" d="m550.6853,581.6244v58.99c0,12.4982-6.5575,20.6636-22.63,20.6636s-22.63-8.1654-22.63-20.6636v-58.99h-20.7l-.0022,65.5857s-.0021,34.1843,43.33,34.1843,43.33-34.1843,43.33-34.1843l.0022-65.5857h-20.7Z"/><path class="cls-2" d="m643.5337,622.3804c-8.6478-1.1166-15.678-4.3762-15.678-10.756,0-13.9695,23.5568-15.0694,36.5637-4.196l12.5343-12.5234c-21.7981-22.2192-69.798-16.4994-69.798,16.7194,0,13.3095,8.1229,22.9274,31.5963,25.959,8.6478,1.1169,18.5264,5.5509,18.5264,13.7495,0,14.8889-26.0401,15.3719-42.2387,2.3655l-12.5343,12.5234c27.7696,27.6795,75.473,14.37,75.473-14.8889,0-17.8193-10.9668-25.9209-34.4446-28.9525Z"/><circle class="cls-3" cx="419.5276" cy="243.7795" r="8.5039"/><circle class="cls-3" cx="487.5591" cy="311.811" r="7.0866"/><circle class="cls-3" cx="453.5433" cy="294.8031" r="8.5039"/><circle class="cls-3" cx="419.5276" cy="277.7953" r="7.0866"/><circle class="cls-3" cx="385.5118" cy="226.7717" r="9.9213"/><circle class="cls-3" cx="317.4803" cy="158.7402" r="7.0866"/><circle class="cls-3" cx="249.4488" cy="158.7402" r="7.0866"/><circle class="cls-3" cx="215.4331" cy="141.7323" r="7.0866"/><circle class="cls-3" cx="249.4488" cy="192.7559" r="7.0866"/><circle class="cls-3" cx="317.4803" cy="260.7874" r="11.3386"/><circle class="cls-3" cx="453.5433" cy="328.8189" r="8.5039"/><circle class="cls-3" cx="487.5591" cy="345.8268" r="7.0866"/><circle class="cls-3" cx="521.5748" cy="362.8346" r="7.0866"/><circle class="cls-3" cx="555.5906" cy="379.8425" r="5.6693"/><circle class="cls-3" cx="249.4488" cy="328.8189" r="7.0866"/><circle class="cls-3" cx="419.5276" cy="413.8583" r="7.0866"/><circle class="cls-3" cx="283.4646" cy="379.8425" r="7.0866"/><circle class="cls-3" cx="317.4803" cy="396.8504" r="9.9213"/><circle class="cls-3" cx="351.4961" cy="413.8583" r="8.5039"/><circle class="cls-3" cx="351.4961" cy="447.874" r="7.0866"/><circle class="cls-3" cx="385.5118" cy="464.8819" r="9.9213"/><circle class="cls-3" cx="385.5118" cy="430.8661" r="12.7559"/><circle class="cls-3" cx="317.4803" cy="430.8661" r="8.5039"/><circle class="cls-3" cx="249.4488" cy="464.8819" r="7.0866"/><circle class="cls-3" cx="215.4331" cy="481.8898" r="8.5039"/><circle class="cls-3" cx="283.4646" cy="515.9055" r="7.0866"/><circle class="cls-1" cx="385.5118" cy="158.7402" r="8.5039"/><circle class="cls-1" cx="419.5276" cy="175.748" r="9.9213"/><circle class="cls-1" cx="453.5433" cy="226.7717" r="8.5039"/><circle class="cls-1" cx="453.5433" cy="260.7874" r="11.3386"/><circle class="cls-1" cx="487.5591" cy="277.7953" r="8.5039"/><circle class="cls-1" cx="521.5748" cy="294.8031" r="7.0866"/><circle class="cls-1" cx="351.4961" cy="209.7638" r="9.9213"/><circle class="cls-1" cx="385.5118" cy="192.7559" r="12.7559"/><circle class="cls-1" cx="419.5276" cy="209.7638" r="9.9213"/><circle class="cls-1" cx="521.5748" cy="328.8189" r="7.0866"/><circle class="cls-1" cx="317.4803" cy="124.7244" r="8.5039"/><circle class="cls-1" cx="351.4961" cy="141.7323" r="7.0866"/><circle class="cls-1" cx="351.4961" cy="175.748" r="7.0866"/><circle class="cls-1" cx="317.4803" cy="226.7717" r="7.0866"/><circle class="cls-1" cx="181.4173" cy="192.7559" r="8.5039"/><circle class="cls-1" cx="113.3858" cy="192.7559" r="8.5039"/><circle class="cls-1" cx="147.4016" cy="209.7638" r="11.3386"/><circle class="cls-1" cx="249.4488" cy="260.7874" r="8.5039"/><circle class="cls-1" cx="283.4646" cy="277.7953" r="8.5039"/><circle class="cls-1" cx="317.4803" cy="294.8031" r="12.7559"/><circle class="cls-1" cx="351.4961" cy="311.811" r="8.5039"/><circle class="cls-1" cx="283.4646" cy="311.811" r="8.5039"/><circle class="cls-1" cx="181.4173" cy="260.7874" r="8.5039"/><circle class="cls-1" cx="147.4016" cy="243.7795" r="12.7559"/><circle class="cls-1" cx="113.3858" cy="226.7717" r="7.0866"/><circle class="cls-1" cx="215.4331" cy="311.811" r="8.5039"/><circle class="cls-1" cx="249.4488" cy="362.8346" r="8.5039"/><circle class="cls-1" cx="385.5118" cy="362.8346" r="8.5039"/><circle class="cls-1" cx="351.4961" cy="345.8268" r="9.9213"/><circle class="cls-1" cx="521.5748" cy="396.8504" r="7.0866"/><circle class="cls-1" cx="419.5276" cy="481.8898" r="8.5039"/><circle class="cls-1" cx="283.4646" cy="413.8583" r="7.0866"/><circle class="cls-1" cx="249.4488" cy="396.8504" r="7.0866"/><circle class="cls-1" cx="283.4646" cy="481.8898" r="8.5039"/><circle class="cls-1" cx="317.4803" cy="464.8819" r="8.5039"/><circle class="cls-1" cx="351.4961" cy="481.8898" r="7.0866"/><circle class="cls-1" cx="385.5118" cy="498.8976" r="8.5039"/><circle class="cls-1" cx="351.4961" cy="515.9055" r="8.5039"/><circle class="cls-4" cx="351.4961" cy="107.7165" r="9.9213"/><circle class="cls-4" cx="385.5118" cy="124.7244" r="11.3386"/><circle class="cls-4" cx="419.5276" cy="141.7323" r="7.0866"/><circle class="cls-4" cx="453.5433" cy="192.7559" r="7.0866"/><circle class="cls-4" cx="487.5591" cy="243.7795" r="8.5039"/><circle class="cls-4" cx="521.5748" cy="260.7874" r="7.0866"/><circle class="cls-4" cx="521.5748" cy="226.7717" r="5.6693"/><circle class="cls-4" cx="385.5118" cy="260.7874" r="9.9213"/><circle class="cls-4" cx="351.4961" cy="243.7795" r="12.7559"/><circle class="cls-4" cx="283.4646" cy="141.7323" r="7.0866"/><circle class="cls-4" cx="317.4803" cy="192.7559" r="7.0866"/><circle class="cls-4" cx="249.4488" cy="226.7717" r="12.7559"/><circle class="cls-4" cx="351.4961" cy="277.7953" r="9.9213"/><circle class="cls-4" cx="419.5276" cy="311.811" r="8.5039"/><circle class="cls-4" cx="181.4173" cy="226.7717" r="11.3386"/><circle class="cls-4" cx="317.4803" cy="328.8189" r="9.9213"/><circle class="cls-4" cx="249.4488" cy="294.8031" r="7.0866"/><circle class="cls-4" cx="215.4331" cy="277.7953" r="8.5039"/><circle class="cls-4" cx="283.4646" cy="345.8268" r="11.3386"/><circle class="cls-4" cx="317.4803" cy="362.8346" r="12.7559"/><circle class="cls-4" cx="351.4961" cy="379.8425" r="9.9213"/><circle class="cls-4" cx="385.5118" cy="328.8189" r="7.0866"/><circle class="cls-4" cx="385.5118" cy="396.8504" r="7.0866"/><circle class="cls-4" cx="453.5433" cy="396.8504" r="9.9213"/><circle class="cls-4" cx="487.5591" cy="413.8583" r="9.9213"/><circle class="cls-4" cx="555.5906" cy="447.874" r="8.5039"/><circle class="cls-4" cx="555.5906" cy="481.8898" r="8.5039"/><circle class="cls-4" cx="487.5591" cy="447.874" r="8.5039"/><circle class="cls-4" cx="249.4488" cy="430.8661" r="7.0866"/><circle class="cls-4" cx="283.4646" cy="447.874" r="7.0866"/><circle class="cls-4" cx="215.4331" cy="447.874" r="8.5039"/><circle class="cls-4" cx="317.4803" cy="498.8976" r="7.0866"/><circle class="cls-2" cx="351.4961" cy="39.685" r="8.5039"/><circle class="cls-2" cx="351.4961" cy="73.7008" r="7.0866"/><circle class="cls-2" cx="385.5118" cy="56.6929" r="7.0866"/><circle class="cls-2" cx="385.5118" cy="90.7087" r="8.5039"/><circle class="cls-2" cx="419.5276" cy="107.7165" r="11.3386"/><circle class="cls-2" cx="453.5433" cy="124.7244" r="8.5039"/><circle class="cls-2" cx="487.5591" cy="107.7165" r="7.0866"/><circle class="cls-2" cx="453.5433" cy="158.7402" r="7.0866"/><circle class="cls-2" cx="487.5591" cy="141.7323" r="7.0866"/><circle class="cls-2" cx="487.5591" cy="175.748" r="7.0866"/><circle class="cls-2" cx="521.5748" cy="158.7402" r="7.0866"/><circle class="cls-2" cx="555.5906" cy="175.748" r="9.9213"/><circle class="cls-2" cx="589.6063" cy="158.7402" r="7.0866"/><circle class="cls-2" cx="589.6063" cy="192.7559" r="7.0866"/><circle class="cls-2" cx="555.5906" cy="209.7638" r="7.0866"/><circle class="cls-2" cx="521.5748" cy="192.7559" r="7.0866"/><circle class="cls-2" cx="487.5591" cy="209.7638" r="7.0866"/><circle class="cls-2" cx="555.5906" cy="243.7795" r="5.6693"/><circle class="cls-2" cx="283.4646" cy="175.748" r="7.0866"/><circle class="cls-2" cx="215.4331" cy="175.748" r="7.0866"/><circle class="cls-2" cx="283.4646" cy="209.7638" r="7.0866"/><circle class="cls-2" cx="215.4331" cy="209.7638" r="8.5039"/><circle class="cls-2" cx="283.4646" cy="243.7795" r="11.3386"/><circle class="cls-2" cx="385.5118" cy="294.8031" r="7.0866"/><circle class="cls-2" cx="215.4331" cy="243.7795" r="8.5039"/><circle class="cls-2" cx="419.5276" cy="345.8268" r="11.3386"/><circle class="cls-2" cx="453.5433" cy="362.8346" r="7.0866"/><circle class="cls-2" cx="487.5591" cy="379.8425" r="8.5039"/><circle class="cls-2" cx="419.5276" cy="379.8425" r="8.5039"/><circle class="cls-2" cx="521.5748" cy="430.8661" r="7.0866"/><circle class="cls-2" cx="521.5748" cy="464.8819" r="8.5039"/><circle class="cls-2" cx="521.5748" cy="498.8976" r="7.0866"/><circle class="cls-2" cx="487.5591" cy="481.8898" r="8.5039"/><circle class="cls-2" cx="453.5433" cy="430.8661" r="7.0866"/><circle class="cls-2" cx="453.5433" cy="464.8819" r="7.0866"/><circle class="cls-2" cx="419.5276" cy="447.874" r="7.0866"/><circle class="cls-2" cx="249.4488" cy="498.8976" r="11.3386"/><circle class="cls-2" cx="249.4488" cy="532.9134" r="8.5039"/><circle class="cls-2" cx="215.4331" cy="515.9055" r="7.0866"/></svg>