<?xml version="1.0" encoding="UTF-8"?><svg id="Calque_1" xmlns="http://www.w3.org/2000/svg" viewBox="0 0 1417.3228 1417.3228"><defs><style>.cls-1{fill:#f9f7fb;}.cls-2{fill:#fbfdfe;}.cls-3{fill:#dfd7e9;}.cls-4{fill:#149ad6;}.cls-5{fill:#552980;}.cls-6{fill:#54287f;}.cls-7{fill:#4a64ad;}.cls-8{fill:#582c82;}.cls-9{fill:#714892;}.cls-10{fill:#792981;}</style></defs><path class="cls-8" d="m715.8064,57.1413c18.1722,12.8262,5.4746,42.8668-16.8919,30.8099-16.6213-12.3986-5.008-37.9959,16.8919-30.8099Z"/><path class="cls-6" d="m549.6474,1360.9822c-.4463.1496-.8926.2992-1.3389.4488-11.9262.0002-23.8522.0004-35.7784.0006-2.6734-2.134-1.321-5.0888-1.3247-7.6112-.0896-61.0676.545-191.5842.545-191.5842,0,0,13.9511-1.3858,18.5419,4.9628,40.2615,39.7811,79.3938,80.0587,120.1445,119.4111-.0235-39.7489.1921-78.7713-.1601-118.4336-.0559-6.2204,1.7488-7.7669,7.6511-7.4047,8.2186.5045,16.5175.5029,24.7341-.0255,5.901-.3794,7.6334,1.1085,7.5969,7.3576-.1811,62.4312-.4332,124.8931-.0426,187.3147.1812,4.9917-1.5061,5.8454-6.1302,5.9774-5.9043.1686-10.07-1.4871-14.3158-5.7821-39.7429-39.8604-78.6804-79.7109-119.0459-119.0414v123.2199c-.3589.3966-.7179.7932-1.077,1.1896Z"/><path class="cls-6" d="m804.1786,1310.4071c-.0273,13.7305.5627,13.7186,14.8373,13.7185,28.8746-.0002,57.7498.1095,86.6227-.1105,4.683-.0357,6.3718.9299,6.1247,5.9207-.4402,8.8979-.2902,17.8377-.0423,26.7505.1008,3.6265-1.0119,4.6053-4.6213,4.5962-46.0614-.1159-92.1232-.1365-138.1844.0237-4.3027.015-4.8184-1.6901-4.648-5.2295.4251-8.8281.9449-134.8449.6751-187.6912-.0314-6.1525,1.6311-7.527,7.6135-7.4974,43.7807.2163,87.5651.2182,131.3437-.1924,6.8912-.0646,8.5154,1.9425,8.0347,8.3576-.5798,7.7352-.4377,15.5624-.0282,23.3193.2491,4.7146-1.5205,5.5745-5.8125,5.5523-31.6332-.164-63.2682.0196-94.9009-.1978-5.1462-.0354-7.2576.9167-6.9806,6.6425.5081,10.4993.3702,21.0476.0413,31.5611-.1446,4.6258,1.432,5.7558,5.8615,5.7174,22.9213-.1989,45.8472.0464,68.7677-.2036,4.9201-.0536,6.9841.8672,6.6462,6.3052-.4956,7.9766-.4039,16.0196-.0247,24.0089.2294,4.8345-1.3374,6.1718-6.143,6.1194-22.2329-.2422-44.4792.2596-66.7-.3137-7.3462-.1895-8.4215,2.129-8.4348,8.8156l-.0477,24.0273Z"/><path class="cls-6" d="m243.8618,1361.1914c-13.7797,0-26.6493-.0418-39.5183.0328-2.8064.0163-3.2898-2.073-4.0163-3.8937-2.9519-7.3985-5.9154-14.7963-8.6462-22.2773-1.2352-3.3839-2.9059-4.9079-6.8797-4.8779-27.4628.2071-54.9281.1524-82.3922.0621-3.2006-.0105-4.9011.9353-6.0229,4.1098-2.6361,7.4598-5.785,14.7375-8.6109,22.1329-1.0162,2.6595-1.8196,4.872-5.524,4.803-11.6684-.2173-23.3434-.0792-35.0158-.0944-1.0991-.0014-2.3431.1342-2.5392-1.4709.8632.0248,52.4458-128.9721,77.1114-193.2279,1.7203-4.3384,3.6683-5.935,8.367-5.7297,9.3763.4098,18.7919.3553,28.1737.0128,4.1031-.1498,5.9342,1.3047,7.4012,4.994,22.6072,58.4475,76.0785,190.5038,78.1122,195.4246Zm-71.2029-70.3425c.9728.2844,1.297-.1647,1.2166-1.0714-7.8739-26.728-18.8914-48.9158-28.8903-76.2401-10.502,26.922-21.0101,49.5017-29.8984,76.2379-.1838,1.0173.2739,1.3136,1.21,1.0724,18.7874.0004,37.5748.0008,56.3622.0012Z"/><path class="cls-6" d="m1065.0854,1320.9108c33.4906,0,51.3585-11.6064,51.3585-38.4607,0-38.7801.5519-77.763.7345-116.5921-.0515-3.7724.9141-5.1848,4.9415-5.0698,9.8459.2813,19.71.2711,29.557.0086,3.9827-.1062,4.9594,1.2496,4.948,5.0585-.1243,41.6245.4014,83.2574-.2712,124.8715-.9214,50.8555-45.7942,69.2681-91.4134,69.2681-42.1631,0-80.4961-27.2721-81.4567-59.7229-1.4482-48.922.0329-89.1963-.5305-133.7252-.0168-4.3884.9959-5.9361,5.6366-5.7703,10.9847.3925,21.9895.2219,32.9863.2788.3593.3594.7185.719,1.0778,1.0786.0584,38.4373.0739,76.875.0739,115.3112,0,23.6478,10.4719,43.4658,42.3578,43.4658Z"/><path class="cls-6" d="m1258.1932,1265.8765c-10.8825-4.9681-19.4684-14.0528-23.577-25.849-7.7432-22.2315-2.6422-71.5824,49.622-77.1799,30.5752-3.2746,60.2365-1.4427,83.9186,22.1765,1.8507,1.8455,2.1692,2.9211.169,4.8624-7.2231,7.0105-14.3294,14.1429-21.3783,21.3285-1.7672,1.8014-2.8595,2.2112-4.82.0572-14.298-15.7088-33.3146-12.7121-51.2662-11.7228-14.3186.7891-23.2216,19.895-15.9268,28.7435,2.8267,3.4286,6.1872,6.3002,10.2217,7.6658,10.44,3.5338,21.6176,6.4574,32.0915,8.0484,8.7151,1.3238,23.3243,6.3908,33.5995,12.7933,10.028,6.2484,18.4632,18.2691,20.0799,27.1036,5.6741,31.0055-.1397,47.595-28.6957,65.8132-19.2303,12.2686-40.7926,13.1669-62.9689,10.2905-20.8246-2.7011-38.651-11.2105-54.4237-24.6652-2.6989-2.3022-4.2305-3.799-.5339-7.0618,6.8315-6.0301,13.0897-12.7168,19.4581-19.2548,2.1639-2.2216,3.3485-3.1286,6.4609-.517,18.2451,15.3095,39.5267,18.3315,62.2184,13.7844,8.2453-1.6523,16.548-6.0481,17.3405-14.7685,1.2034-13.2418-1.5056-20.9593-11.0446-25.1483-15.2291-6.6878-41.3938-7.7569-60.5449-16.4998Z"/><path class="cls-6" d="m308.9393,1161.0511c44.7082-.0562,89.4165-.0977,134.1247-.2014,3.0262-.007,5.2469-.0118,5.1338,4.1657-.2602,9.604-.3003,19.2268.0065,28.8281.1629,5.1001-3.1314,3.9707-5.885,3.9736-31.1757.1942-62.366-.3244-93.5339.2466-.8991-.1797-1.4119.0721-1.2317,1.0982-.0967,12.5549-.0355,25.114-.3793,37.6622-.1141,4.1621,1.5597,4.825,5.2062,4.8006,21.0559-.1413,42.1163.1248,63.1681-.2052,5.2276-.0819,6.6124,1.3511,6.3359,6.4297-.4463,8.1992-.3548,16.4496-.0224,24.6596.1701,4.2041-1.0295,5.4116-5.3065,5.3649-20.5967-.2251-41.2008.1097-61.7942-.2354-5.7701-.0967-7.8065.9546-7.6833,7.3325.4542,23.5192.2193,47.0525.1222,70.58-.0088,2.1317,1.5361,5.3217-2.5246,5.8803-11.9262.0002-23.8522.0005-35.7784.0007-2.222-1.1154-1.3561-3.1906-1.3571-4.8551.155-64.8055-.3899-129.6841.1913-194.4543.4027-.3571.8054-.7141,1.2079-1.0712Z"/><path class="cls-4" d="m802.0286,379.2597c1.9274,12.3744-8.352,27.5753-27.0663,26.6175-69.2935-3.5466,16.4781-94.5953,27.0663-26.6175Z"/><path class="cls-10" d="m641.0329,690.2226c35.2047.0352,34.2197,53.011-1.1652,52.5733-31.4368-.5202-33.6604-55.2989,1.1652-52.5733Z"/><path class="cls-10" d="m707.8348,453.6794c36.0141-.7116,35.1868,53.8526-.7777,52.5418-30.3714-.719-33.011-52.0822.7777-52.5418Z"/><path class="cls-7" d="m776.1142,876.8352c-31.8962,1.4116-31.7376-50.2208-.5633-50.3905,33.2053-1.1671,33.3084,50.2938.5633,50.3905Z"/><path class="cls-4" d="m637.0111,605.1195c-23.9748-1.1621-26.7271-34.0275-6.5418-45.3023,38.6519-16.1244,49.0869,50.3838,6.5418,45.3023Z"/><path class="cls-10" d="m529.2944,446.5545c-2.33,32.8084-48.482,29.041-48.1719-2.8323-.2587-29.2798,50.7558-27.348,48.1719,2.8323Z"/><path class="cls-10" d="m392.6103,445.9186c2.343,29.8753-44.6983,33.5769-45.7644,2.2444-2.9825-32.2304,46.8979-34.8665,45.7644-2.2444Z"/><path class="cls-5" d="m866.6745,683.514c2.0935,12.269-9.5754,24.9401-25.3089,23.4494-57.4381-5.4421,14.7301-85.4452,25.3089-23.4494Z"/><path class="cls-4" d="m326.0489,482.3903c-5.8425,31.3053-47.7704,26.8109-46.7949-4.4986,5.3766-31.9149,47.7008-26.8196,46.7949,4.4986Z"/><path class="cls-5" d="m866.6749,210.0556c1.4826,29.4468-45.9211,32.7204-45.7268.2734-1.7084-31.2219,46.8376-32.6219,45.7268-.2734Z"/><path class="cls-4" d="m300.8145,389.4244c29.8107-.8985,33.0013,44.5846,2.26,45.268-28.9291,1.3813-30.0012-44.2285-2.26-45.268Z"/><path class="cls-8" d="m593.7318,479.2248c-6.4737,60.3255-80.6621-16.0693-19.7814-20.6628,13.0667.2274,19.9714,7.4374,19.7814,20.6628Z"/><path class="cls-4" d="m910.9207,535.061c-27.75,2.1925-26.8407-45.7842,1.2944-43.0201,28.3164.5233,27.6929,43.7086-1.2944,43.0201Z"/><path class="cls-10" d="m778.5967,265.0754c-30.8956-.1411-31.2709-41.587-2.3331-43.1495,27.3583-1.7067,27.149,41.6517,2.3331,43.1495Z"/><path class="cls-8" d="m505.087,965.1777c28.9552.9529,28.0585,43.9268-2.3194,42.9111-24.5991-3.6847-24.1804-42.1172,2.3194-42.9111Z"/><path class="cls-7" d="m658.7889,523.0769c-22.415,36.1715-60.65-19.0411-23.2741-29.4244,15.8261-5.0068,31.6281,12.4792,23.2741,29.4244Z"/><path class="cls-8" d="m1134.8561,345.2349c.1599,28.8529-42.1559,24.4484-40.7705-2.5744.1567-23.6406,43.5842-24.3824,40.7705,2.5744Z"/><path class="cls-7" d="m773.988,465.8133c-24.0143.0555-22.3375-41.9932,1.683-38.4623,27.285-.0504,28.1347,38.1097-1.683,38.4623Z"/><path class="cls-4" d="m713.2781,663.5462c30.0907,10.1568,8.7021,50.9308-15.0035,36.0384-18.3221-10.9954-5.759-40.9301,15.0035-36.0384Z"/><path class="cls-10" d="m641.8644,630.6157c25.8896-.8908,22.2989,36.5849,1.3231,38.3065-27.4086-1.1569-31.513-38.4478-1.3231-38.3065Z"/><path class="cls-7" d="m622.028,784.5994c-1.0252-26.2468,38.9731-26.013,38.7724-.8359.3713,24.3266-39.0732,25.7241-38.7724.8359Z"/><path class="cls-4" d="m727.8,411.7642c1.3018,25.4039-39.0444,28.1667-38.3221.5895-1.8359-23.8308,40.6591-24.707,38.3221-.5895Z"/><path class="cls-7" d="m777.3079,900.2087c26.2899-.0034,20.5753,40.8672-2.9846,38.7462-24.2606-1.3952-22.6525-40.346,2.9846-38.7462Z"/><path class="cls-10" d="m728.0538,750.5561c.3222,24.8841-39.0186,24.1093-38.6166-.4071-.5413-25.0476,39.583-25.3887,38.6166.4071Z"/><path class="cls-10" d="m794.8569,513.5265c.4136,25.5641-37.3088,24.0702-38.3701.4206-.6738-23.9048,39.2438-27.0195,38.3701-.4206Z"/><path class="cls-10" d="m998.3916,817.4058c1.5356,24.0801-36.2621,22.1464-40.3736,5.3494-2.8411-26.3361,40.1263-31.3744,40.3736-5.3494Z"/><path class="cls-10" d="m727.8976,208.891c.2344,25.534-37.0883,26.1763-38.4621.1826-.0025-23.5103,38.5052-24.0401,38.4621-.1826Z"/><path class="cls-7" d="m454.8847,952.5473c1.9329,28.1621-35.6446,23.5717-36.0226-.0736.2816-21.7768,37.2416-26.3193,36.0226.0736Z"/><path class="cls-10" d="m708.4261,530.2495c27.0163-2.0433,23.951,36.1132.6235,35.9316-23.6546.6319-26.8472-37.6963-.6235-35.9316Z"/><path class="cls-10" d="m591.5448,682.7714c.1468,25.5366-36.9293,25.4998-36.2277-.7616.3748-23.5988,36.9533-22.9261,36.2277.7616Z"/><path class="cls-10" d="m912.9068,766.8043c25.9207-4.6233,20.9303,34.932,1.1101,35.6859-26.3308,2.3007-29.4119-34.9448-1.1101-35.6859Z"/><path class="cls-4" d="m725.4096,615.3707c1.9255,26.0247-36.7557,20.4955-35.9458-.9257.6726-21.7695,38.9253-24.4412,35.9458.9257Z"/><path class="cls-4" d="m861.8534,411.8415c-.1087,23.1382-36.3484,23.9213-35.9265-1.1894.8964-27.0663,36.6892-18.1886,35.9265,1.1894Z"/><path class="cls-4" d="m366.3898,530.9354c-21.2195-6.9374-17.4917-36.0176,1.4144-36.534,26.4017,1.5281,26.3927,39.9148-1.4144,36.534Z"/><path class="cls-4" d="m507.3612,496.1977c20.9498,1.3788,19.0065,36.1379-2.1648,34.7341-26.1489.4219-27.1973-35.232,2.1648-34.7341Z"/><path class="cls-7" d="m910.7856,599.6327c-20.3102,1.6106-21.0083-35.6244-.5324-35.8913,25.3637-1.8163,23.7265,35.276.5324,35.8913Z"/><path class="cls-4" d="m827.5841,341.7101c-.0698-20.9783,31.0236-17.7571,33.9096.5589,5.2412,25.6307-38.473,24.1832-33.9096-.5589Z"/><path class="cls-4" d="m588.9302,547.924c.8129,24.5767-35.4613,18.1157-33.5619-3.4731.3514-19.4943,36.9024-19.1554,33.5619,3.4731Z"/><path class="cls-4" d="m251.8387,382.003c-4.6697,19.3552-32.6415,18.3124-33.9704-2.1978-1.595-24.7038,35.9311-24.6141,33.9704,2.1978Z"/><path class="cls-8" d="m421.2212,479.1807c.1057-21.7013,35.3332-20.599,33.6967,1.3551-1.4555,21.1532-35.1746,20.932-33.6967-1.3551Z"/><path class="cls-8" d="m781.976,159.6202c15.2919,3.3133,12.1247,33.6583-4.0478,33.7618-21.5159-2.6119-30.1923-35.7125,4.0478-33.7618Z"/><path class="cls-8" d="m1047.5623,903.0318c24.1332.2017,20.491,36.875-3.3727,32.9624-19.9349-2.5855-19.2305-34.2281,3.3727-32.9624Z"/><path class="cls-10" d="m1063.0315,513.9861c.3114,23.2846-32.4151,18.6724-33.5802-.4287.7873-19.6878,35.153-23.6571,33.5802.4287Z"/><path class="cls-4" d="m827.7498,950.9859c6.5154-25.2534,38.117-14.8833,31.5914,7.3558-4.2098,18.7662-35.1539,13.6849-31.5914-7.3558Z"/><path class="cls-8" d="m859.5095,749.6039c2.1827,21.8705-32.1655,22.8941-33.306,1.1315-1.1766-19.2485,34.3355-24.6192,33.306-1.1315Z"/><path class="cls-8" d="m1046.929,867.2533c-23.1095,1.6634-23.5794-32.7927.8748-31.1244,21.1587-1.8502,19.9721,33.3496-.8748,31.1244Z"/><path class="cls-8" d="m505.3774,1070.3696c-24.9737-1.7708-19.2413-36.7692,4.896-32.9133,17.1389,3.8558,14.9416,34.4604-4.896,32.9133Z"/><path class="cls-4" d="m792.6679,984.7103c-4.6307,49.2643-58.0953-9.8291-16.2474-13.998,7.1859,1.0695,17.0283,2.4827,16.2474,13.998Z"/><path class="cls-8" d="m926.5553,244.6112c.8981,20.7699-31.7503,20.1582-31.2039.3296-2.7374-20.2145,37.1911-22.2749,31.2039-.3296Z"/><path class="cls-4" d="m656.5564,922.0383c-9.954,23.4929-40.0981,10.9381-29.4228-11.2529,8.0698-15.5428,33.0617-5.477,29.4228,11.2529Z"/><path class="cls-7" d="m913.6253,664.1163c-20.0201.9556-25.7413-29.8094-2.8913-31.0515,18.5649-1.0091,24.3334,30.028,2.8913,31.0515Z"/><path class="cls-4" d="m773.8861,730.9367c-20.42.5253-18.5056-32.0606,3.1403-28.9185,22.1579-.5424,17.8893,29.6356-3.1403,28.9185Z"/><path class="cls-7" d="m642.225,864.8885c-11.6944.0887-17.624-5.1678-17.4146-17.122,10.0366-34.1595,54.7639,13.3993,17.4146,17.122Z"/><path class="cls-7" d="m843.9899,494.6043c-23.6909-1.4904-17.8761-35.9881,4.0489-29.7207,16.0281,1.5073,14.008,31.4247-4.0489,29.7207Z"/><path class="cls-10" d="m859.5721,613.7128c-1.9716,22.0388-30.7783,20.8025-31.2147-.8164.8554-18.9256,31.6212-16.181,31.2147.8164Z"/><path class="cls-4" d="m776.5051,324.9196c-21.1382,3.3479-21.5379-32.1375-.3136-28.6994,19.3151-.6614,21.1106,31.4852.3136,28.6994Z"/><path class="cls-4" d="m723.0481,344.7962c1.5388,20.2399-32.8009,21.298-28.6777-.5588-2.1038-19.6298,31.258-19.3037,28.6777.5588Z"/><path class="cls-8" d="m438.4958,398.8215c10.3661-1.2246,14.0079,4.3951,14.0046,14.0464-5.2762,38.5983-57.4763-10.7609-14.0046-14.0464Z"/><path class="cls-4" d="m1046.4206,595.6134c-23.8463-5.8457-14.2653-33.5321,5.1048-30.3651,15.4618,3.0922,13.0093,32.2071-5.1048,30.3651Z"/><path class="cls-4" d="m572.2635,832.1333c-26.4555-2.2103-14.7281-32.5033,2.6251-29.0889,17.1261,1.1755,15.857,31.3121-2.6251,29.0889Z"/><path class="cls-7" d="m723.5933,817.9835c-.8483,19.9794-30.3243,20.6185-29.4498-1.0449.5375-19.7196,28.9603-17.1635,29.4498,1.0449Z"/><path class="cls-4" d="m1060.6025,784.4133c.8882,9.9543-4.865,13.8165-13.5955,13.3695-44.2451-2.1875,11.2396-53.8851,13.5955-13.3695Z"/><path class="cls-4" d="m452.4285,614.8983c-1.0768,19.633-29.4295,19.6153-30.552.6412-1.2979-19.9983,31.8919-20.1449,30.552-.6412Z"/><path class="cls-4" d="m980.4865,532.8829c6.8791,1.3264,13.7149,4.6577,13.0953,14.8393-5.9934,37.2997-56.2674-12.4078-13.0953-14.8393Z"/><path class="cls-7" d="m640.3202,296.1159c21.4908,1.2372,17.5473,31.9711-2.0811,30.2855-17.6198-3.1578-16.9031-29.4311,2.0811-30.2855Z"/><path class="cls-4" d="m645.5773,432.3036c16.1079,2.5666,10.6026,31.2026-7.4519,28.5265-20.3001-6.2647-19.6668-28.5038,7.4519-28.5265Z"/><path class="cls-4" d="m571.6667,967.4326c-19.9792-.4517-17.6532-29.6764,1.9307-28.4113,21.9641-1.5357,17.6678,28.534-1.9307,28.4113Z"/><path class="cls-8" d="m978.559,398.8542c21.4495-4.2475,18.8437,30.3835-.6729,28.5815-17.2044.1498-17.8645-32.0601.6729-28.5815Z"/><path class="cls-4" d="m573.4666,628.2986c-19.8419.6178-20.7388-29.0906-1.2278-28.2584,19.3398-.976,21.8989,30.5968,1.2278,28.2584Z"/><path class="cls-10" d="m505.2489,838.5701c10.3104-1.0883,13.7819,3.5247,14.4675,12.8664-3.1461,41.9886-54.4722-10.9791-14.4675-12.8664Z"/><path class="cls-4" d="m356.0958,375.0745c2.9544-14.6841,26.3838-12.6337,28.805.6077,4.9412,23.5657-34.5541,24.1875-28.805-.6077Z"/><path class="cls-10" d="m979.8323,872.0186c10.8582-.8219,14.2398,4.3642,14.1573,14.2062-7.2396,40.026-53.3892-13.6429-14.1573-14.2062Z"/><path class="cls-4" d="m236.7418,431.5115c12.9885,1.5146,17.7296,21.7668,4.8722,27.0225-22.454,13.9705-30.3726-29.0519-4.8722-27.0225Z"/><path class="cls-8" d="m1115.4312,398.7257c38.8933,3.7813-12.4066,53.2373-14.4043,14.1645-.5748-9.0091,3.5515-14.2703,14.4043-14.1645Z"/><path class="cls-4" d="m710.8836,938.2845c22.7043,8.6007,10.4263,34.5238-8.0186,28.4585-15.3275-6.0665-8.3526-30.7668,8.0186-28.4585Z"/><path class="cls-4" d="m639.9684,229.0914c21.039-.5444,20.2017,28.305,1.2193,28.6193-16.952,2.055-19.7919-31.3721-1.2193-28.6193Z"/><path class="cls-4" d="m520.134,718.9254c-11.9376,33.7003-49.5666-10.4218-14.9387-17.2073,9.4631-.2275,16.0272,8.1854,14.9387,17.2073Z"/><path class="cls-4" d="m926.399,448.5101c-1.7748,17.4998-31.0026,15.4998-28.6517-4.4939.2742-19.3224,31.2533-13.7218,28.6517,4.4939Z"/><path class="cls-10" d="m1114.1368,871.9029c21.7011-2.4233,18.9239,28.6305,1.2291,28.6391-17.6228.6912-20.2065-30.873-1.2291-28.6391Z"/><path class="cls-8" d="m708.5287,128.9443c21.1569-3.4711,17.6526,29.7978-1.2925,28.446-17.2654.2121-17.8006-32.8387,1.2925-28.446Z"/><path class="cls-4" d="m504.9124,798.0988c-18.0364.1246-18.8259-29.9454-.0359-28.7645,19.2475-1.5272,19.6718,30.0585.0359,28.7645Z"/><path class="cls-7" d="m586.5138,749.6793c3.2837,20.9291-30.2252,18.4701-28.4632.2468-1.3328-17.4632,32.2187-19.8188,28.4632-.2468Z"/><path class="cls-8" d="m1047.505,1001.0353c-22.6641-.014-18.6961-30.1934-.5694-28.3419,18.8502-1.9072,17.5648,29.5366.5694,28.3419Z"/><path class="cls-4" d="m1047.4251,635.4265c20.4723-1.9796,18.4775,27.3467.3584,28.0948-18.4496.524-21.4338-30.1651-.3584-28.0948Z"/><path class="cls-4" d="m705.9873,1034.5753c-15.991-.4838-14.8678-30.5442,3.3497-28.6429,19.4154.3921,18.0817,29.9371-3.3497,28.6429Z"/><path class="cls-10" d="m912.5515,365.3698c20.0502-.8773,14.8393,27.7913-1.6597,28.7049-19.809-5.7513-21.9733-25.7405,1.6597-28.7049Z"/><path class="cls-8" d="m569.6636,361.0166c-20.4236-3.3385-14.7711-28.2052,2.9053-28.8054,20.6691,1.6028,16.3494,28.3763-2.9053,28.8054Z"/><path class="cls-10" d="m575.5425,293.8044c-22.6337,1.0167-23.1991-29.3207-2.8997-28.8985,17.7477-1.7706,17.3066,27.1409,2.8997,28.8985Z"/><path class="cls-4" d="m708.7162,262.4655c17.9921-.6538,19.569,28.338,1.1712,28.7623-19.295,1.9016-20.8273-28.4306-1.1712-28.7623Z"/><path class="cls-10" d="m423.8707,885.1703c-1.0831-20.7287,29.3098-19.4786,28.3677.3622.3982,17.3175-30.1209,17.9483-28.3677-.3622Z"/><path class="cls-10" d="m994.0636,480.5319c-.8271,18.3857-29.3168,17.7052-28.9273-.7225-.8817-18.4321,30.537-19.1457,28.9273.7225Z"/><path class="cls-8" d="m573.3752,398.8323c18.6651-3.2726,17.2549,28.0203.653,28.5524-18.5094-.5247-22.3953-28.6159-.653-28.5524Z"/><path class="cls-8" d="m1046.849,365.3817c10.2864-.838,13.6459,4.4779,14.1288,14.0996-5.1086,36.6717-52.6408-9.5032-14.1288-14.0996Z"/><path class="cls-8" d="m977.3155,195.5475c21.7289-1.0828,19.7348,28.4898.6476,28.5262-17.4019,1.8189-16.8985-27.7432-.6476-28.5262Z"/><path class="cls-8" d="m993.7799,748.4186c1.3237,20.0551-27.5082,21.0932-28.716,2.475-1.1832-18.2391,27.5863-19.5912,28.716-2.475Z"/><path class="cls-8" d="m1179.0748,365.4507c23.169-2.6727,22.1066,24.4482,4.9004,28.4668-14.8433,2.2867-21.8662-28.3997-4.9004-28.4668Z"/><path class="cls-8" d="m924.0743,918.8836c2.765,19.1075-24.9379,18.9417-26.3903.6836-1.5308-19.7125,28.7255-22.0234,26.3903-.6836Z"/><path class="cls-10" d="m653.6983,985.6454c.3231,40.5889-51.3281-8.2695-12.074-12.9073,8.3593.1716,13.1187,4.8662,12.074,12.9073Z"/><path class="cls-7" d="m986.3358,603.9413c17.0794,7.0953-.2237,32.6444-14.1686,22.3659-19.5238-11.3406-1.4446-33.1849,14.1686-22.3659Z"/><path class="cls-8" d="m773.0995,93.9606c23.0684,1.387,21.7496,28.0828,2.0841,27.7586-16.5659-1.0951-18.8519-26.1555-2.0841-27.7586Z"/><path class="cls-10" d="m490.2631,579.8861c2.2688-18.6576,29.5621-15.7805,29.1431.983-.3299,19.5215-27.33,16.8166-29.1431-.983Z"/><path class="cls-8" d="m979.3696,938.6703c19.0789.4007,17.9889,29.6761-.6715,28.6069-17.8346-1.6859-17.6986-27.187.6715-28.6069Z"/><path class="cls-7" d="m504.0942,662.0229c-19.9944.2957-15.5558-29.2018,2.6069-26.6797,18.484.4925,15.7182,29.3971-2.6069,26.6797Z"/><path class="cls-7" d="m517.2453,312.9678c2.1918,20.5322-28.7698,16.9463-26.4578-1.9583.6555-17.0356,30.4519-16.67,26.4578,1.9583Z"/><path class="cls-8" d="m977.4255,291.6998c-18.5697-3.1148-15.6865-31.0421,3.8754-26.8596,19.8265.148,13.2123,27.9993-3.8754,26.8596Z"/><path class="cls-8" d="m1047.7477,298.414c19.203-2.2718,16.2263,28.4919-.7069,26.0314-19.7037,1.9427-19.5282-28.8237.7069-26.0314Z"/><path class="cls-8" d="m924.124,716.7079c-.2903,20.6647-26.3278,17.5715-26.1113-.5281.2108-17.6186,26.3912-19.3979,26.1113.5281Z"/><path class="cls-7" d="m512.2505,367.3763c15.5536,5.5734,4.3034,29.0464-9.7777,24.1009-22.3477-6.0934-8.0735-36.1308,9.7777-24.1009Z"/><path class="cls-10" d="m790.3904,648.5799c.7646,19.1597-29.685,16.7897-28.5238-.077-.9004-16.7041,29.4098-18.3663,28.5238.077Z"/><path class="cls-8" d="m1168.167,309.8877c.4107-17.8876,31.7807-14.5147,28.6376,1.7496-.6304,18.6296-29.3681,15.887-28.6376-1.7496Z"/><path class="cls-8" d="m450.2762,345.9254c.5098,19.94-26.9129,18.1652-26.7707-.7327-.8917-18.6224,28.4331-16.4407,26.7707.7327Z"/><path class="cls-10" d="m586.6426,885.7514c1.934,17.3771-27.9355,17.2497-26.6584-.0556-2.1234-18.3514,28.9937-19.0475,26.6584.0556Z"/><path class="cls-7" d="m439.586,291.4303c-21.3973,3.3744-20.7091-28.0139-2.1422-26.6001,16.604-1.338,20.0399,27.6467,2.1422,26.6001Z"/><path class="cls-7" d="m1033.7883,716.7866c1.054-19.0152,28.3132-18.2102,27.142.2867-1.1758,18.5694-28.1625,18.1241-27.142-.2867Z"/><path class="cls-10" d="m843.1574,265.0066c8.2722-.5467,13.8867,1.9754,13.9823,11.4915-2.6029,37.1643-53.97-6.926-13.9823-11.4915Z"/><path class="cls-8" d="m1114.7515,465.6289c16.8325-1.3317,17.4743,28.011,1.0902,28.4839-17.3329,1.692-20.8091-28.8471-1.0902-28.4839Z"/><path class="cls-7" d="m572.4869,1008.1452c19.2125-2.7921,18.3118,25.3363,1.288,26.0801-19.0878,1.0057-20.9-27.1052-1.288-26.0801Z"/><path class="cls-8" d="m924.1035,851.864c1.8599,10.6149-5.9487,13.3456-14.2396,13.4861-35.1819-5.7354,12.3482-49.8264,14.2396-13.4861Z"/><path class="cls-8" d="m776.7359,568.5264c9.59-1.1881,12.918,5.1143,13.316,12.7154-5.3472,36.16-52.1961-9.8917-13.316-12.7154Z"/><path class="cls-10" d="m437.7995,535.1627c38.8281,2.7312-10.0477,49.6674-13.661,11.5585.3675-8.0402,4.9865-13.1871,13.661-11.5585Z"/><path class="cls-10" d="m653.7331,378.9865c.689,20.318-28.7245,17.9967-26.2689-.2511-2.6814-18.2091,30.4671-17.6938,26.2689.2511Z"/><path class="cls-8" d="m980.2495,331.8762c18.6093-2.3039,16.6737,28.2999-1.0748,26.2925-18.463.1034-18.8227-28.3193,1.0748-26.2925Z"/><path class="cls-7" d="m979.3892,695.2517c-19.069-.0281-18.2379-26.3074.3732-26.2978,17.3107.009,19.2367,26.3267-.3732,26.2978Z"/><path class="cls-7" d="m830.5939,815.9081c.7461-16.6422,30.0868-13.8415,26.5834,2.9941.2785,18.4955-30.2257,15.4683-26.5834-2.9941Z"/><path class="cls-7" d="m505.7204,932.3326c-18.8682-.2163-18.8345-26.2081.0757-26.9545,17.641-.6272,18.1851,27.5021-.0757,26.9545Z"/><path class="cls-7" d="m707.1201,898.7099c-16.5113-1.0899-16.9321-27.0449,1.3694-27.0162,18.1563,1.1231,18.8184,27.3837-1.3694,27.0162Z"/><path class="cls-7" d="m844.006,534.9938c18.4365-2.926,16.534,27.3685-.2797,26.1149-16.9144,1.0659-17.7208-28.9199.2797-26.1149Z"/><path class="cls-8" d="m438.2173,1008.2182c8.9297-1.1697,12.0317,2.8055,12.1897,12.1734-3.4302,37.5372-50.1297-10.5341-12.1897-12.1734Z"/><path class="cls-8" d="m912.5215,298.7569c13.098-2.2678,11.4477,6.7091,11.8128,14.0318-6.6918,36.1132-48.534-16.2013-11.8128-14.0318Z"/><path class="cls-10" d="m1111.8654,941.3855c42.5145.4028-9.6656,48.9629-10.7136,8.4084.8195-7.7156,2.6581-12.4678,10.7136-8.4084Z"/><path class="cls-7" d="m1127.815,750.5762c.9072,17.8133-25.9054,18.0602-26.5808.5785-2.5883-17.4815,28.0008-17.9606,26.5808-.5785Z"/><path class="cls-10" d="m777.2183,771.5337c16.9316-2.723,16.4387,26.3962.0682,25.7115-16.8105,1.9256-19.6838-27.6496-.0682-25.7115Z"/><path class="cls-8" d="m844.4486,874.3831c17.773-2.2769,14.373,24.9504-.9769,23.6255-16.476.9567-17.1265-27.3518.9769-23.6255Z"/><path class="cls-10" d="m1058.3094,446.7643c1.8049,16.5677-24.5911,13.3957-23.54-.672-.8071-14.2874,25.9424-16.5599,23.54.672Z"/><path class="cls-2" d="m251.8387,382.003c.0103-2.301.0207-4.6019.0315-6.9025,2.395,2.3121,2.3883,4.6129-.0315,6.9025Z"/><path class="cls-2" d="m236.7418,431.5115c-1.4864.05-2.9729.0999-4.459.1493,1.4257-1.8647,2.9109-1.9464,4.459-.1493Z"/><path class="cls-2" d="m827.7498,950.9859c.0164,1.5156.033,3.0312.0492,4.5467-2.0081-1.4944-2.0333-3.0098-.0492-4.5467Z"/><path class="cls-2" d="m356.0958,375.0745c-.0842,1.4923-.1684,2.9846-.2533,4.4764-1.8238-1.6003-1.6767-3.0887.2533-4.4764Z"/><path class="cls-2" d="m572.2635,832.1333c.719-.3011,1.436-.2964,2.1507.0144-.7171-.0044-1.4339-.0094-2.1507-.0144Z"/><path class="cls-1" d="m512.2505,367.3763c-1.5632.2863-2.1828-.6003-2.4315-1.9482.8105.6494,1.621,1.2988,2.4315,1.9482Z"/><path class="cls-1" d="m347.5535,1199.1619c-.1802-1.026.3326-1.2778,1.2317-1.0982-.4106.366-.8211.7321-1.2317,1.0982Z"/><path class="cls-9" d="m549.6475,1360.9823c.359-.3966.718-.7931,1.0769-1.1897.294.9854-.1418,1.3127-1.0769,1.1897Z"/><path class="cls-9" d="m1022.6537,1162.1339c-.3593-.3596-.7185-.7192-1.0778-1.0786.9921-.2703,1.3515.089,1.0778,1.0786Z"/><path class="cls-9" d="m308.9393,1161.0511c-.4026.3571-.8053.7141-1.2079,1.0712-.1245-.9491.2283-1.3623,1.2079-1.0712Z"/><path class="cls-3" d="m115.0867,1289.7753c.4033.3575.8066.7149,1.21,1.0724-.9361.2413-1.3938-.0551-1.21-1.0724Z"/><path class="cls-3" d="m172.6589,1290.8489c.4055-.3571.8111-.7143,1.2166-1.0714.0804.9067-.2438,1.3558-1.2166,1.0714Z"/></svg>