<svg id="Calque_1" data-name="Calque 1" xmlns="http://www.w3.org/2000/svg" viewBox="0 0 470.21 533.57"><defs><style>.cls-1{fill:#2073a4;}</style></defs><title>OCampus</title><path class="cls-1" d="M284,516.08l27-80h21.91l27,80H339.28l-5-16.33H309.15l-5,16.33Zm45.87-30.83-8.16-26.37-8.17,26.37Z" transform="translate(-208.89 -158.93)"/><path class="cls-1" d="M449.6,516.08h-20v-53l-14.55,34.22h-13.7l-14.56-34.22v53h-18.9v-80h23.15l17.72,39.48,17.67-39.48H449.6Z" transform="translate(-208.89 -158.93)"/><path class="cls-1" d="M527.7,461.35A31.63,31.63,0,0,1,525.92,472a22.27,22.27,0,0,1-5.1,8.43,34.12,34.12,0,0,1-4.48,3.87,27.12,27.12,0,0,1-5.4,3,33.91,33.91,0,0,1-6.42,1.93,39.11,39.11,0,0,1-7.76.7H486.23v26.16H466.14v-80h31.05a49.61,49.61,0,0,1,11.95,1.26,28.85,28.85,0,0,1,9.1,4,20.11,20.11,0,0,1,7,8A26.88,26.88,0,0,1,527.7,461.35Zm-20.63.48a10.3,10.3,0,0,0-1.61-5.83,8.45,8.45,0,0,0-3.87-3.36,16.87,16.87,0,0,0-5.45-1.42c-1.73-.12-4.09-.19-7.06-.19h-2.85v24h1.4q2.85,0,5.37-.06a30.06,30.06,0,0,0,4.4-.37,14.53,14.53,0,0,0,3.41-1.05,8.93,8.93,0,0,0,2.77-1.74,10.73,10.73,0,0,0,2.77-4.14A18.83,18.83,0,0,0,507.07,461.83Z" transform="translate(-208.89 -158.93)"/><path class="cls-1" d="M570.77,517.74q-16.11,0-24.78-7.79t-8.68-22.77V436.1H557.4V486q0,8.33,3.14,12.41t10.23,4.08q6.93,0,10.18-3.92T584.2,486V436.1h20.09v51q0,14.76-8.46,22.69T570.77,517.74Z" transform="translate(-208.89 -158.93)"/><path class="cls-1" d="M644.41,517.53a65.35,65.35,0,0,1-16.14-1.78,81.61,81.61,0,0,1-12.92-4.4v-19h1.83a45,45,0,0,0,13.27,7.84,39.81,39.81,0,0,0,14.07,2.74,36.38,36.38,0,0,0,4.54-.38,15.72,15.72,0,0,0,4.54-1.18,10.11,10.11,0,0,0,3.54-2.55,6.25,6.25,0,0,0,1.45-4.32,6,6,0,0,0-2.36-4.89,15,15,0,0,0-5.64-2.74q-4.08-1.08-8.73-2a69,69,0,0,1-8.67-2.37q-9.3-3.27-13.32-8.8t-4-13.86q0-11.24,9.5-18.18t23.74-7a70.22,70.22,0,0,1,14.21,1.45A62.93,62.93,0,0,1,675.94,440v18.26h-1.77a39.88,39.88,0,0,0-10.88-6.44,34.53,34.53,0,0,0-13.19-2.63,26.91,26.91,0,0,0-4.72.37A18.3,18.3,0,0,0,641,451a9.08,9.08,0,0,0-3.25,2.56,5.84,5.84,0,0,0-1.37,3.78,6,6,0,0,0,2.18,4.86q2.18,1.8,8.41,3.25l7.76,1.77a75.33,75.33,0,0,1,8,2.37q8.33,3,12.38,8.08t4.06,13.4a23.09,23.09,0,0,1-9.37,19.18Q660.37,517.53,644.41,517.53Z" transform="translate(-208.89 -158.93)"/><path class="cls-1" d="M573,542.75a162.08,162.08,0,1,1,0-133.11h58C603,322.75,521.43,259.89,425.2,259.89c-119.46,0-216.31,96.85-216.31,216.31S305.74,692.5,425.2,692.5c96.23,0,177.78-62.86,205.85-149.75Z" transform="translate(-208.89 -158.93)"/><polygon class="cls-1" points="236.23 0 190.5 0 86.7 82.74 152.95 82.74 213.48 32.93 279.55 82.55 346.33 82.55 236.23 0"/></svg>