<svg id="Calque_1" data-name="Calque 1" xmlns="http://www.w3.org/2000/svg" viewBox="0 0 140.53 85.43"><defs><style>.cls-1{fill:#482664;}</style></defs><title>Sans titre - 1</title><path class="cls-1" d="M116.65,21.91a51.22,51.22,0,0,1,8.33.44c3.48.45,6.24,2.35,9,4.36a9.58,9.58,0,0,1,3.79,7.22,7.67,7.67,0,0,1-2.29,6c-1.25,1.38-1.2,1.9.32,3a12.55,12.55,0,0,1,5.31,9.7,11.85,11.85,0,0,1-8.72,12,32.39,32.39,0,0,1-8.8,1.27c-2.9.07-5.81.15-8.72.14a6.52,6.52,0,0,0-5.42,2.66,40.13,40.13,0,0,1-10.94,10,46.19,46.19,0,0,1-16.72,6.12,47.63,47.63,0,0,1-12.9.16,46.41,46.41,0,0,1-14.44-4A36.41,36.41,0,0,1,45,74.75a55.71,55.71,0,0,1-7.85-8.88,31.9,31.9,0,0,1-2.74-4.74,2.71,2.71,0,0,1-.3-1.05,1,1,0,0,1,.61-1.14,1,1,0,0,1,1.25.35c.61.8,1.15,1.64,1.73,2.45A42.19,42.19,0,0,0,52.3,74.82,33.52,33.52,0,0,0,65.21,78.5a42,42,0,0,0,15.65-1.42A34.93,34.93,0,0,0,97.34,66.26a50.88,50.88,0,0,0,8.23-14,19.86,19.86,0,0,0,1.12-5.2c.54-4.06,0-8.07-.55-12.08a74.83,74.83,0,0,0-2-8.75,8.17,8.17,0,0,1-.17-.86c-.25-2,.37-2.87,2.37-3A94.32,94.32,0,0,1,116.65,21.91Zm6,36.32c1.27-.1,2.64-.15,4-.34a14.33,14.33,0,0,0,5.15-1.53A3,3,0,0,0,133.47,53,7.68,7.68,0,0,0,130.21,48a6.08,6.08,0,0,0-3-.65c-2.65-.23-5.3-.33-8-.34-.94,0-1,.15-1.19,1.11-.22,1.59-.43,3.18-.67,4.77a33.25,33.25,0,0,0-.63,3.81c0,.88.21,1.1,1.06,1.26C119.35,58.2,120.94,58,122.61,58.23Zm-1.53-30.61c-1,0-2,0-3.07,0a1,1,0,0,0-1,.88,8.62,8.62,0,0,0-.18,1.67c0,2.43-.16,4.88.71,7.23.56,1.5,1,1.87,2.65,1.88a55.83,55.83,0,0,0,8.36-.82,3.46,3.46,0,0,0,2.26-1,6.18,6.18,0,0,0,1.42-2.7c.4-1.76.2-3.42-1.4-4.58a11.93,11.93,0,0,0-3.74-1.95A17.63,17.63,0,0,0,121.08,27.62Z" transform="translate(-0.55)"/><path class="cls-1" d="M42.65,57a12.69,12.69,0,0,0,2.56,6.5c.53.67,1,1.39,1.46,2.11a2.81,2.81,0,0,1,.43,1.16,1.38,1.38,0,0,1-.6,1.47A1.2,1.2,0,0,1,45,68a15.65,15.65,0,0,1-2.23-2.51q-3.63-4.37-7-8.94a3.5,3.5,0,0,1-.86-2.21,1.31,1.31,0,0,1,2-1.22c.19.09.38.21.57.32,1.18.66,1.79.49,2.29-.78,1.32-3.4,2.57-6.84,3.71-10.31.88-2.66,1.81-5.3,2.75-7.93A5.21,5.21,0,0,0,45,28.71l-.3-.32a1.54,1.54,0,0,1-.57-1.63c.21-.65.79-.83,1.37-1a5,5,0,0,1,1-.09c2.37,0,4.74,0,7.11,0a3.33,3.33,0,0,1,3.72,2.74c.84,2.75,1.45,5.57,2.06,8.37A41.27,41.27,0,0,0,63.2,47.78a5.89,5.89,0,0,0,.64,1,.81.81,0,0,0,1.44-.1A7.3,7.3,0,0,0,66,47.06c1.32-4.15,2.9-8.22,4.09-12.42C72,28,73.82,21.27,75.67,14.58a8.06,8.06,0,0,0,.22-1.21,2.33,2.33,0,0,0-1.22-2.53c-.06,0-.11-.09-.18-.13-2-1.25-1.16-2.68.27-3.46a3,3,0,0,1,2.39-.32c2.92.87,5.82,1.76,8.67,2.83a4.31,4.31,0,0,1,1.69,1.13,2.38,2.38,0,0,1,.6,2.49,2.27,2.27,0,0,1-2.45.9c-1-.17-1.89-.46-2.84-.67-2.38-.52-3.33.72-3.91,2.31-.7,2-1,4-1.59,6C75.88,27,74.41,32,73,37.09c-1.28,4.52-2.65,9-4.23,13.44a18.68,18.68,0,0,1-3.31,5.9c-2.18,2.55-4.92,2.59-7.16.12a20.09,20.09,0,0,1-4.35-8.83c-.74-2.95-1.41-5.92-2.06-8.89a6,6,0,0,0-.35-1.11A.85.85,0,0,0,50,37.38a4.66,4.66,0,0,0-1,1.49,71,71,0,0,0-2.74,6.86c-1.12,3-2.27,5.91-3.2,8.94A6.92,6.92,0,0,0,42.65,57Z" transform="translate(-0.55)"/><path class="cls-1" d="M92.25,55.43c1.36,0,2.73.06,4.1-.08a3.59,3.59,0,0,0,2.55-1.64,36,36,0,0,0,3.7-6.29c.29-.59.58-1.18.91-1.75a1.09,1.09,0,0,1,1.23-.59,1.11,1.11,0,0,1,.82,1.09,6.79,6.79,0,0,1-.75,3.6,72.93,72.93,0,0,1-3.87,7.38c-1.08,2-3,2.28-4.94,2.06a44.72,44.72,0,0,0-5.18-.29c-2.07,0-4.15-.05-6.22,0-3,.15-6,.38-8.94.81A10,10,0,0,1,72,60a1.61,1.61,0,0,1-1-2.81,9.15,9.15,0,0,1,1.44-1.34,9.79,9.79,0,0,0,3.26-4.51,73.25,73.25,0,0,0,3.49-14c.31-1.85.73-3.67,1.06-5.52a4.54,4.54,0,0,0-.74-3.67,2.92,2.92,0,0,1,2.35-4.77c1.66-.09,3.33-.05,5-.17,2.61-.19,5.22,0,7.83-.12a1.68,1.68,0,0,0,1.62-.92c1.23-2.44,3.32-1.69,4.55,0a18.62,18.62,0,0,1,2.5,5.34,65.32,65.32,0,0,1,1.74,7.15,2.44,2.44,0,0,1,0,.66.7.7,0,0,1-.55.61.59.59,0,0,1-.68-.32c-.19-.34-.36-.69-.52-1a10.91,10.91,0,0,0-4.26-5.26,7.59,7.59,0,0,0-3.74-1.12,20.85,20.85,0,0,0-4.67.15A2.81,2.81,0,0,0,88.08,31c-.22,1.25-.51,2.48-.77,3.72,0,.12,0,.23-.07.35-.21,2.37,1.24,3.44,3.61,2.67A6.86,6.86,0,0,0,93,36.36a2.6,2.6,0,0,1,2.44-.56A1.59,1.59,0,0,1,96.67,38a20.24,20.24,0,0,1-1.18,2.26c-.72,1.3-1.42,2.62-2.26,3.85a6.84,6.84,0,0,1-1.45,1.54A1.88,1.88,0,0,1,88.87,45c-.11-.22-.2-.45-.31-.66a1.47,1.47,0,0,0-2-.75A3.65,3.65,0,0,0,85,45a12.12,12.12,0,0,0-2.15,6.79,2.36,2.36,0,0,0,.89,1.84,8.15,8.15,0,0,0,5.15,1.77C90,55.5,91.13,55.43,92.25,55.43Z" transform="translate(-0.55)"/><path class="cls-1" d="M33.21,39.65a15.15,15.15,0,0,1-.42,5.17c-.43,1.37-.91,2.75-2.3,3.51a2.18,2.18,0,0,1-3.16-.81,12.88,12.88,0,0,1-1.43-3.11c-.85-2.54-3.2-2.36-4.7-1.45a8.57,8.57,0,0,0-3.51,4.81,27,27,0,0,0-1.6,9.46c0,2.26-.48,2.48-2.63,2.68a21.51,21.51,0,0,1-4.09,0A25.22,25.22,0,0,0,6,60a19.85,19.85,0,0,1-4.22.07,1.3,1.3,0,0,1-1.08-2,5.58,5.58,0,0,1,2.08-2.5,10,10,0,0,0,2.69-3.24,93.3,93.3,0,0,0,5.76-12.63,43.78,43.78,0,0,0,2-5.34,10.88,10.88,0,0,0,.2-3.64,2.64,2.64,0,0,0-1.67-2.16c-1.85-.81-1.82-1.37-.47-2.84a5.55,5.55,0,0,1,4.19-2,16.94,16.94,0,0,0,7.13-2.35c4.53-2.41,8.82-5.21,13.16-7.93A147.85,147.85,0,0,1,49.43,5.36,56.52,56.52,0,0,1,65,.33,27.23,27.23,0,0,1,80.16,2.39a62,62,0,0,1,17.9,11.46,12.17,12.17,0,0,1,2,2.1c.14.21.41.47.19.69s-.46-.07-.65-.2c-2.07-1.34-4.05-2.8-6.15-4.1A46.14,46.14,0,0,0,80.9,6.75,42.78,42.78,0,0,0,64.66,5.63,42.9,42.9,0,0,0,53.53,8.8a96.71,96.71,0,0,0-9.61,4.66,69.22,69.22,0,0,0-12.16,8.8c-2.77,2.47-5.67,4.79-8.3,7.41a6.17,6.17,0,0,0-.73,6.94,2.27,2.27,0,0,0,1.1,1,1.38,1.38,0,0,0,1.92-.89c.24-.84.42-1.7.61-2.55a7.41,7.41,0,0,1,1.22-2.8,3.08,3.08,0,0,1,2.64-1.26,2.31,2.31,0,0,1,2.12,1.43,5,5,0,0,1,.57,2C32.93,35.68,33.42,37.73,33.21,39.65Z" transform="translate(-0.55)"/></svg>